<?xml version="1.0" encoding="utf-8"?>
<!-- Generator: Adobe Illustrator 16.0.0, SVG Export Plug-In . SVG Version: 6.00 Build 0)  -->
<!DOCTYPE svg PUBLIC "-//W3C//DTD SVG 1.1//EN" "http://www.w3.org/Graphics/SVG/1.1/DTD/svg11.dtd">
<svg version="1.1" id="Layer_1" xmlns="http://www.w3.org/2000/svg" xmlns:xlink="http://www.w3.org/1999/xlink" x="0px" y="0px"
	 width="105.054px" height="22.664px" viewBox="30.614 0 105.054 22.664" enable-background="new 30.614 0 105.054 22.664"
	 xml:space="preserve">
<g>
	<path fill="#93AF80" d="M30.616,18.703c0.309-4.215,0.758-8.429,0.927-12.623c0.028-0.245,0.14-0.45,0.336-0.573
		c0.113-0.184,0.309-0.368,0.562-0.491c3.145-1.699,6.514,1.309,7.131,3.334c0.533,1.718-0.393,2.966-1.938,3.867
		c1.488,1.003,2.302,2.332,1.656,4.071c-0.842,2.23-3.818,3.846-6.991,3.642C31.43,19.869,30.56,19.399,30.616,18.703z
		 M35.866,15.594c0.394-1.207-0.87-1.719-2.162-2.148c-0.028,1.289,0,2.557,0.112,3.826C34.799,17.006,35.586,16.452,35.866,15.594z
		 M35.838,8.576c-0.449-0.921-1.123-1.104-1.938-1.289c0,1.167-0.056,2.333-0.084,3.499C35.277,10.376,36.428,9.865,35.838,8.576z"
		/>
	<path fill="#93AF80" d="M43.866,16.985c0.028-1.433,0.168-2.886,0.281-4.317c-0.618-0.45-0.955-1.187-0.393-1.719
		c0.168-0.164,0.365-0.307,0.533-0.45c0.084-1.104,0.253-2.271,0.758-3.314c-0.758-0.348-0.842-1.35,0.28-1.555
		c2.724-0.532,7.75-0.716,7.609,2.312c-0.084,1.167-1.151,2.046-2.387,2.721c-0.505,0.286-1.291,0.552-2.021,0.838
		c1.797,0.942,3.51,1.964,5.194,3.008c1.713,1.062-0.589,3.231-2.442,2.291c-1.039-0.553-2.05-1.166-3.032-1.779
		c-0.028,0.817-0.141,1.615-0.449,2.352C47.122,18.929,43.781,18.683,43.866,16.985z M49.509,7.39
		c-0.168-0.205-0.505-0.307-0.898-0.348l-0.168,1.555C49.003,8.351,49.93,7.901,49.509,7.39z"/>
	<path fill="#93AF80" d="M65.341,16.207c-0.729,0.021-1.459,0.041-2.133,0.164c-0.534,0.103-1.011,0-1.348-0.225
		c-0.281,0.593-0.562,1.145-0.927,1.656c-0.562,0.839-2.331,0.573-2.667-0.266c-0.758-2.025,1.095-4.234,1.516-6.22
		c0.365-1.739,0.393-3.642,1.825-5.135c0.758-0.777,2.274-0.839,3.004,0c1.684,1.861,2.583,4.01,3.229,6.158
		c0.59,1.902,1.853,4.378,1.404,6.321c-0.168,0.717-1.685,1.003-2.302,0.45C66.043,18.335,65.622,17.291,65.341,16.207z
		 M64.723,13.608c-0.028-0.04-0.028-0.081-0.028-0.102c-0.337-1.104-0.702-2.189-1.207-3.232c-0.084,0.654-0.141,1.309-0.281,1.923
		c-0.141,0.552-0.309,1.125-0.478,1.719C63.319,13.712,64.021,13.608,64.723,13.608z"/>
	<path fill="#93AF80" d="M73.171,15.676c-0.196-0.696,0.084-1.166,0.196-1.862c0.141-0.736,0.057-1.493,0.028-2.23
		c-0.112-1.555-0.28-3.069-0.056-4.644c0.14-0.859,0.842-0.777,2.273-0.225c1.601,0.614,3.566,2.823,3.902,3.376
		c0.169-1.33,0.281-2.66,0.562-3.99c0.309-1.494,3.621-1.105,3.594,0.368c-0.085,2.967-0.338,6.22-1.657,9.063
		c-0.478,1.023-2.639,1.433-3.369,0.327c-0.758-1.104-1.207-2.312-1.712-3.478c0.168,1.391,0.28,3.109-1.404,3.989
		C74.715,16.801,73.368,16.371,73.171,15.676z"/>
	<path fill="#93AF80" d="M87.656,16.943c-0.506-1.801,0.448-3.703,0.533-5.503c0.112-1.943-0.365-3.887-0.337-5.852
		c-0.618-0.552-0.618-1.555,0.393-1.882c3.847-1.187,6.738,1.882,8.002,4.153c1.74,3.109,0.927,6.26-1.825,8.899
		c-0.955,0.921-2.273,2.128-4.042,2.107C88.862,18.867,87.936,17.946,87.656,16.943z M91.726,14.713
		c1.601-1.779,2.078-3.743,0.927-5.728c-0.421-0.736-1.011-1.514-1.825-2.066c-0.112-0.082-0.225-0.143-0.365-0.205
		c0.281,1.862,0.927,3.683,0.871,5.584c-0.028,0.554-0.112,1.126-0.141,1.699c-0.027,0.307,0.028,0.757,0.028,1.145
		C91.417,15.001,91.614,14.837,91.726,14.713z"/>
	<path fill="#93AF80" d="M101.044,15.368c0.843-1.861,0.702-3.907,1.012-5.831c0.28-1.698,0.617-3.417,0.982-5.094
		c0.057-0.368,0.786-0.573,1.179-0.368c1.938,1.002,1.797,3.764,1.769,5.278c-0.027,2.169,0.646,4.849-0.533,6.895
		C104.358,18.15,100.119,17.436,101.044,15.368z"/>
	<path fill="#93AF80" d="M110.279,15.676c-0.195-0.696,0.085-1.166,0.197-1.862c0.141-0.736,0.057-1.493,0.028-2.23
		c-0.112-1.555-0.28-3.069-0.057-4.644c0.141-0.859,0.843-0.777,2.274-0.225c1.601,0.614,3.566,2.823,3.902,3.376
		c0.169-1.33,0.281-2.66,0.562-3.99c0.308-1.494,3.621-1.105,3.594,0.368c-0.084,2.967-0.338,6.22-1.657,9.063
		c-0.478,1.023-2.639,1.433-3.369,0.327c-0.758-1.104-1.207-2.312-1.713-3.478c0.169,1.391,0.281,3.109-1.403,3.989
		C111.824,16.801,110.476,16.371,110.279,15.676z"/>
	<path fill="#93AF80" d="M126.281,17.373c-1.797-1.759-1.825-4.07-1.657-6.158c0.225-3.007,1.966-10.639,8.114-7.038
		c1.039,0.614-0.365,1.903-1.432,1.351c-2.499-1.248-2.583,4.521-2.611,5.401c-0.028,1.003-0.057,2.599,0.141,3.294
		c0.057,0.225,0.141,0.43,0.252,0.635c0.085,0.144,0.197,0.285,0.281,0.43c0.056-0.103,0.168-0.205,0.337-0.328
		c0.197-1.247,0.646-2.516,1.601-3.56c1.066-1.187,3.678-0.757,3.706,0.716c0,1.657,0.449,3.191,0.646,4.828
		c0.196,1.412-2.695,1.944-3.649,0.798c-0.169,0.144-0.365,0.287-0.59,0.409C129.622,19.174,127.516,18.58,126.281,17.373z"/>
</g>
</svg>
