<?xml version="1.0" encoding="utf-8"?>
<!-- Generator: Adobe Illustrator 16.0.0, SVG Export Plug-In . SVG Version: 6.00 Build 0)  -->
<!DOCTYPE svg PUBLIC "-//W3C//DTD SVG 1.1//EN" "http://www.w3.org/Graphics/SVG/1.1/DTD/svg11.dtd">
<svg version="1.1" id="Layer_1" xmlns="http://www.w3.org/2000/svg" xmlns:xlink="http://www.w3.org/1999/xlink" x="0px" y="0px"
	 width="337.879px" height="246.727px" viewBox="0 0 337.879 246.727" enable-background="new 0 0 337.879 246.727"
	 xml:space="preserve">
<g>
	<g>
		<path fill="#3F4142" d="M27.074,199.936c0.148-4.582,1.394-9.3,1.751-13.942c0.218-2.938,0.293-5.843,0.301-8.658
			c-1.65,0.415-3.302,0.589-4.953,0.762c0.263,6.892,0.989,17.33-3.467,23.039c-2.742,3.632-6.7,2.743-6.974-1.765
			c-0.206-3.564,0.955-7.524,1.166-11.227c0.207-4.313,0.137-8.561,0.071-12.735c-0.066-9.608-0.758-20.944,1.667-30.171
			c0.9-3.502,4.846-3.474,5.807-0.109c2.131,7.966,1.764,17.188,1.678,25.842c1.653-0.459,3.305-0.906,4.821-1.728
			c-0.32-8.389-1.125-17.204,0.491-25.6c0.77-3.715,5.684-3.573,6.431-0.073c1.97,9.359,2.548,19.186,3.057,28.551
			c0.516,8.629,1.28,19.696-2.87,28.479C33.695,205.692,26.923,205.858,27.074,199.936z"/>
		<path fill="#3F4142" d="M42.051,193.915c0.041-8.269,2.491-16.567,3.018-24.652c0.451-7.258-0.204-14.436,2.669-21.26
			c0.632-1.51,2.154-1.91,3.398-1.566c4.023-2.146,8.8-2.376,13.084-1.666c2.004,0.327,3.093,2.529,2.805,4.34
			c-0.292,2.02-1.961,3.199-3.831,3.493c-3.322,0.497-6.565-0.22-9.883-0.075c-0.104,5.926,0.341,11.724-0.04,17.674
			c-0.004,0.219-0.004,0.364-0.076,0.666c0.83-0.387,1.729-0.706,2.557-0.724c2.969-0.305,4.74,3.466,2.445,5.973
			c-1.6,1.78-3.811,2.604-6.086,3.083c-0.292,2.463-0.719,5.027-0.873,7.481c2.07-0.731,4.002-1.569,6.214-2.354
			c4.838-1.641,8.582,4.847,3.458,8.17c-4.779,3.153-10.294,5.627-15.515,5.607C43.472,198.093,42.041,195.982,42.051,193.915z"/>
		<path fill="#3F4142" d="M68.417,184.785c-2.686-10.37,1.48-22.886,2.462-33.384c0.304-3.656,5.565-3.817,5.742-0.198
			c0.424,7.642,0.227,15.375,0.717,23.038c0.126,1.594,0.937,3.633,0.649,5.275c0.204,0.304,0.271,0.498,0.336,0.692
			c2.559,0.069,5.333-0.737,8.03-0.723c4.702,0.188,4.437,7.295-0.072,8.796C79.274,190.554,70.56,193.09,68.417,184.785z"/>
		<path fill="#3F4142" d="M92.08,181.584c-2.688-9.669,1.488-21.179,2.467-30.938c0.304-3.393,5.565-3.523,5.748-0.151
			c0.428,7.124,0.231,14.334,0.729,21.479c0.127,1.493,0.942,3.419,0.65,4.935c0.207,0.292,0.274,0.473,0.345,0.655
			c2.561,0.128,5.339-0.555,8.042-0.477c4.715,0.29,4.459,6.979-0.061,8.247C102.976,187.253,94.231,189.332,92.08,181.584z"/>
		<path fill="#3F4142" d="M131.046,149.117c1.322-1.016,3.609-1.148,4.987-0.007c5.589,4.586,3.539,14.808,2.116,21.033
			c-1.347,5.949-5.573,14.892-14.736,13.354C107.876,180.837,115.698,147.448,131.046,149.117z M130.131,163.63
			c0.154-2.591,0.17-5.525,0.049-8.277c-2.919,1.349-4.284,8.97-4.572,10.879c-0.364,2.321-0.657,5.183-0.045,7.456
			c0.132,0.64,0.334,1.457,0.817,1.959C129.52,173.447,129.838,166.462,130.131,163.63z"/>
		<path fill="#3F4142" d="M173.104,165.674c-2.432,2.204-5.976,2.334-6.811-0.495c-0.275-0.966-0.55-1.928-0.76-2.89
			c-0.278,0.911-0.488,1.819-0.767,2.731c-1.114,3.576-1.399,7.726-2.03,11.88c-0.35,2.202-6.274,4.893-6.817-0.784
			c-0.409-3.979-0.813-7.681,0.031-12.139c1.123-5.707,0.584-11.404,3.642-16.644c1.252-2.11,5.613-2.684,7.343-0.814
			c2.286,2.38,3.739,4.759,4.847,7.365c1.526-1.812,3.123-3.57,5.612-4.926c1.801-1.077,4.782-0.331,5.753,1.267
			c2.223,3.415,2.303,6.948,2.447,10.705c0.29,5.232,1.131,10.425,2.259,15.512c1.268,5.377-7.575,7.108-9.878,2.117
			c-2.091-4.552-2.231-9.536-2.441-14.301c-0.07-0.562-0.07-1.077-0.002-1.644C174.839,163.75,174.075,164.823,173.104,165.674"/>
		<path fill="#3F4142" d="M190.786,180.567c-0.016-6.158,2.4-12.035,2.863-18.153c0.397-5.49-0.309-10.919,2.514-16.058
			c0.619-1.143,2.141-1.427,3.388-1.132c4.01-1.592,8.783-1.76,13.079-1.094c2.009,0.298,3.129,2.193,2.861,3.722
			c-0.27,1.707-1.926,2.622-3.794,2.761c-3.323,0.245-6.585-0.498-9.909-0.532c-0.05,4.673,0.454,9.297,0.131,13.96
			c0,0.173,0,0.291-0.07,0.518c0.835-0.206,1.733-0.356,2.569-0.273c2.983,0.091,4.807,3.421,2.524,5.132
			c-1.59,1.213-3.815,1.524-6.105,1.565c-0.27,1.896-0.679,3.832-0.811,5.73c2.084-0.204,4.031-0.527,6.252-0.768
			c4.861-0.543,8.718,5.693,3.585,7.35c-4.79,1.563-10.357,2.222-15.653,1.104C192.259,183.98,190.791,182.107,190.786,180.567z"/>
		<path fill="#3F4142" d="M217.341,178.382c-2.834-9.294,1.203-19.263,2.042-28.407c0.258-3.134,5.519-3.144,5.748,0.105
			c0.532,6.843,0.442,13.731,1.045,20.667c0.147,1.448,0.995,3.428,0.727,4.852c0.21,0.314,0.28,0.501,0.352,0.688
			c2.573,0.553,5.347,0.349,8.054,0.889c4.723,1.08,4.57,7.973,0.062,8.271C228.368,185.917,219.611,185.884,217.341,178.382z"/>
		<path fill="#3F4142" d="M241.087,180.365c-2.848-9.853,1.158-20.23,1.98-29.891c0.252-3.304,5.512-3.297,5.744,0.148
			c0.544,7.261,0.467,14.557,1.08,21.915c0.149,1.539,0.999,3.663,0.733,5.165c0.21,0.339,0.281,0.54,0.353,0.736
			c2.569,0.664,5.332,0.527,8.036,1.17c4.714,1.272,4.566,8.661,0.074,8.827C252.104,188.715,243.37,188.332,241.087,180.365z"/>
		<path fill="#3F4142" d="M279.531,150.719c1.305-1.147,3.588-1.229,4.979,0.248c5.641,5.941,3.715,18.812,2.388,26.184
			c-1.264,7.252-5.323,17.03-14.464,12.705C256.909,182.887,264.159,149.067,279.531,150.719z M278.828,167.937
			c0.116-3.058,0.091-6.555-0.073-9.844c-2.895,1.377-4.142,10.082-4.399,12.241c-0.325,2.648-0.578,5.901,0.067,8.664
			c0.143,0.775,0.358,1.768,0.847,2.453C278.36,179.559,278.577,171.264,278.828,167.937z"/>
		<path fill="#3F4142" d="M296.157,192.881c-2.1-5.994-2.686-11.959-3.549-17.881c-0.725-5.463-2.273-10.869-2.863-16.276
			c-0.363-3.058,3.635-4.034,5.443-2.078c4.174,4.481,6.206,11.22,7.617,18.212c0.749-1.585,1.639-3.002,3.079-4.067
			c2.405-1.884,5.786-0.82,6.829,2.916c0.141,0.495,0.28,0.991,0.419,1.489c0.611-1.907,1.159-3.839,1.772-5.611
			c2.181-6.468,5.068-12.46,6.092-19.771c0.955-6.546,9.949-4.843,9.6,1.915c-0.415,9.292-4.341,16.602-6.802,24.451
			c-1.985,6.366-3.827,12.956-7.999,17.121c-2.116,2.108-6.372,0.645-7.832-2.835c-0.07-0.243-0.139-0.415-0.279-0.677
			c-0.334,2.428-0.871,4.569-1.961,6.486C303.342,200.514,297.696,197.467,296.157,192.881z"/>
	</g>
	<path fill="#94A988" d="M153.838,109.851c3.331,1.998,5.655,3.441,5.867,4.138c0.646,2.152-0.97,2.729-8.529-1.64
		c-7.552-4.376-18.833-9.034-26.672-8.792c-7.836,0.243-12.793,1.773-14.633-0.114c0,0,20.084,24.544,47.464,16.337
		c9.828-2.948,2.726-0.043,1.44,0.646c-1.287,0.695-4.806,2.879-6.769,5.652c-1.948,2.785-3.296,4.658-3.296,4.658
		s7.659-1.31,10.977-4.949c3.304-3.637,5.341-6.568,5.341-6.568s5.281,5.109,8.375,6.569c3.1,1.466,5.379,5.331,6.908,6.847
		c1.523,1.501,1.059-5.472-3.219-8.979c-4.287-3.501-6.921-4.938-6.08-5.802c0,0,20.605,6.163,30.134,3.77
		c9.539-2.398,28.467-9.815,32.496-8.684c0,0-29.961-10.325-61.687,2.482c0,0-1.963-0.478-0.02-1.781
		c1.943-1.301,29.121-12.688,41-23.162c11.855-10.459,30.545-47.496,30.545-47.496s-4.176,4.646-10.574,7.849
		c-6.387,3.181-32.578,20.831-37.301,25.865c-4.725,5.018-23.962,34.233-25.243,34.279c-1.272,0.042-1.556-1.246-0.104-4.189
		c1.458-2.943,16.667-27.823,12.332-51.821c-4.32-23.986-21.919-43.688-23.353-42.667c-1.433,1.009,2.887,2.955,1.951,10.026
		c-0.93,7.088-5.362,28.258-4.464,37.206c0.909,8.962,6.151,37.686,7.895,42.303c1.739,4.622,1.553,8.8,0.436,9.544
		c-1.118,0.753-9.814-25.382-18.888-33.484C131.284,64.63,109.91,64.083,108.06,61.175c0,0,15.08,22.011,21.836,30.67
		C135.556,99.1,146.888,105.682,153.838,109.851"/>
	<g>
		<path fill="#3F4142" d="M69.472,216.357v-0.065c0-6.538,5.265-11.892,12.756-11.892c4.56,0,7.317,1.479,9.683,3.581l-2.791,2.987
			c-1.979-1.708-4.1-2.856-6.927-2.856c-4.7,0-8.164,3.611-8.164,8.114v0.065c0,4.499,3.429,8.146,8.164,8.146
			c3.04,0,4.983-1.117,7.103-2.956l2.793,2.627c-2.582,2.497-5.408,4.073-10.037,4.073
			C74.843,228.181,69.472,222.958,69.472,216.357z"/>
		<path fill="#3F4142" d="M107.17,204.628h4.028l10.884,23.159h-4.593l-2.508-5.552h-11.699l-2.544,5.552h-4.453L107.17,204.628z
			 M113.39,218.657l-4.275-9.198l-4.241,9.198H113.39z"/>
		<path fill="#3F4142" d="M128.082,204.792h4.029l13.253,15.899v-15.899h4.276v22.995H146l-13.641-16.358v16.358h-4.277V204.792z"/>
		<path fill="#3F4142" d="M157.759,204.792h4.029l13.251,15.899v-15.899h4.277v22.995h-3.642l-13.64-16.358v16.358h-4.276V204.792z"
			/>
		<path fill="#3F4142" d="M196.199,204.628h4.028l10.886,23.159h-4.595l-2.51-5.552h-11.696l-2.545,5.552h-4.452L196.199,204.628z
			 M202.419,218.657l-4.277-9.198l-4.24,9.198H202.419z"/>
		<path fill="#3F4142" d="M217.11,204.792h11.096c2.827,0,5.055,0.725,6.469,2.037c1.094,1.019,1.66,2.267,1.66,3.811v0.066
			c0,2.76-1.697,4.238-3.534,5.124c2.898,0.919,4.913,2.464,4.913,5.584v0.066c0,4.105-3.642,6.307-9.153,6.307h-11.45V204.792z
			 M231.988,211.297c0-1.805-1.555-2.922-4.347-2.922h-6.255v6.108h5.938c2.791,0,4.664-1.018,4.664-3.121V211.297z
			 M228.277,217.901h-6.891v6.308h7.21c2.969,0,4.77-1.087,4.77-3.154v-0.065C233.366,219.049,231.707,217.901,228.277,217.901z"/>
		<path fill="#3F4142" d="M244.632,204.792h4.347v22.995h-4.347V204.792z"/>
		<path fill="#3F4142" d="M255.688,224.437l2.615-2.891c2.369,1.906,4.771,2.99,7.811,2.99c2.686,0,4.382-1.182,4.382-2.892v-0.065
			c0-1.643-0.988-2.53-5.583-3.515c-5.266-1.183-8.234-2.628-8.234-6.866v-0.065c0-3.942,3.534-6.669,8.447-6.669
			c3.604,0,6.465,1.019,8.976,2.891l-2.332,3.056c-2.228-1.543-4.453-2.364-6.716-2.364c-2.543,0-4.028,1.214-4.028,2.726v0.067
			c0,1.771,1.131,2.561,5.901,3.612c5.23,1.185,7.916,2.924,7.916,6.733v0.066c0,4.303-3.64,6.864-8.835,6.864
			C262.228,228.116,258.657,226.902,255.688,224.437z"/>
	</g>
</g>
</svg>
