<?xml version="1.0" encoding="utf-8"?>
<!-- Generator: Adobe Illustrator 16.0.0, SVG Export Plug-In . SVG Version: 6.00 Build 0)  -->
<!DOCTYPE svg PUBLIC "-//W3C//DTD SVG 1.1//EN" "http://www.w3.org/Graphics/SVG/1.1/DTD/svg11.dtd">
<svg version="1.1" id="Layer_1" xmlns="http://www.w3.org/2000/svg" xmlns:xlink="http://www.w3.org/1999/xlink" x="0px" y="0px"
	 width="1700px" height="1214px" viewBox="-430.057 -320.334 1700 1214" enable-background="new -430.057 -320.334 1700 1214"
	 xml:space="preserve">
<g>
	<polyline fill="#E8E8E8" points="991.09,-320.334 1269.943,-320.334 1269.943,893.666 -432.885,893.666 -432.885,-320.334 
		991.09,-320.334 	"/>
</g>
<g>
	<path fill="#646464" d="M-53.716,458.629c0.475-13.69,4.451-27.785,5.592-41.656c0.696-8.777,0.935-17.458,0.96-25.869
		c-5.27,1.24-10.542,1.761-15.816,2.276c0.839,20.592,3.158,51.778-11.07,68.836c-8.755,10.851-21.391,8.195-22.266-5.274
		c-0.659-10.65,3.049-22.479,3.722-33.542c0.661-12.889,0.439-25.576,0.228-38.049c-0.213-28.71-2.421-62.578,5.319-90.144
		c2.875-10.466,15.473-10.381,18.543-0.327c6.804,23.801,5.631,51.35,5.355,77.208c5.279-1.371,10.555-2.708,15.395-5.163
		c-1.022-25.061-3.593-51.4,1.566-76.484c2.458-11.102,18.148-10.678,20.533-0.219c6.288,27.966,8.135,57.322,9.76,85.304
		c1.647,25.78,4.086,58.848-9.164,85.092C-32.576,475.826-54.2,476.323-53.716,458.629z"/>
	<path fill="#646464" d="M-5.896,440.639c0.131-24.706,7.951-49.501,9.633-73.656c1.442-21.685-0.65-43.131,8.522-63.519
		c2.018-4.512,6.88-5.71,10.852-4.681c12.846-6.412,28.098-7.098,41.776-4.979c6.399,0.979,9.876,7.556,8.956,12.966
		c-0.932,6.034-6.261,9.56-12.232,10.438c-10.606,1.483-20.961-0.654-31.555-0.223c-0.332,17.704,1.089,35.024-0.126,52.803
		c-0.013,0.654-0.013,1.09-0.241,1.992c2.648-1.156,5.521-2.112,8.165-2.162c9.478-0.913,15.132,10.354,7.806,17.844
		c-5.108,5.317-12.167,7.779-19.434,9.213c-0.933,7.355-2.297,15.02-2.786,22.352c6.61-2.185,12.778-4.689,19.843-7.035
		c15.446-4.901,27.401,14.479,11.042,24.409c-15.258,9.421-32.871,16.814-49.541,16.753C-1.359,453.124-5.928,446.816-5.896,440.639
		z"/>
	<path fill="#646464" d="M78.287,413.359c-8.575-30.982,4.728-68.377,7.862-99.741c0.971-10.924,17.769-11.405,18.336-0.594
		c1.354,22.834,0.722,45.938,2.29,68.832c0.402,4.763,2.991,10.854,2.071,15.764c0.651,0.905,0.866,1.487,1.074,2.068
		c8.17,0.208,17.025-2.204,25.64-2.157c15.014,0.562,14.167,21.793-0.229,26.278C112.956,430.598,85.13,438.177,78.287,413.359z"/>
	<path fill="#646464" d="M153.843,403.799c-8.585-28.891,4.75-63.279,7.877-92.436c0.972-10.134,17.769-10.526,18.352-0.451
		c1.366,21.285,0.737,42.827,2.326,64.174c0.406,4.462,3.011,10.215,2.078,14.742c0.663,0.874,0.875,1.414,1.103,1.957
		c8.177,0.382,17.049-1.657,25.68-1.422c15.054,0.867,14.237,20.854-0.197,24.641C188.634,420.738,160.713,426.945,153.843,403.799z
		"/>
	<path fill="#646464" d="M278.26,306.793c4.223-3.036,11.524-3.433,15.925-0.022c17.844,13.701,11.297,44.241,6.754,62.844
		c-4.304,17.774-17.793,44.492-47.054,39.899C204.281,401.569,229.256,301.804,278.26,306.793z M275.339,350.157
		c0.49-7.741,0.543-16.511,0.154-24.733c-9.321,4.03-13.681,26.803-14.6,32.505c-1.16,6.936-2.1,15.485-0.143,22.279
		c0.424,1.911,1.067,4.354,2.609,5.853C273.386,379.487,274.403,358.619,275.339,350.157z"/>
	<path fill="#646464" d="M412.546,356.264c-7.762,6.585-19.082,6.974-21.745-1.479c-0.88-2.887-1.757-5.761-2.426-8.635
		c-0.89,2.724-1.559,5.437-2.449,8.16c-3.556,10.685-4.469,23.084-6.482,35.495c-1.118,6.581-20.034,14.618-21.765-2.343
		c-1.306-11.887-2.597-22.949,0.099-36.27c3.585-17.05,1.863-34.072,11.626-49.724c4-6.308,17.923-8.019,23.446-2.436
		c7.298,7.113,11.937,14.218,15.478,22.005c4.87-5.409,9.972-10.665,17.919-14.715c5.747-3.221,15.27-0.99,18.367,3.784
		c7.098,10.203,7.354,20.76,7.816,31.984c0.925,15.632,3.61,31.145,7.209,46.345c4.05,16.063-24.186,21.238-31.538,6.327
		c-6.675-13.602-7.126-28.494-7.794-42.731c-0.227-1.676-0.227-3.217-0.008-4.908C418.085,350.515,415.646,353.717,412.546,356.264"
		/>
	<path fill="#646464" d="M469.004,400.759c-0.05-18.398,7.667-35.961,9.144-54.24c1.271-16.402-0.986-32.62,8.025-47.975
		c1.977-3.414,6.838-4.262,10.816-3.383c12.804-4.755,28.046-5.256,41.764-3.268c6.411,0.89,9.989,6.554,9.136,11.12
		c-0.861,5.102-6.15,7.833-12.114,8.249c-10.611,0.732-21.026-1.487-31.638-1.591c-0.162,13.96,1.448,27.776,0.416,41.71
		c0,0.516,0,0.87-0.224,1.545c2.662-0.616,5.533-1.063,8.203-0.817c9.526,0.274,15.347,10.223,8.057,15.336
		c-5.074,3.622-12.18,4.554-19.492,4.674c-0.863,5.664-2.166,11.451-2.586,17.123c6.654-0.608,12.869-1.576,19.963-2.293
		c15.517-1.622,27.835,17.008,11.443,21.959c-15.295,4.67-33.068,6.639-49.982,3.299
		C473.708,410.955,469.023,405.36,469.004,400.759z"/>
	<path fill="#646464" d="M553.792,394.232c-9.047-27.769,3.844-57.554,6.523-84.876c0.822-9.362,17.62-9.39,18.353,0.316
		c1.697,20.444,1.41,41.027,3.337,61.75c0.468,4.327,3.175,10.241,2.319,14.495c0.67,0.937,0.897,1.495,1.121,2.054
		c8.219,1.649,17.073,1.04,25.716,2.654c15.077,3.226,14.594,23.82,0.2,24.714C589.001,416.742,561.043,416.646,553.792,394.232z"/>
	<path fill="#646464" d="M629.617,400.155c-9.095-29.438,3.695-60.444,6.321-89.308c0.804-9.871,17.599-9.849,18.339,0.443
		c1.737,21.693,1.491,43.494,3.448,65.479c0.478,4.597,3.19,10.942,2.343,15.432c0.675,1.014,0.897,1.614,1.127,2.2
		c8.201,1.984,17.025,1.576,25.656,3.495c15.05,3.803,14.582,25.877,0.238,26.374C664.793,425.103,636.905,423.959,629.617,400.155z
		"/>
	<path fill="#646464" d="M752.363,311.58c4.168-3.43,11.458-3.672,15.9,0.743c18.014,17.752,11.861,56.206,7.625,78.229
		c-4.036,21.666-17,50.885-46.183,37.961C680.131,407.691,703.285,306.644,752.363,311.58z M750.119,363.022
		c0.37-9.136,0.289-19.581-0.234-29.41c-9.24,4.115-13.223,30.123-14.045,36.573c-1.038,7.914-1.846,17.632,0.216,25.889
		c0.454,2.316,1.143,5.279,2.703,7.329C748.624,397.747,749.318,372.963,750.119,363.022z"/>
	<path fill="#646464" d="M805.454,437.553c-6.709-17.909-8.577-35.734-11.332-53.428c-2.316-16.321-7.264-32.474-9.144-48.63
		c-1.164-9.136,11.605-12.053,17.381-6.207c13.324,13.39,19.812,33.521,24.319,54.413c2.391-4.735,5.232-8.97,9.831-12.152
		c7.68-5.63,18.476-2.451,21.807,8.712c0.445,1.479,0.894,2.963,1.335,4.45c1.954-5.699,3.699-11.471,5.66-16.765
		c6.963-19.323,16.182-37.229,19.448-59.072c3.05-19.559,31.771-14.473,30.654,5.718c-1.326,27.766-13.86,49.605-21.721,73.055
		c-6.338,19.023-12.216,38.713-25.538,51.158c-6.757,6.296-20.345,1.923-25.007-8.473c-0.224-0.725-0.443-1.241-0.89-2.023
		c-1.067,7.256-2.784,13.655-6.262,19.381C828.389,460.355,810.366,451.254,805.454,437.553z"/>
</g>
<path fill="#94A988" d="M354.792,189.475c9.953,5.97,16.898,10.282,17.53,12.363c1.93,6.431-2.897,8.155-25.484-4.899
	c-22.562-13.073-56.267-26.991-79.69-26.269c-23.412,0.727-38.223,5.3-43.717-0.341c0,0,60.004,73.332,141.81,48.811
	c29.364-8.808,8.146-0.129,4.304,1.93c-3.845,2.079-14.356,8.603-20.221,16.889c-5.822,8.322-9.848,13.917-9.848,13.917
	s22.883-3.911,32.795-14.786c9.87-10.866,15.958-19.626,15.958-19.626s15.779,15.266,25.019,19.628
	c9.265,4.381,16.071,15.929,20.645,20.458c4.55,4.483,3.161-16.349-9.621-26.829c-12.806-10.459-20.678-14.751-18.164-17.335
	c0,0,61.563,18.414,90.037,11.263c28.5-7.165,85.052-29.326,97.091-25.945c0,0-89.518-30.848-184.307,7.417
	c0,0-5.865-1.426-0.06-5.321c5.807-3.888,87.009-37.911,122.496-69.204c35.426-31.249,91.265-141.908,91.265-141.908
	s-12.477,13.883-31.594,23.45c-19.082,9.504-97.339,62.239-111.449,77.28c-14.115,14.991-71.592,102.283-75.417,102.419
	c-3.803,0.125-4.649-3.724-0.312-12.517c4.354-8.795,49.796-83.131,36.844-154.831c-12.908-71.666-65.492-130.532-69.776-127.48
	c-4.279,3.015,8.627,8.829,5.83,29.956c-2.776,21.177-16.021,84.43-13.336,111.164c2.717,26.777,18.379,112.598,23.587,126.392
	c5.196,13.81,4.639,26.292,1.3,28.515c-3.34,2.25-29.322-75.835-56.433-100.044c-44.468-39.625-108.33-41.263-113.855-49.948
	c0,0,45.056,65.763,65.241,91.635C300.169,157.353,334.026,177.02,354.792,189.475"/>
<g>
	<path fill="#94A988" d="M251.924,472.069v-0.101c0-10.033,8.08-18.252,19.578-18.252c6.997,0,11.228,2.27,14.861,5.499
		l-4.285,4.585c-3.036-2.624-6.292-4.385-10.631-4.385c-7.213,0-12.53,5.541-12.53,12.453v0.1c0,6.905,5.264,12.504,12.53,12.504
		c4.666,0,7.648-1.715,10.902-4.539l4.287,4.03c-3.961,3.834-8.299,6.254-15.405,6.254
		C260.166,490.217,251.924,482.203,251.924,472.069z"/>
	<path fill="#94A988" d="M309.782,454.067h6.185l16.703,35.545h-7.051l-3.849-8.519h-17.956l-3.903,8.519h-6.835L309.782,454.067z
		 M319.329,475.598l-6.56-14.117l-6.512,14.117H319.329z"/>
	<path fill="#94A988" d="M341.879,454.322h6.184l20.341,24.401v-24.401h6.562v35.29h-5.587l-20.934-25.106v25.106h-6.565V454.322z"
		/>
	<path fill="#94A988" d="M387.426,454.322h6.184l20.337,24.401v-24.401h6.566v35.29h-5.591l-20.934-25.106v25.106h-6.562V454.322z"
		/>
	<path fill="#94A988" d="M446.425,454.067h6.182l16.707,35.545h-7.051l-3.852-8.519H440.46l-3.907,8.519h-6.835L446.425,454.067z
		 M455.969,475.598l-6.562-14.117l-6.51,14.117H455.969z"/>
	<path fill="#94A988" d="M478.517,454.322h17.031c4.339,0,7.76,1.109,9.93,3.125c1.68,1.564,2.547,3.479,2.547,5.849v0.101
		c0,4.238-2.605,6.508-5.426,7.867c4.45,1.41,7.541,3.78,7.541,8.569v0.101c0,6.304-5.587,9.679-14.049,9.679h-17.574V454.322z
		 M501.355,464.305c0-2.771-2.387-4.485-6.674-4.485h-9.598v9.375h9.112c4.282,0,7.159-1.561,7.159-4.79V464.305z M495.656,474.439
		h-10.572v9.683h11.065c4.555,0,7.319-1.669,7.319-4.844v-0.1C503.468,476.204,500.921,474.439,495.656,474.439z"/>
	<path fill="#94A988" d="M520.759,454.322h6.67v35.29h-6.67V454.322z"/>
	<path fill="#94A988" d="M537.728,484.472l4.015-4.438c3.638,2.924,7.323,4.589,11.987,4.589c4.123,0,6.724-1.812,6.724-4.436v-0.1
		c0-2.524-1.515-3.884-8.567-5.395c-8.082-1.818-12.636-4.034-12.636-10.542v-0.101c0-6.049,5.421-10.233,12.962-10.233
		c5.532,0,9.925,1.564,13.776,4.435l-3.577,4.693c-3.422-2.37-6.836-3.63-10.308-3.63c-3.907,0-6.185,1.861-6.185,4.181v0.104
		c0,2.72,1.734,3.93,9.059,5.544c8.026,1.819,12.147,4.489,12.147,10.334v0.104c0,6.604-5.585,10.534-13.558,10.534
		C547.765,490.117,542.287,488.255,537.728,484.472z"/>
</g>
</svg>
