<?xml version="1.0" encoding="utf-8"?>
<!-- Generator: Adobe Illustrator 16.0.0, SVG Export Plug-In . SVG Version: 6.00 Build 0)  -->
<!DOCTYPE svg PUBLIC "-//W3C//DTD SVG 1.1//EN" "http://www.w3.org/Graphics/SVG/1.1/DTD/svg11.dtd">
<svg version="1.1" id="Layer_1" xmlns="http://www.w3.org/2000/svg" xmlns:xlink="http://www.w3.org/1999/xlink" x="0px" y="0px"
	 width="210.28px" height="20.18px" viewBox="0 -13.246 210.28 20.18" enable-background="new 0 -13.246 210.28 20.18"
	 xml:space="preserve">
<g>
	<path fill="#AC86B2" d="M14.185-58.874c1.038-2.162,0.865-4.541,1.245-6.775c0.346-1.973,0.761-3.97,1.211-5.919
		c0.069-0.428,0.968-0.666,1.453-0.428c2.387,1.165,2.214,4.374,2.179,6.133c-0.035,2.52,0.796,5.634-0.657,8.012
		C18.267-55.641,13.043-56.473,14.185-58.874z"/>
	<path fill="#AC86B2" d="M22.729-63.153c0.415-1.975,0.657-4.065,1.418-5.991c0.069-0.119,0.138-0.238,0.242-0.333
		c-0.484-0.024-0.968-0.071-1.487-0.095c-1.833-0.095-1.799-1.831,0-1.95c1.557-0.095,3.113-0.095,4.67-0.119
		c1.557-0.024,2.768-0.214,3.736,0.761c0.312,0.285,0.277,0.761,0,1.046c-0.035,0.048-0.104,0.095-0.138,0.167
		c-0.38,0.356-0.969,0.689-1.695,0.642c-0.796-0.024-1.557-0.095-2.353-0.167c0,0.023,0.035,0.023,0.035,0.047
		c0.657,1.878,0.277,3.852,0.138,5.729c-0.104,1.807,0.415,3.803-0.692,5.444c-0.657,1.022-2.836,0.856-3.562,0
		C21.692-59.516,22.417-61.442,22.729-63.153z"/>
	<path fill="#AC86B2" d="M34.041-72.282l-0.623-0.095c-1.176-0.19-1.107-1.45,0-1.617c1.522-0.19,2.767,0.808,2.249,1.807
		c-0.38,0.688-1.799,1.521-2.318,1.188C32.726-71.379,34.041-72.282,34.041-72.282z"/>
	<path fill="#AC86B2" d="M37.154-59.444c0.104-1.022,1.764-1.902,3.182-1.236c0.45,0.214,0.899,0.595,1.384,0.761
		c0.83,0.285,0.692,0.499,1.003-0.119c0.38-0.831-1.072-2.329-1.661-3.043c-1.28-1.616-2.906-3.233-2.906-5.159
		c0-2.068,3.217-5.8,6.399-3.304c0.691,0.57,0.242,1.498-0.898,1.498c-2.94,0.024,0.898,4.683,1.383,5.373
		c1.176,1.617,2.629,3.661,2.109,5.539C46.113-55.45,36.808-55.45,37.154-59.444z"/>
	<path fill="#AC86B2" d="M65.451-63.819c-0.035-0.238-0.035-0.452,0-0.689c-0.348,0.476-0.729,0.927-1.211,1.284
		c-1.211,0.928-2.977,0.975-3.392-0.214c-0.14-0.404-0.274-0.808-0.381-1.212c-0.14,0.38-0.242,0.761-0.38,1.141
		c-0.555,1.498-0.692,3.232-1.006,4.969c-0.172,0.928-3.11,1.997-3.389-0.381c-0.207-1.664-0.416-3.209,0-5.063
		c0.553-2.377,0.276-4.754,1.799-6.941c0.623-0.88,2.803-1.118,3.666-0.333c1.144,0.999,1.869,1.997,2.422,3.09
		c0.763-0.761,1.558-1.498,2.803-2.068c0.898-0.452,2.388-0.143,2.872,0.523c1.104,1.426,1.141,2.9,1.21,4.469
		c0.139,2.188,0.554,4.351,1.105,6.465c0.623,2.234-3.771,3.043-4.912,0.951C65.623-59.729,65.554-61.821,65.451-63.819z"/>
	<path fill="#AC86B2" d="M73.027-57.091c0-2.566,1.209-5.04,1.451-7.584c0.208-2.282-0.138-4.541,1.28-6.68
		c0.312-0.475,1.071-0.594,1.694-0.475c2.006-0.666,4.394-0.737,6.537-0.476c1.004,0.119,1.558,0.879,1.42,1.498
		c-0.141,0.689-0.969,1.07-1.903,1.141c-1.66,0.119-3.286-0.167-4.946-0.167c-0.033,1.926,0.208,3.828,0.035,5.753
		c0,0.071,0,0.119-0.035,0.214c0.415-0.095,0.865-0.167,1.28-0.143c1.487,0,2.387,1.331,1.245,2.067
		c-0.797,0.521-1.902,0.688-3.045,0.735c-0.139,0.785-0.346,1.595-0.414,2.38c1.037-0.119,2.006-0.285,3.113-0.43
		c2.42-0.311,4.321,2.115,1.764,2.924c-2.387,0.762-5.154,1.165-7.783,0.784C73.753-55.688,73.027-56.448,73.027-57.091z"/>
	<path fill="#AC86B2" d="M87.589-55.665c-0.484-0.143-0.97-0.354-1.211-0.713c-0.173-0.214-0.242-0.451-0.242-0.713
		c0-0.311,0.208-0.618,0.483-0.855c0.174-0.144,0.381-0.262,0.623-0.355c0.174-0.021,0.312-0.071,0.483-0.118
		c0.14,0,0.207-0.022,0.347-0.022c0.174-0.047,0.381-0.023,0.555,0.022c0.275,0.022,0.519,0.097,0.796,0.214
		c0.415,0.118,0.83,0.549,0.897,0.855c0.104,0.262,0.104,0.476-0.033,0.761c-0.104,0.285-0.416,0.522-0.762,0.713
		c-0.207,0.097-0.449,0.188-0.728,0.238c-0.175,0.022-0.347,0.022-0.521,0.022C88.074-55.593,87.762-55.616,87.589-55.665z
		 M86.689-61.085c0.865-2.354,1.038-4.683,0.865-7.108c-0.104-1.569-1.177-4.731,0.898-5.777c0.52-0.262,1.143-0.309,1.558,0.023
		c1.106,0.809,0.795,1.664,0.728,2.71c-0.035,1.331,0.104,2.639,0.172,3.994c0.14,2.377,0,4.778-1.592,7.013
		C88.558-59.159,86.31-60.039,86.689-61.085z"/>
</g>
<g>
	<path fill="#94A988" d="M2.519-0.71C1.996-3.188,2.718-5.707,4.81-7.555c1.668-1.47,4.856-3.107,6.574-0.84
		c0.747,0.987-0.847,1.785-1.793,1.155C8.844-7.765,6.478-4.993,6.279-4.573C5.756-3.544,5.731-2.411,6.03-1.319
		c0.199,0.798,0.548,2.058,1.345,2.646c0.05,0.042,0.075,0.063,0.125,0.084C7.997,1.222,8.57,0.34,8.968,0.025
		c0.822-0.672,2.665-0.252,2.49,0.861c-0.324,2.121-2.54,4.556-5.354,3.464C3.938,3.51,2.917,1.117,2.519-0.71z"/>
	<path fill="#94A988" d="M15.613,2.271c0.025-1.47,0.149-2.96,0.249-4.43c-0.548-0.462-0.847-1.218-0.349-1.764
		c0.149-0.168,0.324-0.315,0.473-0.462c0.075-1.134,0.224-2.331,0.672-3.401c-0.672-0.357-0.747-1.386,0.249-1.596
		c2.416-0.546,6.873-0.735,6.749,2.373c-0.075,1.197-1.021,2.1-2.117,2.792c-0.448,0.294-1.146,0.567-1.793,0.861
		c1.594,0.966,3.113,2.016,4.607,3.086c1.519,1.092-0.523,3.317-2.167,2.352c-0.921-0.567-1.818-1.197-2.689-1.827
		c-0.025,0.84-0.125,1.659-0.398,2.415C18.502,4.266,15.539,4.014,15.613,2.271z M20.619-7.576c-0.149-0.21-0.448-0.315-0.797-0.357
		l-0.149,1.596C20.17-6.589,20.992-7.051,20.619-7.576z"/>
	<path fill="#94A988" d="M29.057,2.188c0-2.268,0.872-4.451,1.046-6.698c0.149-2.016-0.1-4.01,0.921-5.9
		c0.224-0.42,0.772-0.525,1.22-0.42c1.444-0.588,3.163-0.651,4.707-0.42c0.722,0.105,1.121,0.777,1.021,1.323
		c-0.1,0.609-0.697,0.945-1.37,1.008c-1.195,0.105-2.366-0.147-3.561-0.147c-0.025,1.701,0.149,3.38,0.025,5.081
		c0,0.063,0,0.105-0.025,0.189c0.299-0.084,0.623-0.147,0.921-0.126c1.071,0,1.718,1.176,0.896,1.827
		c-0.573,0.462-1.37,0.609-2.191,0.651c-0.1,0.693-0.249,1.407-0.299,2.1c0.747-0.105,1.444-0.252,2.241-0.378
		c1.743-0.273,3.113,1.869,1.27,2.583c-1.718,0.672-3.71,1.029-5.603,0.693C29.58,3.426,29.057,2.754,29.057,2.188z"/>
	<path fill="#94A988" d="M47.879,1.474c-0.647,0.021-1.295,0.042-1.893,0.168c-0.474,0.105-0.896,0-1.195-0.231
		c-0.249,0.609-0.498,1.176-0.821,1.701c-0.498,0.861-2.067,0.588-2.366-0.273c-0.672-2.079,0.972-4.346,1.345-6.383
		c0.324-1.785,0.349-3.737,1.619-5.27c0.672-0.798,2.017-0.861,2.664,0c1.494,1.911,2.291,4.115,2.863,6.32
		c0.523,1.953,1.645,4.493,1.246,6.488c-0.15,0.735-1.494,1.029-2.043,0.462C48.501,3.657,48.128,2.586,47.879,1.474z M47.331-1.193
		c-0.025-0.042-0.025-0.084-0.025-0.105c-0.299-1.134-0.622-2.247-1.07-3.317c-0.074,0.672-0.125,1.344-0.249,1.974
		c-0.124,0.567-0.274,1.155-0.423,1.764C46.086-1.088,46.708-1.193,47.331-1.193z"/>
	<path fill="#94A988" d="M55.968-3.167c0.299-1.743,0.474-3.59,1.021-5.291c0.05-0.105,0.1-0.21,0.174-0.294
		c-0.348-0.021-0.697-0.063-1.07-0.084c-1.32-0.084-1.295-1.617,0-1.722c1.121-0.084,2.241-0.084,3.361-0.105
		c1.121-0.021,1.992-0.189,2.689,0.672c0.225,0.252,0.199,0.672,0,0.924c-0.024,0.042-0.074,0.084-0.1,0.147
		c-0.273,0.315-0.697,0.609-1.22,0.567c-0.573-0.021-1.12-0.084-1.693-0.147c0,0.021,0.024,0.021,0.024,0.042
		c0.474,1.659,0.199,3.401,0.1,5.06c-0.074,1.596,0.299,3.359-0.498,4.808c-0.473,0.903-2.041,0.756-2.564,0
		C55.222,0.046,55.744-1.655,55.968-3.167z"/>
	<path fill="#94A988" d="M65.328,0.613c0.747-1.911,0.622-4.01,0.896-5.984c0.249-1.743,0.548-3.506,0.872-5.228
		c0.049-0.378,0.697-0.588,1.045-0.378c1.719,1.029,1.594,3.863,1.569,5.417c-0.024,2.226,0.573,4.976-0.474,7.076
		C68.267,3.468,64.507,2.733,65.328,0.613z"/>
	<path fill="#94A988" d="M75.784-2.432c-0.548-2.058-1.245-4.115-1.942-6.152c-0.423-1.155,1.769-1.974,2.366-0.84
		c0.846,1.68,1.718,3.338,2.439,5.06l0.449,1.134c0.299-0.441,0.572-0.882,0.846-1.323c0.947-1.554,1.445-3.905,3.263-4.913
		c0.697-0.378,1.618-0.084,2.042,0.462c1.32,1.701-0.199,3.989-1.121,5.585c-1.096,1.911-2.291,3.821-3.511,5.69
		c-0.697,1.05-2.913,1.197-3.536,0C76.257,0.76,76.208-0.836,75.784-2.432z"/>
	<path fill="#94A988" d="M89.949,2.188c0-2.268,0.872-4.451,1.046-6.698c0.149-2.016-0.1-4.01,0.922-5.9
		c0.224-0.42,0.771-0.525,1.22-0.42c1.444-0.588,3.163-0.651,4.706-0.42c0.723,0.105,1.121,0.777,1.021,1.323
		c-0.1,0.609-0.697,0.945-1.369,1.008c-1.195,0.105-2.366-0.147-3.562-0.147c-0.024,1.701,0.149,3.38,0.024,5.081
		c0,0.063,0,0.105-0.024,0.189c0.299-0.084,0.622-0.147,0.921-0.126c1.071,0,1.719,1.176,0.896,1.827
		c-0.572,0.462-1.369,0.609-2.191,0.651c-0.1,0.693-0.248,1.407-0.299,2.1c0.748-0.105,1.445-0.252,2.242-0.378
		c1.742-0.273,3.112,1.869,1.27,2.583c-1.719,0.672-3.711,1.029-5.604,0.693C90.472,3.426,89.949,2.754,89.949,2.188z"/>
	<path fill="#94A988" d="M110.736,0.109c0.075-0.903,1.271-1.68,2.291-1.092c0.323,0.189,0.647,0.525,0.996,0.672
		c0.598,0.252,0.498,0.441,0.722-0.105c0.274-0.735-0.771-2.058-1.195-2.688c-0.921-1.428-2.092-2.855-2.092-4.556
		c0-1.827,2.316-5.123,4.607-2.918c0.498,0.504,0.174,1.323-0.647,1.323c-2.116,0.021,0.647,4.136,0.996,4.745
		c0.847,1.428,1.893,3.233,1.519,4.892C117.187,3.636,110.487,3.636,110.736,0.109z"/>
	<path fill="#94A988" d="M122.437,2.188c0-2.268,0.871-4.451,1.046-6.698c0.149-2.016-0.1-4.01,0.921-5.9
		c0.225-0.42,0.772-0.525,1.221-0.42c1.444-0.588,3.162-0.651,4.707-0.42c0.722,0.105,1.12,0.777,1.021,1.323
		c-0.1,0.609-0.697,0.945-1.37,1.008c-1.195,0.105-2.365-0.147-3.561-0.147c-0.025,1.701,0.149,3.38,0.025,5.081
		c0,0.063,0,0.105-0.025,0.189c0.299-0.084,0.623-0.147,0.922-0.126c1.07,0,1.718,1.176,0.896,1.827
		c-0.573,0.462-1.37,0.609-2.191,0.651c-0.1,0.693-0.25,1.407-0.299,2.1c0.746-0.105,1.443-0.252,2.24-0.378
		c1.744-0.273,3.113,1.869,1.271,2.583c-1.718,0.672-3.71,1.029-5.603,0.693C122.96,3.426,122.437,2.754,122.437,2.188z"/>
	<path fill="#94A988" d="M135.158,2.271c0.024-1.47,0.149-2.96,0.249-4.43c-0.548-0.462-0.847-1.218-0.349-1.764
		c0.149-0.168,0.323-0.315,0.474-0.462c0.074-1.134,0.224-2.331,0.672-3.401c-0.672-0.357-0.747-1.386,0.249-1.596
		c2.415-0.546,6.873-0.735,6.749,2.373c-0.075,1.197-1.021,2.1-2.117,2.792c-0.448,0.294-1.146,0.567-1.793,0.861
		c1.594,0.966,3.113,2.016,4.607,3.086c1.519,1.092-0.523,3.317-2.167,2.352c-0.921-0.567-1.817-1.197-2.689-1.827
		c-0.024,0.84-0.124,1.659-0.398,2.415C138.047,4.266,135.083,4.014,135.158,2.271z M140.163-7.576
		c-0.148-0.21-0.447-0.315-0.797-0.357l-0.148,1.596C139.716-6.589,140.537-7.051,140.163-7.576z"/>
	<path fill="#94A988" d="M150.095-2.432c-0.548-2.058-1.245-4.115-1.942-6.152c-0.423-1.155,1.769-1.974,2.366-0.84
		c0.846,1.68,1.718,3.338,2.439,5.06l0.449,1.134c0.299-0.441,0.572-0.882,0.846-1.323c0.947-1.554,1.445-3.905,3.263-4.913
		c0.697-0.378,1.618-0.084,2.042,0.462c1.32,1.701-0.199,3.989-1.121,5.585c-1.096,1.911-2.291,3.821-3.511,5.69
		c-0.697,1.05-2.913,1.197-3.536,0C150.567,0.76,150.519-0.836,150.095-2.432z"/>
	<path fill="#94A988" d="M163.861,0.613c0.747-1.911,0.622-4.01,0.896-5.984c0.249-1.743,0.548-3.506,0.872-5.228
		c0.049-0.378,0.697-0.588,1.045-0.378c1.719,1.029,1.594,3.863,1.569,5.417c-0.024,2.226,0.573,4.976-0.474,7.076
		C166.8,3.468,163.04,2.733,163.861,0.613z"/>
	<path fill="#94A988" d="M172.475-0.71c-0.522-2.478,0.199-4.997,2.291-6.845c1.669-1.47,4.856-3.107,6.574-0.84
		c0.747,0.987-0.847,1.785-1.793,1.155c-0.747-0.525-3.112,2.247-3.312,2.667c-0.523,1.029-0.549,2.163-0.25,3.254
		c0.199,0.798,0.549,2.058,1.346,2.646c0.049,0.042,0.074,0.063,0.124,0.084c0.498-0.189,1.071-1.071,1.47-1.386
		c0.821-0.672,2.664-0.252,2.49,0.861c-0.324,2.121-2.541,4.556-5.354,3.464C173.894,3.51,172.873,1.117,172.475-0.71z"/>
	<path fill="#94A988" d="M185.719,2.188c0-2.268,0.872-4.451,1.046-6.698c0.149-2.016-0.1-4.01,0.922-5.9
		c0.224-0.42,0.771-0.525,1.22-0.42c1.444-0.588,3.163-0.651,4.706-0.42c0.723,0.105,1.121,0.777,1.021,1.323
		c-0.1,0.609-0.697,0.945-1.369,1.008c-1.195,0.105-2.366-0.147-3.562-0.147c-0.024,1.701,0.149,3.38,0.024,5.081
		c0,0.063,0,0.105-0.024,0.189c0.299-0.084,0.622-0.147,0.921-0.126c1.071,0,1.719,1.176,0.896,1.827
		c-0.572,0.462-1.369,0.609-2.191,0.651c-0.1,0.693-0.248,1.407-0.299,2.1c0.748-0.105,1.445-0.252,2.242-0.378
		c1.742-0.273,3.112,1.869,1.27,2.583c-1.719,0.672-3.711,1.029-5.604,0.693C186.241,3.426,185.719,2.754,185.719,2.188z"/>
	<path fill="#94A988" d="M198.341,0.109c0.074-0.903,1.27-1.68,2.291-1.092c0.324,0.189,0.647,0.525,0.996,0.672
		c0.598,0.252,0.498,0.441,0.723-0.105c0.273-0.735-0.772-2.058-1.195-2.688c-0.922-1.428-2.092-2.855-2.092-4.556
		c0-1.827,2.315-5.123,4.606-2.918c0.498,0.504,0.175,1.323-0.647,1.323c-2.117,0.021,0.647,4.136,0.996,4.745
		c0.847,1.428,1.893,3.233,1.52,4.892C204.79,3.636,198.092,3.636,198.341,0.109z"/>
</g>
</svg>
