<?xml version="1.0" encoding="utf-8"?>
<!-- Generator: Adobe Illustrator 16.0.0, SVG Export Plug-In . SVG Version: 6.00 Build 0)  -->
<!DOCTYPE svg PUBLIC "-//W3C//DTD SVG 1.1//EN" "http://www.w3.org/Graphics/SVG/1.1/DTD/svg11.dtd">
<svg version="1.1" id="Layer_1" xmlns="http://www.w3.org/2000/svg" xmlns:xlink="http://www.w3.org/1999/xlink" x="0px" y="0px"
	 width="64.783px" height="22.664px" viewBox="45.458 0 64.783 22.664" enable-background="new 45.458 0 64.783 22.664"
	 xml:space="preserve">
<g>
	<path fill="#988399" d="M52.713,16.304c-0.73,0.021-1.46,0.041-2.134,0.164c-0.534,0.103-1.011,0-1.348-0.226
		c-0.281,0.594-0.562,1.146-0.926,1.657c-0.562,0.839-2.331,0.573-2.667-0.267c-0.758-2.024,1.095-4.234,1.516-6.219
		c0.365-1.739,0.393-3.642,1.825-5.135c0.758-0.777,2.274-0.838,3.004,0c1.685,1.862,2.583,4.01,3.229,6.159
		c0.59,1.902,1.854,4.378,1.404,6.321c-0.168,0.717-1.685,1.003-2.303,0.45C53.415,18.432,52.994,17.388,52.713,16.304z
		 M52.096,13.705c-0.028-0.041-0.028-0.081-0.028-0.102c-0.336-1.104-0.702-2.189-1.207-3.233c-0.084,0.655-0.141,1.31-0.281,1.923
		c-0.141,0.552-0.309,1.125-0.477,1.719C50.692,13.809,51.394,13.705,52.096,13.705z"/>
	<path fill="#988399" d="M60.459,18.8c0.309-4.215,0.758-8.429,0.926-12.623c0.028-0.246,0.141-0.45,0.337-0.573
		c0.112-0.185,0.309-0.369,0.562-0.491c3.145-1.698,6.514,1.31,7.131,3.335c0.534,1.718-0.393,2.966-1.938,3.867
		c1.488,1.002,2.302,2.332,1.657,4.071c-0.842,2.23-3.818,3.846-6.991,3.642C61.273,19.966,60.403,19.496,60.459,18.8z
		 M65.709,15.69c0.393-1.207-0.871-1.719-2.162-2.148c-0.028,1.289,0,2.557,0.112,3.825C64.643,17.102,65.429,16.549,65.709,15.69z
		 M65.681,8.673c-0.449-0.921-1.123-1.105-1.937-1.289c0,1.166-0.056,2.332-0.084,3.498C65.12,10.473,66.271,9.961,65.681,8.673z"/>
	<path fill="#988399" d="M79.773,5.645c0.534-0.348,1.461-0.389,2.021,0.021c2.275,1.637,1.461,5.258,0.898,7.427
		c-0.532,2.087-2.217,5.155-5.924,4.357C70.479,16.078,73.541,5.113,79.773,5.645z M79.436,10.698c0.057-0.9,0.057-1.923,0-2.885
		c-1.179,0.45-1.712,3.068-1.824,3.723c-0.141,0.798-0.253,1.78,0,2.578c0.056,0.226,0.14,0.512,0.337,0.695
		C79.212,14.114,79.324,11.68,79.436,10.698z"/>
	<path fill="#988399" d="M87.463,14.319c-0.87-2.517-0.168-5.238,0.759-7.652c0.309-0.757,1.88-0.797,2.161,0
		c0.646,1.903,0.197,3.847,0.562,5.77c0.169,0.879,0.73,2.781,1.713,1.371c1.066-1.494,1.066-3.458,1.095-5.095
		c0.028-1.494-0.646-3.396,1.208-4.399c0.505-0.287,1.516-0.287,2.05,0c2.245,1.228,1.066,4.501,0.758,6.26
		c-0.365,2.046-0.814,4.992-3.397,6.261C91.395,18.288,88.222,16.488,87.463,14.319z"/>
	<path fill="#988399" d="M103.099,11.782c0.338-1.698,0.534-3.498,1.151-5.156c0.057-0.102,0.113-0.204,0.196-0.286
		c-0.393-0.021-0.786-0.062-1.207-0.082c-1.488-0.082-1.46-1.576,0-1.678c1.264-0.082,2.526-0.082,3.791-0.103
		c1.263-0.021,2.245-0.184,3.031,0.655c0.253,0.245,0.225,0.655,0,0.9c-0.028,0.041-0.084,0.082-0.112,0.144
		c-0.309,0.307-0.786,0.593-1.375,0.552c-0.646-0.021-1.264-0.082-1.91-0.143c0,0.021,0.028,0.021,0.028,0.041
		c0.534,1.617,0.226,3.314,0.112,4.931c-0.084,1.555,0.337,3.273-0.562,4.685c-0.533,0.88-2.302,0.736-2.892,0
		C102.257,14.913,102.846,13.255,103.099,11.782z"/>
</g>
</svg>
