<?xml version="1.0" encoding="utf-8"?>
<!-- Generator: Adobe Illustrator 16.0.0, SVG Export Plug-In . SVG Version: 6.00 Build 0)  -->
<!DOCTYPE svg PUBLIC "-//W3C//DTD SVG 1.1//EN" "http://www.w3.org/Graphics/SVG/1.1/DTD/svg11.dtd">
<svg version="1.1" id="Layer_1" xmlns="http://www.w3.org/2000/svg" xmlns:xlink="http://www.w3.org/1999/xlink" x="0px" y="0px"
	 width="359.09px" height="103.031px" viewBox="0 0 359.09 103.031" enable-background="new 0 0 359.09 103.031"
	 xml:space="preserve">
<g>
	<path fill="#3F3F3F" d="M31.037,54.287c-0.917-4.086-2.084-8.17-3.251-12.214c-0.709-2.293,2.959-3.918,3.96-1.667
		c1.417,3.335,2.876,6.628,4.085,10.046l0.75,2.252c0.5-0.875,0.958-1.751,1.417-2.627c1.584-3.084,2.418-7.753,5.461-9.754
		c1.167-0.75,2.71-0.167,3.418,0.917c2.209,3.376-0.333,7.921-1.876,11.089c-1.834,3.793-3.835,7.587-5.877,11.297
		c-1.167,2.084-4.877,2.377-5.92,0C31.829,60.623,31.745,57.455,31.037,54.287z"/>
	<path fill="#3F3F3F" d="M57.753,63.459c0-4.503,1.459-8.838,1.751-13.299c0.25-4.002-0.167-7.962,1.542-11.714
		c0.375-0.833,1.292-1.042,2.042-0.833c2.418-1.167,5.294-1.292,7.879-0.833c1.209,0.208,1.876,1.542,1.709,2.626
		c-0.167,1.209-1.167,1.876-2.293,2.001c-2.001,0.208-3.96-0.292-5.961-0.292c-0.042,3.377,0.25,6.712,0.042,10.088
		c0,0.125,0,0.208-0.042,0.376c0.5-0.168,1.042-0.293,1.542-0.251c1.792,0,2.876,2.335,1.501,3.627
		c-0.959,0.917-2.293,1.209-3.668,1.292c-0.167,1.376-0.417,2.793-0.5,4.169c1.25-0.208,2.418-0.5,3.752-0.751
		c2.918-0.541,5.211,3.711,2.126,5.129c-2.876,1.334-6.211,2.041-9.379,1.375C58.629,65.918,57.753,64.584,57.753,63.459z"/>
	<path fill="#3F3F3F" d="M89.64,64.834c0.083-2.334,0.834-4.627,1.042-7.004c0.125-1.5,0.167-3.001,0.167-4.46
		c-1,0.083-2.001,0.042-3.001,0c0.167,3.501,0.625,8.962-2.084,11.255c-1.667,1.459-4.085,0.459-4.252-1.75
		c-0.125-1.752,0.583-3.544,0.708-5.336c0.125-2.084,0.083-4.169,0.042-6.212c-0.042-4.71-0.458-10.213,1-14.715
		c0.542-1.709,2.918-1.709,3.501,0c1.292,4.043,1.084,8.754,1.042,13.131c1-0.125,2.001-0.25,2.918-0.583
		c-0.208-4.377-0.708-8.921,0.25-13.257c0.458-1.918,3.418-1.876,3.877,0c1.209,5.002,1.584,10.339,1.917,15.424
		c0.333,4.669,0.834,10.839-1.667,15.007C93.684,68.752,89.557,67.836,89.64,64.834z"/>
	<path fill="#3F3F3F" d="M106.395,60.332c1.25-3.794,1.042-7.963,1.501-11.881c0.417-3.46,0.917-6.962,1.459-10.38
		c0.083-0.75,1.167-1.167,1.751-0.75c2.876,2.043,2.668,7.67,2.626,10.756c-0.042,4.418,0.959,9.879-0.792,14.049
		C111.314,66.002,105.02,64.543,106.395,60.332z"/>
	<path fill="#3F3F3F" d="M123.817,57.705c-0.875-4.918,0.333-9.922,3.835-13.589c2.793-2.918,8.129-6.17,11.006-1.668
		c1.25,1.959-1.417,3.543-3.002,2.293c-1.25-1.042-5.21,4.46-5.544,5.294c-0.875,2.043-0.917,4.293-0.417,6.461
		c0.333,1.584,0.917,4.086,2.251,5.253c0.083,0.083,0.125,0.125,0.208,0.167c0.833-0.375,1.792-2.127,2.459-2.752
		c1.376-1.334,4.46-0.5,4.169,1.709c-0.542,4.211-4.252,9.047-8.963,6.879C126.193,66.084,124.484,61.332,123.817,57.705z"/>
	<path fill="#3F3F3F" d="M148.701,60.957c-1.667-6.461,0.792-13.674,1.334-20.093c0.167-2.209,3.335-2.251,3.46,0
		c0.292,4.752,0.208,9.546,0.542,14.34c0.083,1.001,0.583,2.335,0.417,3.335c0.125,0.209,0.167,0.334,0.208,0.459
		c1.542,0.25,3.21-0.042,4.836,0.166c2.834,0.459,2.709,5.086,0,5.629C155.288,65.627,150.035,66.168,148.701,60.957z"/>
	<path fill="#3F3F3F" d="M171.584,63.459c0-4.503,1.459-8.838,1.751-13.299c0.25-4.002-0.167-7.962,1.542-11.714
		c0.375-0.833,1.292-1.042,2.042-0.833c2.418-1.167,5.295-1.292,7.879-0.833c1.209,0.208,1.876,1.542,1.709,2.626
		c-0.167,1.209-1.167,1.876-2.293,2.001c-2,0.208-3.96-0.292-5.961-0.292c-0.042,3.377,0.25,6.712,0.042,10.088
		c0,0.125,0,0.208-0.042,0.376c0.5-0.168,1.042-0.293,1.542-0.251c1.792,0,2.876,2.335,1.5,3.627
		c-0.959,0.917-2.292,1.209-3.668,1.292c-0.167,1.376-0.417,2.793-0.5,4.169c1.25-0.208,2.418-0.5,3.752-0.751
		c2.918-0.541,5.21,3.711,2.125,5.129c-2.876,1.334-6.211,2.041-9.379,1.375C172.459,65.918,171.584,64.584,171.584,63.459z"/>
	<path fill="#3F3F3F" d="M215.766,63.584c-1.25-3.127-1.584-6.463-2.084-9.756c-0.417-3.043-1.334-6.045-1.667-9.129
		c-0.209-1.751,2.209-2.418,3.293-1.376c2.501,2.376,3.71,5.962,4.544,9.671c0.458-0.916,1-1.75,1.876-2.417
		c1.459-1.167,3.502-0.792,4.127,1.083l0.25,0.751c0.375-1.042,0.709-2.085,1.084-3.043c1.334-3.502,3.085-6.67,3.71-10.38
		c0.584-3.335,6.003-2.501,5.795,0.75c-0.251,4.502-2.627,8.254-4.128,12.381c-1.208,3.336-2.334,6.837-4.877,9.463
		c-1.292,1.334-3.877,1.084-4.752-0.625c-0.042-0.125-0.084-0.209-0.167-0.334c-0.208,1.334-0.542,2.543-1.209,3.711
		C220.102,66.918,216.684,66.002,215.766,63.584z"/>
	<path fill="#3F3F3F" d="M246.442,63.625c0.042-2.918,0.251-5.878,0.417-8.796c-0.917-0.917-1.417-2.418-0.583-3.502
		c0.25-0.333,0.542-0.625,0.792-0.917c0.125-2.251,0.375-4.627,1.125-6.753c-1.125-0.708-1.25-2.751,0.417-3.168
		c4.044-1.084,11.506-1.459,11.298,4.71c-0.126,2.377-1.71,4.169-3.544,5.545c-0.75,0.583-1.918,1.125-3.001,1.709
		c2.668,1.918,5.211,4.002,7.712,6.128c2.543,2.167-0.876,6.587-3.627,4.669c-1.542-1.125-3.043-2.377-4.502-3.627
		c-0.042,1.668-0.209,3.293-0.667,4.795C251.278,67.586,246.317,67.086,246.442,63.625z M254.822,44.074
		c-0.25-0.417-0.751-0.625-1.334-0.708l-0.25,3.168C254.071,46.033,255.447,45.116,254.822,44.074z"/>
	<path fill="#3F3F3F" d="M281.915,62.041c-1.084,0.041-2.168,0.084-3.168,0.334c-0.792,0.208-1.501,0-2.001-0.459
		c-0.417,1.209-0.834,2.334-1.376,3.377c-0.834,1.709-3.46,1.166-3.96-0.543c-1.126-4.127,1.626-8.629,2.251-12.672
		c0.542-3.544,0.583-7.421,2.709-10.464c1.126-1.584,3.377-1.709,4.461,0c2.501,3.793,3.835,8.171,4.794,12.548
		c0.876,3.877,2.751,8.921,2.085,12.881c-0.251,1.459-2.502,2.043-3.419,0.918C282.957,66.377,282.332,64.25,281.915,62.041z
		 M280.998,56.746c-0.042-0.083-0.042-0.166-0.042-0.208c-0.5-2.251-1.042-4.46-1.792-6.587c-0.126,1.334-0.209,2.668-0.417,3.919
		c-0.209,1.126-0.459,2.293-0.709,3.502C278.913,56.955,279.956,56.746,280.998,56.746z"/>
	<path fill="#3F3F3F" d="M297.044,62.332c0.416-3.584,1.625-6.877,1.792-10.547c0.209-3.668,0.292-7.294,0.751-10.921
		c0.166-1.334,1.167-2.084,2.167-2.209c0.042-0.042,0.042-0.042,0.084-0.042c2.459-1,5.753-0.75,7.128,1.876
		c1.042,1.959,0.834,4.502-0.458,6.336c-0.876,1.251-2.293,2.376-3.919,2.376h-0.25c0,1.376,0,2.752-0.042,4.127
		c-0.208,3.627-0.458,7.879-2.835,10.838C300.087,65.834,296.752,64.5,297.044,62.332z M305.548,44.824
		c0.333-0.708,0.5-2.376,0.25-2.709c-0.584-0.792-1.834-0.542-1.959-0.542l0.125,3.793
		C304.506,45.199,305.214,45.533,305.548,44.824z"/>
	<path fill="#3F3F3F" d="M319.218,59.331c0.125-1.792,2.126-3.335,3.835-2.167c0.542,0.375,1.084,1.041,1.667,1.334
		c1.001,0.5,0.834,0.875,1.209-0.209c0.459-1.459-1.292-4.086-2.001-5.336c-1.542-2.834-3.501-5.67-3.501-9.046
		c0-3.627,3.877-10.172,7.712-5.794c0.834,1,0.292,2.626-1.084,2.626c-3.543,0.042,1.084,8.212,1.667,9.421
		c1.418,2.834,3.169,6.42,2.543,9.713C330.015,66.334,318.801,66.334,319.218,59.331z"/>
</g>
</svg>
