<?xml version="1.0" encoding="utf-8"?>
<!-- Generator: Adobe Illustrator 16.0.0, SVG Export Plug-In . SVG Version: 6.00 Build 0)  -->
<!DOCTYPE svg PUBLIC "-//W3C//DTD SVG 1.1//EN" "http://www.w3.org/Graphics/SVG/1.1/DTD/svg11.dtd">
<svg version="1.1" id="Layer_1" xmlns="http://www.w3.org/2000/svg" xmlns:xlink="http://www.w3.org/1999/xlink" x="0px" y="0px"
	 width="310.606px" height="280.303px" viewBox="0 0 310.606 280.303" enable-background="new 0 0 310.606 280.303"
	 xml:space="preserve">
<g>
	<g>
		<path fill="#3F4142" d="M77.087,270.811c-1.003-0.283-1.79-0.646-2.359-1.086l1.004-1.857c0.585,0.408,1.296,0.732,2.133,0.977
			c0.836,0.246,1.682,0.367,2.535,0.367c2.108,0,3.162-0.586,3.162-1.76c0-0.391-0.142-0.699-0.426-0.928
			c-0.285-0.229-0.64-0.395-1.066-0.5c-0.427-0.105-1.033-0.225-1.819-0.355c-1.071-0.162-1.945-0.35-2.623-0.561
			c-0.677-0.213-1.259-0.57-1.744-1.076c-0.485-0.504-0.728-1.213-0.728-2.125c0-1.172,0.502-2.113,1.506-2.822
			c1.003-0.707,2.35-1.062,4.04-1.062c0.886,0,1.773,0.105,2.66,0.318c0.887,0.211,1.614,0.496,2.183,0.855l-1.029,1.855
			c-1.087-0.684-2.367-1.025-3.839-1.025c-1.021,0-1.798,0.162-2.333,0.488c-0.536,0.326-0.803,0.758-0.803,1.295
			c0,0.424,0.151,0.758,0.452,1.002c0.301,0.244,0.673,0.424,1.117,0.537s1.067,0.244,1.87,0.391c1.07,0.18,1.936,0.371,2.597,0.574
			c0.661,0.203,1.226,0.551,1.694,1.039s0.703,1.172,0.703,2.051c0,1.174-0.514,2.105-1.543,2.799
			c-1.029,0.691-2.431,1.037-4.204,1.037C79.137,271.239,78.091,271.096,77.087,270.811z"/>
		<path fill="#3F4142" d="M103.887,258.145v12.947h-2.283v-1.953c-0.485,0.668-1.125,1.184-1.92,1.551
			c-0.794,0.365-1.66,0.549-2.597,0.549c-1.773,0-3.17-0.477-4.19-1.428c-1.021-0.953-1.531-2.359-1.531-4.215v-7.451h2.409v7.182
			c0,1.254,0.31,2.203,0.929,2.846c0.619,0.645,1.505,0.967,2.66,0.967c1.271,0,2.275-0.375,3.012-1.125
			c0.736-0.748,1.104-1.807,1.104-3.176v-6.693H103.887z"/>
		<path fill="#3F4142" d="M111.666,270.811c-1.003-0.283-1.79-0.646-2.359-1.086l1.004-1.857c0.585,0.408,1.296,0.732,2.133,0.977
			c0.836,0.246,1.682,0.367,2.535,0.367c2.108,0,3.162-0.586,3.162-1.76c0-0.391-0.142-0.699-0.426-0.928
			c-0.285-0.229-0.64-0.395-1.066-0.5c-0.427-0.105-1.033-0.225-1.819-0.355c-1.071-0.162-1.945-0.35-2.623-0.561
			c-0.677-0.213-1.259-0.57-1.744-1.076c-0.485-0.504-0.728-1.213-0.728-2.125c0-1.172,0.502-2.113,1.506-2.822
			c1.003-0.707,2.35-1.062,4.04-1.062c0.886,0,1.773,0.105,2.66,0.318c0.887,0.211,1.614,0.496,2.183,0.855l-1.029,1.855
			c-1.087-0.684-2.367-1.025-3.839-1.025c-1.021,0-1.798,0.162-2.333,0.488c-0.536,0.326-0.803,0.758-0.803,1.295
			c0,0.424,0.151,0.758,0.452,1.002c0.301,0.244,0.673,0.424,1.117,0.537s1.067,0.244,1.87,0.391c1.07,0.18,1.936,0.371,2.597,0.574
			c0.661,0.203,1.226,0.551,1.694,1.039s0.703,1.172,0.703,2.051c0,1.174-0.514,2.105-1.543,2.799
			c-1.029,0.691-2.431,1.037-4.204,1.037C113.715,271.239,112.67,271.096,111.666,270.811z"/>
		<path fill="#3F4142" d="M137.199,259.452c0.995,0.953,1.493,2.35,1.493,4.189v7.451h-2.409v-7.182c0-1.254-0.31-2.199-0.928-2.834
			c-0.619-0.635-1.506-0.953-2.66-0.953c-1.305,0-2.333,0.371-3.086,1.111c-0.753,0.742-1.129,1.805-1.129,3.188v6.67h-2.409
			v-18.127h2.409v7.012c0.502-0.619,1.158-1.1,1.97-1.441c0.811-0.342,1.719-0.514,2.723-0.514
			C134.861,258.022,136.204,258.499,137.199,259.452z"/>
		<path fill="#3F4142" d="M145.706,255.213c-0.31-0.293-0.464-0.652-0.464-1.076c0-0.422,0.154-0.785,0.464-1.086
			c0.309-0.303,0.698-0.453,1.167-0.453c0.468,0,0.857,0.143,1.167,0.428s0.464,0.641,0.464,1.062c0,0.439-0.155,0.811-0.464,1.111
			c-0.31,0.303-0.699,0.453-1.167,0.453C146.404,255.653,146.015,255.506,145.706,255.213z M145.668,258.145h2.409v12.947h-2.409
			V258.145z"/>
		<path fill="#3F4142" d="M171.916,270.334c-0.352,0.295-0.787,0.518-1.305,0.672c-0.52,0.156-1.055,0.232-1.605,0.232
			c-1.34,0-2.377-0.35-3.111-1.051c-0.736-0.699-1.105-1.701-1.105-3.004v-7.109h-2.258v-1.93h2.258v-2.834h2.41v2.834h3.814v1.93
			h-3.814v7.012c0,0.699,0.18,1.238,0.539,1.611c0.359,0.375,0.873,0.562,1.543,0.562c0.736,0,1.363-0.203,1.883-0.611
			L171.916,270.334z"/>
		<path fill="#3F4142" d="M186.408,259.342c0.979,0.879,1.469,2.189,1.469,3.934v7.816h-2.285v-1.709
			c-0.4,0.602-0.975,1.062-1.719,1.379c-0.744,0.318-1.627,0.477-2.646,0.477c-1.49,0-2.682-0.35-3.576-1.051
			c-0.895-0.699-1.342-1.619-1.342-2.76s0.426-2.057,1.279-2.748c0.854-0.693,2.209-1.039,4.064-1.039h3.814v-0.465
			c0-1.008-0.301-1.783-0.902-2.32c-0.604-0.537-1.49-0.807-2.66-0.807c-0.787,0-1.557,0.127-2.309,0.379
			c-0.754,0.254-1.389,0.592-1.908,1.014l-1.004-1.758c0.686-0.537,1.506-0.949,2.459-1.234c0.955-0.285,1.967-0.428,3.037-0.428
			C184.019,258.022,185.429,258.461,186.408,259.342z M184.011,268.833c0.668-0.398,1.154-0.965,1.455-1.697v-1.809h-3.713
			c-2.041,0-3.062,0.668-3.062,2.004c0,0.652,0.26,1.164,0.779,1.539c0.518,0.375,1.236,0.562,2.156,0.562
			S183.341,269.233,184.011,268.833z"/>
		<path fill="#3F4142" d="M197.097,270.385c-1.062-0.57-1.895-1.357-2.496-2.359c-0.602-1-0.904-2.137-0.904-3.408
			c0-1.27,0.303-2.406,0.904-3.406c0.602-1.002,1.434-1.785,2.496-2.346c1.062-0.562,2.271-0.844,3.627-0.844
			c1.205,0,2.279,0.236,3.225,0.709s1.676,1.156,2.195,2.053l-1.832,1.148c-0.418-0.619-0.938-1.084-1.555-1.393
			c-0.619-0.311-1.307-0.465-2.059-0.465c-0.869,0-1.652,0.188-2.346,0.562c-0.695,0.375-1.238,0.908-1.631,1.6
			c-0.395,0.691-0.59,1.486-0.59,2.381c0,0.914,0.195,1.715,0.59,2.408c0.393,0.691,0.936,1.225,1.631,1.6
			c0.693,0.375,1.477,0.562,2.346,0.562c0.752,0,1.439-0.156,2.059-0.465c0.617-0.309,1.137-0.773,1.555-1.393l1.832,1.123
			c-0.52,0.896-1.25,1.584-2.195,2.064s-2.02,0.721-3.225,0.721C199.369,271.239,198.16,270.954,197.097,270.385z"/>
		<path fill="#3F4142" d="M213.697,270.385c-1.055-0.57-1.879-1.357-2.473-2.359c-0.594-1-0.891-2.137-0.891-3.408
			c0-1.27,0.297-2.406,0.891-3.406c0.594-1.002,1.418-1.785,2.473-2.346c1.055-0.562,2.242-0.844,3.562-0.844
			c1.322,0,2.506,0.281,3.551,0.844c1.047,0.561,1.865,1.344,2.461,2.346c0.592,1,0.891,2.137,0.891,3.406
			c0,1.271-0.299,2.408-0.891,3.408c-0.596,1.002-1.414,1.789-2.461,2.359c-1.045,0.568-2.229,0.854-3.551,0.854
			C215.939,271.239,214.751,270.954,213.697,270.385z M219.556,268.614c0.678-0.383,1.209-0.92,1.594-1.613
			c0.385-0.691,0.576-1.486,0.576-2.383c0-0.895-0.191-1.689-0.576-2.381s-0.916-1.225-1.594-1.6s-1.443-0.562-2.297-0.562
			c-0.852,0-1.617,0.188-2.295,0.562s-1.213,0.908-1.605,1.6c-0.395,0.691-0.59,1.486-0.59,2.381c0,0.896,0.195,1.691,0.59,2.383
			c0.393,0.693,0.928,1.23,1.605,1.613s1.443,0.574,2.295,0.574C218.113,269.188,218.878,268.997,219.556,268.614z"/>
		<path fill="#3F4142" d="M230.685,270.811c-1.004-0.283-1.791-0.646-2.359-1.086l1.004-1.857c0.586,0.408,1.297,0.732,2.133,0.977
			c0.836,0.246,1.682,0.367,2.535,0.367c2.107,0,3.162-0.586,3.162-1.76c0-0.391-0.143-0.699-0.428-0.928s-0.639-0.395-1.066-0.5
			c-0.426-0.105-1.033-0.225-1.818-0.355c-1.072-0.162-1.945-0.35-2.623-0.561c-0.678-0.213-1.26-0.57-1.744-1.076
			c-0.484-0.504-0.727-1.213-0.727-2.125c0-1.172,0.5-2.113,1.504-2.822c1.004-0.707,2.352-1.062,4.041-1.062
			c0.887,0,1.773,0.105,2.66,0.318c0.887,0.211,1.613,0.496,2.184,0.855l-1.029,1.855c-1.088-0.684-2.367-1.025-3.84-1.025
			c-1.02,0-1.799,0.162-2.334,0.488s-0.803,0.758-0.803,1.295c0,0.424,0.15,0.758,0.451,1.002c0.303,0.244,0.674,0.424,1.117,0.537
			s1.066,0.244,1.869,0.391c1.07,0.18,1.938,0.371,2.598,0.574s1.225,0.551,1.693,1.039s0.703,1.172,0.703,2.051
			c0,1.174-0.514,2.105-1.543,2.799c-1.029,0.691-2.43,1.037-4.203,1.037C232.734,271.239,231.689,271.096,230.685,270.811z"/>
	</g>
	<g>
		<path fill="#D8D0C5" d="M192.699,138.677c-3.264,1.576-16.805,2.263-33.431,1.695c-16.591-1.233-29.973-3.38-33.037-5.301
			c3.265-1.574,16.809-2.265,33.435-1.697C176.255,134.608,189.634,136.755,192.699,138.677z"/>
	</g>
	<g>
		<g>
			<path fill="#3F4142" d="M64.606,122.24c4.455,1.642,10.025,1.886,14.758,2.066c8.395,0.323,16.797-0.554,25.195-0.438
				c9.207,0.125,18.289,0.657,27.501,0.153c9.122-0.502,18.215-1.223,27.351-1.472c9.069-0.247,18.147,0.272,27.206,0.608
				c8.992,0.334,17.979,0.311,26.967,0.836c8.377,0.49,16.572,0.456,24.947,0.203c5.205-0.16,11.832,0.043,15.982-3.538
				c1.215-1.048-0.066-2.993-1.549-2.586c-2.771,0.766-5.311,2.022-8.248,2.062c-2.74,0.038-5.391-1.455-8.158-0.963
				c-2.369,0.42-10.023,4.108-11.809,1.714c-0.457,0.776-0.914,1.551-1.371,2.327c3.674-0.179,7.34,0.001,11.012,0.21
				c2.047,0.116,2.035-2.979,0-3.094c-3.672-0.208-7.338-0.386-11.012-0.21c-1.092,0.054-2.125,1.314-1.371,2.328
				c2.781,3.733,8.211,1.729,11.91,0.614c0.996-0.3,1.986-0.593,3.002-0.821c1.918-0.431,4.381,0.543,6.293,0.842
				c3.814,0.596,7.033-1.045,10.598-2.027c-0.514-0.86-1.029-1.723-1.543-2.585c-4.119,3.557-11.812,2.396-16.91,2.793
				c-8.457,0.657-16.986-0.1-25.43-0.572c-8.588-0.481-17.191-0.39-25.785-0.719c-8.654-0.331-17.305-0.72-25.966-0.482
				c-8.721,0.237-17.411,0.933-26.116,1.438c-8.784,0.507-17.463,0.115-26.244-0.127c-8.083-0.22-16.147,0.484-24.228,0.457
				c-5.123-0.019-11.301-0.218-16.139-2.001C63.53,118.549,62.708,121.539,64.606,122.24L64.606,122.24z"/>
			<path fill="#3F4142" d="M222.728,119.49c-6.408,0.164-12.801-0.573-19.215-0.421c-2.045,0.049-2.047,3.144,0,3.094
				c6.414-0.152,12.807,0.584,19.215,0.42C224.775,122.531,224.783,119.437,222.728,119.49L222.728,119.49z"/>
			<path fill="#3F4142" d="M98.359,123.579c7.654-1.564,15.301-0.441,23.013-0.104c7.517,0.33,15.038-0.633,22.553-0.683
				c2.048-0.012,2.049-3.105,0-3.093c-7.926,0.05-15.82,0.978-23.75,0.63c-7.648-0.334-15.073-1.284-22.659,0.266
				C95.511,121.007,96.361,123.988,98.359,123.579L98.359,123.579z"/>
		</g>
		<path fill="#3F4142" d="M75.323,122.594c8.253,2.386,17.174,0.484,25.538-0.263c2.023-0.183,2.043-3.276,0-3.094
			c-8.037,0.72-16.767,2.663-24.694,0.374C74.199,119.04,73.362,122.025,75.323,122.594L75.323,122.594z"/>
	</g>
	<path fill="#55B250" d="M167.015,29.785c-1.795-0.931-3.713-1.513-5.627-2.13c1.115-1.197,2.793-1.629,4.375-2.131
		c0.641-0.204-0.99-1.283-1.25-1.329c-3.244-0.572-6.553-0.529-9.793-0.012c1.091-0.535,2.286-0.861,3.585-0.919
		c0.898-0.04-0.797-1.265-1.103-1.347c-6.14-1.648-13.45,0.187-18.084,4.458c-0.746-0.861-1.34-1.829-2.017-2.753
		c-0.31-0.426-1.004-0.974-1.586-0.858c-2.339,0.473-3.998,2.065-5.617,3.674c-0.812,0.808-1.619,1.609-2.506,2.341
		c-1.306,1.077-1.821,0.337-3.146-0.055c-1.641-0.488-2.445,2.703-3.183,3.609c-1.289,1.591-2.736,3.918-2.931,5.985
		c-0.04,0.413,0.833,1.005,1.39,1.135c0.063,0.022,0.123,0.04,0.171,0.042c1.868,0.098,3.374,1.023,5.121,1.535
		c1.73,0.507,3.371,0.55,5.155,0.312c4.097-0.547,8.268-2.491,12.056-4.031c4.093-1.663,8.136-3.397,12.438-4.491
		c4.372-1.112,8.985-0.689,13.348-1.887C168.382,30.777,167.144,29.852,167.015,29.785z"/>
	<path fill="#4BA048" d="M154.38,31.167c-4.335,0.698-8.501,2.57-12.519,4.226c-3.918,1.617-7.917,3.255-12.038,4.323
		c-2.404,0.623-4.59,0.522-6.897-0.376c-0.944-0.369-1.846-0.721-2.789-0.955c0.462-1.738,1.688-3.485,2.7-4.851
		c0.559-0.756,0.92-1.625,1.406-2.433c0.834-1.382,1.489-0.64,2.662-0.219c1.374,0.493,3.114-1.619,3.939-2.423
		c1.655-1.607,3.213-3.395,5.439-4.141c0.831,1.166,1.657,2.292,2.775,3.259c0.243,0.21,1.021,0.77,1.353,0.439
		c3.287-3.284,8.26-5.254,13.096-5.329c-1.404,0.608-2.655,1.535-3.753,2.705c-0.417,0.444,1.256,1.397,1.677,1.268
		c3.232-1.003,6.651-1.58,10.054-1.518c-0.947,0.438-1.791,1.027-2.373,1.958c-0.277,0.444,0.833,1.087,1.126,1.191
		c1.592,0.558,3.232,0.997,4.809,1.589C161.548,30.636,157.916,30.599,154.38,31.167z"/>
	<path fill="#4BA048" d="M113.861,39.528c-1.378,0.498-2.668,1.213-4.043,1.703c-0.757-1.143-2.033-2.004-3.419-1.84
		c-1.516,0.179-2.926,1.353-3.982,2.331c-0.627,0.581-1.15,1.256-1.594,1.977c-0.483,0.788-0.276,1.678-1.95-0.15
		c-0.327-0.356-0.652-0.699-0.988-1.047c-0.091-0.091-1.156-1.117-1.281-0.979c-1.321,1.469-1.562,3.147-1.948,4.998
		c-0.404,1.933-1.547,3.173-3.195,4.232c-1.715,1.104-2.772,2.117-3.69,3.928c-0.456,0.897-0.85,1.779-1.337,2.601
		c-0.766,0.622-1.601,1.131-2.834,0.986c-0.807-0.095-0.932-1.455-0.833-2.996c0.417-1.423,0.723-2.857,0.523-4.36
		c0-0.002,0-0.004,0-0.007l0,0c-0.002-0.016-0.003-0.033-0.004-0.048c-0.053-0.369-0.922-0.808-1.356-1.109
		c-0.068-0.058-0.137-0.116-0.205-0.174c-0.021-0.028-0.037-0.054-0.036-0.076c-0.032,1.283-0.301,2.628-0.411,3.936
		c-0.17,0.585-0.364,1.169-0.559,1.757c-0.536,1.605-0.788,3.152-0.947,4.824c-0.269,2.78-0.729,5.899,0.167,8.612
		c0.017,0.054,0.049,0.107,0.087,0.16c-0.334,0.298-0.659,0.605-0.97,0.931c-0.122,0.126,1.465,1.551,1.603,1.408
		c2.758-2.875,6.526-4.654,9.486-7.342c2.898-2.631,5.281-5.765,8.152-8.43c5.498-5.099,12.504-8.446,17.168-14.412
		C115.572,40.799,114.117,39.436,113.861,39.528z"/>
	<path fill="#55B250" d="M96.694,53.941c-2.921,2.614-5.319,5.729-8.152,8.429c-2.24,2.135-5.021,3.628-7.446,5.525
		c-0.292-2.507,0.155-5.21,0.388-7.628c0.09-0.933,0.321-1.843,0.591-2.745c0.212,0.309,0.471,0.608,0.793,0.89
		c0.542,0.477,1.124,0.866,1.754,1.096c0.126,0.266,1.412,1.508,1.594,1.36c0.236-0.192,0.451-0.398,0.653-0.611
		c1.478-1.349,3.039-2.535,4.903-3.375c0.002-0.001-1.229-1.372-1.552-1.407c-0.127-0.014-0.246-0.013-0.365-0.013
		c0.661-1.13,1.448-2.181,2.674-2.969c1.686-1.084,2.942-2.062,3.584-3.997c0.644-1.939,0.589-3.741,1.934-5.376
		c1.142,1.184,2.316,2.295,3.912,2.942c0.016,0,0.033,0,0.05,0.001c0.574-1.707,1.973-3.041,3.418-4.089
		c0.673-0.489,1.425-0.853,2.223-1.098c0.355-0.109,0.713-0.126,1.078-0.095c0.081,0.258,0.139,0.521,0.168,0.789
		c0.049,0.295,1.286,1.441,1.598,1.36c0.107-0.028,0.216-0.063,0.324-0.095C106.48,46.923,101.147,49.956,96.694,53.941z"/>
	<path fill="#4BA048" d="M249.16,62.543c-0.893-2.39-1.947-4.959-3.738-6.781c0.428,0.052,0.85,0.107,1.275,0.178
		c1.053,0.175,0.078-1.41-0.258-1.632c-3.781-2.475-8.523-5.953-13.012-4.896c0.23-0.703,0.271-1.439-0.061-2.246
		c-0.467-1.128-1.604-1.758-2.738-2.095c-1.986-0.591-4.223-0.592-6.398-0.418c1.27-0.75,2.719-1.25,4.082-1.886
		c0.793-0.37-0.617-1.621-1.008-1.723c-3.98-1.031-7.693-0.363-11.51,0.594c1.08-1.059,3.051-1.44,4.471-1.937
		c0.934-0.325-0.293-1.691-0.857-1.789c-3.934-0.683-8.047-0.479-11.955,0.254c-3.666,0.687-7.764,2.128-9.834,5.356
		c-0.068,0.106-0.08,0.237-0.062,0.376c-0.252-0.079-0.508-0.157-0.76-0.237c-1.207-0.385-0.471,1.451,0.268,1.687
		c11.727,3.733,24.455,4.7,34.244,12.724c4.119,3.375,6.301,7.68,8.617,12.267c1.791,3.542,4.346,6.559,8.529,7.242
		c0.393,0.065,0.486-0.274,0.473-0.576c-0.172-3.86-2.787-6.659-5.379-9.36c0.99,0.567,1.928,1.22,2.822,1.924
		c0.379,0.297,1.244,0.557,1.096-0.252c-0.6-3.221-1.871-6.438-3.924-8.999c1.654,0.848,3.262,1.773,4.793,2.86
		C248.912,63.592,249.39,63.157,249.16,62.543z"/>
	<path fill="#55B250" d="M241.769,65.398c-1.514-1.078-3.125-2.019-4.893-2.655c-0.914-0.33-0.701,0.798-0.342,1.21
		c2.564,2.973,6.346,5.679,6.908,9.72c-4.467-1.055-5.967-5.55-7.809-9.231c-2.176-4.343-5.402-7.935-9.303-10.886
		c-8.91-6.742-20.109-8.102-30.639-11.082c2.047-2.732,5.748-3.843,9.006-4.515c2.283-0.469,4.662-0.697,7.025-0.662
		c-1.248,0.664-2.184,1.621-2.146,3.265c0.01,0.552,0.617,1.608,1.336,1.42c3.223-0.849,6.312-1.682,9.516-1.631
		c-1.449,0.684-2.781,1.492-3.785,2.888c-0.438,0.605,0.691,1.662,1.291,1.59c2.061-0.248,4.131-0.413,6.209-0.382
		c1.115,0.016,2.262,0.107,3.334,0.427c1.715,0.509-0.754,3.581-1.184,4.344c-0.326,0.581,0.828,2.041,1.441,1.523
		c3.832-3.229,8.041-1.289,11.754,1.061c-0.547-0.064-1.098-0.13-1.645-0.221c-1.018-0.169-0.121,1.578,0.473,1.74
		c2.748,0.752,3.99,3.044,4.941,5.437c-2.469-1.569-5.102-2.819-7.775-4.026c-0.578-0.311-1.184-0.589-1.822-0.819
		c-1.227-0.435-0.381,1.396,0.266,1.688c0.5,0.222,0.996,0.444,1.492,0.666C238.894,58.132,240.841,61.657,241.769,65.398z"/>
	<path fill="#4BA048" d="M188.505,36.661c-2.434,0.025-3.219-6.717-4.201-8.393c-2.232-3.804-5.684-5.221-9.928-6.129
		c-0.539-0.115-1.879,0.656-1.533,1.297c0.775,1.45,1.682,2.829,2.5,4.254c-2.096-0.556-4.072-0.143-5.664,2.094
		c-0.125,0.175-0.162,0.466,0.059,0.586c3.293,1.774,6.467,3.871,8.078,7.305c0.076,0.167,0.334,0.15,0.477,0.15
		c1.248,0,2.338-0.752,3.676-0.741c1.525,0.013,3.189,0.397,4.443,1.259c0.262,0.182,0.742,0.03,1.133-0.238
		c0.037,0.001,0.072,0.005,0.109,0.005C188.361,38.102,189.74,36.648,188.505,36.661z"/>
	<path fill="#55B250" d="M179.392,36.285c0.184-0.07-0.754-1.504-1.021-1.875c-0.512-0.703-1.156-1.347-1.818-1.914
		c-1.482-1.276-3.115-2.311-4.832-3.254c1.412-1.222,3.797,0.387,5.037,1.128c0.592,0.352,1.975-0.582,1.697-1.248
		c-0.709-1.689-1.688-3.238-2.633-4.805c3.52,1.188,6.219,3.225,7.533,7.082c0.375,1.103,0.703,2.892,1.365,4.346
		C182.917,35.454,180.992,35.662,179.392,36.285z"/>
	<path fill="#4BA048" d="M79.515,66.167c-0.39,0.154-0.757,0.34-1.115,0.54c-2.375,0.437-4.618-0.94-6.824-1.627
		c-2.091-0.651-4.181-0.526-6.101,0.519c-1.043,0.567,0.374,1.611,1.116,1.521c0.982-0.123,1.882-0.158,2.759-0.012
		c-4.381,1.906-7.575,5.101-9.438,9.575c-0.304,0.727,0.769,1.38,1.415,1.258c1.095-0.208,2.167-0.507,3.241-0.796
		c-1.255,1.934-2.463,3.911-2.371,6.277c0.033,0.834,1.167,1.347,1.863,0.904c3.096-1.966,5.931-3.946,8.136-6.87
		c2.525-3.349,4.402-8.15,8.652-9.825C81.951,67.196,80.372,65.83,79.515,66.167z"/>
	<path fill="#55B250" d="M72.334,78.498c-1.594,2.753-3.71,4.8-6.13,6.698c0.537-1.966,1.815-3.753,2.749-5.574
		c0.374-0.725-0.931-1.313-1.489-1.174c-1.193,0.299-2.349,0.707-3.514,1.093c1.843-3.929,4.892-6.725,9.161-8.457
		c0.538-0.218,0.355-0.654,0.052-0.984c1.312,0.343,2.631,0.809,3.972,1.026C75.101,73.239,73.729,76.094,72.334,78.498z"/>
	<path fill="#F6B53F" d="M103.943,49.124c-26.807,17.417-47.782,45.433-37.388,71.623h186.343c0,0,4.51-3.9,0-20.481
		c-4.51-16.582-15.803-37.509-25.545-45.356c-12.297-9.9-41.537-21.448-71.572-22.947C140.558,31.203,121.062,38.002,103.943,49.124
		"/>
	<path fill="#3F4142" d="M102.057,48.822c-22.996,15.03-48.961,42.847-37.652,71.998c0.207,0.535,1.163,0.535,1.635,0.535
		c14.1,0,28.197,0,42.296,0c27.686,0,55.373,0,83.058,0c19.357,0,38.717,0,58.074,0c1.318,0,2.754,0.131,4.061-0.093
		c3.955-0.677,3.607-7.631,3.475-10.315c-0.527-10.763-5.09-21.605-9.787-31.219c-4.252-8.706-9.428-17.775-16.768-24.395
		c-6.59-5.943-15.412-9.866-23.617-13.146c-11.23-4.491-23.037-7.571-35.01-9.459c-11.479-1.812-22.646-2.225-34.017,0.364
		c-11.763,2.677-22.938,7.843-33.13,14.075C103.793,47.705,102.923,48.263,102.057,48.822c-0.806,0.52,0.465,0.842,0.853,0.881
		c0.919,0.097,2.125,0.028,2.922-0.487c10.487-6.768,21.983-12.211,34.248-15.11c11.945-2.823,24.268-1.209,36.158,1.151
		c11.719,2.328,23.225,5.966,34.025,10.983c8.029,3.728,15.408,8.221,20.998,15.056c8.674,10.611,14.842,23.731,18.805,36.671
		c1.744,5.695,3.221,11.901,2.518,17.884c-0.148,1.277-0.451,2.558-1.035,3.716c-0.129,0.253-0.941,1.237-0.537,0.878
		c0.803-0.172,1.602-0.343,2.404-0.513c-14.1,0-28.199,0-42.297,0c-27.684,0-55.373,0-83.057,0c-19.359,0-38.716,0-58.075,0
		c-0.974,0-1.945,0-2.917,0c0.545,0.179,1.092,0.357,1.636,0.536c-11.199-28.867,14.321-56.346,37.125-71.252
		c0.801-0.523-0.458-0.839-0.853-0.881C104.063,48.239,102.849,48.303,102.057,48.822L102.057,48.822z"/>
	<g>
		<path fill="#D69630" d="M194.279,85.233c5.764,19.519-13.961,35.341-38.292,30.716c-24.332,4.625-44.057-11.197-38.292-30.716
			c-5.765-19.52,13.96-35.342,38.292-30.718C180.318,49.891,200.042,65.713,194.279,85.233z"/>
	</g>
	<path fill="#3F4142" d="M201.849,78.039c-0.117-1.945-0.973-4.279-1.596-6.142c-0.748-2.236-2.201-4.091-3.783-5.829
		c-3.32-3.64-7.082-8.144-11.588-10.447c-4.279-2.19-8.848-3.713-13.602-4.568c-4.857-0.875-10.078-1.381-15.022-0.983
		c-1.948,0.155-3.887,0.226-5.844,0.199c-0.462-0.006-1.712,0.054-1.971-0.268c-0.306-0.379-0.846-0.572-1.328-0.592
		c-1.606-0.063-3.465,1.058-4.927,1.534c-2.457,0.8-5.075,1.003-7.414,2.139c-1.529,0.743-2.811,1.913-4.152,2.926
		c-1.456,1.103-3.105,1.943-4.579,3.022c-4.294,3.143-7.96,8.492-8.966,13.633c-1.407,7.2,5.024,10.868,11.244,12.329
		c-0.152,0.755-0.298,1.514-0.539,2.248c-0.331,0.999-1.178,2.021-1.38,3.008c-0.376,1.837,0.065,4.027,0.062,5.901
		c-0.006,2.699-0.075,5.423,0.354,8.098c0.562,3.521,4.289,6.476,7.909,6.445c1.619-0.013,3.176-0.721,4.821-0.78
		c1.949-0.069,3.927,0.452,5.76,1.04c3.239,1.039,6.29,1.337,9.649,1.875c3.171,0.508,6.125,1.521,9.372,1.801
		c3.549,0.304,7.117-0.213,10.645-0.58c1.811-0.188,3.617-0.45,5.434-0.565c1.021-0.064,1.98,0.472,2.955,0.676
		c2.244,0.468,3.805-0.696,5.316-2.19c1.369-1.355,3.17-2.819,3.824-4.673c0.768-2.17,0.023-5.143-0.359-7.306
		c-0.455-2.562,0.01-4.181,1.488-6.364c1.025-1.513,0.623-3.384,0.588-5.107c-0.018-0.724,0.055-1.45,0.062-2.174
		c1.658-1.256,3.293-2.553,5.025-3.708C201.095,81.444,201.976,80.194,201.849,78.039z M189.908,100.903
		c0.338,2.031,0.924,4.904-0.389,6.718c-1.371,1.896-4.229,5.521-6.766,4.711c-2.553-0.817-4.963-0.364-7.59-0.079
		c-3.914,0.422-7.857,0.981-11.797,0.643c-2.941-0.252-5.688-1.132-8.552-1.729c-1.636-0.341-3.342-0.394-5-0.59
		c-1.662-0.197-3.134-0.86-4.706-1.364c-2.575-0.826-5.595-1.319-8.29-0.838c-1.981,0.353-3.51,1.072-5.216-0.363
		c-0.775-0.65-1.657-1.337-2.041-2.272c-0.892-2.171-0.639-5.015-0.649-7.301c-0.009-2.397-0.045-4.789-0.097-7.185
		c-0.015-0.702,0.807-1.862,1.125-2.623c0.491-1.159,0.622-2.47,0.903-3.714c0.007-0.006,0.013-0.011,0.018-0.019
		c2.474-3.11,5.271-5.905,8.217-8.559c0.016-0.012,0.03-0.023,0.044-0.035c0.858-0.637,1.605-1.391,2.392-2.104
		c0.153-0.131,0.303-0.264,0.458-0.394c0.193-0.165,0.382-0.333,0.587-0.487c2.039-1.544,4.572-2.788,7.053-3.639
		c1.219-0.083,2.52,0.078,3.964,0.477c1.131,0.31,2.267,0.345,3.406,0.273c1.451,0,2.916-0.269,4.343-0.452
		c1.006-0.13,2.041-0.284,3.086-0.429c1.891-0.188,3.795-0.294,5.668-0.178c1.535,0.096,3.111,0.568,4.67,1.202
		c0.793,0.441,1.561,0.911,2.297,1.275c2.334,1.158,4.621,2.167,6.74,3.532c1.369,1.094,2.588,2.38,3.758,3.652
		c1.285,1.394,3.096,3.25,3.885,5.208c0.555,1.728,0.305,3.434,0.383,5.505c0.078,2.121-0.557,2.753-1.531,4.57
		C189.089,96.541,189.511,98.523,189.908,100.903z M197.767,81.083c-1.307,0.955-2.613,1.909-3.916,2.869
		c-0.309-0.702-0.758-1.364-1.217-1.998c-0.033-0.048-0.07-0.098-0.104-0.147c-0.174-0.241-0.348-0.479-0.514-0.71
		c-1.645-2.345-3.539-4.475-5.842-6.193c-0.738-0.624-1.512-1.211-2.32-1.735c-2.504-1.623-5.59-3.001-8.512-4.095
		c-0.516-0.233-1.023-0.463-1.533-0.69c-2.885-1.299-6.105-0.916-9.182-0.579c-1.016,0.096-2.031,0.212-3.033,0.313
		c-1.77,0.178-3.567,0.562-5.345,0.594c-0.81-0.081-1.586-0.274-2.293-0.642c-1.674-0.867-3.389-0.706-5.065-0.198
		c-1.587,0.108-3.133,0.551-4.658,1.406c-3.15,1.765-6.097,4.59-8.747,7.19c-1.891,1.523-3.85,2.98-5.601,4.619
		c-0.061,0.041-0.12,0.088-0.163,0.147c-0.068,0.065-0.11,0.133-0.14,0.2c-0.416,0.604-0.684,1.253-0.881,1.929
		c-4.051-0.917-8.317-2.692-9.19-7.054c-0.669-3.337,1.049-6.855,2.795-9.614c1.547-2.443,3.525-4.81,5.891-6.542
		c1.408-1.03,2.976-1.843,4.383-2.877c1.674-1.229,3.164-2.576,5.168-3.298c2.458-0.885,5.115-1.2,7.595-2.081
		c0.548-0.195,1.09-0.405,1.638-0.603c0.021-0.006,0.037-0.012,0.055-0.018c0.097,0.066,0.201,0.125,0.322,0.173
		c3.263,1.283,7.311,0.393,10.736,0.234c9.833-0.457,22.639,1.481,29.891,8.602c4.135,4.062,8.977,7.986,10.4,13.73
		C199.025,76.583,200.347,79.197,197.767,81.083z"/>
	<path fill="#3F4142" d="M201.849,78.039c-0.117-1.945-0.973-4.279-1.596-6.142c-0.748-2.236-2.201-4.091-3.783-5.829
		c-3.32-3.64-7.082-8.144-11.588-10.447c-4.279-2.19-8.848-3.713-13.602-4.568c-4.857-0.875-10.078-1.381-15.022-0.983
		c-1.948,0.155-3.887,0.226-5.844,0.199c-0.462-0.006-1.712,0.054-1.971-0.268c-0.306-0.379-0.846-0.572-1.328-0.592
		c-1.606-0.063-3.465,1.058-4.927,1.534c-2.457,0.8-5.075,1.003-7.414,2.139c-1.529,0.743-2.811,1.913-4.152,2.926
		c-1.456,1.103-3.105,1.943-4.579,3.022c-4.294,3.143-7.96,8.492-8.966,13.633c-1.407,7.2,5.024,10.868,11.244,12.329
		c-0.152,0.755-0.298,1.514-0.539,2.248c-0.331,0.999-1.178,2.021-1.38,3.008c-0.376,1.837,0.065,4.027,0.062,5.901
		c-0.006,2.699-0.075,5.423,0.354,8.098c0.562,3.521,4.289,6.476,7.909,6.445c1.619-0.013,3.176-0.721,4.821-0.78
		c1.949-0.069,3.927,0.452,5.76,1.04c3.239,1.039,6.29,1.337,9.649,1.875c3.171,0.508,6.125,1.521,9.372,1.801
		c3.549,0.304,7.117-0.213,10.645-0.58c1.811-0.188,3.617-0.45,5.434-0.565c1.021-0.064,1.98,0.472,2.955,0.676
		c2.244,0.468,3.805-0.696,5.316-2.19c1.369-1.355,3.17-2.819,3.824-4.673c0.768-2.17,0.023-5.143-0.359-7.306
		c-0.455-2.562,0.01-4.181,1.488-6.364c1.025-1.513,0.623-3.384,0.588-5.107c-0.018-0.724,0.055-1.45,0.062-2.174
		c1.658-1.256,3.293-2.553,5.025-3.708C201.095,81.444,201.976,80.194,201.849,78.039z"/>
	<path fill="#FD5D5D" d="M197.767,81.083c-1.307,0.955-2.613,1.909-3.916,2.869c-0.309-0.702-0.758-1.364-1.217-1.998
		c-0.033-0.048-0.07-0.098-0.104-0.147c-0.174-0.241-0.348-0.479-0.514-0.71c-1.645-2.345-3.539-4.475-5.842-6.193
		c-0.738-0.624-1.512-1.211-2.32-1.735c-2.504-1.623-5.59-3.001-8.512-4.095c-0.516-0.233-1.023-0.463-1.533-0.69
		c-2.885-1.299-6.105-0.916-9.182-0.579c-1.016,0.096-2.031,0.212-3.033,0.313c-1.77,0.178-3.567,0.562-5.345,0.594
		c-0.81-0.081-1.586-0.274-2.293-0.642c-1.674-0.867-3.389-0.706-5.065-0.198c-1.587,0.108-3.133,0.551-4.658,1.406
		c-3.15,1.765-6.097,4.59-8.747,7.19c-1.891,1.523-3.85,2.98-5.601,4.619c-0.061,0.041-0.12,0.088-0.163,0.147
		c-0.068,0.065-0.11,0.133-0.14,0.2c-0.416,0.604-0.684,1.253-0.881,1.929c-4.051-0.917-8.317-2.692-9.19-7.054
		c-0.669-3.337,1.049-6.855,2.795-9.614c1.547-2.443,3.525-4.81,5.891-6.542c1.408-1.03,2.976-1.843,4.383-2.877
		c1.674-1.229,3.164-2.576,5.168-3.298c2.458-0.885,5.115-1.2,7.595-2.081c0.548-0.195,1.09-0.405,1.638-0.603
		c0.021-0.006,0.037-0.012,0.055-0.018c0.097,0.066,0.201,0.125,0.322,0.173c3.263,1.283,7.311,0.393,10.736,0.234
		c9.833-0.457,22.639,1.481,29.891,8.602c4.135,4.062,8.977,7.986,10.4,13.73C199.025,76.583,200.347,79.197,197.767,81.083z"/>
	<path fill="#FFFFFF" d="M189.908,100.903c0.338,2.031,0.924,4.904-0.389,6.718c-1.371,1.896-4.229,5.521-6.766,4.711
		c-2.553-0.817-4.963-0.364-7.59-0.079c-3.914,0.422-7.857,0.981-11.797,0.643c-2.941-0.252-5.688-1.132-8.552-1.729
		c-1.636-0.341-3.342-0.394-5-0.59c-1.662-0.197-3.134-0.86-4.706-1.364c-2.575-0.826-5.595-1.319-8.29-0.838
		c-1.981,0.353-3.51,1.072-5.216-0.363c-0.775-0.65-1.657-1.337-2.041-2.272c-0.892-2.171-0.639-5.015-0.649-7.301
		c-0.009-2.397-0.045-4.789-0.097-7.185c-0.015-0.702,0.807-1.862,1.125-2.623c0.491-1.159,0.622-2.47,0.903-3.714
		c0.007-0.006,0.013-0.011,0.018-0.019c2.474-3.11,5.271-5.905,8.217-8.559c0.016-0.012,0.03-0.023,0.044-0.035
		c0.858-0.637,1.605-1.391,2.392-2.104c0.153-0.131,0.303-0.264,0.458-0.394c0.193-0.165,0.382-0.333,0.587-0.487
		c2.039-1.544,4.572-2.788,7.053-3.639c1.219-0.083,2.52,0.078,3.964,0.477c1.131,0.31,2.267,0.345,3.406,0.273
		c1.451,0,2.916-0.269,4.343-0.452c1.006-0.13,2.041-0.284,3.086-0.429c1.891-0.188,3.795-0.294,5.668-0.178
		c1.535,0.096,3.111,0.568,4.67,1.202c0.793,0.441,1.561,0.911,2.297,1.275c2.334,1.158,4.621,2.167,6.74,3.532
		c1.369,1.094,2.588,2.38,3.758,3.652c1.285,1.394,3.096,3.25,3.885,5.208c0.555,1.728,0.305,3.434,0.383,5.505
		c0.078,2.121-0.557,2.753-1.531,4.57C189.089,96.541,189.511,98.523,189.908,100.903z"/>
	<path fill="#E85656" d="M145.479,61.557c-9.6,2.717-19.697,9.052-24.422,18.015c1.805,2.111,4.766,3.193,7.629,3.84
		c0.196-0.676,0.464-1.327,0.88-1.93c0.03-0.067,0.072-0.135,0.14-0.201c0.042-0.06,0.1-0.105,0.162-0.147
		c1.753-1.637,3.712-3.095,5.6-4.618c2.652-2.6,5.599-5.425,8.749-7.19c1.524-0.855,3.071-1.296,4.659-1.406
		c1.674-0.508,3.391-0.669,5.065,0.198c0.707,0.367,1.481,0.561,2.291,0.641c1.781-0.031,3.58-0.415,5.349-0.593
		c1-0.102,2.014-0.218,3.031-0.314c3.074-0.337,6.297-0.718,9.182,0.579c0.51,0.228,1.02,0.458,1.533,0.691
		c2.922,1.092,6.008,2.471,8.51,4.093c0.812,0.526,1.58,1.113,2.322,1.737c2.303,1.718,4.195,3.847,5.844,6.191
		c0.162,0.233,0.336,0.47,0.508,0.711c0.039,0.049,0.074,0.098,0.109,0.147c0.457,0.635,0.904,1.297,1.215,2
		c0.773-0.57,1.547-1.135,2.322-1.702c-0.912-2.217-2.354-4.547-3.779-6.513C181.876,61.313,162.597,56.712,145.479,61.557z"/>
	<path fill="#3F4142" d="M197.521,82.867c-3.061-8.54-10.607-15.835-18.746-19.839c-15.412-7.583-36.076-4.956-49.373,5.57
		c-3.826,3.029-7.594,6.948-9.726,11.349c-0.266,0.55,0.761,0.858,1.008,0.347c4.541-9.37,14.939-15.99,24.811-18.785
		c17.119-4.844,36.398-0.242,46.896,14.229c1.588,2.184,3.197,4.822,4.068,7.249C196.65,83.514,197.724,83.434,197.521,82.867
		L197.521,82.867z"/>
	<path fill="#3F4142" d="M149.68,76.681c-0.316,0.259-0.93,0.457-1.333,0.654c-0.587,0.287-1.203,0.585-1.686,1.025
		c-0.374,0.341,0.189,0.888,0.562,0.547c0.858-0.785,2.136-0.955,3.018-1.68C150.634,76.906,150.069,76.361,149.68,76.681
		L149.68,76.681z"/>
	<path fill="#3F4142" d="M168.701,79.388c1.361-0.562,2.564-1.443,3.881-2.1c0.455-0.229,0.053-0.895-0.402-0.667
		c-1.314,0.657-2.518,1.537-3.881,2.1C167.83,78.913,168.236,79.579,168.701,79.388L168.701,79.388z"/>
	<path fill="#3F4142" d="M181.308,99.397c0.984,1.376,2.391,2.362,3.807,3.287c0.428,0.278,0.824-0.394,0.4-0.668
		c-1.295-0.845-2.617-1.747-3.521-3.009C181.703,98.601,181.013,98.987,181.308,99.397L181.308,99.397z"/>
	<path fill="#3F4142" d="M187.648,88.384c0.189,0.013,0.379,0.031,0.562,0.074c0.104,0.025,0.123,0.081,0.09-0.028
		c-0.043-0.118,0.031-0.132-0.045-0.047c-0.064,0.072-0.143,0.139-0.219,0.196c-0.389,0.29-0.828,0.503-1.236,0.764
		c-0.426,0.272-0.031,0.941,0.402,0.666c0.555-0.353,1.252-0.632,1.676-1.149c0.209-0.258,0.307-0.628,0.037-0.891
		c-0.32-0.309-0.846-0.332-1.268-0.358C187.138,87.577,187.14,88.351,187.648,88.384L187.648,88.384z"/>
	<path fill="#3F4142" d="M179.974,81.045c0.164,0.718,0.623,1.272,1.287,1.616c0.451,0.234,0.854-0.434,0.4-0.667
		c-0.492-0.257-0.799-0.619-0.922-1.155C180.628,80.353,179.865,80.559,179.974,81.045L179.974,81.045z"/>
	<path fill="#3F4142" d="M175.566,104.762c0.164-0.477,0.377-0.928,0.607-1.378c-0.242-0.099-0.484-0.198-0.727-0.299
		c-0.221,0.596-0.68,1.073-1.039,1.59c-0.285,0.413,0.402,0.799,0.688,0.39c0.404-0.582,0.869-1.104,1.117-1.771
		c0.152-0.413-0.525-0.688-0.725-0.299c-0.262,0.509-0.5,1.023-0.688,1.562C174.634,105.029,175.402,105.229,175.566,104.762
		L175.566,104.762z"/>
	<path fill="#3F4142" d="M164.337,91.372c-0.859,0.812-1.914,1.438-2.936,2.038c-0.439,0.257-0.039,0.928,0.4,0.668
		c1.08-0.634,2.188-1.302,3.1-2.158C165.271,91.572,164.708,91.026,164.337,91.372L164.337,91.372z"/>
	<path fill="#3F4142" d="M142.781,105.125c1.44,1.76,3.584,2.59,5.789,3.042c0.5,0.103,0.711-0.643,0.211-0.746
		c-2.084-0.429-4.076-1.179-5.438-2.844C143.023,104.188,142.464,104.738,142.781,105.125L142.781,105.125z"/>
	<path fill="#3F4142" d="M133.165,90.558c-0.02,1.007-0.354,1.859-0.81,2.748c-0.228,0.445,0.457,0.837,0.685,0.392
		c0.52-1.012,0.895-1.995,0.919-3.14C133.969,90.06,133.175,90.06,133.165,90.558L133.165,90.558z"/>
	<path fill="#3F4142" d="M133.281,104.705c0.402,0.441,0.163,1.168-0.062,1.634c-0.218,0.447,0.469,0.84,0.686,0.39
		c0.394-0.816,0.61-1.836-0.062-2.57C133.501,103.784,132.942,104.333,133.281,104.705L133.281,104.705z"/>
	<path fill="#3F4142" d="M157.543,79.962c1.248,0.785,2.636,1.315,3.884,2.102c0.434,0.272,0.83-0.398,0.402-0.668
		c-1.246-0.786-2.638-1.315-3.886-2.102C157.514,79.022,157.113,79.692,157.543,79.962L157.543,79.962z"/>
	<path fill="#3F4142" d="M150.296,72.529c-1.595,0.536-3.11,1.259-4.749,1.682c-0.494,0.127-0.285,0.873,0.21,0.746
		c1.639-0.422,3.156-1.145,4.75-1.683C150.988,73.112,150.782,72.364,150.296,72.529L150.296,72.529z"/>
	<path fill="#3F4142" d="M165.171,108.83c1.012,1.419,2.443,2.251,4.23,2.294c0.512,0.011,0.512-0.762,0-0.773
		c-1.496-0.035-2.697-0.724-3.543-1.91C165.568,108.034,164.878,108.419,165.171,108.83L165.171,108.83z"/>
	<path fill="#3F4142" d="M184.234,108.487c0.797,0.813,1.17,1.875,1.666,2.865c0.225,0.449,0.91,0.056,0.686-0.392
		c-0.529-1.056-0.939-2.152-1.787-3.02C184.443,107.578,183.882,108.126,184.234,108.487L184.234,108.487z"/>
	<ellipse fill="#D69630" cx="204.563" cy="97.82" rx="5.265" ry="5.127"/>
	<ellipse fill="#D69630" cx="114.812" cy="97.82" rx="5.265" ry="5.127"/>
	<path fill="#3F4142" d="M139.589,99.935c0.165-0.478,0.375-0.927,0.606-1.377c-0.244-0.1-0.483-0.199-0.726-0.299
		c-0.22,0.595-0.68,1.072-1.037,1.587c-0.29,0.413,0.4,0.801,0.685,0.391c0.406-0.58,0.872-1.103,1.119-1.773
		c0.152-0.412-0.525-0.687-0.726-0.295c-0.261,0.507-0.499,1.022-0.687,1.561C138.657,100.202,139.425,100.404,139.589,99.935
		L139.589,99.935z"/>
	<path fill="#3F4142" d="M114.955,95.639c-4.411-0.253-6.106-7.771-5.488-11.142c0.357-1.949-2.704-2.783-3.065-0.822
		c-1.009,5.507,1.737,14.664,8.553,15.057C117.003,98.849,116.99,95.756,114.955,95.639L114.955,95.639z"/>
	<path fill="#3F4142" d="M108.228,85.348c1.31-0.048,2.481-0.631,3.093-1.795c0.629-1.195,0.538-2.604,0.193-3.865
		c-0.527-1.925-3.593-1.107-3.063,0.823c0.157,0.576,0.216,1.069,0.086,1.541c-0.063,0.234-0.026,0.102-0.181,0.243
		c0.036-0.055,0.086-0.086,0.153-0.092c-0.335,0.129,0.116,0.038-0.281,0.052C106.186,82.33,106.178,85.423,108.228,85.348
		L108.228,85.348z"/>
	<path fill="#3F4142" d="M109.817,84.371c0-1.138,0-2.278,0-3.417c0-1.994-3.177-1.994-3.177,0c0,1.14,0,2.279,0,3.417
		C106.64,86.366,109.817,86.366,109.817,84.371L109.817,84.371z"/>
	<path fill="#3F4142" d="M108.135,83.875c-0.472-0.977-0.643-2.134-0.66-3.206c-0.028-1.994-3.206-1.997-3.178,0
		c0.025,1.644,0.375,3.279,1.096,4.766c0.37,0.763,1.477,0.953,2.173,0.557C108.363,85.538,108.505,84.638,108.135,83.875
		L108.135,83.875z"/>
	<path fill="#3F4142" d="M142.755,121.29c-1.709,4.3-3.156,10.031-1.009,14.407c0.598-0.758,1.196-1.517,1.794-2.273
		c-1.376-0.479-2.765-0.835-4.226-0.935c-2.051-0.141-2.023,2.934,0,3.094c1.18,0.091,2.33,0.346,3.509,0.438
		c2.044,0.16,2.029-2.933,0-3.093c-1.18-0.092-2.329-0.347-3.509-0.439c0,1.03,0,2.062,0,3.094c1.164,0.078,2.289,0.445,3.381,0.824
		c1.434,0.498,2.338-1.164,1.793-2.271c-1.717-3.501-0.015-8.637,1.331-12.023C146.56,120.248,143.487,119.449,142.755,121.29
		L142.755,121.29z"/>
	<path fill="#3F4142" d="M172.744,121.901c-0.299,2.592,0.111,5.18,0.271,7.768c0.152,2.425-0.564,4.695-0.564,7.112
		c0,0.843,0.725,1.381,1.586,1.449c1.328,0.106,2.348,0.195,3.641-0.051c1.549-0.294,1.492-2.473,0-2.799
		c-1.508-0.329-2.967-0.454-4.518-0.465c-2.049-0.014-2.049,2.889,0,2.902c1.295,0.008,2.391,0.08,3.674,0.361
		c0-0.932,0-1.866,0-2.799c-0.936,0.079-1.867,0.062-2.797-0.053c0.531,0.485,1.059,0.967,1.59,1.453c0-2.1,0.58-4.104,0.596-6.214
		c0.023-2.904-0.635-5.759-0.303-8.666C176.132,120.042,172.953,120.062,172.744,121.901L172.744,121.901z"/>
	<path fill="#3F4142" d="M183.203,55.084c-3.854-0.132-7.766,1.383-10.826,3.556c-0.717,0.509,0.207,1.768,0.922,1.259
		c2.875-2.041,6.527-3.468,10.146-3.343C184.412,56.588,184.05,55.113,183.203,55.084L183.203,55.084z"/>
	<path fill="#3F4142" d="M172.271,51.698c-4.285,0.086-10.615,1.088-12.562,5.363c-0.154,0.337,1.172,1.115,1.24,0.966
		c1.939-4.259,8.164-5.231,12.455-5.319C173.492,52.707,172.705,51.688,172.271,51.698L172.271,51.698z"/>
	<path fill="#3F4142" d="M155.859,49.744c-5.959,0.966-11.998,4.235-15.033,9.419c-0.43,0.736,1.127,0.789,1.462,0.214
		c2.793-4.766,8.353-7.709,13.823-8.596C157.088,50.622,156.815,49.589,155.859,49.744L155.859,49.744z"/>
	<path fill="#3F4142" d="M185.333,65.874c1.666-1.297,5.119-3.521,7.035-1.774c0.299,0.271,1.809,0.293,1.402-0.077
		c-2.885-2.628-7.328-0.56-9.926,1.457C183.574,65.69,184.964,66.161,185.333,65.874L185.333,65.874z"/>
	<path fill="#3F4142" d="M135.92,52.801c-3.498,2.487-8.569,6.482-8.748,11.053c-0.012,0.335,0.821,1.477,0.836,1.079
		c0.172-4.403,5.283-8.367,8.663-10.771C136.963,53.957,136.122,52.657,135.92,52.801L135.92,52.801z"/>
	<path fill="#3F4142" d="M143.989,68.905c-3.477,0.887-4.876,3.862-7.174,6.262c-2.98,3.107-7.633,3.918-10.148,7.566
		c-0.212,0.307-0.015,0.736,0.279,0.922c1.435,0.911,2.334,1.084,3.362-0.409c0.297-0.431-0.19-1.024-0.647-1.095
		c-1.077-0.167-1.693-0.143-2.73,0.206c-0.767,0.257-0.142,1.132,0.382,1.261c1.11,0.273,1.32,0.129,2.231-0.477
		c0.719-0.481-0.393-1.455-1.035-1.143c-0.143,0.07-0.287,0.14-0.431,0.21c0.384,0.345,0.768,0.691,1.15,1.037
		c0.47-0.897,1.246-1.472,2.326-1.726c0.88-0.242-0.027-1.46-0.737-1.266c-1.37,0.377-2.044,0.896-2.856,2.058
		c-0.431,0.62,0.577,1.317,1.151,1.039c0.143-0.071,0.287-0.141,0.432-0.21c-0.345-0.382-0.689-0.762-1.035-1.143
		c-0.332,0.329-0.74,0.45-1.224,0.362c0.127,0.42,0.255,0.841,0.383,1.261c0.675-0.071,1.347-0.143,2.021-0.215
		c-0.216-0.364-0.433-0.729-0.648-1.095c-0.462,0.145-0.925,0.288-1.386,0.432c0.092,0.308,0.186,0.615,0.279,0.922
		c2.118-3.073,5.821-4.272,8.794-6.375c3.009-2.128,4.153-6.141,7.999-7.121C145.609,69.945,144.701,68.724,143.989,68.905
		L143.989,68.905z"/>
	<path fill="#3F4142" d="M152.511,69c1.446-0.813,4.119-0.372,5.706-0.306c1.761,0.073,3.517,0.236,5.277,0.255
		c0.34-0.308,0.68-0.616,1.02-0.924c-3.08,0.071-6.11,0.724-9.185,0.215c-0.439-0.073-1.416,0.882-1.217,0.916
		c3.141,0.519,6.234-0.133,9.382-0.207c0.35-0.007,1.502-0.918,1.02-0.924c-2.322-0.027-4.639-0.255-6.962-0.311
		c-1.604-0.039-3.496-0.129-4.938,0.681C152.082,68.692,151.561,69.533,152.511,69L152.511,69z"/>
	<path fill="#3F4142" d="M155.01,69.682c4.89-1.197,10.091-0.516,14.841,0.964c2.547,0.795,4.914,2.163,7.342,3.246
		c2.535,1.132,5.303,1.253,7.816,2.462c0.695,0.334-0.248-0.871-0.557-1.019c-2.506-1.207-5.258-1.403-7.814-2.462
		c-2.562-1.062-4.971-2.417-7.6-3.337c-4.652-1.63-10.224-2.16-15.041-0.981C153.651,68.639,154.6,69.782,155.01,69.682
		L155.01,69.682z"/>
	<path fill="#3F4142" d="M167.208,69.035c2.998,0.562,4.76,2.473,7.338,3.783c2.656,1.35,5.568,1.738,8.422,2.523
		c0.4,0.111,1.373-0.673,1.367-0.675c-3.129-0.861-6.383-1.197-9.146-3.001c-2.213-1.444-3.926-2.801-6.615-3.305
		C168.152,68.281,167.234,69.041,167.208,69.035L167.208,69.035z"/>
	<path fill="#3F4142" d="M182.669,74.433c-0.182-1.482-2.145-2.334-3.328-2.919c-2.088-1.034-4.555-1.651-6.461-2.997
		c-0.721-0.506-1.758,0.185-0.91,0.782c1.34,0.944,2.934,1.522,4.441,2.163c1.072,0.458,4.602,1.502,4.768,2.852
		C181.269,75.031,182.777,75.322,182.669,74.433L182.669,74.433z"/>
	<path fill="#3F4142" d="M172.513,69.8c1.213,3.77,6.438,5.432,9.426,2.557c0.49-0.475-0.467-0.787-0.828-0.76
		c-2.461,0.191-4.709,0.442-5.537-2.321c-0.164-0.546-1.414-0.587-1.566-0.021c-1.121,4.219,4.02,6.01,7.064,3.732
		c0.633-0.473-0.854-0.94-1.32-0.591c-2.482,1.86-4.865-0.355-4.162-2.995c-0.521-0.006-1.043-0.014-1.566-0.021
		c1.041,3.468,4.303,3.384,7.422,3.144c-0.275-0.254-0.551-0.507-0.828-0.759c-2.324,2.239-5.664,0.701-6.553-2.068
		C173.878,69.125,172.3,69.14,172.513,69.8L172.513,69.8z"/>
	<path fill="#3F4142" d="M181.033,74.051c-1.275-2.031-4.389-2.723-6.588-3.285c-0.215-0.055,0.377,1.188,0.707,1.328
		c1.328,0.567,2.725,0.855,4.102,1.263c-0.232-0.443-0.469-0.887-0.703-1.329c-1.223-0.226-2.428-0.382-3.672-0.42
		c-0.344-0.01,0.398,1.186,0.617,1.289c3.367,1.57,6.979,2.495,10.668,2.982c0.221,0.03-0.295-1.274-0.707-1.328
		c-3.615-0.478-7.191-1.364-10.49-2.904c0.205,0.43,0.412,0.859,0.619,1.29c1.244,0.037,2.445,0.193,3.668,0.42
		c0.227,0.042-0.336-1.221-0.703-1.329c-1.383-0.407-2.779-0.695-4.105-1.261c0.234,0.442,0.473,0.886,0.707,1.328
		c1.391,0.356,4.721,0.934,5.506,2.182C181.138,75.042,181.515,74.813,181.033,74.051L181.033,74.051z"/>
	<path fill="#3F4142" d="M173.351,69.895c-2.234-0.416-4.424-1.024-6.691-1.261c0.131,0.014,0.754,0.9,1.166,0.968
		c1.562,0.261,3.027,0.773,4.457,1.442c0.037,0.027,0.074,0.036,0.115,0.026c0.734-1.463,1.979-0.683,3.092,0.04
		c0.816,0.532-0.287-0.473-0.516-0.622c-0.896-0.58-1.979-1.46-3.119-1.207c-0.324,0.073-0.625,0.833-1.029,0.643
		c-0.34-0.159-0.695-0.304-1.047-0.435c-1.023-0.377-2.043-0.676-3.119-0.855c0.389,0.323,0.775,0.646,1.166,0.968
		c2.268,0.237,4.457,0.846,6.693,1.262C174.349,70.831,173.789,69.976,173.351,69.895L173.351,69.895z"/>
	<path fill="#3F4142" d="M137.887,88.053c0.775-0.86,1.797-1.542,2.99-1.685c1.666-0.198,2.448,1.177,2.76,2.561
		c0.144,0.639,1.625,1.129,1.442,0.315c-0.43-1.91-1.449-3.516-3.483-4.037c-1.894-0.486-3.818,0.638-5.019,1.969
		C136.104,87.704,137.394,88.601,137.887,88.053L137.887,88.053z"/>
	<path fill="#3F4142" d="M177.599,91.436c0.91-1.047,2.008-1.965,3.414-2.27c1.982-0.431,2.59,1.548,2.82,3.061
		c0.082,0.521,1.479,1.183,1.363,0.445c-0.307-2.008-1.24-3.927-3.363-4.565c-2.146-0.646-4.219,0.925-5.516,2.415
		C175.941,90.954,177.203,91.89,177.599,91.436L177.599,91.436z"/>
	<path fill="#3F4142" d="M158.588,104.557c6.064,0.711,11.935-1.687,14.466-7.309c0.393-0.868-1.068-0.74-1.346-0.127
		c-2.238,4.965-7.17,6.892-12.494,6.267C158.535,103.31,157.622,104.443,158.588,104.557L158.588,104.557z"/>
	<path fill="#3F4142" d="M147.545,96.182c1.545,4.846,6.099,7.587,11.043,8.375c0.681,0.109,1.589-1.015,0.627-1.169
		c-4.674-0.746-8.826-3.401-10.273-7.944C148.738,94.805,147.328,95.499,147.545,96.182L147.545,96.182z"/>
	<path fill="#D69630" d="M84.24,99.765c-2.028,0.004-4.062,0.09-5.949,0.884c-0.835,0.352-1.304,1.314-0.248,1.698
		c3.101,1.132,6.839,1.388,9.913,0.056c0.51-0.219,1.199-0.825,0.756-1.402c-2.3-3.006-8.997-3.377-10.183,0.788
		c-0.072,0.251,0.127,0.551,0.35,0.659c2.421,1.169,5.434,0.888,7.609-0.673c0.34-0.244,0.825-0.803,0.417-1.214
		c-1.599-1.609-3.703-1.411-5.679-0.573c-0.802,0.343-1.337,1.345-0.248,1.7c1.503,0.489,3.025,0.488,4.582,0.272
		c0.633-0.087,1.589-0.409,1.707-1.137c0.115-0.707-0.862-0.904-1.386-0.832c-1.082,0.148-2.048,0.175-3.098-0.168
		c-0.083,0.567-0.165,1.134-0.248,1.7c0.621-0.366,1.137-0.262,1.551,0.309c0.137-0.405,0.276-0.811,0.415-1.215
		c-0.966,0.693-2.165,0.723-3.234,0.207c0.118,0.22,0.236,0.439,0.352,0.658c0.524-1.843,3.555-0.15,4.274,0.788
		c0.25-0.468,0.504-0.935,0.755-1.403c-2.074,0.898-4.759,0.361-6.801-0.385c-0.083,0.568-0.166,1.134-0.249,1.701
		c1.079-0.453,2.38-0.434,3.536-0.437c0.727-0.001,1.625-0.206,2.006-0.884C85.483,100.247,84.839,99.765,84.24,99.765L84.24,99.765
		z"/>
	<path fill="#D69630" d="M91.747,79.927c-2.034-2.114-11.058-1.525-9.111,2.66c1.656,3.564,8.211,1.635,10.088-0.757
		c0.694-0.882-0.795-2.003-1.5-2.277c-1.976-0.769-7.644-1.541-7.497,1.917c0.163,3.763,5.421,3.067,6.407,0.164
		c0.335-0.984-1.078-2.017-1.919-2.13c-1.345-0.182-2.202,0.121-3.172,1.031c-0.719,0.677,0.673,1.866,1.178,2.151
		c1.799,1.009,4.126,0.753,4.591-1.493c0.228-1.097-2.262-2.934-2.501-1.781c-0.227,1.102-1.085,1.763-2.185,1.147
		c0.393,0.717,0.786,1.433,1.178,2.15c0.743-0.698,1.224-0.866,2.251-0.727c-0.641-0.711-1.281-1.42-1.921-2.131
		c-0.246,0.726-0.879,1.224-1.558,1.565c-0.286,0.144-0.616,0.255-0.94,0.272c0.711,1.254,1.12,1.513,1.229,0.778
		c0.069-0.27,0.269-0.436,0.472-0.613c1.186-1.041,3.832-0.426,5.13,0.08c-0.5-0.759-1.001-1.518-1.501-2.278
		c-1.178,1.5-4.412,2.745-6.334,2.348c0.339,0.07,0.735,1.447,0.851,0.904c0.061-0.291,0.228-0.567,0.421-0.791
		c0.382-0.444,1.137-0.573,1.682-0.691c0.74-0.162,1.517-0.171,2.273-0.162c0.383,0.003,0.763,0.039,1.142,0.081
		c0.612,0.069,0.667,0.428,0.039-0.226c0.336,0.348,1.258,0.96,1.735,0.492C92.768,81.123,92.084,80.275,91.747,79.927
		L91.747,79.927z"/>
	<path fill="#D69630" d="M111.118,58.738c-1.472-0.019-4.061-0.222-5.193,0.98c-0.871,0.924,0.715,2.865,1.314,3.518
		c0.646,0.702,1.563,1.062,2.528,0.981c1.299-0.11,1.804-1.354,1.874-2.46c0.036-0.598-0.912-2.422-1.555-2.571
		c-1.757-0.409-3.946,0.078-5.068,1.531c-0.41,0.532,1.064,2.377,1.514,2.658c1.848,1.15,4.105,0.326,4.883-1.618
		c0.21-0.528-1.038-2.4-1.555-2.571c-1.258-0.417-2.485-0.22-3.486,0.652c-0.428,0.372,1.047,2.319,1.373,2.559
		c1.372,1.021,3.845,1.642,4.705-0.342c0.382-0.878-0.627-2.203-1.114-2.837c-0.714-0.929-1.559-1.059-2.702-0.919
		c-0.054,0.006,0.847,2.758,1.611,2.666c0.397-0.048,0.778-0.08,1.179-0.029c1.301,0.169-0.316,1.183-0.6-1.733
		c0.037,0.39-0.277,0.724-0.549,0.963c-1.062,0.94-2.637,0.538-3.66-0.221c0.457,0.852,0.914,1.705,1.371,2.559
		c0.945-0.822,2.079-1.07,3.29-0.668c-0.519-0.857-1.036-1.713-1.555-2.571c-0.727,1.817-2.924,2.508-4.604,1.461
		c0.503,0.886,1.009,1.771,1.514,2.657c1.066-1.384,3.18-1.94,4.869-1.547c-0.516-0.857-1.035-1.713-1.552-2.571
		c-0.109,1.751-1.481,2.814-3.202,2.019c-0.113-0.053-0.216-0.114-0.312-0.189c-0.721-0.557,0.892,2.311,0.956,1.588
		c0.026-0.306,0.374-0.515,0.614-0.653c1.327-0.751,3.261-0.644,4.725-0.626c0.217,0.003-0.511-1.421-0.546-1.481
		C112.002,59.62,111.561,58.744,111.118,58.738L111.118,58.738z"/>
	<path fill="#D69630" d="M225.849,109.398c-2.779-0.737-5.631-0.762-8.287,0.416c-1.062,0.472-0.182,1.591,0.516,1.934
		c2.996,1.475,7.336,1.758,10.287,0.046c0.852-0.496-0.34-1.558-0.77-1.798c-1.736-0.973-3.908-1.116-5.875-1.128
		c-0.721-0.003-0.986,0.69-0.664,1.237c0.406,0.686,1.217,1.007,1.994,1.011c0.869,0.005,2.611,0.071,3.611,0.632
		c-0.258-0.599-0.512-1.199-0.768-1.797c-1.854,1.074-4.99,0.978-6.883,0.045c0.172,0.645,0.344,1.29,0.514,1.934
		c1.992-0.883,4.061-1.024,6.17-0.464C227.724,112.005,227.478,109.83,225.849,109.398L225.849,109.398z"/>
	<path fill="#D69630" d="M236.15,99.528c-1.631-0.367-3.42-0.457-5.039,0.003c-0.924,0.265-1.215,1.486-0.641,2.202
		c0.863,1.074,2.236,1.634,3.506,2.12c1.377,0.528,3.117,0.843,4.25-0.297c1.408-1.416,0.158-3.181-1.357-3.754
		c-1.18-0.446-2.998-0.349-4.068,0.324c-1.072,0.673-0.518,2.021,0.307,2.595c0.586,0.409,1.385,0.562,2.092,0.63
		c1.635,0.155,1.582-2.248,0.406-2.802c-0.988-0.469-1.992-0.803-3.07-1.021c-2.057-0.42-2.061,2.289-0.422,2.896
		c1.115,0.411,2.273,0.688,3.387,1.099c0.768,0.281,1.561-0.352,1.664-1.071c0.125-0.859-0.463-1.536-1.238-1.824
		c-1.119-0.412-2.277-0.688-3.391-1.099c-0.141,0.965-0.279,1.93-0.422,2.896c0.822,0.168,1.592,0.379,2.348,0.738
		c0.139-0.935,0.273-1.87,0.41-2.803c-0.041-0.004-0.449-0.131-0.619-0.249c0.1,0.864,0.201,1.729,0.305,2.594
		c0.17-0.105,0.854-0.155,1.34-0.128c0.111,0.006,0.607,0.164,0.48,0.105c-0.385-0.186-0.822-1.287-0.27-1.34
		c-0.666,0.064-1.406-0.253-2.004-0.51c-0.332-0.145-0.656-0.313-0.975-0.488c0.025,0.015-0.498-0.312-0.256-0.142
		c-0.109-0.075-0.357-0.366-0.051,0.016c-0.213,0.733-0.428,1.469-0.643,2.203c1.137-0.322,2.402-0.254,3.547,0.003
		C237.707,102.868,237.929,99.927,236.15,99.528L236.15,99.528z"/>
	<path fill="#D69630" d="M222.13,112.104c1.58,0,3.162,0,4.744,0c0.58,0-0.123-1.094-0.219-1.231
		c-0.297-0.421-0.924-1.233-1.531-1.233c-1.584,0-3.164,0-4.744,0c-0.582,0,0.123,1.095,0.215,1.231
		C220.898,111.291,221.521,112.104,222.13,112.104L222.13,112.104z"/>
	<path fill="#D69630" d="M230.603,82.958c-2.32,0.02-4.783,0.224-6.463,1.966c-0.293,0.308-0.129,0.821,0.123,1.089
		c1.727,1.829,9.203,3.694,9.82-0.031c0.732-4.408-7.111-3.009-8.812-0.838c-0.73,0.935,0.848,1.641,1.545,1.74
		c2.057,0.298,4.217,0.594,6.016-0.664c1.146-0.806-0.475-1.906-1.326-1.943c-0.828-0.038-1.648-0.183-2.48-0.22
		c-1.793-0.081-1.703,1.707-0.145,2.096c0.818,0.206,1.607,0.285,2.451,0.292c2.088,0.014,1.471-2.156-0.275-2.168
		c-0.561-0.004-1.066-0.013-1.617-0.151c-0.045,0.7-0.092,1.4-0.141,2.1c0.834,0.036,1.65,0.183,2.484,0.22
		c-0.439-0.647-0.879-1.295-1.32-1.943c-1.152,0.807-2.623,0.402-3.924,0.214c0.514,0.58,1.027,1.16,1.541,1.742
		c0.508-0.648,1.51-0.915,2.279-1.119c0.277-0.074,0.721-0.167,0.992-0.115c-0.736-0.139-0.076-0.361-0.381,0.242
		c-0.334,0.647-1.672,0.371-2.221,0.298c-0.551-0.073-1.754-0.44-1.918-0.616c0.039,0.363,0.082,0.726,0.121,1.088
		c0.971-1.007,2.596-1.099,3.928-1.111C232.96,85.108,232.353,82.942,230.603,82.958L230.603,82.958z"/>
	<path fill="#D69630" d="M200.546,52.319c-1.488-0.203-3.078-0.426-4.578-0.214c-0.771,0.108-0.561,1.118-0.367,1.572
		c1.816,4.173,6.902,3.317,10.305,1.719c1.111-0.521-0.396-2.292-0.984-2.553c-2.113-0.939-5.162-1.371-7.17,0.025
		c-1.051,0.731,0.389,2.517,1.293,2.638c1.732,0.234,3.439,0.432,5.055-0.33c1.168-0.549-0.576-3.118-1.828-2.529
		c-1.225,0.576-2.697,0.284-3.982,0.111c0.432,0.879,0.861,1.759,1.293,2.637c1.533-1.065,3.875-0.685,5.48,0.026
		c-0.328-0.851-0.656-1.703-0.984-2.554c-1.264,0.592-5.619,2.229-6.414,0.401c-0.123,0.524-0.244,1.047-0.365,1.572
		c1.303-0.184,2.709,0.049,4.006,0.225C202.953,55.292,201.777,52.486,200.546,52.319L200.546,52.319z"/>
	<path fill="#D69630" d="M153.082,39.539c2.563,0.017,5.118,0.204,7.681,0.22c0.623,0.005,0.973-0.533,0.551-1.038
		c-2.685-3.2-6.615-2.659-10.204-1.403c-0.327,0.115-0.56,0.389-0.392,0.742c2.102,4.436,6.869,1.68,10.343,1.222
		c1.441-0.19-0.814-1.903-1.4-1.974c-1.88-0.229-3.763-0.454-5.646-0.659c-2.071-0.227-0.482,1.849,0.755,1.984
		c1.884,0.205,3.766,0.429,5.645,0.659c-0.467-0.659-0.933-1.317-1.399-1.974c-1.003,0.131-1.963,0.476-2.924,0.769
		c-0.48,0.146-0.964,0.272-1.452,0.385c-0.246,0.056-0.494,0.095-0.745,0.117c-0.111,0.004-0.219,0.008-0.329,0.012
		c-0.355-0.012-0.361-0.032-0.018-0.061c-0.131,0.247-0.262,0.495-0.393,0.742c1.308-0.457,4.506-1.841,5.609-0.523
		c0.184-0.346,0.367-0.694,0.551-1.041c-2.562-0.015-5.119-0.202-7.681-0.22c-0.666-0.004-0.919,0.521-0.55,1.04
		C151.513,39.14,152.337,39.534,153.082,39.539L153.082,39.539z"/>
	<path fill="#D69630" d="M127.275,44.345c1.624,0.226,3.176,0.08,4.616-0.719c1.114-0.615-0.944-1.404-1.431-1.478
		c-1.743-0.259-3.497-0.236-5.243-0.011c-0.416,0.054-0.785,0.352-0.48,0.758c0.44,0.587,1.325,0.773,2.019,0.822
		c-0.156-0.059-0.311-0.118-0.467-0.179c0.595,0.44,1.412,0.711,2.162,0.6c0.596-0.088,0.798-0.58,0.281-0.961
		c-0.932-0.688-2.022-0.977-3.175-1.06c0.513,0.527,1.025,1.054,1.54,1.581c1.266-0.164,2.528-0.201,3.793-0.013
		c-0.479-0.491-0.956-0.984-1.435-1.476c-0.833,0.461-1.646,0.735-2.61,0.6c-0.334-0.046-1.488-0.1-1.31,0.54
		C125.707,43.97,126.718,44.267,127.275,44.345L127.275,44.345z"/>
	<path fill="#D69630" d="M84.64,116.655c1.489-0.022,2.945-0.217,4.414-0.455c0.597-0.096,0.925-0.646,0.416-1.109
		c-1.973-1.797-5.844-3.223-8.044-0.981c-0.752,0.766,0.964,1.488,1.473,1.619c1.873,0.478,4.018,0.581,5.929,0.252
		c0.644-0.11,0.868-0.616,0.417-1.11c-0.481-0.525-1.391-0.875-2.11-0.75c-1.457,0.251-3.034,0.178-4.462-0.188
		c0.49,0.542,0.982,1.08,1.475,1.619c0.787-0.802,1.942-0.878,2.796-0.101c0.14-0.371,0.278-0.739,0.417-1.11
		c-1.233,0.199-2.467,0.404-3.719,0.426c-0.509,0.008-1.287,0.221-0.937,0.883C83.029,116.26,83.957,116.667,84.64,116.655
		L84.64,116.655z"/>
	<path fill="#D69630" d="M112.975,103.231c1.563,0.634,3.244,0.987,4.854,0.259c1.41-0.639,2.157-1.786,2.965-3.023
		c0.379-0.579-0.368-0.735-0.823-0.715c-0.638,0.03-1.632,0.281-2.004,0.853c-0.423,0.646-0.82,1.397-1.405,1.921
		c0.155-0.139,0.961-0.139,0.374-0.212c-0.528-0.067-1.057-0.317-1.542-0.515c-0.645-0.262-1.599,0.062-2.151,0.393
		C112.86,102.417,112.319,102.965,112.975,103.231L112.975,103.231z"/>
	<path fill="#D69630" d="M113.419,108.362c1.354,0,2.71,0,4.065,0c0.51-0.233,1.02-0.466,1.532-0.698
		c-2.366,0.001-4.703,0.101-7.015,0.62c-0.15,0.035-1.17,0.342-0.516,0.476c0.689,0.14,1.495,0.013,2.171-0.139
		c1.258-0.284,2.545-0.259,3.828-0.259c0.692,0,1.509-0.062,2.147-0.353c0.605-0.276-0.462-0.346-0.615-0.346
		c-1.356,0-2.712,0-4.068,0c-0.691,0-1.509,0.062-2.145,0.353C112.197,108.293,113.266,108.362,113.419,108.362L113.419,108.362z"/>
	<path fill="#D69630" d="M203.16,114.089c0.639,0,1.26,0.011,1.889,0.146c0.668-0.361,1.334-0.721,2.002-1.081
		c-1.484-0.016-2.943-0.208-4.377-0.586c-0.666,0.36-1.334,0.721-2,1.08c1.93,0,3.852,0.01,5.77,0.201
		c0.73,0.074,1.562-0.062,2.205-0.411c0.506-0.273,0.461-0.645-0.137-0.704c-2.141-0.214-4.283-0.239-6.432-0.239
		c-0.633,0-1.322,0.13-1.875,0.43c-0.264,0.143-0.627,0.517-0.125,0.65c1.822,0.479,3.676,0.712,5.564,0.734
		c0.625,0.007,1.324-0.134,1.875-0.431c0.244-0.133,0.643-0.538,0.125-0.651c-1.025-0.219-2.027-0.29-3.08-0.293
		c-0.674-0.001-1.564,0.138-2.1,0.577C201.921,113.956,202.869,114.088,203.16,114.089L203.16,114.089z"/>
	<path fill="#3F4142" d="M202.761,98.509c4.717,1.709,4.902,9.879,4.934,13.901c0.016,1.995,3.193,1.997,3.178,0
		c-0.045-5.764-0.777-14.531-7.266-16.885C201.681,94.827,200.859,97.818,202.761,98.509L202.761,98.509z"/>
	<path fill="#3F4142" d="M206.804,112.637c-0.85,0.877-1.619,1.943-1.992,3.103c-0.613,1.915,2.418,2.697,3.068,0.82
		c0.229-0.668,0.564-1.258,1.213-1.606c0.51-0.277,1.096,0.57,1.303,0.878c1.121,1.658,3.873,0.111,2.744-1.562
		c-1.025-1.515-2.641-2.786-4.625-2.351c-1.941,0.422-3.102,2.09-3.703,3.821c1.023,0.273,2.045,0.549,3.068,0.82
		c0.201-0.638,0.701-1.251,1.17-1.733C210.457,113.375,208.212,111.184,206.804,112.637L206.804,112.637z"/>
	<path fill="#3F4142" d="M207.71,115.264c-0.371-0.396,0.119,0.304-0.053-0.096c0.076,0.17,0.121,0.35,0.166,0.527
		c0.016,0.061,0.102,0.635,0.066,0.317c0.023,0.192,0.027,0.386,0.029,0.576c0.012,0.844,0.717,1.546,1.588,1.546
		c0.859,0,1.602-0.701,1.59-1.546c-0.016-1.236-0.266-2.567-1.143-3.513c-0.582-0.626-1.658-0.572-2.244,0
		C207.072,113.694,207.128,114.639,207.71,115.264L207.71,115.264z"/>
	<path fill="#F7BCBC" d="M141.113,95.011c0.004,0.009,0.01,0.021,0.013,0.032c0.136-0.502,0.274-1.004,0.41-1.506
		c-0.01,0.011-0.019,0.021-0.028,0.029c0.234-0.132,0.468-0.265,0.702-0.396c-0.344,0.14,0.215,0.011-0.193,0.046
		c-0.275,0.023-0.553,0.03-0.828,0.04c-0.493,0.015-0.986,0.015-1.481,0.015c-1.853,0.001-2.084,2.488-0.421,3.038
		c1.838,0.608,3.71,0.512,5.619,0.495c1.196-0.009,1.99-1.309,1.372-2.327c-1.27-2.089-3.953-1.877-6.117-1.864
		c-2.048,0.01-2.05,3.104,0,3.092c0.694-0.004,2.958-0.35,3.374,0.335c0.456-0.777,0.913-1.551,1.372-2.328
		c-1.633,0.015-3.203,0.137-4.775-0.385c-0.141,1.014-0.281,2.024-0.422,3.038c1.148,0,3.219,0.283,4.075-0.64
		c0.349-0.376,0.623-0.992,0.408-1.505c-0.005-0.011-0.008-0.021-0.014-0.032c-0.328-0.78-1.044-1.324-1.955-1.08
		C141.462,93.31,140.785,94.229,141.113,95.011L141.113,95.011z"/>
	<path fill="#F7BCBC" d="M183.533,95.47c-1.809,0-3.615,0-5.424,0c-1.881,0-2.051,2.455-0.422,3.039
		c2.023,0.726,4.371,1.417,6.492,0.66c1.906-0.682,1.084-3.672-0.846-2.983c-1.572,0.562-3.311-0.126-4.801-0.66
		c-0.141,1.013-0.283,2.025-0.424,3.038c1.809,0,3.615,0,5.424,0C185.582,98.563,185.582,95.47,183.533,95.47L183.533,95.47z"/>
	<path fill="#FCCE83" d="M196.332,45.851c25.303,8.238,46.137,35.356,45.752,61.554c-0.02,1.514,0.865,2.927,2.188,3.72
		c0.871,0.524,2.742,0.766,2.764-0.74c0.223-15.191-5.871-29.529-14.748-41.795c-8.949-12.362-21.793-22.971-36.65-27.807
		C192.044,39.613,194.013,45.096,196.332,45.851L196.332,45.851z"/>
	<g>
		<path fill="#3F4142" d="M64.643,238.852c-3.427,0.619-6.849,1.275-10.266,1.963c-4.635-21.799-9.274-43.602-13.912-65.404
			c5.558-1.119,11.127-2.16,16.709-3.121c6.484,15.127,12.666,30.338,18.542,45.629c0.641-16.289,1.58-32.594,2.819-48.906
			c5.384-0.727,10.777-1.381,16.178-1.961c2.505,22.129,5.011,44.26,7.518,66.391c-3.456,0.369-6.908,0.775-10.357,1.215
			c-1.863-13.871-3.728-27.744-5.593-41.617c-1.379,14.285-2.503,28.568-3.375,42.838c-2.768,0.4-5.533,0.826-8.295,1.27
			c-5.669-13.23-11.612-26.385-17.829-39.453C59.403,211.413,62.022,225.133,64.643,238.852z"/>
		<path fill="#3F4142" d="M121.889,231.704c-3.464,0.24-6.925,0.518-10.386,0.826c-2.09-22.152-4.181-44.305-6.271-66.459
			c3.922-0.352,7.847-0.662,11.772-0.936C118.632,187.325,120.26,209.514,121.889,231.704z"/>
		<path fill="#3F4142" d="M143.321,202.676c-5.277-12.803-10.912-25.535-16.905-38.174c4.323-0.232,8.653-0.42,12.98-0.557
			c3.183,7.893,6.242,15.809,9.179,23.748c2.625-8.035,5.371-16.053,8.242-24.051c4.351-0.012,8.703,0.023,13.052,0.107
			c-5.547,12.838-10.734,25.756-15.556,38.736c0.074,9.318,0.146,18.641,0.221,27.961c-3.47,0.025-6.942,0.086-10.413,0.18
			C143.857,221.311,143.59,211.995,143.321,202.676z"/>
		<path fill="#3F4142" d="M179.884,215.514c-1.08,5.076-2.135,10.152-3.164,15.234c-3.613-0.123-7.225-0.213-10.84-0.264
			c4.242-22.189,9.004-44.326,14.289-66.396c5.408,0.195,10.816,0.467,16.219,0.811c2.875,22.477,5.234,44.969,7.076,67.457
			c-3.639-0.312-7.279-0.584-10.922-0.822c-0.465-5.154-0.949-10.307-1.461-15.461C187.351,215.848,183.619,215.663,179.884,215.514
			z M187.417,179.702c-1.879,8.689-3.688,17.385-5.43,26.09c2.697,0.115,5.396,0.25,8.094,0.404
			C189.259,197.364,188.373,188.532,187.417,179.702z"/>
		<path fill="#3F4142" d="M226.923,235.756c-4.549-0.598-8.215-2.596-11.084-6.053c-2.869-3.453-4.121-7.336-3.664-11.682
			c1.264-12.082,2.533-24.164,3.799-36.244c0.461-4.414,2.635-7.996,6.615-10.695c3.973-2.691,8.574-3.723,13.711-3.051
			c5.176,0.682,9.338,2.871,12.4,6.506c3.061,3.637,4.17,7.643,3.422,11.982c-0.432,2.504-0.863,5.008-1.293,7.512
			c-3.875-0.631-7.754-1.225-11.639-1.777c0.387-2.582,0.775-5.164,1.164-7.746c0.236-1.582-0.207-3.027-1.336-4.332
			c-1.135-1.305-2.619-2.082-4.451-2.32c-1.83-0.238-3.463,0.129-4.889,1.1c-1.422,0.973-2.23,2.254-2.43,3.84
			c-1.518,12.088-3.039,24.178-4.557,36.27c-0.199,1.584,0.225,3.002,1.256,4.256s2.381,1.986,4.053,2.203
			c1.672,0.221,3.18-0.139,4.531-1.078c1.354-0.938,2.154-2.193,2.395-3.768c0.648-4.328,1.297-8.654,1.945-12.982
			c-2.02-0.287-4.041-0.564-6.066-0.828c0.461-3.344,0.924-6.684,1.387-10.029c5.91,0.775,11.814,1.643,17.705,2.605
			c-1.32,7.668-2.645,15.338-3.965,23.008c-0.756,4.379-3.035,7.814-6.754,10.367C235.455,235.375,231.402,236.344,226.923,235.756z
			"/>
		<path fill="#3F4142" d="M262.566,240.815c-3.418-0.688-6.838-1.344-10.264-1.963c4.178-21.871,8.352-43.742,12.529-65.613
			c3.885,0.703,7.762,1.445,11.637,2.225C271.833,197.249,267.201,219.034,262.566,240.815z"/>
	</g>
	<path fill="#CC1D2E" d="M196.429,164.481c-0.27-0.156-0.516,0.027-0.574,0.25c-0.055,0.057-0.096,0.129-0.104,0.223
		c-0.316,4.812-16.705,6.293-15.959,1.365c0.043-0.285-0.213-0.471-0.441-0.473c-0.002,0-0.002,0-0.006,0
		c-0.023,0-0.041,0.002-0.064,0.008c-0.078,0.006-0.156,0.029-0.23,0.096c-2.078,1.867-3.928,5.652-1.607,8.08
		c2.758,2.885,6.891,3.076,10.656,2.174c3.301-0.789,5.738-2.799,7.566-5.439C196.779,169.153,198.835,165.875,196.429,164.481z"/>
	<path fill="#CC1D2E" d="M190.068,174.698c-2.529,1.244-5.559,1.533-8.316,0.971c-4.785-0.967-5.486-5.48-2.742-8.572
		c0.299,2.848,4.234,3.023,6.891,2.912c2.979-0.123,9.74-0.914,10.568-4.533C198.859,167.864,191.64,173.924,190.068,174.698z"/>
	<path fill="#CC1D2E" d="M195.632,165.833c0.309,5.883,4.787,10.707,5.508,16.498c0.188,1.523,2.752,2.58,2.504,0.572
		c-0.717-5.777-5.205-10.75-5.506-16.496C198.056,164.844,195.527,163.805,195.632,165.833L195.632,165.833z"/>
	<path fill="#CC1D2E" d="M196.851,167.807c1.051-0.35,1.547-0.404,2.24-1.301c0.531-0.688-0.072-1.553-0.643-1.959
		c-1.594-1.129-3.119-1.818-5.047-2.232c-1.734-0.371-2.529,1.535-1.045,2.488c1.357,0.873,2.691,1.631,4.199,2.232
		c0.217-0.887,0.439-1.771,0.66-2.658c-5.514-1.092-8.195-7.07-13.17-9.316c-1.801-0.811-3.273,1.488-1.436,2.318
		c5.297,2.391,7.924,8.465,13.945,9.656c2.033,0.402,2.451-1.945,0.66-2.658c-1.246-0.498-2.312-1.176-3.428-1.891
		c-0.348,0.83-0.697,1.656-1.047,2.486c1.662,0.355,2.9,0.918,4.271,1.891c-0.215-0.652-0.428-1.305-0.643-1.955
		c-0.08,0.104-1.08,0.328-1.146,0.348C193.382,165.868,195.197,168.352,196.851,167.807L196.851,167.807z"/>
</g>
</svg>
