<?xml version="1.0" encoding="utf-8"?>
<!-- Generator: Adobe Illustrator 16.0.0, SVG Export Plug-In . SVG Version: 6.00 Build 0)  -->
<!DOCTYPE svg PUBLIC "-//W3C//DTD SVG 1.1//EN" "http://www.w3.org/Graphics/SVG/1.1/DTD/svg11.dtd">
<svg version="1.1" id="Layer_1" xmlns="http://www.w3.org/2000/svg" xmlns:xlink="http://www.w3.org/1999/xlink" x="0px" y="0px"
	 width="839.886px" height="573.331px" viewBox="0 0 839.886 573.331" enable-background="new 0 0 839.886 573.331"
	 xml:space="preserve">
<rect x="0.715" fill="#636363" width="836.912" height="573.331"/>
<g>
	<g>
		<path fill="#FFFFFF" d="M292.5,502.379c-1.682-0.487-2.999-1.111-3.952-1.868l1.684-3.192c0.98,0.698,2.171,1.258,3.572,1.679
			c1.398,0.421,2.815,0.631,4.244,0.631c3.53,0,5.296-1.008,5.296-3.026c0-0.671-0.239-1.204-0.715-1.598
			c-0.477-0.391-1.073-0.678-1.786-0.861c-0.715-0.182-1.729-0.384-3.047-0.608c-1.794-0.281-3.258-0.604-4.393-0.966
			c-1.135-0.363-2.108-0.98-2.921-1.85c-0.813-0.868-1.219-2.088-1.219-3.657c0-2.02,0.842-3.635,2.521-4.855
			c1.683-1.218,3.935-1.829,6.768-1.829c1.484,0,2.97,0.184,4.454,0.547c1.484,0.365,2.704,0.854,3.655,1.472l-1.722,3.192
			c-1.821-1.174-3.965-1.764-6.431-1.764c-1.71,0-3.014,0.282-3.909,0.841c-0.895,0.562-1.344,1.304-1.344,2.227
			c0,0.729,0.251,1.307,0.757,1.723c0.503,0.422,1.127,0.729,1.869,0.927c0.743,0.197,1.787,0.421,3.132,0.673
			c1.791,0.308,3.242,0.637,4.35,0.985c1.106,0.354,2.054,0.947,2.837,1.788c0.784,0.839,1.178,2.017,1.178,3.53
			c0,2.019-0.862,3.623-2.587,4.813c-1.723,1.191-4.069,1.785-7.039,1.785C295.931,503.116,294.18,502.872,292.5,502.379z"/>
		<path fill="#FFFFFF" d="M337.385,480.588v22.277h-3.825v-3.362c-0.813,1.146-1.884,2.039-3.215,2.666
			c-1.332,0.631-2.78,0.947-4.35,0.947c-2.97,0-5.312-0.817-7.019-2.461c-1.709-1.638-2.564-4.054-2.564-7.246v-12.821h4.033v12.355
			c0,2.158,0.52,3.791,1.557,4.896c1.035,1.109,2.522,1.663,4.456,1.663c2.128,0,3.81-0.646,5.041-1.935
			c1.233-1.289,1.85-3.111,1.85-5.463v-11.518H337.385z"/>
		<path fill="#FFFFFF" d="M350.413,502.379c-1.68-0.487-2.997-1.111-3.95-1.868l1.681-3.192c0.981,0.698,2.172,1.258,3.573,1.679
			c1.399,0.421,2.815,0.631,4.246,0.631c3.528,0,5.294-1.008,5.294-3.026c0-0.671-0.238-1.204-0.714-1.598
			c-0.479-0.391-1.072-0.678-1.786-0.861c-0.714-0.182-1.73-0.384-3.049-0.608c-1.791-0.281-3.256-0.604-4.39-0.966
			c-1.137-0.363-2.11-0.98-2.921-1.85c-0.814-0.868-1.219-2.088-1.219-3.657c0-2.02,0.841-3.635,2.521-4.855
			c1.68-1.218,3.935-1.829,6.764-1.829c1.487,0,2.972,0.184,4.455,0.547c1.487,0.365,2.705,0.854,3.658,1.472l-1.724,3.192
			c-1.821-1.174-3.965-1.764-6.429-1.764c-1.71,0-3.014,0.282-3.909,0.841c-0.897,0.562-1.346,1.304-1.346,2.227
			c0,0.729,0.253,1.307,0.757,1.723c0.504,0.422,1.128,0.729,1.871,0.927c0.741,0.197,1.785,0.421,3.131,0.673
			c1.792,0.308,3.242,0.637,4.351,0.985c1.106,0.354,2.051,0.947,2.836,1.788c0.784,0.839,1.178,2.017,1.178,3.53
			c0,2.019-0.861,3.623-2.586,4.813c-1.724,1.191-4.07,1.785-7.039,1.785C353.846,503.116,352.095,502.872,350.413,502.379z"/>
		<path fill="#FFFFFF" d="M393.177,482.837c1.667,1.64,2.501,4.041,2.501,7.21v12.818h-4.036v-12.357
			c0-2.157-0.52-3.782-1.555-4.876c-1.037-1.092-2.521-1.638-4.455-1.638c-2.186,0-3.909,0.639-5.17,1.91
			c-1.259,1.275-1.89,3.104-1.89,5.485v11.476h-4.035v-31.187h4.035v12.061c0.841-1.062,1.939-1.89,3.299-2.477
			c1.358-0.591,2.879-0.886,4.559-0.886C389.261,480.377,391.508,481.198,393.177,482.837z"/>
		<path fill="#FFFFFF" d="M407.423,475.547c-0.518-0.506-0.776-1.12-0.776-1.851c0-0.729,0.259-1.354,0.776-1.868
			c0.52-0.52,1.171-0.78,1.955-0.78c0.783,0,1.435,0.247,1.954,0.736c0.52,0.491,0.777,1.099,0.777,1.828
			c0,0.756-0.258,1.395-0.777,1.913c-0.519,0.52-1.17,0.778-1.954,0.778C408.594,476.304,407.943,476.052,407.423,475.547z
			 M407.362,480.588h4.037v22.277h-4.037V480.588z"/>
		<path fill="#FFFFFF" d="M451.323,501.562c-0.588,0.502-1.316,0.889-2.186,1.154c-0.869,0.268-1.766,0.4-2.688,0.4
			c-2.244,0-3.982-0.601-5.213-1.809c-1.234-1.204-1.85-2.925-1.85-5.167v-12.231h-3.781v-3.321h3.781v-4.876h4.035v4.876h6.389
			v3.321h-6.389v12.062c0,1.204,0.299,2.13,0.902,2.775c0.604,0.645,1.465,0.966,2.586,0.966c1.23,0,2.281-0.349,3.15-1.051
			L451.323,501.562z"/>
		<path fill="#FFFFFF" d="M475.594,482.646c1.639,1.514,2.457,3.77,2.457,6.77v13.449h-3.822v-2.941
			c-0.674,1.034-1.635,1.825-2.881,2.375c-1.246,0.546-2.725,0.817-4.432,0.817c-2.496,0-4.492-0.601-5.99-1.809
			c-1.5-1.204-2.248-2.785-2.248-4.746c0-1.962,0.713-3.539,2.143-4.729c1.43-1.191,3.697-1.785,6.809-1.785h6.389v-0.801
			c0-1.737-0.506-3.067-1.514-3.993c-1.008-0.923-2.492-1.384-4.453-1.384c-1.318,0-2.605,0.217-3.869,0.65
			c-1.26,0.435-2.326,1.015-3.195,1.745l-1.68-3.027c1.148-0.926,2.523-1.632,4.119-2.123c1.598-0.489,3.291-0.737,5.086-0.737
			C471.594,480.377,473.954,481.134,475.594,482.646z M471.581,498.977c1.119-0.685,1.932-1.658,2.438-2.922v-3.111h-6.221
			c-3.418,0-5.127,1.15-5.127,3.448c0,1.12,0.434,2.005,1.301,2.646c0.869,0.649,2.076,0.968,3.615,0.968
			C469.127,500.005,470.459,499.661,471.581,498.977z"/>
		<path fill="#FFFFFF" d="M493.499,501.647c-1.781-0.98-3.176-2.336-4.184-4.059c-1.008-1.724-1.512-3.678-1.512-5.863
			c0-2.185,0.504-4.139,1.512-5.861c1.008-1.725,2.402-3.068,4.184-4.035c1.777-0.967,3.803-1.452,6.072-1.452
			c2.018,0,3.816,0.407,5.398,1.222c1.584,0.811,2.811,1.988,3.68,3.528l-3.07,1.975c-0.699-1.062-1.568-1.861-2.605-2.395
			c-1.035-0.53-2.184-0.798-3.445-0.798c-1.457,0-2.766,0.322-3.93,0.966c-1.162,0.646-2.072,1.562-2.73,2.753
			c-0.66,1.191-0.988,2.559-0.988,4.098c0,1.571,0.328,2.948,0.988,4.14c0.658,1.19,1.568,2.11,2.73,2.755
			c1.164,0.645,2.473,0.967,3.93,0.967c1.262,0,2.41-0.268,3.445-0.801c1.037-0.532,1.906-1.33,2.605-2.395l3.07,1.934
			c-0.869,1.541-2.096,2.724-3.68,3.553c-1.582,0.824-3.381,1.238-5.398,1.238C497.301,503.116,495.276,502.628,493.499,501.647z"/>
		<path fill="#FFFFFF" d="M521.297,501.647c-1.764-0.98-3.145-2.336-4.139-4.059c-0.994-1.724-1.49-3.678-1.49-5.863
			c0-2.185,0.496-4.139,1.49-5.861c0.994-1.725,2.375-3.068,4.139-4.035c1.768-0.967,3.756-1.452,5.969-1.452
			s4.197,0.485,5.947,1.452c1.752,0.967,3.125,2.311,4.119,4.035c0.994,1.723,1.492,3.677,1.492,5.861
			c0,2.186-0.498,4.14-1.492,5.863c-0.994,1.723-2.367,3.078-4.119,4.059c-1.75,0.98-3.734,1.469-5.947,1.469
			S523.065,502.628,521.297,501.647z M531.112,498.597c1.135-0.658,2.023-1.581,2.67-2.771c0.643-1.191,0.967-2.559,0.967-4.1
			c0-1.539-0.324-2.906-0.967-4.098c-0.646-1.19-1.535-2.107-2.67-2.753c-1.135-0.644-2.414-0.966-3.846-0.966
			c-1.428,0-2.711,0.322-3.844,0.966c-1.135,0.646-2.033,1.562-2.689,2.753c-0.66,1.191-0.988,2.559-0.988,4.098
			c0,1.541,0.328,2.908,0.988,4.1c0.656,1.19,1.555,2.113,2.689,2.771c1.133,0.661,2.416,0.99,3.844,0.99
			C528.698,499.587,529.977,499.258,531.112,498.597z"/>
		<path fill="#FFFFFF" d="M549.75,502.379c-1.682-0.487-2.998-1.111-3.949-1.868l1.68-3.192c0.98,0.698,2.172,1.258,3.572,1.679
			s2.816,0.631,4.246,0.631c3.529,0,5.295-1.008,5.295-3.026c0-0.671-0.238-1.204-0.715-1.598c-0.477-0.391-1.072-0.678-1.785-0.861
			c-0.715-0.182-1.73-0.384-3.049-0.608c-1.791-0.281-3.256-0.604-4.391-0.966c-1.135-0.363-2.109-0.98-2.922-1.85
			c-0.812-0.868-1.219-2.088-1.219-3.657c0-2.02,0.84-3.635,2.521-4.855c1.682-1.218,3.938-1.829,6.768-1.829
			c1.484,0,2.969,0.184,4.453,0.547c1.484,0.365,2.705,0.854,3.658,1.472l-1.723,3.192c-1.822-1.174-3.965-1.764-6.432-1.764
			c-1.709,0-3.01,0.282-3.908,0.841c-0.898,0.562-1.346,1.304-1.346,2.227c0,0.729,0.254,1.307,0.758,1.723
			c0.506,0.422,1.127,0.729,1.871,0.927c0.74,0.197,1.785,0.421,3.131,0.673c1.791,0.308,3.24,0.637,4.35,0.985
			c1.105,0.354,2.053,0.947,2.836,1.788c0.783,0.839,1.178,2.017,1.178,3.53c0,2.019-0.861,3.623-2.586,4.813
			c-1.723,1.191-4.068,1.785-7.039,1.785C553.182,503.116,551.43,502.872,549.75,502.379z"/>
	</g>
	<g>
		<path fill="#606060" d="M486.127,275.067c-5.469,2.713-28.148,3.892-55.994,2.918c-27.786-2.123-50.198-5.814-55.331-9.12
			c5.469-2.709,28.152-3.895,55.999-2.917C458.584,268.069,480.995,271.762,486.127,275.067z"/>
	</g>
	<g>
		<g>
			<path fill="#3F4142" d="M271.591,246.791c7.46,2.827,16.791,3.246,24.715,3.559c14.064,0.554,28.134-0.953,42.2-0.757
				c15.42,0.214,30.631,1.13,46.059,0.266c15.277-0.862,30.507-2.104,45.811-2.531c15.188-0.429,30.391,0.468,45.562,1.045
				c15.062,0.573,30.111,0.533,45.168,1.438c14.027,0.841,27.754,0.783,41.781,0.346c8.719-0.271,19.816,0.079,26.768-6.083
				c2.031-1.805-0.109-5.15-2.594-4.447c-4.641,1.316-8.896,3.477-13.814,3.549c-4.59,0.063-9.027-2.505-13.664-1.66
				c-3.967,0.723-16.785,7.071-19.777,2.948c-0.766,1.337-1.531,2.671-2.295,4.005c6.154-0.306,12.293,0.002,18.439,0.363
				c3.43,0.198,3.412-5.125,0-5.325c-6.146-0.356-12.285-0.664-18.439-0.358c-1.828,0.091-3.561,2.259-2.299,4.003
				c4.662,6.422,13.758,2.976,19.951,1.055c1.664-0.515,3.324-1.018,5.025-1.411c3.211-0.743,7.336,0.936,10.539,1.448
				c6.391,1.022,11.783-1.798,17.752-3.488c-0.863-1.479-1.727-2.96-2.586-4.447c-6.9,6.121-19.783,4.123-28.322,4.808
				c-14.164,1.13-28.447-0.172-42.592-0.986c-14.381-0.829-28.793-0.669-43.184-1.239c-14.492-0.566-28.98-1.234-43.49-0.827
				c-14.604,0.406-29.16,1.604-43.74,2.474c-14.71,0.871-29.247,0.195-43.953-0.217c-13.537-0.382-27.043,0.831-40.575,0.782
				c-8.581-0.03-18.928-0.372-27.031-3.439C269.791,240.443,268.414,245.586,271.591,246.791L271.591,246.791z"/>
			<path fill="#3F4142" d="M536.42,242.062c-10.734,0.282-21.441-0.987-32.182-0.724c-3.426,0.086-3.43,5.405,0,5.32
				c10.74-0.261,21.447,1.009,32.182,0.723C539.848,247.292,539.858,241.97,536.42,242.062L536.42,242.062z"/>
			<path fill="#3F4142" d="M328.125,249.095c12.816-2.69,25.625-0.757,38.541-0.178c12.59,0.568,25.186-1.088,37.771-1.173
				c3.43-0.021,3.435-5.344,0-5.32c-13.273,0.085-26.497,1.681-39.776,1.082c-12.81-0.573-25.245-2.208-37.952,0.459
				C323.352,244.67,324.775,249.8,328.125,249.095L328.125,249.095z"/>
		</g>
		<path fill="#3F4142" d="M289.542,247.398c13.821,4.105,28.763,0.834,42.771-0.451c3.389-0.312,3.422-5.636,0-5.32
			c-13.461,1.238-28.082,4.58-41.359,0.642C287.659,241.288,286.257,246.424,289.542,247.398L289.542,247.398z"/>
	</g>
	<path fill="#55B250" d="M443.11,87.74c-3.004-1.6-6.219-2.602-9.426-3.663c1.871-2.061,4.682-2.804,7.328-3.667
		c1.074-0.349-1.656-2.206-2.09-2.285c-5.432-0.984-10.979-0.91-16.404-0.021c1.828-0.92,3.828-1.48,6.006-1.581
		c1.502-0.067-1.336-2.176-1.848-2.317c-10.286-2.836-22.528,0.32-30.288,7.668c-1.25-1.482-2.245-3.146-3.378-4.736
		c-0.52-0.733-1.682-1.676-2.655-1.476c-3.919,0.814-6.697,3.553-9.407,6.321c-1.361,1.389-2.712,2.769-4.198,4.026
		c-2.186,1.854-3.05,0.58-5.27-0.095c-2.749-0.837-4.094,4.651-5.329,6.212c-2.161,2.735-4.583,6.738-4.909,10.294
		c-0.067,0.711,1.396,1.73,2.328,1.954c0.104,0.037,0.203,0.067,0.286,0.071c3.126,0.17,5.648,1.761,8.574,2.639
		c2.898,0.873,5.646,0.947,8.636,0.539c6.86-0.941,13.846-4.287,20.189-6.934c6.855-2.859,13.629-5.844,20.833-7.726
		c7.326-1.914,15.049-1.188,22.357-3.246C445.399,89.448,443.327,87.857,443.11,87.74z"/>
	<path fill="#4BA048" d="M421.95,90.119c-7.262,1.2-14.24,4.42-20.968,7.271c-6.562,2.782-13.26,5.602-20.16,7.437
		c-4.028,1.071-7.688,0.899-11.554-0.646c-1.581-0.633-3.09-1.24-4.671-1.641c0.773-2.992,2.828-5.997,4.522-8.346
		c0.936-1.303,1.541-2.797,2.356-4.185c1.397-2.378,2.494-1.101,4.456-0.378c2.301,0.847,5.216-2.784,6.6-4.168
		c2.771-2.766,5.381-5.839,9.108-7.123c1.394,2.005,2.776,3.943,4.648,5.605c0.406,0.362,1.708,1.324,2.265,0.757
		c5.507-5.648,13.833-9.037,21.935-9.167c-2.352,1.045-4.449,2.641-6.285,4.652c-0.699,0.764,2.104,2.405,2.807,2.182
		c5.415-1.728,11.141-2.718,16.838-2.613c-1.584,0.756-2.996,1.768-3.971,3.37c-0.463,0.764,1.393,1.868,1.887,2.049
		c2.664,0.96,5.412,1.716,8.053,2.734C433.958,89.208,427.87,89.142,421.95,90.119z"/>
	<path fill="#4BA048" d="M354.086,104.505c-2.308,0.854-4.469,2.086-6.771,2.927c-1.27-1.966-3.405-3.446-5.729-3.165
		c-2.537,0.309-4.898,2.327-6.666,4.011c-1.053,0.998-1.93,2.161-2.671,3.4c-0.811,1.356-0.463,2.886-3.267-0.259
		c-0.546-0.612-1.089-1.203-1.656-1.803c-0.15-0.156-1.933-1.919-2.142-1.683c-2.215,2.525-2.616,5.412-3.264,8.599
		c-0.677,3.324-2.591,5.457-5.353,7.28c-2.871,1.896-4.641,3.64-6.178,6.757c-0.764,1.544-1.425,3.06-2.24,4.474
		c-1.282,1.07-2.684,1.947-4.747,1.696c-1.353-0.165-1.562-2.503-1.397-5.153c0.699-2.45,1.211-4.916,0.879-7.503
		c0-0.002,0-0.007,0-0.014h-0.003c-0.003-0.025-0.006-0.055-0.007-0.082c-0.089-0.633-1.544-1.39-2.271-1.909
		c-0.113-0.098-0.229-0.2-0.343-0.298c-0.036-0.047-0.063-0.091-0.06-0.133c-0.054,2.21-0.505,4.522-0.688,6.771
		c-0.285,1.007-0.608,2.014-0.937,3.024c-0.896,2.762-1.32,5.421-1.588,8.296c-0.447,4.783-1.218,10.149,0.281,14.815
		c0.029,0.095,0.083,0.187,0.146,0.275c-0.561,0.516-1.104,1.04-1.625,1.601c-0.204,0.219,2.452,2.671,2.683,2.422
		c4.62-4.946,10.933-8.006,15.89-12.63c4.854-4.526,8.844-9.917,13.653-14.502c9.206-8.772,20.942-14.53,28.755-24.794
		C356.952,106.689,354.517,104.345,354.086,104.505z"/>
	<path fill="#55B250" d="M325.334,129.299c-4.896,4.499-8.908,9.854-13.655,14.5c-3.752,3.672-8.409,6.243-12.472,9.507
		c-0.488-4.314,0.26-8.964,0.652-13.123c0.15-1.604,0.535-3.172,0.988-4.723c0.354,0.533,0.788,1.045,1.328,1.53
		c0.906,0.818,1.884,1.489,2.938,1.886c0.21,0.457,2.364,2.597,2.669,2.34c0.396-0.33,0.754-0.684,1.094-1.05
		c2.477-2.321,5.089-4.36,8.214-5.807c0.004-0.003-2.06-2.359-2.6-2.422c-0.214-0.023-0.414-0.02-0.614-0.023
		c1.109-1.944,2.427-3.752,4.481-5.107c2.823-1.864,4.928-3.548,6.003-6.875c1.077-3.338,0.986-6.437,3.24-9.249
		c1.912,2.035,3.879,3.947,6.551,5.058c0.027,0,0.055,0.005,0.082,0.005c0.96-2.935,3.305-5.232,5.724-7.034
		c1.13-0.841,2.39-1.467,3.723-1.89c0.597-0.186,1.194-0.217,1.807-0.162c0.137,0.444,0.233,0.896,0.283,1.357
		c0.08,0.508,2.151,2.477,2.673,2.34c0.181-0.051,0.362-0.11,0.543-0.164C341.725,117.228,332.791,122.441,325.334,129.299z"/>
	<path fill="#4BA048" d="M580.69,144.098c-1.498-4.112-3.262-8.532-6.264-11.667c0.717,0.09,1.428,0.185,2.139,0.305
		c1.76,0.302,0.131-2.424-0.434-2.806c-6.332-4.259-14.273-10.241-21.793-8.422c0.385-1.211,0.453-2.476-0.102-3.863
		c-0.781-1.941-2.684-3.025-4.584-3.604c-3.326-1.019-7.072-1.02-10.717-0.722c2.125-1.288,4.555-2.149,6.834-3.244
		c1.33-0.634-1.031-2.787-1.684-2.962c-6.67-1.774-12.891-0.624-19.279,1.021c1.812-1.822,5.109-2.478,7.486-3.33
		c1.566-0.562-0.486-2.91-1.434-3.08c-6.588-1.175-13.479-0.822-20.023,0.438c-6.143,1.181-13.002,3.66-16.469,9.215
		c-0.115,0.183-0.137,0.408-0.105,0.646c-0.424-0.136-0.852-0.27-1.275-0.407c-2.018-0.662-0.785,2.496,0.451,2.903
		c19.637,6.423,40.961,8.085,57.352,21.887c6.898,5.805,10.555,13.212,14.434,21.103c2.998,6.094,7.277,11.282,14.283,12.46
		c0.662,0.111,0.814-0.474,0.797-0.991c-0.289-6.643-4.67-11.456-9.012-16.103c1.656,0.977,3.225,2.099,4.729,3.31
		c0.631,0.512,2.084,0.959,1.834-0.434c-1.004-5.541-3.135-11.075-6.574-15.48c2.773,1.46,5.467,3.051,8.029,4.92
		C580.274,145.899,581.075,145.153,580.69,144.098z"/>
	<path fill="#55B250" d="M568.311,149.008c-2.535-1.854-5.234-3.475-8.195-4.569c-1.529-0.567-1.17,1.372-0.572,2.084
		c4.299,5.112,10.629,9.769,11.572,16.722c-7.482-1.816-9.994-9.548-13.08-15.883c-3.643-7.47-9.049-13.649-15.58-18.728
		c-14.922-11.597-33.68-13.938-51.314-19.062c3.432-4.701,9.625-6.61,15.082-7.768c3.822-0.807,7.809-1.198,11.768-1.137
		c-2.092,1.141-3.658,2.788-3.596,5.616c0.018,0.948,1.033,2.767,2.24,2.441c5.396-1.458,10.568-2.891,15.936-2.805
		c-2.43,1.177-4.66,2.567-6.342,4.97c-0.734,1.041,1.158,2.858,2.164,2.734c3.451-0.427,6.916-0.709,10.398-0.656
		c1.869,0.029,3.789,0.186,5.584,0.734c2.875,0.876-1.262,6.161-1.982,7.475c-0.547,0.997,1.387,3.512,2.416,2.617
		c6.418-5.556,13.467-2.215,19.686,1.826c-0.92-0.111-1.84-0.224-2.756-0.381c-1.705-0.29-0.201,2.716,0.793,2.994
		c4.604,1.296,6.682,5.238,8.275,9.354c-4.133-2.7-8.543-4.852-13.023-6.928c-0.967-0.534-1.98-1.013-3.055-1.408
		c-2.051-0.746-0.637,2.402,0.451,2.902c0.836,0.382,1.666,0.765,2.496,1.147C563.497,136.508,566.758,142.571,568.311,149.008z"/>
	<path fill="#4BA048" d="M479.102,99.571c-4.072,0.044-5.387-11.557-7.035-14.439c-3.738-6.544-9.518-8.981-16.627-10.543
		c-0.904-0.199-3.146,1.127-2.568,2.23c1.297,2.493,2.818,4.864,4.186,7.318c-3.508-0.956-6.818-0.245-9.486,3.603
		c-0.209,0.302-0.271,0.801,0.1,1.008c5.514,3.052,10.832,6.658,13.529,12.567c0.127,0.287,0.561,0.258,0.799,0.258
		c2.09,0,3.918-1.293,6.156-1.276c2.555,0.023,5.34,0.683,7.441,2.167c0.441,0.313,1.244,0.051,1.9-0.409
		c0.059,0.002,0.117,0.009,0.182,0.009C478.858,102.05,481.17,99.548,479.102,99.571z"/>
	<path fill="#55B250" d="M463.842,98.923c0.307-0.118-1.262-2.587-1.713-3.225c-0.854-1.21-1.938-2.317-3.045-3.293
		c-2.484-2.195-5.219-3.973-8.092-5.598c2.365-2.103,6.357,0.666,8.436,1.94c0.992,0.606,3.309-1.001,2.842-2.147
		c-1.186-2.906-2.828-5.571-4.41-8.267c5.895,2.043,10.416,5.547,12.619,12.186c0.627,1.896,1.176,4.974,2.285,7.476
		C469.743,97.494,466.518,97.854,463.842,98.923z"/>
	<path fill="#4BA048" d="M296.563,150.329c-0.652,0.267-1.269,0.585-1.868,0.929c-3.978,0.752-7.731-1.616-11.431-2.799
		c-3.5-1.121-7.002-0.907-10.215,0.891c-1.75,0.978,0.624,2.774,1.868,2.615c1.647-0.21,3.153-0.271,4.619-0.019
		c-7.335,3.277-12.686,8.773-15.807,16.472c-0.508,1.249,1.287,2.375,2.369,2.163c1.834-0.357,3.629-0.871,5.429-1.369
		c-2.102,3.328-4.123,6.728-3.972,10.798c0.054,1.435,1.954,2.318,3.122,1.555c5.184-3.383,9.934-6.788,13.625-11.817
		c4.229-5.761,7.372-14.021,14.494-16.902C300.642,152.101,297.997,149.75,296.563,150.329z"/>
	<path fill="#55B250" d="M284.537,171.544c-2.669,4.736-6.216,8.256-10.27,11.521c0.899-3.384,3.041-6.458,4.604-9.59
		c0.629-1.247-1.556-2.259-2.492-2.019c-1.999,0.514-3.934,1.218-5.885,1.882c3.084-6.761,8.193-11.568,15.344-14.55
		c0.9-0.374,0.594-1.125,0.084-1.691c2.198,0.589,4.407,1.392,6.654,1.764C289.169,162.495,286.872,167.405,284.537,171.544z"/>
	<path fill="#F6B53F" d="M337.475,121.01c-44.896,29.961-80.028,78.158-62.617,123.216h312.096c0,0,7.549-6.711,0-35.237
		c-7.557-28.522-26.471-64.528-42.791-78.024c-20.594-17.031-69.564-36.896-119.867-39.475
		C398.8,90.18,366.146,101.878,337.475,121.01"/>
	<path fill="#3F4142" d="M334.315,120.49c-38.514,25.857-82.001,73.71-63.061,123.858c0.347,0.922,1.948,0.922,2.738,0.922
		c23.616,0,47.227,0,70.842,0c46.367,0,92.738,0,139.104,0c32.426,0,64.848,0,97.27,0c2.205,0,4.611,0.224,6.797-0.16
		c6.625-1.162,6.045-13.126,5.822-17.746c-0.885-18.513-8.525-37.165-16.391-53.705c-7.123-14.978-15.795-30.58-28.086-41.967
		c-11.033-10.225-25.814-16.973-39.557-22.614c-18.803-7.729-38.584-13.025-58.633-16.274c-19.223-3.115-37.928-3.826-56.973,0.627
		c-19.701,4.607-38.419,13.492-55.488,24.214C337.223,118.568,335.766,119.531,334.315,120.49c-1.349,0.896,0.777,1.448,1.43,1.518
		c1.541,0.166,3.557,0.049,4.893-0.838c17.563-11.641,36.818-21.007,57.359-25.993c20.007-4.855,40.645-2.08,60.559,1.979
		c19.629,4.005,38.898,10.262,56.988,18.894c13.447,6.414,25.807,14.146,35.166,25.9c14.531,18.257,24.859,40.825,31.496,63.087
		c2.924,9.798,5.396,20.474,4.219,30.764c-0.25,2.198-0.756,4.401-1.736,6.396c-0.213,0.431-1.576,2.126-0.896,1.509
		c1.342-0.294,2.682-0.59,4.023-0.885c-23.617,0-47.227,0-70.838,0c-46.369,0-92.74,0-139.107,0c-32.425,0-64.846,0-97.266,0
		c-1.631,0-3.256,0-4.884,0c0.912,0.31,1.828,0.614,2.74,0.922c-18.754-49.66,23.984-96.932,62.177-122.573
		c1.343-0.9-0.767-1.444-1.427-1.518C337.675,119.489,335.642,119.599,334.315,120.49L334.315,120.49z"/>
	<g>
		<path fill="#D69630" d="M488.774,183.128c9.654,33.58-23.383,60.8-64.135,52.845c-40.752,7.955-73.787-19.265-64.133-52.845
			c-9.654-33.577,23.381-60.798,64.133-52.843C465.391,122.33,498.428,149.551,488.774,183.128z"/>
	</g>
	<path fill="#3F4142" d="M501.454,170.756c-0.195-3.348-1.631-7.363-2.676-10.569c-1.25-3.846-3.684-7.037-6.338-10.027
		c-5.557-6.261-11.859-14.009-19.404-17.973c-7.166-3.768-14.82-6.385-22.781-7.858c-8.137-1.504-16.877-2.375-25.158-1.691
		c-3.266,0.268-6.512,0.389-9.79,0.345c-0.773-0.014-2.867,0.091-3.299-0.461c-0.512-0.656-1.418-0.984-2.224-1.02
		c-2.69-0.107-5.803,1.82-8.252,2.641c-4.116,1.374-8.499,1.723-12.418,3.679c-2.561,1.278-4.706,3.29-6.953,5.034
		c-2.437,1.896-5.199,3.342-7.669,5.197c-7.192,5.404-13.332,14.609-15.017,23.455c-2.355,12.386,8.415,18.693,18.832,21.208
		c-0.254,1.3-0.498,2.603-0.903,3.868c-0.556,1.721-1.975,3.477-2.31,5.174c-0.631,3.16,0.109,6.928,0.102,10.15
		c-0.011,4.645-0.125,9.33,0.594,13.932c0.942,6.056,7.185,11.142,13.247,11.088c2.713-0.021,5.318-1.239,8.073-1.341
		c3.265-0.122,6.578,0.777,9.649,1.788c5.424,1.788,10.534,2.301,16.161,3.227c5.309,0.871,10.258,2.615,15.693,3.098
		c5.945,0.521,11.922-0.366,17.83-1.001c3.029-0.322,6.059-0.773,9.1-0.97c1.709-0.113,3.318,0.811,4.949,1.16
		c3.758,0.807,6.373-1.199,8.902-3.768c2.295-2.33,5.311-4.851,6.406-8.039c1.285-3.733,0.039-8.846-0.602-12.565
		c-0.762-4.41,0.016-7.194,2.494-10.951c1.715-2.602,1.045-5.82,0.98-8.783c-0.023-1.246,0.094-2.497,0.107-3.741
		c2.779-2.161,5.514-4.393,8.416-6.379C500.188,176.61,501.665,174.46,501.454,170.756z M481.452,210.087
		c0.566,3.495,1.547,8.438-0.648,11.557c-2.297,3.26-7.084,9.5-11.334,8.105c-4.275-1.408-8.311-0.629-12.713-0.14
		c-6.557,0.727-13.158,1.69-19.756,1.11c-4.926-0.438-9.527-1.951-14.324-2.976c-2.741-0.587-5.596-0.676-8.374-1.015
		c-2.783-0.34-5.25-1.479-7.883-2.348c-4.311-1.418-9.369-2.267-13.883-1.441c-3.318,0.607-5.88,1.845-8.736-0.625
		c-1.298-1.119-2.775-2.3-3.416-3.908c-1.493-3.735-1.07-8.628-1.088-12.561c-0.016-4.126-0.076-8.238-0.163-12.359
		c-0.025-1.209,1.352-3.204,1.885-4.513c0.822-1.994,1.041-4.248,1.514-6.39c0.009-0.01,0.021-0.02,0.03-0.031
		c4.142-5.352,8.827-10.16,13.761-14.726c0.027-0.018,0.052-0.038,0.075-0.06c1.437-1.095,2.687-2.393,4.005-3.617
		c0.256-0.226,0.507-0.455,0.767-0.677c0.323-0.286,0.64-0.576,0.986-0.84c3.41-2.655,7.653-4.796,11.809-6.262
		c2.043-0.143,4.221,0.134,6.645,0.821c1.889,0.531,3.793,0.594,5.704,0.47c2.428,0,4.883-0.461,7.27-0.777
		c1.688-0.222,3.42-0.49,5.172-0.737c3.166-0.325,6.354-0.506,9.488-0.306c2.576,0.165,5.215,0.977,7.824,2.065
		c1.328,0.762,2.617,1.567,3.848,2.196c3.91,1.991,7.736,3.728,11.289,6.077c2.291,1.881,4.334,4.094,6.297,6.282
		c2.148,2.396,5.184,5.591,6.504,8.96c0.928,2.974,0.508,5.907,0.639,9.471c0.133,3.647-0.934,4.735-2.566,7.86
		C480.081,202.582,480.79,205.993,481.452,210.087z M494.616,175.99c-2.188,1.642-4.377,3.284-6.559,4.937
		c-0.52-1.208-1.27-2.348-2.037-3.438c-0.057-0.083-0.117-0.17-0.176-0.253c-0.295-0.414-0.582-0.824-0.859-1.222
		c-2.756-4.033-5.926-7.698-9.785-10.653c-1.238-1.074-2.533-2.083-3.887-2.985c-4.193-2.793-9.359-5.164-14.256-7.043
		c-0.859-0.402-1.713-0.799-2.564-1.188c-4.832-2.236-10.229-1.579-15.381-0.997c-1.701,0.165-3.4,0.365-5.078,0.538
		c-2.963,0.31-5.975,0.967-8.953,1.023c-1.357-0.14-2.656-0.474-3.838-1.104c-2.805-1.491-5.68-1.215-8.486-0.34
		c-2.658,0.184-5.247,0.946-7.801,2.417c-5.276,3.036-10.21,7.896-14.649,12.368c-3.166,2.623-6.447,5.127-9.379,7.946
		c-0.104,0.07-0.2,0.152-0.273,0.254c-0.113,0.112-0.185,0.229-0.235,0.343c-0.693,1.04-1.144,2.158-1.477,3.319
		c-6.782-1.575-13.927-4.631-15.391-12.133c-1.121-5.742,1.758-11.794,4.683-16.54c2.59-4.2,5.904-8.274,9.867-11.255
		c2.358-1.771,4.982-3.171,7.339-4.949c2.806-2.114,5.3-4.431,8.658-5.672c4.115-1.525,8.565-2.063,12.72-3.581
		c0.917-0.335,1.826-0.698,2.744-1.035c0.034-0.013,0.06-0.022,0.093-0.033c0.16,0.115,0.335,0.215,0.538,0.3
		c5.462,2.205,12.242,0.674,17.979,0.402c16.471-0.787,37.92,2.547,50.064,14.796c6.926,6.988,15.033,13.738,17.418,23.62
		C496.723,168.248,498.934,172.747,494.616,175.99z"/>
	<path fill="#3F4142" d="M501.454,170.756c-0.195-3.348-1.631-7.363-2.676-10.569c-1.25-3.846-3.684-7.037-6.338-10.027
		c-5.557-6.261-11.859-14.009-19.404-17.973c-7.166-3.768-14.82-6.385-22.781-7.858c-8.137-1.504-16.877-2.375-25.158-1.691
		c-3.266,0.268-6.512,0.389-9.79,0.345c-0.773-0.014-2.867,0.091-3.299-0.461c-0.512-0.656-1.418-0.984-2.224-1.02
		c-2.69-0.107-5.803,1.82-8.252,2.641c-4.116,1.374-8.499,1.723-12.418,3.679c-2.561,1.278-4.706,3.29-6.953,5.034
		c-2.437,1.896-5.199,3.342-7.669,5.197c-7.192,5.404-13.332,14.609-15.017,23.455c-2.355,12.386,8.415,18.693,18.832,21.208
		c-0.254,1.3-0.498,2.603-0.903,3.868c-0.556,1.721-1.975,3.477-2.31,5.174c-0.631,3.16,0.109,6.928,0.102,10.15
		c-0.011,4.645-0.125,9.33,0.594,13.932c0.942,6.056,7.185,11.142,13.247,11.088c2.713-0.021,5.318-1.239,8.073-1.341
		c3.265-0.122,6.578,0.777,9.649,1.788c5.424,1.788,10.534,2.301,16.161,3.227c5.309,0.871,10.258,2.615,15.693,3.098
		c5.945,0.521,11.922-0.366,17.83-1.001c3.029-0.322,6.059-0.773,9.1-0.97c1.709-0.113,3.318,0.811,4.949,1.16
		c3.758,0.807,6.373-1.199,8.902-3.768c2.295-2.33,5.311-4.851,6.406-8.039c1.285-3.733,0.039-8.846-0.602-12.565
		c-0.762-4.41,0.016-7.194,2.494-10.951c1.715-2.602,1.045-5.82,0.98-8.783c-0.023-1.246,0.094-2.497,0.107-3.741
		c2.779-2.161,5.514-4.393,8.416-6.379C500.188,176.61,501.665,174.46,501.454,170.756z"/>
	<path fill="#FD5D5D" d="M494.616,175.99c-2.188,1.642-4.377,3.284-6.559,4.937c-0.52-1.208-1.27-2.348-2.037-3.438
		c-0.057-0.083-0.117-0.17-0.176-0.253c-0.295-0.414-0.582-0.824-0.859-1.222c-2.756-4.033-5.926-7.698-9.785-10.653
		c-1.238-1.074-2.533-2.083-3.887-2.985c-4.193-2.793-9.359-5.164-14.256-7.043c-0.859-0.402-1.713-0.799-2.564-1.188
		c-4.832-2.236-10.229-1.579-15.381-0.997c-1.701,0.165-3.4,0.365-5.078,0.538c-2.963,0.31-5.975,0.967-8.953,1.023
		c-1.357-0.14-2.656-0.474-3.838-1.104c-2.805-1.491-5.68-1.215-8.486-0.34c-2.658,0.184-5.247,0.946-7.801,2.417
		c-5.276,3.036-10.21,7.896-14.649,12.368c-3.166,2.623-6.447,5.127-9.379,7.946c-0.104,0.07-0.2,0.152-0.273,0.254
		c-0.113,0.112-0.185,0.229-0.235,0.343c-0.693,1.04-1.144,2.158-1.477,3.319c-6.782-1.575-13.927-4.631-15.391-12.133
		c-1.121-5.742,1.758-11.794,4.683-16.54c2.59-4.2,5.904-8.274,9.867-11.255c2.358-1.771,4.982-3.171,7.339-4.949
		c2.806-2.114,5.3-4.431,8.658-5.672c4.115-1.525,8.565-2.063,12.72-3.581c0.917-0.335,1.826-0.698,2.744-1.035
		c0.034-0.013,0.06-0.022,0.093-0.033c0.16,0.115,0.335,0.215,0.538,0.3c5.462,2.205,12.242,0.674,17.979,0.402
		c16.471-0.787,37.92,2.547,50.064,14.796c6.926,6.988,15.033,13.738,17.418,23.62C496.723,168.248,498.934,172.747,494.616,175.99z
		"/>
	<path fill="#FFFFFF" d="M481.452,210.087c0.566,3.495,1.547,8.438-0.648,11.557c-2.297,3.26-7.084,9.5-11.334,8.105
		c-4.275-1.408-8.311-0.629-12.713-0.14c-6.557,0.727-13.158,1.69-19.756,1.11c-4.926-0.438-9.527-1.951-14.324-2.976
		c-2.741-0.587-5.596-0.676-8.374-1.015c-2.783-0.34-5.25-1.479-7.883-2.348c-4.311-1.418-9.369-2.267-13.883-1.441
		c-3.318,0.607-5.88,1.845-8.736-0.625c-1.298-1.119-2.775-2.3-3.416-3.908c-1.493-3.735-1.07-8.628-1.088-12.561
		c-0.016-4.126-0.076-8.238-0.163-12.359c-0.025-1.209,1.352-3.204,1.885-4.513c0.822-1.994,1.041-4.248,1.514-6.39
		c0.009-0.01,0.021-0.02,0.03-0.031c4.142-5.352,8.827-10.16,13.761-14.726c0.027-0.018,0.052-0.038,0.075-0.06
		c1.437-1.095,2.687-2.393,4.005-3.617c0.256-0.226,0.507-0.455,0.767-0.677c0.323-0.286,0.64-0.576,0.986-0.84
		c3.41-2.655,7.653-4.796,11.809-6.262c2.043-0.143,4.221,0.134,6.645,0.821c1.889,0.531,3.793,0.594,5.704,0.47
		c2.428,0,4.883-0.461,7.27-0.777c1.688-0.222,3.42-0.49,5.172-0.737c3.166-0.325,6.354-0.506,9.488-0.306
		c2.576,0.165,5.215,0.977,7.824,2.065c1.328,0.762,2.617,1.567,3.848,2.196c3.91,1.991,7.736,3.728,11.289,6.077
		c2.291,1.881,4.334,4.094,6.297,6.282c2.148,2.396,5.184,5.591,6.504,8.96c0.928,2.974,0.508,5.907,0.639,9.471
		c0.133,3.647-0.934,4.735-2.566,7.86C480.081,202.582,480.79,205.993,481.452,210.087z"/>
	<path fill="#E85656" d="M407.041,142.398c-16.078,4.675-32.987,15.572-40.902,30.993c3.022,3.632,7.982,5.491,12.776,6.605
		c0.327-1.164,0.779-2.283,1.474-3.32c0.051-0.116,0.121-0.232,0.234-0.344c0.073-0.103,0.169-0.184,0.271-0.254
		c2.938-2.817,6.219-5.323,9.381-7.947c4.44-4.471,9.375-9.332,14.651-12.368c2.554-1.471,5.144-2.229,7.801-2.419
		c2.807-0.874,5.68-1.151,8.486,0.341c1.184,0.631,2.479,0.966,3.836,1.104c2.979-0.056,5.992-0.714,8.957-1.021
		c1.676-0.175,3.373-0.373,5.078-0.54c5.146-0.58,10.547-1.234,15.377,0.997c0.852,0.391,1.707,0.788,2.568,1.188
		c4.893,1.878,10.062,4.252,14.252,7.039c1.359,0.906,2.648,1.917,3.889,2.99c3.857,2.955,7.027,6.619,9.787,10.65
		c0.273,0.398,0.564,0.809,0.852,1.222c0.064,0.086,0.123,0.169,0.184,0.253c0.764,1.094,1.514,2.232,2.035,3.44
		c1.291-0.979,2.59-1.952,3.889-2.929c-1.527-3.811-3.941-7.819-6.33-11.202C468,141.98,435.711,134.065,407.041,142.398z"/>
	<path fill="#3F4142" d="M494.204,179.059c-5.129-14.689-17.768-27.242-31.396-34.13c-25.814-13.045-60.425-8.525-82.691,9.586
		c-6.409,5.208-12.72,11.952-16.289,19.521c-0.447,0.946,1.273,1.475,1.686,0.597c7.607-16.12,25.022-27.509,41.558-32.317
		c28.671-8.331,60.96-0.416,78.546,24.479c2.658,3.758,5.354,8.297,6.812,12.47C492.745,180.173,494.545,180.035,494.204,179.059
		L494.204,179.059z"/>
	<path fill="#3F4142" d="M414.074,168.416c-0.527,0.446-1.555,0.787-2.232,1.126c-0.983,0.494-2.011,1.007-2.824,1.764
		c-0.624,0.586,0.318,1.525,0.943,0.942c1.439-1.351,3.576-1.642,5.056-2.892C415.676,168.805,414.729,167.865,414.074,168.416
		L414.074,168.416z"/>
	<path fill="#3F4142" d="M445.932,173.072c2.285-0.966,4.297-2.482,6.502-3.609c0.764-0.395,0.09-1.541-0.674-1.151
		c-2.203,1.131-4.217,2.646-6.498,3.613C444.475,172.257,445.155,173.401,445.932,173.072L445.932,173.072z"/>
	<path fill="#3F4142" d="M467.047,207.495c1.65,2.368,4.006,4.066,6.379,5.656c0.715,0.479,1.377-0.677,0.67-1.15
		c-2.17-1.453-4.387-3.005-5.9-5.176C467.709,206.124,466.557,206.79,467.047,207.495L467.047,207.495z"/>
	<path fill="#3F4142" d="M477.665,188.55c0.322,0.021,0.635,0.053,0.945,0.128c0.172,0.044,0.207,0.141,0.146-0.05
		c-0.068-0.203,0.055-0.227-0.072-0.082c-0.107,0.126-0.238,0.24-0.365,0.34c-0.654,0.497-1.389,0.866-2.072,1.313
		c-0.713,0.468-0.051,1.619,0.674,1.147c0.928-0.607,2.098-1.09,2.805-1.979c0.352-0.445,0.518-1.083,0.064-1.53
		c-0.535-0.534-1.414-0.573-2.125-0.617C476.813,187.163,476.815,188.492,477.665,188.55L477.665,188.55z"/>
	<path fill="#3F4142" d="M464.815,175.926c0.273,1.232,1.045,2.188,2.154,2.778c0.758,0.404,1.432-0.745,0.67-1.146
		c-0.824-0.44-1.336-1.066-1.543-1.987C465.913,174.732,464.631,175.087,464.815,175.926L464.815,175.926z"/>
	<path fill="#3F4142" d="M457.43,216.724c0.279-0.819,0.633-1.594,1.02-2.368c-0.406-0.17-0.812-0.343-1.219-0.514
		c-0.367,1.021-1.135,1.843-1.738,2.732c-0.48,0.711,0.674,1.374,1.15,0.671c0.678-1.001,1.457-1.896,1.871-3.049
		c0.258-0.709-0.879-1.185-1.211-0.512c-0.443,0.875-0.838,1.76-1.156,2.686C455.87,217.185,457.157,217.528,457.43,216.724
		L457.43,216.724z"/>
	<path fill="#3F4142" d="M438.627,193.689c-1.441,1.399-3.209,2.474-4.92,3.508c-0.734,0.441-0.062,1.595,0.674,1.147
		c1.807-1.088,3.666-2.238,5.189-3.713C440.188,194.033,439.245,193.096,438.627,193.689L438.627,193.689z"/>
	<path fill="#3F4142" d="M402.522,217.348c2.412,3.026,6.004,4.454,9.695,5.236c0.836,0.175,1.189-1.106,0.354-1.284
		c-3.492-0.737-6.826-2.027-9.109-4.893C402.927,215.737,401.993,216.687,402.522,217.348L402.522,217.348z"/>
	<path fill="#3F4142" d="M386.416,192.29c-0.033,1.731-0.591,3.199-1.357,4.727c-0.38,0.765,0.768,1.438,1.15,0.674
		c0.868-1.74,1.498-3.434,1.537-5.4C387.763,191.431,386.433,191.434,386.416,192.29L386.416,192.29z"/>
	<path fill="#3F4142" d="M386.612,216.625c0.672,0.763,0.271,2.013-0.104,2.812c-0.365,0.77,0.782,1.447,1.146,0.67
		c0.662-1.401,1.023-3.155-0.104-4.422C386.979,215.043,386.042,215.987,386.612,216.625L386.612,216.625z"/>
	<path fill="#3F4142" d="M427.247,174.062c2.088,1.352,4.416,2.265,6.506,3.615c0.725,0.468,1.389-0.684,0.672-1.149
		c-2.086-1.352-4.416-2.265-6.508-3.615C427.196,172.444,426.526,173.596,427.247,174.062L427.247,174.062z"/>
	<path fill="#3F4142" d="M415.109,161.276c-2.672,0.922-5.211,2.164-7.954,2.892c-0.827,0.22-0.478,1.501,0.352,1.282
		c2.744-0.728,5.284-1.969,7.956-2.893C416.27,162.278,415.922,160.99,415.109,161.276L415.109,161.276z"/>
	<path fill="#3F4142" d="M440.022,223.723c1.695,2.44,4.092,3.875,7.084,3.946c0.859,0.021,0.859-1.311,0-1.329
		c-2.504-0.062-4.516-1.246-5.93-3.288C440.686,222.354,439.532,223.015,440.022,223.723L440.022,223.723z"/>
	<path fill="#3F4142" d="M471.95,223.134c1.332,1.399,1.959,3.225,2.789,4.929c0.375,0.773,1.523,0.096,1.146-0.672
		c-0.885-1.819-1.574-3.705-2.994-5.198C472.297,221.57,471.362,222.512,471.95,223.134L471.95,223.134z"/>
	<path fill="#D69630" d="M514.813,204.785c0,4.868-3.945,8.817-8.818,8.817c-4.871,0-8.814-3.949-8.814-8.817
		c0-4.872,3.943-8.818,8.814-8.818C510.868,195.967,514.813,199.913,514.813,204.785z"/>
	<circle fill="#D69630" cx="355.678" cy="204.785" r="8.819"/>
	<path fill="#3F4142" d="M397.176,208.421c0.276-0.822,0.63-1.596,1.017-2.371c-0.407-0.172-0.811-0.343-1.217-0.513
		c-0.368,1.023-1.138,1.845-1.737,2.729c-0.484,0.713,0.67,1.38,1.146,0.671c0.681-0.996,1.461-1.893,1.875-3.046
		c0.254-0.711-0.883-1.182-1.218-0.509c-0.435,0.872-0.836,1.757-1.15,2.684C395.616,208.88,396.902,209.229,397.176,208.421
		L397.176,208.421z"/>
	<path fill="#3F4142" d="M355.918,201.029c-7.391-0.434-10.228-13.368-9.193-19.166c0.598-3.354-4.528-4.789-5.132-1.416
		c-1.688,9.475,2.91,25.227,14.325,25.905C359.348,206.552,359.328,201.231,355.918,201.029L355.918,201.029z"/>
	<path fill="#3F4142" d="M344.651,183.327c2.195-0.083,4.155-1.086,5.18-3.09c1.054-2.056,0.9-4.478,0.323-6.646
		c-0.883-3.313-6.016-1.907-5.13,1.414c0.261,0.991,0.361,1.839,0.145,2.649c-0.107,0.405-0.047,0.177-0.304,0.419
		c0.059-0.096,0.144-0.147,0.257-0.159c-0.562,0.223,0.192,0.066-0.471,0.09C341.231,178.135,341.216,183.456,344.651,183.327
		L344.651,183.327z"/>
	<path fill="#3F4142" d="M347.31,181.646c0-1.958,0-3.919,0-5.88c0-3.43-5.318-3.43-5.318,0c0,1.961,0,3.922,0,5.88
		C341.992,185.079,347.31,185.079,347.31,181.646L347.31,181.646z"/>
	<path fill="#3F4142" d="M344.495,180.794c-0.791-1.68-1.075-3.673-1.104-5.516c-0.046-3.431-5.368-3.435-5.321,0
		c0.041,2.829,0.627,5.642,1.836,8.2c0.617,1.312,2.474,1.638,3.636,0.956C344.875,183.654,345.116,182.106,344.495,180.794
		L344.495,180.794z"/>
	<path fill="#3F4142" d="M402.479,245.159c-2.864,7.396-5.287,17.256-1.691,24.784c1.001-1.306,2.003-2.609,3.004-3.912
		c-2.305-0.821-4.63-1.435-7.075-1.608c-3.436-0.24-3.39,5.049,0,5.323c1.975,0.156,3.902,0.594,5.878,0.754
		c3.424,0.277,3.398-5.046,0-5.32c-1.976-0.159-3.903-0.597-5.878-0.757c0,1.774,0,3.549,0,5.323
		c1.95,0.137,3.832,0.767,5.663,1.418c2.401,0.858,3.914-2.001,3.002-3.907c-2.874-6.023-0.025-14.858,2.229-20.683
		C408.851,243.368,403.704,241.993,402.479,245.159L402.479,245.159z"/>
	<path fill="#3F4142" d="M452.704,246.211c-0.498,4.458,0.189,8.909,0.457,13.359c0.254,4.175-0.947,8.079-0.947,12.235
		c0,1.452,1.215,2.378,2.658,2.497c2.223,0.18,3.93,0.336,6.098-0.091c2.592-0.506,2.502-4.252,0-4.812
		c-2.523-0.569-4.969-0.784-7.568-0.801c-3.432-0.023-3.428,4.967,0,4.99c2.168,0.015,4.002,0.14,6.154,0.622
		c0-1.602,0-3.211,0-4.812c-1.568,0.136-3.129,0.105-4.684-0.092c0.889,0.835,1.773,1.662,2.662,2.497
		c0-3.61,0.971-7.057,0.996-10.691c0.039-4.993-1.062-9.903-0.506-14.903C458.381,243.012,453.053,243.045,452.704,246.211
		L452.704,246.211z"/>
	<path fill="#3F4142" d="M470.219,131.263c-6.451-0.227-13.004,2.379-18.129,6.118c-1.201,0.874,0.346,3.039,1.545,2.168
		c4.814-3.513,10.932-5.968,16.994-5.751C472.247,133.852,471.641,131.313,470.219,131.263L470.219,131.263z"/>
	<path fill="#3F4142" d="M451.915,125.438c-7.18,0.148-17.779,1.872-21.041,9.224c-0.26,0.583,1.963,1.921,2.078,1.662
		c3.248-7.323,13.672-8.997,20.861-9.147C453.958,127.175,452.637,125.424,451.915,125.438L451.915,125.438z"/>
	<path fill="#3F4142" d="M424.426,122.077c-9.981,1.662-20.095,7.287-25.179,16.203c-0.72,1.269,1.888,1.356,2.449,0.368
		c4.677-8.199,13.989-13.262,23.153-14.789C426.485,123.586,426.03,121.811,424.426,122.077L424.426,122.077z"/>
	<path fill="#3F4142" d="M473.79,149.825c2.793-2.233,8.574-6.057,11.783-3.051c0.5,0.466,3.029,0.503,2.35-0.133
		c-4.834-4.521-12.273-0.962-16.623,2.507C470.844,149.512,473.172,150.32,473.79,149.825L473.79,149.825z"/>
	<path fill="#3F4142" d="M391.03,127.338c-5.857,4.278-14.351,11.151-14.65,19.015c-0.02,0.577,1.374,2.539,1.399,1.854
		c0.287-7.573,8.85-14.392,14.51-18.527C392.78,129.325,391.37,127.09,391.03,127.338L391.03,127.338z"/>
	<path fill="#3F4142" d="M404.545,155.042c-5.824,1.524-8.169,6.645-12.016,10.771c-4.989,5.346-12.783,6.74-16.994,13.016
		c-0.355,0.53-0.027,1.267,0.464,1.588c2.405,1.564,3.912,1.865,5.633-0.705c0.497-0.739-0.319-1.761-1.084-1.883
		c-1.804-0.287-2.835-0.244-4.572,0.356c-1.285,0.44-0.237,1.946,0.641,2.168c1.86,0.47,2.211,0.223,3.737-0.821
		c1.202-0.828-0.659-2.502-1.734-1.965c-0.239,0.118-0.482,0.241-0.723,0.36c0.644,0.594,1.286,1.19,1.927,1.784
		c0.787-1.544,2.086-2.531,3.896-2.969c1.475-0.413-0.046-2.511-1.234-2.175c-2.295,0.648-3.423,1.541-4.785,3.539
		c-0.722,1.065,0.969,2.266,1.93,1.786c0.238-0.123,0.481-0.242,0.724-0.361c-0.579-0.656-1.154-1.309-1.734-1.965
		c-0.557,0.564-1.24,0.774-2.05,0.623c0.214,0.725,0.429,1.446,0.641,2.17c1.132-0.123,2.257-0.247,3.384-0.37
		c-0.359-0.628-0.723-1.253-1.084-1.883c-0.775,0.247-1.55,0.495-2.323,0.742c0.155,0.53,0.312,1.058,0.469,1.586
		c3.549-5.286,9.75-7.352,14.728-10.97c5.04-3.658,6.955-10.562,13.396-12.248C407.257,156.83,405.738,154.727,404.545,155.042
		L404.545,155.042z"/>
	<path fill="#3F4142" d="M418.82,155.202c2.422-1.397,6.899-0.639,9.555-0.525c2.947,0.125,5.889,0.405,8.838,0.439
		c0.568-0.531,1.139-1.061,1.709-1.592c-5.162,0.123-10.234,1.247-15.385,0.37c-0.736-0.123-2.372,1.519-2.036,1.575
		c5.258,0.894,10.438-0.227,15.711-0.354c0.584-0.013,2.516-1.58,1.709-1.592c-3.893-0.046-7.771-0.439-11.664-0.535
		c-2.684-0.065-5.854-0.221-8.272,1.173C418.1,154.673,417.227,156.121,418.82,155.202L418.82,155.202z"/>
	<path fill="#3F4142" d="M423.004,156.377c8.191-2.061,16.9-0.89,24.852,1.658c4.268,1.37,8.236,3.72,12.301,5.584
		c4.248,1.948,8.881,2.155,13.09,4.235c1.166,0.574-0.416-1.498-0.93-1.755c-4.199-2.073-8.807-2.411-13.09-4.233
		c-4.291-1.827-8.324-4.156-12.729-5.74c-7.791-2.805-17.127-3.716-25.19-1.687C420.729,154.583,422.317,156.55,423.004,156.377
		L423.004,156.377z"/>
	<path fill="#3F4142" d="M443.432,155.264c5.025,0.966,7.973,4.255,12.291,6.507c4.451,2.322,9.33,2.991,14.105,4.342
		c0.674,0.191,2.303-1.159,2.291-1.162c-5.242-1.481-10.693-2.059-15.322-5.164c-3.703-2.484-6.572-4.817-11.074-5.685
		C445.012,153.968,443.481,155.273,443.432,155.264L443.432,155.264z"/>
	<path fill="#3F4142" d="M469.329,164.55c-0.305-2.549-3.592-4.018-5.572-5.021c-3.498-1.78-7.631-2.842-10.824-5.155
		c-1.205-0.87-2.941,0.316-1.521,1.345c2.244,1.626,4.912,2.618,7.438,3.721c1.795,0.785,7.709,2.583,7.984,4.904
		C466.979,165.577,469.508,166.08,469.329,164.55L469.329,164.55z"/>
	<path fill="#3F4142" d="M452.319,156.58c2.029,6.485,10.783,9.344,15.785,4.396c0.824-0.814-0.779-1.354-1.387-1.307
		c-4.119,0.33-7.885,0.761-9.273-3.993c-0.273-0.938-2.367-1.008-2.621-0.034c-1.881,7.259,6.732,10.338,11.834,6.421
		c1.055-0.814-1.432-1.618-2.213-1.018c-4.162,3.197-8.148-0.612-6.975-5.15c-0.873-0.013-1.746-0.026-2.621-0.038
		c1.744,5.968,7.207,5.822,12.432,5.407c-0.465-0.435-0.926-0.871-1.389-1.302c-3.895,3.85-9.486,1.204-10.977-3.56
		C454.606,155.42,451.963,155.443,452.319,156.58L452.319,156.58z"/>
	<path fill="#3F4142" d="M466.586,163.892c-2.135-3.495-7.352-4.683-11.029-5.649c-0.363-0.095,0.633,2.042,1.18,2.284
		c2.223,0.974,4.562,1.469,6.871,2.171c-0.393-0.764-0.787-1.527-1.18-2.287c-2.049-0.39-4.064-0.658-6.148-0.722
		c-0.576-0.019,0.668,2.038,1.035,2.215c5.639,2.702,11.688,4.291,17.865,5.133c0.371,0.049-0.494-2.193-1.182-2.284
		c-6.057-0.823-12.045-2.347-17.572-4.997c0.344,0.741,0.691,1.477,1.039,2.22c2.082,0.062,4.094,0.33,6.143,0.723
		c0.377,0.071-0.564-2.101-1.18-2.287c-2.312-0.698-4.654-1.195-6.871-2.168c0.391,0.76,0.789,1.523,1.18,2.284
		c2.332,0.61,7.908,1.605,9.223,3.753C466.762,165.599,467.391,165.204,466.586,163.892L466.586,163.892z"/>
	<path fill="#3F4142" d="M453.725,156.743c-3.746-0.716-7.408-1.765-11.209-2.168c0.221,0.023,1.262,1.546,1.951,1.662
		c2.621,0.449,5.072,1.33,7.463,2.481c0.064,0.049,0.127,0.063,0.195,0.046c1.232-2.518,3.314-1.174,5.178,0.068
		c1.371,0.916-0.48-0.814-0.863-1.068c-1.498-0.998-3.314-2.513-5.223-2.075c-0.543,0.124-1.047,1.433-1.723,1.104
		c-0.57-0.273-1.166-0.523-1.758-0.748c-1.709-0.65-3.418-1.166-5.221-1.471c0.652,0.552,1.299,1.108,1.951,1.662
		c3.801,0.409,7.465,1.455,11.209,2.171C455.391,158.354,454.454,156.882,453.725,156.743L453.725,156.743z"/>
	<path fill="#3F4142" d="M394.325,187.98c1.3-1.479,3.011-2.653,5.007-2.897c2.791-0.343,4.102,2.025,4.623,4.403
		c0.239,1.1,2.724,1.944,2.417,0.543c-0.723-3.286-2.43-6.05-5.834-6.944c-3.174-0.835-6.395,1.1-8.404,3.387
		C391.338,187.38,393.5,188.922,394.325,187.98L394.325,187.98z"/>
	<path fill="#3F4142" d="M460.836,193.799c1.525-1.801,3.361-3.379,5.719-3.903c3.32-0.742,4.334,2.662,4.725,5.264
		c0.135,0.896,2.475,2.034,2.281,0.767c-0.514-3.454-2.076-6.756-5.633-7.854c-3.596-1.109-7.068,1.592-9.236,4.154
		C458.061,192.971,460.174,194.58,460.836,193.799L460.836,193.799z"/>
	<path fill="#3F4142" d="M428.995,216.371c10.154,1.226,19.988-2.901,24.232-12.572c0.654-1.494-1.795-1.273-2.258-0.217
		c-3.746,8.54-12.008,11.854-20.924,10.778C428.909,214.227,427.379,216.178,428.995,216.371L428.995,216.371z"/>
	<path fill="#3F4142" d="M410.501,201.964c2.588,8.335,10.213,13.05,18.493,14.407c1.141,0.187,2.662-1.744,1.051-2.011
		c-7.828-1.283-14.78-5.85-17.206-13.666C412.5,199.595,410.137,200.791,410.501,201.964L410.501,201.964z"/>
	<path fill="#D69630" d="M304.477,208.126c-3.396,0.009-6.807,0.156-9.966,1.521c-1.397,0.606-2.183,2.264-0.413,2.924
		c5.192,1.945,11.454,2.386,16.603,0.097c0.853-0.377,2.008-1.423,1.268-2.414c-3.853-5.173-15.068-5.81-17.057,1.354
		c-0.121,0.435,0.214,0.95,0.589,1.135c4.054,2.011,9.098,1.529,12.742-1.158c0.57-0.42,1.381-1.381,0.697-2.088
		c-2.679-2.767-6.201-2.428-9.512-0.984c-1.342,0.588-2.239,2.312-0.414,2.925c2.518,0.841,5.068,0.839,7.675,0.468
		c1.06-0.149,2.659-0.701,2.858-1.955c0.192-1.215-1.444-1.555-2.322-1.432c-1.812,0.257-3.429,0.301-5.188-0.289
		c-0.138,0.978-0.277,1.951-0.415,2.925c1.039-0.63,1.905-0.451,2.598,0.53c0.23-0.697,0.461-1.395,0.695-2.088
		c-1.618,1.19-3.627,1.241-5.415,0.354c0.197,0.379,0.394,0.756,0.587,1.136c0.879-3.174,5.955-0.26,7.159,1.353
		c0.42-0.804,0.845-1.608,1.265-2.412c-3.474,1.544-7.973,0.619-11.391-0.661c-0.14,0.975-0.277,1.948-0.415,2.925
		c1.805-0.78,3.986-0.749,5.922-0.753c1.216,0,2.722-0.353,3.358-1.521C306.558,208.958,305.479,208.126,304.477,208.126
		L304.477,208.126z"/>
	<path fill="#D69630" d="M317.049,174.002c-3.409-3.638-18.52-2.626-15.261,4.577c2.772,6.131,13.752,2.812,16.897-1.303
		c1.159-1.517-1.334-3.447-2.515-3.919c-3.308-1.323-12.801-2.65-12.555,3.3c0.273,6.471,9.077,5.274,10.729,0.279
		c0.562-1.693-1.805-3.468-3.215-3.664c-2.251-0.312-3.686,0.209-5.311,1.774c-1.204,1.166,1.128,3.214,1.973,3.701
		c3.012,1.735,6.908,1.296,7.69-2.568c0.38-1.887-3.791-5.046-4.191-3.062c-0.38,1.896-1.817,3.034-3.659,1.975
		c0.659,1.231,1.314,2.464,1.974,3.697c1.245-1.201,2.049-1.489,3.77-1.252c-1.073-1.221-2.145-2.443-3.218-3.663
		c-0.411,1.248-1.472,2.103-2.608,2.69c-0.48,0.249-1.032,0.44-1.573,0.469c1.189,2.156,1.876,2.603,2.056,1.339
		c0.118-0.465,0.451-0.75,0.79-1.055c1.988-1.793,6.419-0.733,8.594,0.135c-0.838-1.306-1.678-2.61-2.515-3.918
		c-1.975,2.579-7.389,4.722-10.608,4.04c0.566,0.118,1.231,2.488,1.425,1.555c0.101-0.5,0.38-0.978,0.703-1.361
		c0.641-0.763,1.904-0.983,2.815-1.188c1.241-0.279,2.541-0.294,3.809-0.279c0.639,0.005,1.277,0.066,1.912,0.139
		c1.024,0.118,1.12,0.737,0.066-0.389c0.561,0.601,2.104,1.653,2.905,0.847C318.757,176.058,317.614,174.602,317.049,174.002
		L317.049,174.002z"/>
	<path fill="#D69630" d="M349.492,137.55c-2.466-0.031-6.802-0.38-8.697,1.687c-1.457,1.591,1.198,4.93,2.202,6.051
		c1.081,1.207,2.618,1.827,4.235,1.688c2.176-0.188,3.021-2.331,3.136-4.231c0.061-1.026-1.527-4.165-2.604-4.424
		c-2.942-0.701-6.608,0.135-8.487,2.635c-0.685,0.914,1.782,4.09,2.536,4.572c3.096,1.978,6.875,0.56,8.178-2.783
		c0.354-0.908-1.738-4.128-2.604-4.424c-2.105-0.715-4.161-0.377-5.839,1.122c-0.718,0.641,1.754,3.99,2.299,4.401
		c2.296,1.757,6.438,2.825,7.879-0.588c0.64-1.511-1.049-3.787-1.865-4.879c-1.196-1.6-2.612-1.823-4.528-1.583
		c-0.088,0.011,1.422,4.747,2.698,4.587c0.667-0.084,1.306-0.139,1.975-0.049c2.181,0.29-0.527,2.034-1.004-2.98
		c0.063,0.671-0.462,1.245-0.918,1.655c-1.78,1.617-4.417,0.927-6.13-0.38c0.763,1.467,1.527,2.933,2.295,4.4
		c1.583-1.412,3.481-1.839,5.51-1.148c-0.867-1.474-1.735-2.946-2.604-4.423c-1.217,3.125-4.898,4.316-7.713,2.515
		c0.846,1.523,1.69,3.047,2.538,4.57c1.786-2.381,5.327-3.337,8.155-2.662c-0.865-1.474-1.732-2.946-2.602-4.423
		c-0.181,3.013-2.479,4.843-5.361,3.472c-0.188-0.089-0.362-0.193-0.522-0.323c-1.206-0.96,1.494,3.977,1.601,2.731
		c0.043-0.527,0.626-0.887,1.03-1.123c2.222-1.292,5.461-1.107,7.912-1.075c0.363,0.004-0.854-2.445-0.914-2.551
		C350.974,139.067,350.232,137.561,349.492,137.55L349.492,137.55z"/>
	<path fill="#D69630" d="M541.647,224.7c-4.654-1.269-9.43-1.311-13.877,0.716c-1.783,0.811-0.303,2.738,0.861,3.329
		c5.02,2.533,12.285,3.022,17.229,0.077c1.426-0.854-0.57-2.681-1.287-3.091c-2.906-1.676-6.545-1.923-9.844-1.943
		c-1.203-0.003-1.648,1.189-1.107,2.131c0.68,1.178,2.039,1.729,3.336,1.736c1.461,0.007,4.373,0.122,6.049,1.09
		c-0.428-1.031-0.855-2.063-1.283-3.095c-3.105,1.849-8.355,1.684-11.525,0.081c0.285,1.106,0.572,2.216,0.859,3.325
		c3.332-1.52,6.797-1.762,10.33-0.801C544.79,229.183,544.375,225.443,541.647,224.7L541.647,224.7z"/>
	<path fill="#D69630" d="M558.899,207.721c-2.732-0.633-5.727-0.784-8.436,0.005c-1.555,0.456-2.041,2.559-1.078,3.791
		c1.447,1.845,3.748,2.809,5.875,3.646c2.303,0.906,5.219,1.448,7.117-0.512c2.359-2.437,0.264-5.472-2.273-6.459
		c-1.977-0.768-5.021-0.599-6.812,0.557c-1.797,1.16-0.867,3.479,0.514,4.465c0.98,0.704,2.318,0.969,3.502,1.085
		c2.734,0.268,2.648-3.866,0.684-4.82c-1.66-0.806-3.342-1.381-5.146-1.758c-3.441-0.721-3.455,3.938-0.705,4.983
		c1.865,0.707,3.809,1.184,5.672,1.889c1.285,0.486,2.613-0.604,2.787-1.842c0.207-1.479-0.775-2.643-2.078-3.139
		c-1.871-0.709-3.811-1.184-5.676-1.892c-0.234,1.661-0.471,3.32-0.705,4.983c1.377,0.288,2.666,0.65,3.932,1.269
		c0.23-1.608,0.457-3.217,0.684-4.821c-0.068-0.009-0.748-0.226-1.035-0.427c0.168,1.485,0.338,2.972,0.514,4.461
		c0.283-0.184,1.424-0.268,2.242-0.222c0.186,0.011,1.014,0.282,0.807,0.181c-0.646-0.315-1.381-2.212-0.453-2.304
		c-1.117,0.11-2.359-0.435-3.355-0.875c-0.559-0.25-1.1-0.54-1.633-0.843c0.043,0.025-0.836-0.537-0.432-0.243
		c-0.178-0.131-0.598-0.628-0.082,0.028c-0.359,1.261-0.717,2.526-1.076,3.789c1.904-0.554,4.02-0.437,5.941,0.007
		C561.506,213.468,561.879,208.408,558.899,207.721L558.899,207.721z"/>
	<path fill="#D69630" d="M535.417,229.355c2.65,0,5.299,0,7.945,0c0.977,0-0.203-1.884-0.363-2.117
		c-0.5-0.726-1.547-2.121-2.564-2.121c-2.652,0-5.299,0-7.943,0c-0.977,0,0.203,1.884,0.359,2.117
		C533.352,227.958,534.399,229.355,535.417,229.355L535.417,229.355z"/>
	<path fill="#D69630" d="M549.612,179.218c-3.893,0.033-8.012,0.382-10.826,3.38c-0.49,0.528-0.217,1.412,0.209,1.875
		c2.889,3.145,15.408,6.354,16.441-0.056c1.227-7.582-11.91-5.175-14.756-1.439c-1.225,1.607,1.42,2.82,2.584,2.995
		c3.445,0.511,7.064,1.021,10.076-1.144c1.924-1.387-0.793-3.279-2.217-3.343c-1.393-0.063-2.766-0.315-4.158-0.379
		c-3.004-0.137-2.854,2.938-0.24,3.606c1.371,0.355,2.691,0.49,4.104,0.502c3.496,0.024,2.463-3.709-0.461-3.729
		c-0.938-0.007-1.783-0.023-2.705-0.26c-0.078,1.202-0.156,2.409-0.236,3.612c1.395,0.061,2.764,0.313,4.16,0.377
		c-0.736-1.113-1.473-2.227-2.213-3.341c-1.93,1.388-4.393,0.69-6.572,0.366c0.863,0.997,1.723,1.997,2.582,2.996
		c0.852-1.115,2.529-1.572,3.818-1.925c0.463-0.127,1.205-0.29,1.662-0.197c-1.236-0.241-0.127-0.621-0.643,0.416
		c-0.557,1.114-2.795,0.638-3.715,0.514c-0.926-0.126-2.938-0.757-3.215-1.061c0.066,0.625,0.137,1.251,0.207,1.872
		c1.621-1.731,4.346-1.891,6.576-1.911C553.559,182.915,552.542,179.189,549.612,179.218L549.612,179.218z"/>
	<path fill="#D69630" d="M499.27,126.508c-2.492-0.351-5.158-0.731-7.67-0.368c-1.291,0.187-0.938,1.924-0.609,2.705
		c3.041,7.179,11.557,5.705,17.258,2.957c1.857-0.896-0.666-3.943-1.652-4.394c-3.541-1.614-8.645-2.358-12.008,0.044
		c-1.76,1.257,0.65,4.329,2.168,4.541c2.898,0.401,5.756,0.742,8.465-0.569c1.955-0.944-0.965-5.366-3.064-4.351
		c-2.049,0.99-4.516,0.488-6.668,0.191c0.721,1.511,1.441,3.027,2.166,4.537c2.568-1.832,6.488-1.18,9.178,0.045
		c-0.551-1.463-1.1-2.931-1.65-4.395c-2.113,1.019-9.408,3.837-10.74,0.689c-0.207,0.902-0.408,1.802-0.609,2.704
		c2.178-0.315,4.535,0.085,6.707,0.388C503.301,131.623,501.331,126.796,499.27,126.508L499.27,126.508z"/>
	<path fill="#D69630" d="M419.775,104.521c4.29,0.03,8.573,0.351,12.864,0.378c1.043,0.009,1.633-0.918,0.922-1.787
		c-4.496-5.504-11.08-4.573-17.088-2.412c-0.551,0.197-0.938,0.669-0.654,1.276c3.518,7.63,11.502,2.892,17.323,2.102
		c2.414-0.327-1.363-3.274-2.346-3.396c-3.148-0.393-6.303-0.78-9.458-1.135c-3.467-0.389-0.809,3.183,1.264,3.413
		c3.154,0.353,6.309,0.738,9.455,1.137c-0.781-1.134-1.562-2.268-2.342-3.397c-1.68,0.224-3.289,0.817-4.9,1.323
		c-0.803,0.251-1.611,0.47-2.432,0.663c-0.41,0.094-0.824,0.162-1.247,0.2c-0.186,0.007-0.369,0.012-0.553,0.019
		c-0.596-0.019-0.604-0.054-0.025-0.104c-0.221,0.424-0.438,0.852-0.66,1.277c2.19-0.786,7.547-3.166,9.397-0.9
		c0.307-0.594,0.613-1.19,0.922-1.788c-4.293-0.027-8.574-0.35-12.866-0.38c-1.113-0.007-1.537,0.897-0.92,1.79
		C417.145,103.834,418.527,104.515,419.775,104.521L419.775,104.521z"/>
	<path fill="#D69630" d="M376.551,112.79c2.721,0.387,5.318,0.137,7.732-1.236c1.864-1.061-1.583-2.415-2.397-2.543
		c-2.919-0.445-5.857-0.408-8.782-0.02c-0.695,0.094-1.314,0.605-0.804,1.305c0.737,1.01,2.217,1.328,3.381,1.412
		c-0.26-0.099-0.52-0.202-0.78-0.307c0.997,0.757,2.362,1.221,3.62,1.032c0.997-0.153,1.337-0.999,0.471-1.656
		c-1.56-1.181-3.386-1.679-5.318-1.822c0.861,0.905,1.719,1.812,2.578,2.722c2.121-0.283,4.233-0.347,6.354-0.023
		c-0.803-0.846-1.602-1.693-2.402-2.538c-1.397,0.793-2.758,1.262-4.373,1.031c-0.56-0.078-2.491-0.171-2.194,0.93
		C373.923,112.145,375.621,112.657,376.551,112.79L376.551,112.79z"/>
	<path fill="#D69630" d="M305.145,237.187c2.494-0.042,4.934-0.377,7.394-0.785c0.997-0.165,1.548-1.112,0.695-1.909
		c-3.302-3.088-9.788-5.54-13.473-1.687c-1.261,1.32,1.614,2.562,2.468,2.785c3.137,0.822,6.73,1.002,9.93,0.434
		c1.078-0.193,1.451-1.058,0.698-1.909c-0.804-0.906-2.328-1.507-3.534-1.293c-2.44,0.436-5.08,0.306-7.473-0.321
		c0.822,0.93,1.646,1.858,2.471,2.785c1.316-1.381,3.252-1.514,4.683-0.173c0.233-0.638,0.464-1.273,0.698-1.911
		c-2.066,0.343-4.133,0.696-6.229,0.729c-0.852,0.014-2.157,0.384-1.571,1.521C302.446,236.504,304.002,237.202,305.145,237.187
		L305.145,237.187z"/>
	<path fill="#D69630" d="M352.6,214.092c2.619,1.091,5.436,1.701,8.131,0.446c2.363-1.099,3.612-3.073,4.965-5.202
		c0.636-0.995-0.614-1.264-1.378-1.23c-1.068,0.056-2.733,0.486-3.356,1.467c-0.709,1.112-1.374,2.405-2.354,3.304
		c0.26-0.237,1.609-0.237,0.625-0.364c-0.884-0.117-1.771-0.544-2.581-0.884c-1.08-0.451-2.678,0.107-3.604,0.676
		C352.41,212.691,351.504,213.633,352.6,214.092L352.6,214.092z"/>
	<path fill="#D69630" d="M353.344,222.919c2.27,0,4.541,0,6.808,0c0.854-0.4,1.711-0.801,2.567-1.201
		c-3.963,0-7.877,0.17-11.748,1.066c-0.254,0.061-1.961,0.59-0.864,0.817c1.154,0.24,2.503,0.023,3.636-0.237
		c2.108-0.489,4.262-0.445,6.409-0.445c1.161,0,2.528-0.108,3.598-0.607c1.013-0.475-0.773-0.594-1.03-0.594
		c-2.271,0-4.542,0-6.812,0c-1.16,0-2.528,0.109-3.593,0.607C351.299,222.796,353.089,222.919,353.344,222.919L353.344,222.919z"/>
	<path fill="#D69630" d="M503.645,232.769c1.072,0.003,2.109,0.02,3.166,0.252c1.117-0.622,2.232-1.239,3.352-1.86
		c-2.486-0.026-4.93-0.356-7.33-1.008c-1.115,0.621-2.234,1.238-3.35,1.859c3.229,0,6.447,0.015,9.662,0.346
		c1.221,0.126,2.615-0.108,3.693-0.709c0.85-0.468,0.77-1.108-0.23-1.211c-3.582-0.367-7.172-0.411-10.771-0.411
		c-1.057,0-2.213,0.225-3.139,0.74c-0.443,0.244-1.051,0.889-0.211,1.115c3.053,0.829,6.16,1.227,9.32,1.263
		c1.045,0.014,2.219-0.227,3.143-0.736c0.408-0.23,1.074-0.929,0.207-1.122c-1.721-0.373-3.393-0.499-5.156-0.503
		c-1.131-0.003-2.621,0.234-3.518,0.994C501.573,232.541,503.157,232.769,503.645,232.769L503.645,232.769z"/>
	<path fill="#3F4142" d="M502.981,205.967c7.898,2.941,8.209,16.997,8.264,23.915c0.025,3.433,5.346,3.437,5.318,0
		c-0.076-9.915-1.301-24.999-12.168-29.046C501.17,199.634,499.793,204.779,502.981,205.967L502.981,205.967z"/>
	<path fill="#3F4142" d="M509.749,230.271c-1.42,1.511-2.711,3.346-3.332,5.337c-1.027,3.295,4.047,4.643,5.135,1.416
		c0.385-1.15,0.949-2.168,2.033-2.769c0.855-0.476,1.832,0.982,2.182,1.513c1.877,2.851,6.488,0.189,4.596-2.687
		c-1.719-2.61-4.424-4.795-7.746-4.049c-3.252,0.73-5.195,3.597-6.199,6.575c1.711,0.473,3.422,0.943,5.135,1.416
		c0.342-1.1,1.176-2.154,1.963-2.985C515.866,231.544,512.11,227.771,509.749,230.271L509.749,230.271z"/>
	<path fill="#3F4142" d="M511.266,234.79c-0.619-0.678,0.205,0.522-0.084-0.163c0.123,0.293,0.201,0.601,0.275,0.906
		c0.027,0.104,0.17,1.094,0.113,0.547c0.035,0.328,0.045,0.661,0.049,0.99c0.018,1.452,1.195,2.66,2.662,2.66
		c1.434,0,2.676-1.208,2.658-2.66c-0.027-2.127-0.445-4.418-1.914-6.043c-0.973-1.075-2.775-0.983-3.76,0
		C510.2,232.089,510.295,233.715,511.266,234.79L511.266,234.79z"/>
	<path fill="#F7BCBC" d="M399.729,199.95c0.008,0.017,0.017,0.037,0.021,0.055c0.23-0.862,0.458-1.728,0.686-2.59
		c-0.016,0.019-0.031,0.035-0.047,0.052c0.391-0.229,0.783-0.459,1.176-0.684c-0.577,0.238,0.36,0.018-0.322,0.08
		c-0.463,0.04-0.927,0.051-1.388,0.067c-0.824,0.027-1.652,0.027-2.479,0.027c-3.104,0-3.492,4.278-0.706,5.227
		c3.076,1.047,6.215,0.878,9.41,0.85c2.003-0.017,3.332-2.251,2.298-4.003c-2.128-3.595-6.622-3.228-10.246-3.207
		c-3.43,0.017-3.433,5.339,0,5.317c1.162-0.004,4.953-0.602,5.652,0.576c0.764-1.336,1.528-2.666,2.296-4.004
		c-2.735,0.024-5.362,0.234-7.996-0.662c-0.237,1.743-0.471,3.482-0.708,5.226c1.923,0,5.391,0.488,6.825-1.1
		c0.584-0.647,1.044-1.706,0.684-2.589c-0.009-0.017-0.016-0.037-0.025-0.057c-0.547-1.341-1.748-2.277-3.272-1.855
		C400.312,197.026,399.18,198.603,399.729,199.95L399.729,199.95z"/>
	<path fill="#F7BCBC" d="M470.772,200.74c-3.027,0-6.053,0-9.082,0c-3.146,0-3.432,4.223-0.705,5.227
		c3.389,1.251,7.32,2.438,10.873,1.135c3.193-1.172,1.812-6.315-1.418-5.131c-2.633,0.967-5.545-0.216-8.041-1.135
		c-0.234,1.742-0.471,3.483-0.709,5.225c3.029,0,6.055,0,9.082,0C474.206,206.061,474.206,200.74,470.772,200.74L470.772,200.74z"/>
	<path fill="#FCCE83" d="M492.213,115.382c42.375,14.171,77.27,60.822,76.627,105.892c-0.035,2.603,1.445,5.031,3.66,6.398
		c1.461,0.899,4.594,1.317,4.629-1.275c0.375-26.133-9.832-50.798-24.699-71.9c-14.986-21.266-36.5-39.515-61.383-47.836
		C485.034,104.649,488.327,114.081,492.213,115.382L492.213,115.382z"/>
	<g>
		<path fill="#FFFFFF" d="M271.653,447.399c-5.74,1.069-11.469,2.195-17.192,3.379c-7.763-37.503-15.534-75.011-23.3-112.514
			c9.308-1.928,18.637-3.719,27.985-5.372c10.859,26.023,21.212,52.191,31.056,78.496c1.072-28.021,2.645-56.072,4.722-84.135
			c9.015-1.251,18.049-2.376,27.093-3.372c4.196,38.07,8.393,76.142,12.591,114.211c-5.787,0.635-11.57,1.334-17.345,2.091
			c-3.121-23.865-6.244-47.729-9.369-71.595c-2.309,24.577-4.192,49.144-5.651,73.695c-4.636,0.688-9.267,1.418-13.895,2.18
			c-9.493-22.759-19.447-45.388-29.857-67.868C262.878,400.196,267.265,423.799,271.653,447.399z"/>
		<path fill="#FFFFFF" d="M367.532,435.101c-5.802,0.417-11.6,0.89-17.395,1.425c-3.502-38.11-7.003-76.219-10.504-114.33
			c6.568-0.604,13.14-1.141,19.717-1.611C362.076,358.756,364.804,396.929,367.532,435.101z"/>
		<path fill="#FFFFFF" d="M403.427,385.165c-8.839-22.025-18.276-43.927-28.313-65.67c7.24-0.401,14.491-0.72,21.739-0.957
			c5.333,13.577,10.456,27.196,15.375,40.855c4.396-13.824,8.996-27.616,13.805-41.375c7.287-0.02,14.572,0.041,21.859,0.184
			c-9.289,22.086-17.979,44.307-26.053,66.638c0.123,16.034,0.244,32.068,0.367,48.103c-5.811,0.044-11.625,0.146-17.437,0.31
			C404.324,417.225,403.875,401.197,403.427,385.165z"/>
		<path fill="#FFFFFF" d="M464.667,407.253c-1.811,8.73-3.576,17.465-5.301,26.209c-6.053-0.217-12.102-0.37-18.156-0.459
			c7.105-38.167,15.084-76.252,23.936-114.221c9.057,0.34,18.109,0.805,27.162,1.395c4.816,38.667,8.766,77.362,11.848,116.047
			c-6.092-0.536-12.189-1.004-18.293-1.412c-0.775-8.869-1.588-17.733-2.445-26.599C477.17,407.826,470.918,407.508,464.667,407.253
			z M477.278,345.644c-3.143,14.944-6.172,29.907-9.09,44.887c4.52,0.196,9.039,0.427,13.553,0.691
			C480.366,376.026,478.881,360.835,477.278,345.644z"/>
		<path fill="#FFFFFF" d="M543.448,442.072c-7.621-1.024-13.762-4.461-18.566-10.411c-4.805-5.938-6.9-12.618-6.137-20.097
			c2.121-20.784,4.24-41.568,6.363-62.349c0.771-7.594,4.416-13.758,11.078-18.399c6.654-4.632,14.365-6.406,22.965-5.249
			c8.67,1.171,15.641,4.94,20.768,11.193c5.129,6.254,6.986,13.146,5.734,20.614c-0.725,4.306-1.447,8.61-2.166,12.921
			c-6.492-1.087-12.988-2.107-19.496-3.058c0.648-4.445,1.299-8.886,1.951-13.326c0.395-2.722-0.346-5.206-2.238-7.455
			c-1.898-2.243-4.385-3.579-7.453-3.989c-3.064-0.41-5.801,0.224-8.188,1.893c-2.385,1.673-3.736,3.878-4.068,6.606
			c-2.543,20.794-5.09,41.592-7.635,62.39c-0.33,2.731,0.377,5.167,2.104,7.324c1.729,2.155,3.988,3.418,6.789,3.795
			c2.799,0.375,5.322-0.242,7.592-1.856c2.266-1.615,3.607-3.773,4.006-6.484c1.088-7.446,2.174-14.891,3.258-22.331
			c-3.381-0.495-6.768-0.971-10.158-1.429c0.773-5.751,1.547-11.498,2.324-17.252c9.896,1.334,19.785,2.826,29.65,4.481
			c-2.213,13.191-4.426,26.386-6.639,39.58c-1.266,7.533-5.086,13.443-11.311,17.837
			C557.737,441.418,550.946,443.083,543.448,442.072z"/>
		<path fill="#FFFFFF" d="M603.143,450.778c-5.725-1.184-11.453-2.31-17.193-3.379c6.996-37.626,13.99-75.248,20.988-112.875
			c6.504,1.209,12.998,2.487,19.486,3.828C618.665,375.828,610.905,413.306,603.143,450.778z"/>
	</g>
	<g>
		<path fill="#CC1D2E" d="M492.372,319.457c-0.447-0.268-0.863,0.047-0.961,0.431c-0.088,0.099-0.158,0.222-0.17,0.387
			c-0.531,8.275-27.982,10.823-26.73,2.345c0.07-0.488-0.355-0.808-0.738-0.811c-0.004,0-0.004,0-0.008,0
			c-0.039,0-0.074,0.003-0.113,0.014c-0.131,0.01-0.26,0.052-0.383,0.163c-3.482,3.214-6.58,9.727-2.695,13.899
			c4.621,4.964,11.541,5.293,17.85,3.742c5.529-1.36,9.609-4.813,12.674-9.356C492.959,327.498,496.401,321.86,492.372,319.457z"/>
		<path fill="#CC1D2E" d="M481.713,337.035c-4.236,2.141-9.312,2.636-13.928,1.674c-8.014-1.67-9.189-9.43-4.596-14.753
			c0.5,4.899,7.09,5.204,11.545,5.016c4.982-0.215,16.309-1.579,17.695-7.805C496.438,325.276,484.344,335.706,481.713,337.035z"/>
		<path fill="#CC1D2E" d="M491.034,321.785c0.518,10.117,8.018,18.419,9.221,28.381c0.318,2.622,4.611,4.438,4.197,0.984
			c-1.203-9.942-8.719-18.492-9.223-28.378C495.09,320.086,490.854,318.298,491.034,321.785L491.034,321.785z"/>
		<path fill="#CC1D2E" d="M493.073,325.178c1.76-0.601,2.592-0.691,3.754-2.235c0.887-1.182-0.123-2.67-1.078-3.366
			c-2.666-1.944-5.225-3.132-8.451-3.845c-2.906-0.638-4.234,2.644-1.754,4.282c2.277,1.5,4.512,2.806,7.035,3.84
			c0.365-1.525,0.736-3.049,1.105-4.573c-9.232-1.875-13.725-12.162-22.059-16.022c-3.012-1.399-5.48,2.557-2.4,3.981
			c8.871,4.112,13.271,14.565,23.354,16.614c3.406,0.693,4.104-3.344,1.105-4.573c-2.088-0.854-3.869-2.021-5.738-3.253
			c-0.584,1.428-1.17,2.853-1.754,4.278c2.783,0.611,4.857,1.58,7.154,3.254c-0.359-1.124-0.719-2.246-1.076-3.366
			c-0.135,0.181-1.809,0.563-1.92,0.601C487.264,321.847,490.305,326.121,493.073,325.178L493.073,325.178z"/>
	</g>
</g>
</svg>
