<?xml version="1.0" encoding="utf-8"?>
<!-- Generator: Adobe Illustrator 16.0.0, SVG Export Plug-In . SVG Version: 6.00 Build 0)  -->
<!DOCTYPE svg PUBLIC "-//W3C//DTD SVG 1.1//EN" "http://www.w3.org/Graphics/SVG/1.1/DTD/svg11.dtd">
<svg version="1.1" id="Layer_1" xmlns="http://www.w3.org/2000/svg" xmlns:xlink="http://www.w3.org/1999/xlink" x="0px" y="0px"
	 width="254px" height="254px" viewBox="0 0 254 254" enable-background="new 0 0 254 254" xml:space="preserve">
<g>
	<g>
		<g>
			<g>
				<circle fill="#CE8045" cx="123.891" cy="130.22" r="99.095"/>
			</g>
			<g>
				<g>
					<path fill="#09090B" d="M162.445,133.392c-0.699-3.242-1.353-7.576,1.29-10.124c4.097-3.714,7.922-7.859,10.217-12.85
						c1.772-3.102,2.977-6.489,3.16-10.379c0.091-1.94-0.521-3.675-1.219-5.407c-0.301-1.169-0.731-2.315-1.332-3.43
						c-0.887-2.44-1.68-4.913-2.62-7.333c-1.777-4.579-4.361-8.713-9.157-9.979c-3.746-1.139-8.063-0.54-11.604,1.355
						c-6.326-1.204-13.707-0.961-19.394,2.372c-5.176-1.75-10.373-3.445-15.606-5.015c-3.346-1.003-6.523-2.042-10.048-1.507
						c-2.486,0.377-5.049,1.958-6.953,3.761c-5.414-1.005-10.931,2.769-16.166,3.109c-3.174,0.207-6.447-0.873-9.505-1.58
						c-3.572-0.825-7.209-1.455-10.886-1.172c-6.729,0.518-12.257,4.955-14.354,11.299c-1.896,5.741-0.418,12.017-0.161,17.877
						c0.158,3.603-1.246,7.105-2.524,10.618c-1.849,5.075-3.942,10.062-6.07,15.024c-1.918,4.475-3.896,8.926-5.906,13.36
						c-0.928,2.048-2.611,4.527-2.527,6.841c0.801,22.019,11.245,41.312,28.622,54.634c13.199,10.118,29.356,16.304,45.496,19.856
						c4.248,0.937,8.55,1.679,12.875,2.159c2.186,0.243,4.307-0.615,6.354-1.318c5.417-1.853,10.28-4.897,14.687-8.512
						c8.9-7.3,15.414-17.412,20.348-27.695c3.92-8.172,7.136-16.949,8.728-25.896c1.087-6.113-0.271-11.592-2.106-17.467
						C164.778,141.818,163.368,137.674,162.445,133.392z"/>
					<g>
						<path fill="#72563E" d="M84.688,206.075c1.332,0.612,2.749,1.188,4.255,1.72c2.43-1.489,4.682-2.859,6.616-4.024
							c-1.207-0.93-2.455-1.944-3.72-3.042C89.737,202.315,87.291,204.141,84.688,206.075z"/>
						<path fill="#72563E" d="M90.256,208.241c2.017,0.658,4.184,1.24,6.519,1.737c1.664-0.844,3.163-1.596,4.429-2.219
							c-1.495-0.967-3.172-2.121-4.951-3.463C94.509,205.457,92.468,206.798,90.256,208.241z"/>
						<path fill="#72563E" d="M80.165,203.665c0.976,0.601,2.01,1.177,3.106,1.729c2.825-1.941,5.499-3.771,7.807-5.334
							c-0.999-0.888-2.003-1.827-3.004-2.819C85.736,199.155,83.018,201.359,80.165,203.665z"/>
						<path fill="#72563E" d="M74.888,199.745c3.248-2.492,6.381-4.893,9.078-6.937c-0.732-0.863-1.454-1.754-2.158-2.676
							c-2.602,2.302-5.661,4.981-8.832,7.753C73.572,198.517,74.21,199.136,74.888,199.745z"/>
						<path fill="#72563E" d="M97.937,210.21c2.998,0.585,6.25,1.036,9.797,1.316c0,0-2.393-1.133-5.958-3.399
							C100.682,208.731,99.385,209.434,97.937,210.21z"/>
						<path fill="#72563E" d="M91.757,192.885c0,0-0.781-1.586-1.546-3.94c-0.374,0.338-0.789,0.709-1.246,1.112
							C89.856,191.071,90.787,192.022,91.757,192.885z"/>
						<path fill="#72563E" d="M76.3,200.948c0.757,0.609,1.557,1.205,2.407,1.782c3.077-2.268,6.027-4.437,8.574-6.29
							c-0.851-0.869-1.695-1.775-2.527-2.72C82.255,195.874,79.337,198.363,76.3,200.948z"/>
						<path fill="#72563E" d="M56.969,182.389c0.313,0.564,0.644,1.126,0.999,1.686c1.192-0.844,2.38-1.683,3.551-2.51
							c0.248-1.065,0.518-2.198,0.795-3.322C60.578,179.589,58.779,180.985,56.969,182.389z"/>
						<path fill="#72563E" d="M86.056,186.335c0.76,1.079,1.559,2.121,2.391,3.111c0.576-0.427,1.102-0.811,1.564-1.145
							c-0.425-1.396-0.822-3.014-1.049-4.709C88.442,184.138,87.428,185.089,86.056,186.335z"/>
						<path fill="#72563E" d="M52.887,169.388c0.07,0.636,0.161,1.282,0.269,1.935c7.595-4.243,14.648-8.162,17.712-9.696
							c-0.063-1.144-0.085-2.308-0.067-3.491C70.583,158.627,62.257,163.712,52.887,169.388z"/>
						<path fill="#72563E" d="M53.144,97.187c0.081,1.077,0.173,2.154,0.25,3.232c1.86,0.56,3.678,1.107,5.413,1.633
							c0.756-0.353,1.174-0.521,1.174-0.521l3.646-2.038C60.476,98.813,56.872,98.015,53.144,97.187z"/>
						<path fill="#72563E" d="M55.052,178.318c0.229,0.589,0.483,1.18,0.754,1.77c2.486-1.653,4.95-3.289,7.263-4.819
							c0.361-1.363,0.713-2.595,1.021-3.523C61.32,173.771,58.211,176.028,55.052,178.318z"/>
						<path fill="#72563E" d="M59.395,186.132c0.276,0.37,0.552,0.738,0.849,1.105c0,0,0.185-0.859,0.482-2.193
							C60.283,185.406,59.839,185.768,59.395,186.132z"/>
						<path fill="#72563E" d="M70.141,194.435c0.473,0.666,0.981,1.327,1.529,1.981c3.359-2.621,6.606-5.15,9.384-7.29
							c-0.638-0.873-1.257-1.773-1.858-2.696C76.551,188.787,73.404,191.562,70.141,194.435z"/>
						<path fill="#72563E" d="M47.396,131.163c-0.14,0.673-0.263,1.355-0.377,2.043c0.729,0.109,1.449,0.218,2.159,0.325
							l2.441-1.912C50.254,131.475,48.84,131.321,47.396,131.163z"/>
						<path fill="#72563E" d="M52.97,91.856c-0.035,1.105-0.012,2.207,0.044,3.305c3.66,1.012,7.213,1.997,10.341,2.882
							c-0.533-1.074-1.234-2.736-1.518-4.509C59.057,93.013,56.042,92.441,52.97,91.856z"/>
						<path fill="#72563E" d="M45.154,158.968c0.092,0.484,0.204,0.968,0.33,1.452c1.382-0.501,2.754-0.997,4.102-1.484
							c0.464-0.75,0.96-1.525,1.466-2.283C49.143,157.403,47.159,158.183,45.154,158.968z"/>
						<path fill="#72563E" d="M56.46,103.218c-0.965-0.228-1.947-0.46-2.943-0.695c0.03,0.767,0.047,1.533,0.033,2.303
							C54.642,104.192,55.616,103.662,56.46,103.218z"/>
						<path fill="#72563E" d="M63.255,87.88c-2.928-0.384-6.12-0.812-9.378-1.249c-0.269,0.569-0.467,1.173-0.577,1.811
							c-0.094,0.552-0.16,1.1-0.214,1.648c2.981,0.692,5.914,1.376,8.629,2.017C61.699,90.589,62.095,89.085,63.255,87.88z"/>
						<path fill="#72563E" d="M71.33,80.487c-2.73-0.549-5.854-0.453-8.729,0.235c5.101,0.196,9.515,0.391,12.229,0.58
							C73.646,81.009,72.477,80.719,71.33,80.487z"/>
						<path fill="#72563E" d="M138.786,186.739c-10.466,1.998-24.625,3.635-32.662-3.656c-9.599-8.705-15.41-21.547-17.517-34.193
							c-2.13-12.792-1.242-26.255,5.621-37.549c7.651-12.592,19.883-23.073,32.895-30.643c-4.218-1.396-8.445-2.77-12.712-4
							c-2.549-0.733-5.21-1.772-7.819-0.694c-1.63,0.673-3.129,1.76-4.304,3.073c-0.519,0.58-1.522,0.851-2.261,0.598
							c-4.373-1.5-10.093,1.888-14.29,2.716c-2.917,0.575-5.92,0.084-8.871-0.598c-2.227,0.091-8.736-0.128-16.406-0.428
							c-2.423,0.883-4.514,2.23-5.823,4.006c3.431,0.544,6.777,1.077,9.794,1.569c0.339-0.212,0.708-0.411,1.127-0.587
							c1.793-0.756,3.521-0.028,6.62,1.13c3.099,1.159,6.083,1.193,8.252,0.494c0.816-0.264-3.237,1.976-8.809,6.536
							c2.597,0.666,4.166,1.13,4.136,1.275c-0.032,0.151-1.909-0.109-4.923-0.624c-1.356,1.137-2.788,2.4-4.254,3.796
							c4.742,1.364,7.895,2.344,7.843,2.549c-0.052,0.208-3.612-0.481-8.829-1.594c-1.039,1.021-2.087,2.105-3.132,3.252
							c6.232,1.911,10.658,3.344,10.593,3.584c-0.066,0.245-4.95-0.818-11.668-2.378c-0.819,0.938-1.632,1.913-2.431,2.928
							c7.344,2.3,12.831,4.091,12.758,4.358c-0.074,0.271-6.04-1.072-13.858-2.924c-0.656,0.879-1.3,1.781-1.927,2.712
							c8.21,2.536,14.593,4.575,14.515,4.863c-0.078,0.292-6.934-1.22-15.588-3.21c-0.524,0.832-1.035,1.684-1.527,2.555
							c8.891,2.622,16.027,4.791,15.95,5.095c-0.079,0.309-7.659-1.249-16.958-3.232c-0.411,0.793-0.808,1.601-1.187,2.424
							c9.429,2.564,17.188,4.734,17.114,5.051c-0.073,0.321-8.229-1.153-18.017-2.99c-0.311,0.756-0.607,1.522-0.888,2.302
							c9.851,2.364,18.103,4.402,18.039,4.73c-0.065,0.332-8.645-0.928-18.788-2.479c-0.223,0.718-0.432,1.443-0.624,2.182
							c2.024,0.403,3.987,0.797,5.834,1.172l1.544-1.21c0,0-0.405,0.466-1.054,1.31c7.171,1.457,12.45,2.602,12.409,2.864
							c-0.043,0.275-5.919-0.278-13.699-1.105c-0.439,0.626-0.918,1.341-1.417,2.127c8.284,1.258,14.678,2.295,14.648,2.584
							c-0.032,0.304-7.047-0.009-15.917-0.484c-0.354,0.614-0.707,1.258-1.058,1.933c9.271,0.841,16.743,1.579,16.73,1.893
							c-0.014,0.326-8.116,0.468-17.925,0.57c-0.254,0.562-0.499,1.14-0.736,1.729c10.131,0.19,18.634,0.403,18.646,0.737
							c0.012,0.346-9.093,1.189-19.672,2.112c-0.16,0.499-0.31,1.003-0.449,1.515c10.832-0.707,20.281-1.28,20.323-0.931
							c0.043,0.362-9.908,2.175-21.042,4.16c-0.073,0.433-0.133,0.87-0.188,1.309c11.32-1.845,21.547-3.475,21.627-3.114
							c0.082,0.369-10.444,3.4-21.846,6.652c0.002,0.372,0.017,0.746,0.035,1.121c3.039-0.836,6.021-1.654,8.769-2.4
							c0.411-0.485,0.809-0.911,1.179-1.244c0,0-0.136,0.365-0.335,1.017c7.259-1.965,12.681-3.36,12.769-3.103
							c0.084,0.248-5.777,2.629-13.438,5.655c-0.136,0.601-0.271,1.266-0.399,1.987c8.24-2.964,14.735-5.239,14.84-4.988
							c0.109,0.266-6.727,3.525-15.21,7.496c-0.073,0.635-0.135,1.304-0.183,1.993c9.016-3.88,16.484-7.037,16.613-6.771
							c0.135,0.277-7.593,4.492-16.718,9.408c-0.005,0.644,0.007,1.304,0.034,1.977c9.555-4.746,17.854-8.823,18.115-8.605
							c0.006-0.369,0.01-0.735,0.024-1.107l7.273,5.267c0,0-15.949-24.168-5.415-39.661c0,0-6.972,15.069,12.033,46.188
							l-9.413-4.895c0,0,0.345,1.128,1.004,2.958c0.051-0.016,0.088-0.021,0.099-0.008c0.012,0.016-0.013,0.059-0.06,0.117
							c0.353,0.977,0.794,2.144,1.319,3.448c0.608-0.375,0.965-0.562,1.004-0.511c0.041,0.055-0.263,0.374-0.842,0.907
							c0.423,1.039,0.899,2.154,1.424,3.321c1.125-0.768,1.793-1.177,1.85-1.105c0.06,0.074-0.53,0.668-1.603,1.648
							c0.487,1.064,1.015,2.164,1.581,3.282c1.588-1.147,2.555-1.79,2.625-1.703c0.073,0.088-0.791,0.947-2.302,2.336
							c0.554,1.069,1.143,2.149,1.767,3.225c1.979-1.473,3.205-2.322,3.285-2.226c0.083,0.1-1.016,1.179-2.888,2.9
							c0.641,1.077,1.313,2.144,2.022,3.184c1.58-1.186,2.744-2.025,3.333-2.39c-0.219-1.81-0.238-3.693,0.116-5.478
							c0,0,1.479,12.966,18.048,17.614c6.322,1.772,5.994,11.894,7.799,11.566l8.237-11.822l1.544,2.952l-0.033,13.415
							L138.786,186.739z"/>
						<path fill="#72563E" d="M64.378,171.533c-0.078,0.675-0.167,1.703-0.188,2.994c2.985-1.972,5.666-3.728,7.753-5.064
							c-0.227-1.017-0.422-2.053-0.584-3.106C69.599,167.695,67.171,169.49,64.378,171.533z"/>
						<path fill="#72563E" d="M46.394,163.155c0.099,0.246,0.187,0.493,0.296,0.738c0,0,0.245-0.453,0.66-1.185
							C47.031,162.857,46.713,163.006,46.394,163.155z"/>
						<path fill="#72563E" d="M66.017,186.327c0.259,0.765,0.551,1.538,0.884,2.317c3.421-2.616,6.689-5.108,9.419-7.164
							c-0.473-0.918-0.922-1.857-1.347-2.82C72.437,180.857,69.318,183.52,66.017,186.327z"/>
						<path fill="#72563E" d="M64.226,176.752c0.04,0.853,0.113,1.768,0.233,2.739c3.218-2.267,6.187-4.347,8.57-5.986
							c-0.31-0.985-0.593-1.989-0.844-3.014C70.065,172.19,67.293,174.362,64.226,176.752z"/>
						<path fill="#72563E" d="M64.804,181.709c0.152,0.812,0.341,1.65,0.569,2.507c3.357-2.483,6.519-4.812,9.114-6.697
							c-0.391-0.946-0.756-1.914-1.093-2.9C71.021,176.604,68.03,179.065,64.804,181.709z"/>
						<path fill="#72563E" d="M53.686,173.955c0.149,0.617,0.32,1.238,0.509,1.862c6.811-4.187,13.341-8.189,17.037-10.336
							c-0.143-1.059-0.253-2.136-0.327-3.231C67.91,164.43,61.012,169.059,53.686,173.955z"/>
						<path fill="#72563E" d="M67.81,190.586c0.362,0.71,0.763,1.419,1.196,2.127c3.42-2.663,6.713-5.223,9.503-7.365
							c-0.553-0.889-1.084-1.803-1.593-2.738C74.289,184.933,71.121,187.701,67.81,190.586z"/>
					</g>
					<path fill="#72563E" d="M141.309,189.231c-2.933,4.442-7.979,17.721-12.456,22.295c8.047-4.479,19.285-19.95,20.982-27.679
						l-2.893,17.351c0,0,14.972-16.409,10.418-35.627l2.802,8.773c0,0,3.44-9.263,3.306-20.243
						c-0.108-8.84-1.558-13.492-1.558-13.492l-3.174-5.885c-0.054-0.271-0.118-0.539-0.168-0.812
						c-0.188-1.049-0.348-2.129-0.447-3.213c-0.094,0.14-0.19,0.276-0.282,0.416c-3.587,5.495-6.845,11.766-7.496,18.398
						c-0.643,6.552-0.438,13.246-0.278,19.817C150.264,177.57,149.621,185.837,141.309,189.231z"/>
					<path fill="#09090B" d="M160.715,120.705c-3.812,3.679-3.49,9.129-2.624,13.942c1.123,6.253,3.605,12.198,5.25,18.318
						c1.995,7.426-0.031,14.379-2.248,21.549c-6.149,19.876-18.275,43.963-39.506,50.842c-3.387,1.098-5.439,0.515-8.584-0.004
						c-5.986-0.986-11.895-2.442-17.679-4.266c-17.047-5.375-33.083-14.585-44.683-28.373c-7.118-8.461-11.964-18.602-14.705-29.274
						c-0.751-2.922-1.305-5.893-1.75-8.876c-0.245-1.631-0.407-3.273-0.556-4.916c-0.074-0.816-0.128-1.636-0.182-2.454
						c-0.008-0.125-0.494,0.632-0.274,0.142c1.275-2.847,2.519-5.707,3.751-8.573c4.005-9.316,8.368-18.807,10.941-28.644
						c2.65-10.124-1.703-22.601,6.819-30.771c6.319-6.059,16.313,0.26,22.901,2.612c3.413,1.219,6.621,1.602,10.098,0.502
						c3.285-1.038,8.363-3.251,11.863-2.051c0.738,0.253,1.742-0.018,2.261-0.598c1.175-1.313,2.674-2.399,4.304-3.073
						c2.609-1.078,5.271-0.04,7.819,0.694c5.009,1.443,9.963,3.083,14.909,4.728c0.962,0.32,1.925,0.642,2.886,0.968
						c1.207,0.41,2.518-0.692,3.544-1.187c2.111-1.018,4.521-1.584,6.836-1.865c1.831-0.223,3.683-0.17,5.518-0.033
						c1.545,0.115,3.927,1.266,5.386,0.375c1.96-1.196,4.235-1.725,6.512-1.769c3.706-0.071,5.744,2.435,7.221,5.45
						c1.354,2.765,1.244,6.11,3.069,8.548c3.073,4.101,2.478,8.741,1.334,13.41C169.678,112.054,165.148,116.687,160.715,120.705
						c-2.225,2.017,1.072,5.294,3.287,3.286c5.229-4.739,10.029-10.179,11.746-17.188c1.447-5.906,1.63-11.76-2.183-16.85
						c-0.242-0.323-0.494-0.641-0.753-0.95c-0.497-0.596,0.559,1.501,0.401,0.553c-0.146-0.874-0.352-1.736-0.57-2.594
						c-0.772-3.027-2.004-6.118-3.961-8.577c-4.326-5.437-12.382-5.419-18.017-1.979c0.597-0.079,1.193-0.157,1.79-0.235
						c-6.861-1.497-15.202-1.337-21.283,2.71c0.596-0.079,1.193-0.156,1.79-0.234c-5.477-1.858-10.976-3.658-16.516-5.32
						c-3.346-1.004-6.523-2.042-10.047-1.507c-2.915,0.442-5.938,2.538-7.877,4.705c0.753-0.199,1.508-0.398,2.261-0.598
						c-5.761-1.976-11.422,2.449-16.994,2.641c-2.604,0.09-5.337-1.189-7.704-2.126c-3.118-1.235-6.184-2.571-9.426-3.458
						c-6.045-1.654-11.911-0.528-16.282,4.106c-4.202,4.456-5.44,10.906-6.023,16.777c-0.465,4.664,0.209,9.73-0.781,14.243
						c-0.982,4.479-2.766,8.832-4.412,13.096c-3.096,8.021-6.488,15.936-10,23.784c-0.831,1.86-0.222,4.29-0.026,6.267
						c0.326,3.293,0.839,6.569,1.494,9.813c1.163,5.757,3.012,11.331,5.353,16.71c4.136,9.508,10.395,18.036,17.912,25.144
						c12.539,11.854,28.621,19.553,45.135,24.104c5.104,1.407,10.305,2.502,15.549,3.235c1.324,0.187,2.651,0.358,3.984,0.482
						c2.919,0.271,6.562-1.652,9.16-2.808c20.07-8.934,31.612-32.341,37.853-52.188c2.006-6.38,4.085-13.356,3.103-20.091
						c-0.855-5.862-3.244-11.499-4.874-17.17c-1.187-4.13-3.439-10.988,0.199-14.498
						C166.162,121.908,162.872,118.625,160.715,120.705z"/>
					<g>
						<path fill="#FDF2DE" d="M135.548,79.318c0,0-41.041,19.296-46.921,47.143c-5.878,27.847,8.57,63.341,37.221,63.341
							c24.443,0,21.35-10.21,21.35-23.824c0-13.613-0.31-18.565,3.403-26.61c3.713-8.044,6.988-12.292,11.758-17.019
							s15.6-17.241,11.967-25.413c-3.633-8.171-4.85-17.596-10.729-19.761c-5.88-2.165-6.817,1.985-11.758,1.238
							C146.897,77.664,137.005,78.575,135.548,79.318z"/>
					</g>
					<g>
						<g>
							<path fill="#09090B" d="M155.519,79.492c3.225,0,3.225-5,0-5S152.294,79.492,155.519,79.492L155.519,79.492z"/>
						</g>
					</g>
					<path fill="#09090B" d="M164.3,75.969c0,0-1.731-1.202-6.71-0.429c-4.979,0.772-13.753,2.681-12.667,6.477
						c0.913,3.194,12.561,6.228,13.326,7.21c0.764,0.982,5.898,4.15,7.646,4.15s5.919,0.097,5.638-2.283
						C171.252,88.71,170.214,79.263,164.3,75.969z"/>
					<path fill="#09090B" d="M158.945,88.779c0,0-2.188,2.319-5.787,2.319c-3.6,0-9.915-5.164-22.706,3.062
						c-10.178,6.548-21.715,15.534-28.119,34.539c-3.775,11.205,6.126,46.543,12.61,50.809c7.85,5.165,25.614,2.33,28.093-4.131
						c1.83-4.771-3.365-28.299,1.799-37.801c5.164-9.501,21.984-29.54,21.158-35.529c-0.826-5.991-5.127-5.269-6.484-7.46
						C158.179,92.438,158.945,88.779,158.945,88.779z"/>
					<path fill="#09090B" d="M89.711,92.928c0,0,6.76-11.03,11.366-16.084c4.607-5.055,9.894-4.117,13.881-3.407
						C118.947,74.147,102.618,72.87,89.711,92.928z"/>
					<path fill="#09090B" d="M95.418,92.337c0,0,5.676-7.226,24.814-5.798l-11.673,9.407c0,0-4.461-3.09-4.461-6.614
						C104.099,89.333,101.408,89.453,95.418,92.337z"/>
					<path fill="#FFFFFF" d="M107.178,89.176c0,0,0.392,2.948,2.817,4.2c0,0,6.382-5.182,6.784-5.34
						C116.779,88.037,112.605,87.584,107.178,89.176z"/>
					<path fill="#FDF2DE" d="M138.613,105.609c0,0-3.648-11.642,0-13.03c3.648-1.39,9.729-0.869,15.983,2.084
						s11.119,6.255,7.992,10.946c-3.127,4.689-6.255,6.949-6.255,6.949s3.648-7.685,3.301-10.357l-1.946,1.337l-0.543-2.401
						l-2.246,1.064l-0.388-2.459l-2.479,1.316l-0.231-2.556l-2.092,1.317l-0.543-2.479l-2.4,1.007l-0.388-2.091l-2.169,0.929
						l-0.774-2.168C143.436,95.017,138.517,101.482,138.613,105.609z"/>
					<path fill="#FDF2DE" d="M136.657,167.52c0,0,5.004,12.057-7.961,11.829c-12.966-0.228-13.421-3.64-13.421-3.64l3.866-7.052
						l0.684,4.778h1.819l0.228,2.045l1.653-0.724l0.853,1.083l1.472-0.773l0.592,1.316l1.267-1.084l1.008,1.316l1.239-1.627
						l1.316,0.93l0.697-1.472l1.317,0.62l0.232-1.085l0.696,0.077v-0.623h0.774l-0.076-1.468l0.774-0.311l-0.233-1.549l0.697,0.311
						L136.657,167.52z"/>
					<path fill="#A572A1" d="M126.441,152.447c0,0,0.747-9.605,0-12.549c0,0,3.362-1.03,5.227,2.77
						c2.534,5.168-0.685,10.207-0.396,12.877c0.312,2.895,6.817,11.774-0.619,13.789s-15.958-6.816-18.127-18.126
						c-2.168-11.31,2.61-12.799,5.554-13.419S126.413,138.969,126.441,152.447z"/>
					<path fill="#5D5D5D" d="M145.94,80.32c2.347-1.025,4.26-2.743,6.564-3.867c3.7-1.803,7.693-2.41,11.52-0.702
						c0.645,0.288,1.618-1.184,1.072-1.423c-3.248-1.424-5.967-1.309-9.338-0.424c-3.68,0.966-6.233,3.553-9.609,5.031
						C145.607,79.173,145.02,80.721,145.94,80.32L145.94,80.32z"/>
					<g>
						<path fill="#5D5D5D" d="M154.583,80.531c0.859,0.248,1.668,0.627,2.41,1.125c0.355,0.239,0.689,0.527,0.932,0.882
							c0.318,0.465,0.201,0.626-0.213,0.917c-0.312,0.22-0.624,0.653-0.584,1.056c0.041,0.41,0.469,0.297,0.703,0.138
							c1.114-0.754,2.105-2.142,1.214-3.433c-0.788-1.144-2.369-1.797-3.657-2.164C154.805,78.886,153.892,80.333,154.583,80.531
							L154.583,80.531z"/>
						<path fill="#5D5D5D" d="M162.626,84.411c1.338,0.94,4.731,3.011,3.082,4.921c-0.709,0.821,0.082,1.399,0.77,0.581
							c2.46-2.932-0.44-5.234-2.817-6.876C163.124,82.667,162.104,84.045,162.626,84.411L162.626,84.411z"/>
					</g>
					<path fill="#CE8045" d="M125.932,80.859c-4.203-1.359-8.718-2.074-12.7-4.007c-3.091-1.5-5.083-1.444-8.127,0.076
						c-3.043,1.52-5.686,3.676-7.958,6.183c-2.36,2.602-5.188,4.902-7.182,7.807c-0.703,1.024,0.54,1.126,1.065,0.359
						c1.741-2.537,4.246-4.363,6.229-6.693c2.246-2.637,4.808-4.661,7.828-6.353c3.663-2.053,6.083-0.156,9.457,1.148
						c3.299,1.275,6.947,1.859,10.323,2.95C125.524,82.541,126.668,81.097,125.932,80.859L125.932,80.859z"/>
					<path fill="#CE8045" d="M98.649,78.288c-1.963,0.719-3.928,0.508-5.945,0.853c-2.075,0.354-3.94,1.252-5.838,2.128
						c-2.501,1.153-4.774,1.884-7.558,1.758c-2.303-0.104-4.582-1.049-6.766-1.703c-6.591-1.973-15.223-0.411-19.991,4.804
						c-0.729,0.797-0.284,1.259,0.455,0.45c3.111-3.402,8.675-4.694,13.141-4.696c3.827-0.002,7.322,1.7,11.019,2.414
						c3.214,0.621,6.215-0.473,9.096-1.774c2.122-0.957,4.072-1.884,6.423-2.086c1.777-0.153,3.359-0.155,5.065-0.779
						C98.171,79.501,99.164,78.099,98.649,78.288L98.649,78.288z"/>
					<path fill="#CE8045" d="M60.778,93.326c0.788-0.879,1.526-1.732,2.662-2.167c-0.257-0.359-0.515-0.718-0.771-1.076
						c-1.143,1.789-2.542,3.426-3.077,5.521c-0.186,0.726,0.432,1.194,1.084,0.761c2.044-1.359,3.754-3.049,6.336-3.171
						c-0.001-0.528-0.003-1.06-0.005-1.589c-3.466,1.018-5.419,5.218-6.207,8.444c-0.161,0.659,0.712,0.896,1.137,0.549
						c1.012-0.828,1.998-1.635,3.215-2.145c-0.205-0.424-0.41-0.847-0.615-1.27c-0.819,0.824-1.597,1.646-2.228,2.625
						c-0.66,1.024,0.748,1.516,1.327,0.618c0.539-0.838,1.216-1.535,1.915-2.238c0.538-0.542,0.281-1.646-0.615-1.27
						c-1.363,0.57-2.491,1.427-3.63,2.357c0.379,0.184,0.758,0.366,1.137,0.548c0.606-2.48,2.128-5.906,4.78-6.686
						c0.802-0.235,1.05-1.639-0.004-1.59c-2.912,0.138-4.859,1.956-7.174,3.495c0.361,0.254,0.723,0.508,1.084,0.761
						c0.494-1.94,1.81-3.45,2.867-5.105c0.385-0.603-0.028-1.36-0.771-1.076c-1.445,0.554-2.443,1.562-3.462,2.697
						C58.992,93.179,59.997,94.195,60.778,93.326L60.778,93.326z"/>
				</g>
				<path fill="#161514" d="M180.688,205.032c1.758-0.943,3.221-2.35,4.359-3.979c0.762-1.087,1.632-2.357,1.531-3.757
					c-0.12-1.679-1.602-2.246-3.072-1.946c-1.289,0.262-2.291,1.125-3.094,2.11c-1.079,1.323-4.099,5.713-0.919,6.588
					c3.146,0.865,4.603-3.445,5.33-5.647c0.465-1.408-1.142-2.278-2.276-1.75c-2.43,1.132-3.232,3.954-4.136,6.252
					c-0.731,1.862,2.266,2.661,2.987,0.824c0.605-1.54,1.086-3.643,2.713-4.4c-0.759-0.583-1.518-1.166-2.275-1.75
					c-0.346,1.047-0.717,2.74-1.662,3.421c-0.474,0.341,1.117,0.621,1.014,1.205c0.038-0.217,0.123-0.42,0.217-0.618
					c0.317-0.68,0.738-1.344,1.199-1.934c0.295-0.38,0.751-0.885,1.015-1.038c0.21-0.12,0.521-0.269,0.765-0.286
					c-0.762-0.2-1.056-0.493-0.881-0.883c-0.032,0.188-0.1,0.38-0.179,0.555c-0.826,1.817-2.465,3.428-4.2,4.359
					C177.364,203.304,178.929,205.979,180.688,205.032L180.688,205.032z"/>
				<path fill="#161514" d="M176.679,203.295c-0.763-1.523-1.663-3.143-3.203-3.997c-1.713-0.952-4.184-0.227-5.076,1.543
					c-1.686,3.34,3.691,5.486,6.181,5.546c0.927,0.021,1.442-0.729,1.55-1.55c0.396-3.025-2.127-5.517-4.942-6.06
					c-1.036-0.198-2.371,0.709-1.905,1.906c0.564,1.455,1.617,2.495,2.994,3.209c1.771,0.919,3.338-1.755,1.564-2.676
					c-0.58-0.301-1.318-0.707-1.571-1.356c-0.635,0.635-1.271,1.271-1.905,1.906c1.603,0.308,2.896,1.324,2.667,3.07
					c0.516-0.517,1.032-1.033,1.549-1.549c-0.241-0.007-0.435-0.034-0.938-0.168c-0.426-0.113-0.866-0.275-1.222-0.443
					c-0.383-0.18-0.841-0.458-1.038-0.628c-0.076-0.069-0.149-0.142-0.219-0.22c0.089,0.125,0.086,0.116-0.008-0.029
					c0.061,0.177,0.065,0.181,0.016,0.017c0.038,0.112,0.043,0.226,0.016,0.341c-0.046,0.203-0.212,0.224-0.012,0.072
					c0.208-0.158,0.387-0.238,0.635-0.298c0.023-0.007,0.39,0.206,0.579,0.382c0.731,0.68,1.175,1.667,1.615,2.545
					C174.898,206.646,177.571,205.075,176.679,203.295L176.679,203.295z"/>
				<path fill="#161514" d="M176.298,195.306c-0.781-1.091-1.967-1.749-3.194-2.228c-1.192-0.466-3.151-0.357-3.39,1.254
					c-0.531,3.601,4.916,5.577,6.803,2.46c0.824-1.362,0.283-3.297-0.668-4.435c-0.815-0.977-2.213-1.214-3.4-1.019
					c-0.945,0.154-2.032,0.763-2.43,1.677c-0.622,1.437,0.041,2.664,1.256,3.503c0.079,0.051,0.159,0.1,0.242,0.145
					c1.731,1.004,3.291-1.675,1.562-2.675c-0.119-0.069-0.234-0.142-0.348-0.219c0.381,0.263-0.253-0.355,0.095,0.107
					c-0.242-0.322,0.04,0.199-0.014-0.001c0.026,0.292,0.039,0.356,0.035,0.196c-0.052,0.294-0.059,0.362-0.021,0.204
					c-0.119,0.258-0.143,0.315-0.07,0.174c0.083-0.13,0.046-0.086-0.113,0.132c0.079-0.099,0.375-0.31-0.014-0.025
					c0.094-0.068,0.197-0.122,0.301-0.175c-0.422,0.211-0.06,0.035,0.062,0c0.423-0.117-0.218,0.004,0.059-0.021
					c0.129-0.01,0.259-0.005,0.388,0.004c-0.472-0.032-0.061,0.003,0.065,0.04c0.245,0.072-0.292-0.168,0.076,0.053
					c0.206,0.123-0.213-0.218,0.077,0.091c-0.273-0.292,0.013,0.051,0.067,0.158c-0.172-0.335,0.027,0.158,0.048,0.25
					c0.033,0.178,0.035,0.19,0.007,0.037c0.008,0.11,0.012,0.222,0.012,0.333c-0.006-0.303-0.098,0.213,0.05-0.099
					c-0.144,0.304,0.301-0.194,0.017-0.018c-0.156,0.081-0.155,0.081,0.004,0.001c-0.089,0.027-0.178,0.049-0.269,0.064
					c0.427-0.088-0.442-0.055-0.035,0.001c-0.065-0.01-0.597-0.176-0.324-0.058c-0.087-0.04-0.171-0.087-0.252-0.137
					c0.12,0.105,0.113,0.1-0.019-0.021c-0.122-0.131-0.129-0.137-0.021-0.014c-0.052-0.093-0.104-0.187-0.154-0.28
					c-0.08-0.147-0.06-0.194-0.031,0.062c-0.02,0.29-0.136,0.543-0.35,0.76c-0.555,0.26-0.702,0.353-0.441,0.277
					c-0.279,0.029-0.332,0.043-0.157,0.041c-0.249-0.042-0.286-0.047-0.108-0.015c0.156,0.028,0.309,0.079,0.459,0.13
					c0.082,0.028,0.163,0.059,0.243,0.091c-0.163-0.068-0.161-0.064,0.005,0.01c0.334,0.156,0.65,0.347,0.955,0.553
					c0.227,0.153-0.138-0.134,0.173,0.14c0.092,0.08,0.367,0.443,0.088,0.054c0.491,0.685,1.34,1.013,2.12,0.556
					C176.42,197.028,176.792,195.993,176.298,195.306L176.298,195.306z"/>
				<path fill="#161514" d="M179.934,193.425c0.003-2.242,0.055-4.166,1.829-5.753c-0.811-0.104-1.622-0.209-2.434-0.313
					c1.067,2.144-0.589,4.599-2.04,6.111c-1.382,1.441,0.806,3.635,2.191,2.191c2.524-2.634,4.275-6.351,2.524-9.866
					c-0.468-0.939-1.734-0.939-2.433-0.313c-2.389,2.137-2.733,4.896-2.737,7.943C176.833,195.423,179.932,195.423,179.934,193.425
					L179.934,193.425z"/>
				<path fill="#161514" d="M177.596,186.228c0.524-2.23,0.317-4.92-2.224-5.711c-0.615-0.19-1.465,0.105-1.749,0.712
					c-1.007,2.154-1.056,4.611,0.623,6.443c0.773,0.844,2.332,0.431,2.589-0.684c0.402-1.741,0.52-3.657,0-5.389
					c-0.5-1.668-3.041-1.362-3.043,0.412c0,0.683,0.107,1.62-0.169,2.261c-0.334,0.775-0.237,1.654,0.556,2.12
					c0.661,0.387,1.785,0.22,2.119-0.557c0.527-1.222,0.592-2.508,0.593-3.824c-1.015,0.137-2.028,0.274-3.043,0.411
					c0.361,1.206,0.28,2.526,0,3.741c0.862-0.227,1.726-0.456,2.589-0.683c-0.664-0.726-0.527-1.855-0.139-2.688
					c-0.582,0.237-1.166,0.475-1.749,0.713c0.419,0.129,0.17,1.428,0.06,1.896C174.151,187.348,177.139,188.172,177.596,186.228
					L177.596,186.228z"/>
				<path fill="#161514" d="M191.672,193.772c-0.42-1.741-1.295-3.412-1.942-5.077c-0.421-1.084-0.801-2.182-1.118-3.3
					c-0.149-0.525-0.271-1.062-0.321-1.607c-0.068-0.742-0.322-0.301-0.139-0.31c1.692-0.085,1.249,9.119,1.238,10.326
					c0.963-0.261,1.925-0.521,2.887-0.782c-0.871-2.061,0.671-14.633-4.811-12.269c-1.86,0.803-1.187,3.794-0.949,5.28
					c0.311,1.942,1.254,4.756,1.352,6.249c0.131,1.983,3.229,1.996,3.098,0c-0.203-3.111-1.732-6.048-1.631-9.209
					c0.019-0.575-1.583,0.081-1.235,0.575c0.224,0.316,0.278,0.777,0.36,1.144c0.282,1.251,0.25,2.603,0.296,3.878
					c0.07,1.997,0.056,4.05,0.846,5.916c0.631,1.492,2.874,0.64,2.887-0.782c0.031-3.48,1.068-13.696-4.645-13.409
					c-6.215,0.312,0.206,11.567,0.841,14.201C189.152,196.538,192.14,195.715,191.672,193.772L191.672,193.772z"/>
				<path fill="#161514" d="M194.743,188.831c-0.082-0.001-0.165-0.003-0.248-0.004c0.445,0.257,0.893,0.512,1.338,0.768
					c0.044,0.441,0.079,0.32,0.105-0.363c0.082-0.402,0.174-0.802,0.277-1.2c0.156-0.642,0.344-1.272,0.423-1.93
					c0.291-2.41,1.812-5.581,3.832-6.938c-0.706-0.186-1.413-0.37-2.119-0.556c1.911,4.453-2.907,8.258-4.946,11.751
					c0.944,0.398,1.889,0.797,2.832,1.194c0.645-4.055,3.516-7.254,4.945-11.033c0.62-1.639-2.12-2.793-2.831-1.194
					c-1.878,4.223-2.947,8.429-6.226,11.862c-1.271,1.329,0.322,3.159,1.877,2.433c4.235-1.978,7.456-8.598,7.235-13.132
					c-0.097-1.988-3.049-2.005-3.099,0c-0.133,5.366-2.639,9.581-7.222,12.357c-1.706,1.034-0.149,3.714,1.563,2.676
					c5.517-3.342,8.597-8.578,8.757-15.033c-1.032,0-2.065,0-3.099,0c0.172,3.521-2.406,8.917-5.7,10.456
					c0.626,0.811,1.252,1.623,1.878,2.434c3.518-3.685,4.692-7.952,6.709-12.488c-0.943-0.397-1.888-0.796-2.831-1.194
					c-1.44,3.81-4.292,6.918-4.946,11.033c-0.262,1.654,1.89,2.809,2.832,1.194c2.896-4.962,7.596-8.706,4.945-14.88
					c-0.319-0.744-1.48-0.983-2.119-0.556c-2.919,1.96-4.913,5.85-5.332,9.326c-0.211,1.742-2.157,6.069,1.168,6.115
					C196.742,191.957,196.739,188.858,194.743,188.831L194.743,188.831z"/>
				<path fill="#161514" d="M195.151,177.065c0.387-3.243-0.713-6.688-3.811-8.186c-0.811-0.392-2.105-0.134-2.275,0.925
					c-0.485,3.026-0.986,7.196,1.539,9.498c0.908,0.827,2.18,0.422,2.59-0.684c0.944-2.552,1.315-5.873,0.225-8.423
					c-0.785-1.831-3.453-0.252-2.676,1.564c0.727,1.695,0.07,4.396-0.537,6.034c0.863-0.229,1.727-0.456,2.59-0.684
					c-1.58-1.439-1.044-4.608-0.743-6.481c-0.759,0.309-1.518,0.616-2.275,0.926c2.181,1.053,2.54,3.295,2.275,5.51
					C191.816,179.047,194.918,179.024,195.151,177.065L195.151,177.065z"/>
				<path fill="#161514" d="M163.568,209.206c-4.146-3.121-3.938-8.268-2.331-12.707c-0.944,0.123-1.888,0.246-2.832,0.37
					c2.373,3.28,2,8.668,2.452,12.533c0.226,1.932,3.099,2.048,3.099,0c-0.003-4.1,0.449-9.918-2.356-13.269
					c-0.743-0.888-2.345-0.396-2.589,0.683c-0.621,2.73,0,5.769,0.539,8.463c0.363,1.813,0.901,5.308,2.836,6.222
					c1.795,0.85,3.369-1.821,1.563-2.675c-0.971-0.459-1.35-4.062-1.538-5.004c-0.38-1.901-0.852-4.249-0.413-6.182
					c-0.863,0.228-1.726,0.456-2.589,0.684c2.088,2.495,1.446,8.018,1.448,11.078c1.032,0,2.065,0,3.099,0
					c-0.514-4.392-0.17-10.357-2.875-14.097c-0.805-1.112-2.354-0.948-2.832,0.37c-2.15,5.938-1.523,12.23,3.756,16.205
					C163.603,213.084,165.144,210.392,163.568,209.206L163.568,209.206z"/>
				<path fill="#161514" d="M165.478,194.565c-0.257-4.823,1.226-8.991,3.973-12.914c-0.892,0-1.783,0-2.676,0
					c1.863,3.693-2.828,9.091-4.564,12.132c0.963,0.261,1.925,0.521,2.887,0.782c-0.184-4.127,2.414-7.927,4.354-11.393
					c0.977-1.745-1.699-3.308-2.676-1.563c-2.209,3.948-4.985,8.252-4.776,12.956c0.067,1.499,2.096,2.168,2.888,0.782
					c2.481-4.349,7.208-10.018,4.564-15.26c-0.564-1.12-2.057-0.883-2.676,0c-3.033,4.332-4.679,9.162-4.396,14.478
					C162.484,196.553,165.583,196.563,165.478,194.565L165.478,194.565z"/>
				<path fill="#161514" d="M171.353,173.282c2.122-4.32,3.805-8.857,7.367-12.241c-0.882-0.365-1.764-0.73-2.645-1.096
					c-0.183,2.481-1.784,4.687-2.876,6.853c-0.963,1.911-1.354,4.194-3.205,5.506c0.706,0.706,1.413,1.413,2.119,2.12
					c1.848-4.271,5.019-7.752,6.624-12.164c0.6-1.649-2.068-2.768-2.832-1.193c-1.629,3.358-2.775,7.412-5.911,9.716
					c-1.593,1.169-0.05,3.859,1.563,2.676c3.713-2.727,5.083-6.828,7.023-10.828c-0.943-0.398-1.888-0.796-2.832-1.194
					c-1.506,4.14-4.572,7.404-6.311,11.424c-0.543,1.254,0.698,3.127,2.119,2.12c2.389-1.693,3.145-4.061,4.316-6.618
					c1.29-2.812,3.066-5.242,3.299-8.416c0.104-1.412-1.729-1.965-2.645-1.096c-3.77,3.582-5.604,8.292-7.851,12.869
					C167.8,173.505,170.472,175.076,171.353,173.282L171.353,173.282z"/>
				<path fill="#161514" d="M177.06,175.945c0.857-1.846,2.029-3.434,3.258-5.043c0.507-0.662,1.188-1.377,1.463-2.176
					c0.084-0.241,0.389-1.449,0.663-1.498c-0.397-0.053-0.796-0.105-1.193-0.157c2.052,0.871-5.726,7.797-6.624,8.519
					c-1.566,1.258,0.643,3.399,2.191,2.19c3.614-2.821,7.534-7.658,7.301-12.509c-0.079-1.655-2.799-2.218-3.043-0.412
					c-0.517,3.831-2.988,7.976-6.516,9.728c-1.79,0.889-0.221,3.561,1.563,2.675c4.155-2.063,7.327-7.038,7.94-11.577
					c-1.015-0.138-2.029-0.275-3.044-0.413c0.194,4.036-3.419,7.996-6.394,10.318c0.73,0.73,1.461,1.46,2.191,2.19
					c2.769-2.225,8.91-6.813,7.721-11.064c-0.631-2.252-3.188-3.604-4.67-1.203c-0.797,1.292-1.293,2.59-2.226,3.826
					c-1.221,1.62-2.399,3.194-3.259,5.042C173.547,176.181,176.218,177.756,177.06,175.945L177.06,175.945z"/>
				<path fill="#161514" d="M189.444,163.75c-0.23-3.531,1.396-6.271,4.112-8.415c-0.812-0.105-1.622-0.209-2.434-0.314
					c1.943,3.495-3.141,7.11-5.531,8.914c0.626,0.812,1.251,1.622,1.877,2.433c2.979-3.174,3.868-7.834,7.229-10.652
					c1.018-0.853,0.209-2.74-1.096-2.644c-1.888,0.139-3.133,1.125-3.975,2.795c-0.747,1.481-0.832,3.726-2.066,4.887
					c-1.459,1.37,0.736,3.557,2.19,2.19c0.964-0.906,1.403-2.146,1.812-3.375c0.336-1.014,0.689-3.3,2.039-3.399
					c-0.365-0.882-0.73-1.763-1.096-2.645c-3.423,2.87-4.241,7.469-7.229,10.652c-1.154,1.23,0.422,3.531,1.877,2.434
					c3.923-2.961,9.679-7.694,6.644-13.152c-0.528-0.952-1.677-0.912-2.434-0.314c-3.3,2.605-5.298,6.352-5.019,10.606
					C186.476,165.733,189.575,165.746,189.444,163.75L189.444,163.75z"/>
				<path fill="#161514" d="M200.478,173.261c0.004-4.92-0.012-10.349,4.111-13.741c-0.882-0.365-1.764-0.73-2.645-1.096
					c0.474,5.831-3.658,10.387-5.651,15.566c1.015,0.137,2.028,0.274,3.043,0.412c-0.143-5.667,3.581-10.573,4.891-15.946
					c0.306-1.253-1.089-2.53-2.276-1.75c-2.76,1.815-2.9,4.841-3.755,7.773c-0.561,1.924,2.43,2.738,2.987,0.824
					c0.543-1.861,0.559-4.756,2.332-5.922c-0.759-0.583-1.518-1.167-2.275-1.75c-1.387,5.688-5.153,10.741-5.002,16.771
					c0.047,1.833,2.433,2,3.043,0.412c2.134-5.545,6.273-10.104,5.763-16.391c-0.114-1.403-1.575-1.976-2.646-1.096
					c-4.765,3.922-5.014,10.217-5.019,15.933C197.378,175.26,200.476,175.26,200.478,173.261L200.478,173.261z"/>
				<path fill="#161514" d="M205.748,174.434c1.347-4.158,3.692-7.799,4.24-12.205c0.187-1.496-1.745-1.837-2.645-1.096
					c-3.588,2.958-3.015,8.696-5.188,12.487c-0.995,1.736,1.683,3.297,2.676,1.564c1.004-1.752,1.502-3.729,2.017-5.666
					c0.547-2.057,0.958-4.77,2.688-6.195c-0.882-0.364-1.764-0.73-2.646-1.095c-0.504,4.047-2.89,7.552-4.129,11.381
					C202.144,175.517,205.136,176.326,205.748,174.434L205.748,174.434z"/>
				<path fill="#161514" d="M199.309,154.267c0.374-0.027,0.771-0.086,1.079-0.323c0.148-0.113,0.272-0.197,0.396-0.32
					c0.109-0.104,0.049-0.062-0.184,0.127c-0.166,0.089-0.343,0.135-0.531,0.137c0.842-0.062,1.55-0.659,1.55-1.549
					c0-0.8-0.706-1.612-1.55-1.55c-0.373,0.027-0.771,0.086-1.078,0.322c-0.149,0.114-0.273,0.198-0.397,0.321
					c-0.109,0.104-0.048,0.062,0.184-0.128c0.166-0.088,0.343-0.134,0.531-0.136c-0.842,0.062-1.549,0.659-1.549,1.549
					C197.76,153.515,198.466,154.328,199.309,154.267L199.309,154.267z"/>
				<path fill="#161514" d="M183.299,151.984c-1.222,0.395-2.381,0.621-3.347,1.54c-0.611,0.582-0.586,1.605,0,2.19
					c0.607,0.608,1.58,0.582,2.191,0c0.144-0.124,0.154-0.143,0.029-0.052c0.076-0.055,0.153-0.104,0.233-0.151
					c0.077-0.045,0.157-0.086,0.239-0.122c-0.318,0.153,0.083-0.015,0.133-0.031c0.444-0.142,0.9-0.243,1.344-0.386
					c0.804-0.259,1.313-1.065,1.082-1.906C184.988,152.28,184.103,151.726,183.299,151.984L183.299,151.984z"/>
				<path fill="#161514" d="M188.684,151.576c0.011-0.445-0.053,0.168,0.003-0.131c0.018-0.098,0.223-0.654,0.089-0.356
					c0.04-0.085,0.083-0.168,0.13-0.248c0.01-0.017,0.279-0.392,0.102-0.173c0.069-0.081,0.141-0.157,0.217-0.232
					c-0.016,0.017,0.377-0.298,0.215-0.185c0.69-0.483,1.009-1.346,0.556-2.12c-0.4-0.683-1.427-1.042-2.119-0.556
					c-1.343,0.94-2.254,2.328-2.29,4.001c-0.018,0.845,0.719,1.55,1.55,1.55C187.993,153.126,188.666,152.42,188.684,151.576
					L188.684,151.576z"/>
				<path fill="#161514" d="M183.665,148.959c-0.539-0.539-1.076-0.834-1.856-0.834c-0.845-0.002-1.55,0.705-1.55,1.549
					c0,0.845,0.705,1.547,1.55,1.549c0.047,0,0.095,0,0.142,0.001c0.02,0.001,0.039,0.002,0.059,0.003
					c-0.217,0.001-0.418-0.055-0.602-0.168c0.207,0.09-0.337-0.289-0.133-0.104c0.069,0.062,0.134,0.13,0.199,0.196
					c0.598,0.596,1.594,0.597,2.191,0C184.262,150.554,184.263,149.556,183.665,148.959L183.665,148.959z"/>
				<path fill="#161514" d="M174.396,156.924c0.304-0.655,0.493-1.358,0.239-2.067c-0.247-0.688-0.735-1.205-1.242-1.713
					c-0.597-0.598-1.595-0.597-2.191,0c-0.597,0.598-0.597,1.594,0,2.191c0.126,0.126,0.252,0.252,0.375,0.382
					c0.072,0.076,0.366,0.477,0.1,0.099c0.034,0.05,0.064,0.103,0.092,0.157c-0.092-0.244-0.116-0.289-0.072-0.136
					c-0.026-0.277-0.04-0.333-0.041-0.164c0.008-0.078,0.016-0.156,0.023-0.235c-0.05,0.151-0.036,0.125,0.042-0.078
					c-0.356,0.766-0.223,1.663,0.556,2.119C172.953,157.876,174.04,157.688,174.396,156.924L174.396,156.924z"/>
				<path fill="#161514" d="M176.511,151.195c0-0.887,0-1.774,0-2.663c0-0.844-0.705-1.549-1.55-1.549s-1.55,0.705-1.55,1.549
					c0,0.889,0,1.776,0,2.663c0,0.845,0.705,1.55,1.55,1.55S176.511,152.04,176.511,151.195L176.511,151.195z"/>
				<path fill="#161514" d="M195.839,148.105c0.127-0.126,0.254-0.253,0.381-0.38c0.597-0.596,0.597-1.594,0-2.19
					c-0.598-0.598-1.594-0.597-2.191,0c-0.127,0.127-0.254,0.253-0.381,0.38c-0.597,0.597-0.596,1.594,0,2.19
					C194.245,148.703,195.241,148.703,195.839,148.105L195.839,148.105z"/>
				<path fill="#161514" d="M205.804,152.338c0-0.889,0-1.776,0-2.664c0-0.844-0.705-1.549-1.549-1.549
					c-0.845,0-1.55,0.705-1.55,1.549c0,0.888,0,1.775,0,2.664c0,0.844,0.705,1.549,1.55,1.549
					C205.099,153.887,205.804,153.182,205.804,152.338L205.804,152.338z"/>
				<path fill="#161514" d="M207.632,156.096c0.43-0.477,0.642-1.02,0.882-1.606c0.045-0.108,0.088-0.218,0.132-0.328
					c0.027-0.069,0.186-0.438,0.02-0.054c0.041-0.094,0.086-0.186,0.131-0.278c0.072-0.145,0.313-0.39-0.021-0.017
					c0.563-0.628,0.62-1.57,0-2.191c-0.574-0.572-1.627-0.627-2.191,0c-0.429,0.478-0.641,1.021-0.882,1.607
					c-0.044,0.108-0.088,0.218-0.132,0.328c-0.027,0.069-0.185,0.438-0.02,0.053c-0.04,0.095-0.085,0.187-0.131,0.278
					c-0.072,0.146-0.312,0.39,0.022,0.017c-0.563,0.627-0.62,1.57,0,2.191C206.015,156.668,207.067,156.724,207.632,156.096
					L207.632,156.096z"/>
				<path fill="#161514" d="M210.676,157.998c0.915-0.915,1.837-1.905,3.121-2.265c1.921-0.537,1.104-3.527-0.823-2.988
					c-1.82,0.509-3.183,1.757-4.488,3.062C207.07,157.22,209.262,159.412,210.676,157.998L210.676,157.998z"/>
				<path fill="#161514" d="M211.891,149.674c-0.06,0.601-0.359,0.988-0.899,1.16c0.152-0.038,0.083-0.032-0.206,0.018
					c0.104-0.013,0.212-0.009,0.317-0.009c0.844-0.002,1.549-0.704,1.549-1.55c0-0.844-0.705-1.551-1.549-1.549
					c-0.465,0-0.953,0.042-1.363,0.283c-0.617,0.36-0.895,0.95-0.947,1.646c-0.062,0.843,0.753,1.549,1.549,1.549
					C211.233,151.223,211.827,150.516,211.891,149.674L211.891,149.674z"/>
				<path fill="#161514" d="M194.317,166.367c0.064-0.064,0.131-0.128,0.198-0.189c0.06-0.055,0.385-0.296,0.041-0.044
					c0.125-0.091,0.261-0.167,0.397-0.238c0.309-0.158,0.64-0.274,0.951-0.428c0.759-0.37,0.959-1.432,0.557-2.118
					c-0.45-0.77-1.361-0.927-2.12-0.556c-0.312,0.152-0.638,0.274-0.951,0.427c-0.473,0.229-0.891,0.591-1.265,0.956
					c-0.604,0.59-0.592,1.599,0,2.19C192.728,166.97,193.714,166.957,194.317,166.367L194.317,166.367z"/>
				<path fill="#161514" d="M184.824,177.478c0.063-0.169,0.058-0.168-0.016,0.005c0.049-0.116,0.109-0.226,0.169-0.335
					c0.034-0.062,0.269-0.386,0.027-0.078c0.07-0.091,0.152-0.171,0.235-0.25c0.129-0.11,0.112-0.099-0.051,0.034
					c0.091-0.063,0.191-0.114,0.291-0.162c-0.354,0.173-0.03,0.036,0.062,0.015c-0.382,0.091-0.036,0.009,0.07,0.006
					c0.844-0.021,1.549-0.688,1.549-1.55c0-0.828-0.704-1.569-1.549-1.548c-1.905,0.047-3.175,1.317-3.776,3.04
					c-0.279,0.797,0.31,1.693,1.082,1.906C183.774,178.796,184.546,178.273,184.824,177.478L184.824,177.478z"/>
				<path fill="#161514" d="M179.191,179.014c-0.687,0.767-0.976,1.793-0.571,2.776c0.414,1.004,1.144,1.71,2.026,2.319
					c0.695,0.48,1.717,0.131,2.119-0.556c0.451-0.771,0.138-1.641-0.556-2.12c-0.156-0.107-0.177-0.125-0.365-0.3
					c-0.078-0.075-0.153-0.155-0.226-0.236c0.078,0.11,0.067,0.094-0.032-0.054c-0.086-0.165-0.096-0.166-0.029-0.002
					c-0.047-0.178-0.056-0.164-0.025,0.046c0.002-0.18-0.003-0.158-0.017,0.061c-0.021,0.098-0.065,0.183-0.134,0.255
					c0.562-0.628,0.622-1.568,0-2.189C180.811,178.44,179.755,178.383,179.191,179.014L179.191,179.014z"/>
				<path fill="#161514" d="M171.11,210.97c-1.198-1.171-2.521-2.117-4.107-2.681c-0.961-0.342-1.961,0.543-1.961,1.494
					c0,0.801,0.011,1.407,0.609,2.014c0.427,0.433,0.838,0.877,1.297,1.277c1.239,1.08,2.615,1.503,4.239,1.246
					c0.835-0.132,1.287-1.161,1.082-1.906c-0.242-0.881-1.072-1.213-1.905-1.082c-1.078,0.171-2.033-1.23-2.678-1.884
					c0.151,0.364,0.303,0.73,0.454,1.096c0-0.254,0-0.508,0-0.761c-0.654,0.498-1.308,0.996-1.962,1.494
					c1.065,0.379,1.943,1.104,2.741,1.883C170.349,214.558,172.541,212.368,171.11,210.97L171.11,210.97z"/>
				<g>
					<g>
						<path fill="#161514" d="M166.211,206.195c3.225,0,3.225-5,0-5S162.986,206.195,166.211,206.195L166.211,206.195z"/>
					</g>
				</g>
				<path fill="#161514" d="M164.661,197.989c0.001,0.53,0.111,1.038,0.501,1.429c0.391,0.391,0.899,0.5,1.429,0.502
					c0.845,0.001,1.55-0.706,1.55-1.55c0-0.846-0.705-1.547-1.55-1.549c-0.047,0-0.094,0-0.141-0.002
					c-0.019,0-0.037-0.002-0.055-0.002c0.229,0.001,0.443,0.057,0.645,0.167c0.186,0.186,0.371,0.37,0.556,0.556
					c0.11,0.201,0.167,0.416,0.168,0.646c-0.007-0.064-0.004-0.131-0.004-0.196c-0.001-0.845-0.703-1.55-1.549-1.55
					C165.367,196.439,164.66,197.145,164.661,197.989L164.661,197.989z"/>
				<path fill="#161514" d="M152.487,216.281c0.379-2.561,1.435-4.888,3.025-6.925c-0.811-0.104-1.622-0.209-2.434-0.313
					c0.865,1.773-1.502,3.37-2.867,3.967c0.625,0.812,1.251,1.623,1.877,2.434c1.247-1.372,1.809-3.208,3.043-4.565
					c1.342-1.474-0.844-3.671-2.19-2.19c-1.248,1.372-1.81,3.207-3.044,4.564c-1.246,1.37,0.304,3.121,1.877,2.434
					c3.187-1.392,5.648-4.786,3.98-8.207c-0.405-0.83-1.839-1.075-2.434-0.313c-1.917,2.456-3.361,5.179-3.822,8.292
					C149.21,217.411,152.196,218.252,152.487,216.281L152.487,216.281z"/>
				<path fill="#161514" d="M155.894,220.008c1.211-1.147,3.677-2.907,5.466-2.857c-0.199-0.005-0.419-0.118-0.487-0.322
					c-0.111-0.34,0.432-0.713-0.049-0.377c-0.557,0.389-1.21,0.644-1.839,0.885c-1.257,0.48-2.56,0.814-3.838,1.224
					c0.398,0.944,0.796,1.889,1.194,2.832c2.24-1.565,5.934-2.123,6.799-5.11c0.557-1.924-2.434-2.739-2.988-0.824
					c-0.242,0.837-1.711,1.359-2.411,1.708c-0.996,0.497-2.047,0.911-2.964,1.552c-1.368,0.957-0.574,3.399,1.194,2.832
					c2.188-0.703,10.416-2.507,7.488-6.396c-2.29-3.042-7.808,0.818-9.757,2.665C152.249,219.194,154.443,221.382,155.894,220.008
					L155.894,220.008z"/>
				<path fill="#161514" d="M146.02,221.545c-0.544-1.642,0.64-3.569,1.884-4.58c-0.881-0.365-1.763-0.73-2.645-1.096
					c0.239,1.854,0.347,4.101-1.515,5.131c0.759,0.583,1.517,1.165,2.275,1.749c0.794-1.989,1.521-3.972,1.902-6.086
					c0.353-1.954-2.634-2.788-2.987-0.825c-0.382,2.115-1.108,4.099-1.902,6.087c-0.536,1.342,1.195,2.347,2.275,1.75
					c2.854-1.579,3.438-4.805,3.05-7.806c-0.178-1.38-1.532-1.999-2.645-1.096c-2.065,1.678-3.552,4.967-2.681,7.596
					C143.657,224.256,146.649,223.448,146.02,221.545L146.02,221.545z"/>
				<path fill="#161514" d="M34.933,121.173c0.549-2.822,1.492-6.954-0.156-9.563c-0.658-1.043-1.999-0.948-2.675,0
					c-2.146,3.009-1.16,7.585,1.697,9.729c0.628,0.473,1.796,0.152,2.118-0.556c1.365-2.988,1.639-7.455-1.003-9.866
					c-1.472-1.344-3.669,0.841-2.19,2.19c1.542,1.407,1.316,4.364,0.519,6.112c0.707-0.186,1.412-0.37,2.12-0.557
					c-1.585-1.189-1.662-3.979-0.586-5.489c-0.893,0-1.784,0-2.675,0c1.13,1.789,0.221,5.238-0.156,7.176
					C31.564,122.302,34.551,123.133,34.933,121.173L34.933,121.173z"/>
				<path fill="#161514" d="M36.148,108.542c-0.025-0.111-0.05-0.224-0.074-0.335c0.052,1.993,3.099,2.001,3.099,0
					c0-1.903,0-3.805,0-5.707c-0.882,0.365-1.764,0.73-2.645,1.096c-0.219-0.244,0.082,0.149,0.103,0.186
					c0.099,0.175,0.149,0.36,0.215,0.562c0.15,0.464,0.267,0.958,0.327,1.441c0.065,0.519,0.074,1.041,0.033,1.561
					c0.014-0.173-0.095,0.316-0.087,0.287c0.041-0.177,0.154-0.309,0.341-0.394c0.761,0.002,0.953-0.047,0.575-0.146
					c-1.906-0.616-2.716,2.376-0.823,2.988c2.231,0.723,3.106-1.608,3.119-3.368c0.013-1.758-0.403-3.962-1.612-5.309
					c-0.923-1.027-2.645-0.202-2.645,1.096c0,1.902,0,3.804,0,5.707c1.032,0,2.065,0,3.099,0c-0.021-0.788-0.289-1.297-0.835-1.856
					C36.942,104.918,34.754,107.111,36.148,108.542L36.148,108.542z"/>
				<g>
					<g>
						<path fill="#161514" d="M33.058,108.424c3.224,0,3.224-5,0-5S29.833,108.424,33.058,108.424L33.058,108.424z"/>
					</g>
				</g>
				<g>
					<g>
						<path fill="#161514" d="M38.385,100.816c3.224,0,3.224-5,0-5S35.161,100.816,38.385,100.816L38.385,100.816z"/>
					</g>
				</g>
				<path fill="#161514" d="M39.118,102.88c0,0.128,0,0.254,0,0.381c0,0.845,0.705,1.55,1.55,1.55c0.844,0,1.548-0.705,1.548-1.55
					c0-0.127,0-0.253,0-0.381c0-0.845-0.704-1.549-1.548-1.549C39.823,101.332,39.118,102.036,39.118,102.88L39.118,102.88z"/>
				<path fill="#161514" d="M34.776,128.729c-0.633-1.358-0.731-2.883-1.521-4.185c-0.553-0.909-2.177-1.105-2.676,0
					c-0.901,2.001-0.79,4.25,0.38,6.13c0.444,0.713,1.379,0.995,2.12,0.555c0.591-0.349,1.101-0.845,1.101-1.588
					c0-0.646-0.36-1.013-0.747-1.464c0.133,0.229,0.266,0.456,0.398,0.684c-0.014-0.047-0.026-0.094-0.04-0.143
					c-0.54-1.92-3.529-1.103-2.988,0.824c0.134,0.473,0.392,0.77,0.719,1.105c-0.133-0.229-0.266-0.456-0.398-0.684
					c0.004,0.029,0.009,0.06,0.013,0.089c0.133-0.502,0.266-1.005,0.399-1.507c-0.007,0.002-0.014,0.005-0.02,0.009
					c0.707,0.186,1.413,0.37,2.12,0.556c-0.54-0.868-0.82-2.028-0.381-3.002c-0.892,0-1.784,0-2.676,0
					c0.761,1.252,0.898,2.847,1.522,4.185c0.356,0.766,1.441,0.952,2.119,0.557C34.999,130.394,35.133,129.496,34.776,128.729
					L34.776,128.729z"/>
				<g>
					<g>
						<path fill="#161514" d="M29.634,134.676c3.224,0,3.224-5,0-5S26.41,134.676,29.634,134.676L29.634,134.676z"/>
					</g>
				</g>
				<g>
					<g>
						<path fill="#161514" d="M28.873,140.762c3.224,0,3.224-5,0-5S25.649,140.762,28.873,140.762L28.873,140.762z"/>
					</g>
				</g>
				<g>
					<g>
						<path fill="#161514" d="M36.102,127.447c3.224,0,3.224-5,0-5S32.877,127.447,36.102,127.447L36.102,127.447z"/>
					</g>
				</g>
				<g>
					<g>
						<path fill="#161514" d="M29.254,123.642c3.224,0,3.224-5,0-5S26.03,123.642,29.254,123.642L29.254,123.642z"/>
					</g>
				</g>
				<g>
					<g>
						<path fill="#161514" d="M39.146,116.033c3.224,0,3.224-5,0-5S35.921,116.033,39.146,116.033L39.146,116.033z"/>
					</g>
				</g>
				<g>
					<g>
						<path fill="#161514" d="M34.961,101.578c3.224,0,3.224-5,0-5S31.737,101.578,34.961,101.578L34.961,101.578z"/>
					</g>
				</g>
				<g>
					<g>
						<path fill="#161514" d="M38.765,97.011c3.224,0,3.224-5,0-5S35.541,97.011,38.765,97.011L38.765,97.011z"/>
					</g>
				</g>
				<path fill="#161514" d="M40.333,97.128c0.127,0.126,0.253,0.254,0.38,0.38c0.597,0.599,1.594,0.597,2.191,0
					c0.596-0.597,0.596-1.594,0-2.19c-0.127-0.126-0.254-0.254-0.381-0.38c-0.597-0.599-1.594-0.598-2.19,0
					C39.735,95.535,39.735,96.531,40.333,97.128L40.333,97.128z"/>
				<g>
					<g>
						<path fill="#161514" d="M179.146,149.893c3.225,0,3.225-5,0-5S175.921,149.893,179.146,149.893L179.146,149.893z"/>
					</g>
				</g>
				<path fill="#161514" d="M184.472,147.039c0.127,0,0.254,0,0.381,0c0.844,0,1.549-0.704,1.549-1.549s-0.705-1.55-1.549-1.55
					c-0.127,0-0.254,0-0.381,0c-0.845,0-1.549,0.705-1.549,1.55S183.627,147.039,184.472,147.039L184.472,147.039z"/>
				<g>
					<g>
						<path fill="#161514" d="M196.646,151.687c1.612,0,1.612-2.5,0-2.5S195.033,151.687,196.646,151.687L196.646,151.687z"/>
					</g>
				</g>
				<path fill="#161514" d="M199.142,146.799c0.047,0.047,0.094,0.095,0.14,0.142c0.166,0.168,0.018,0.136-0.054-0.15
					c0-0.138,0-0.274,0-0.412c-0.002,0.007-0.004,0.012-0.006,0.018c0.118-0.154,0.237-0.309,0.355-0.463
					c0.324-0.062,0.408-0.088,0.252-0.076c-0.047,0.001-0.094,0.001-0.141,0.001c-0.998,0.002-0.999,1.55,0,1.549
					c0.453,0,0.867-0.117,1.027-0.599c0.151-0.459-0.186-0.81-0.479-1.104C199.53,144.996,198.435,146.092,199.142,146.799
					L199.142,146.799z"/>
				<g>
					<g>
						<path fill="#161514" d="M205.776,145.219c1.612,0,1.612-2.5,0-2.5S204.164,145.219,205.776,145.219L205.776,145.219z"/>
					</g>
				</g>
				<g>
					<g>
						<path fill="#161514" d="M205.776,145.219c1.612,0,1.612-2.5,0-2.5S204.164,145.219,205.776,145.219L205.776,145.219z"/>
					</g>
				</g>
				<path fill="#161514" d="M206.903,146.252c0,0.126,0,0.254,0,0.38c0,0.999,1.55,0.999,1.55,0c0-0.126,0-0.254,0-0.38
					C208.453,145.252,206.903,145.252,206.903,146.252L206.903,146.252z"/>
				<g>
					<g>
						<path fill="#161514" d="M211.103,144.077c1.612,0,1.612-2.5,0-2.5S209.49,144.077,211.103,144.077L211.103,144.077z"/>
					</g>
				</g>
				<path fill="#161514" d="M212.076,146.419c0.127,0.127,0.254,0.254,0.381,0.38c0.706,0.708,1.802-0.387,1.095-1.095
					c-0.127-0.127-0.254-0.254-0.381-0.381C212.465,144.615,211.369,145.711,212.076,146.419L212.076,146.419z"/>
				<g>
					<g>
						<path fill="#161514" d="M214.906,151.306c1.612,0,1.612-2.5,0-2.5S213.294,151.306,214.906,151.306L214.906,151.306z"/>
					</g>
				</g>
				<path fill="#161514" d="M215.273,145.11c0,0.127,0,0.253,0,0.38c0,0.999,1.55,0.999,1.55,0c0-0.127,0-0.253,0-0.38
					C216.823,144.111,215.273,144.111,215.273,145.11L215.273,145.11z"/>
				<g>
					<g>
						<path fill="#161514" d="M194.743,142.937c1.612,0,1.612-2.5,0-2.5S193.131,142.937,194.743,142.937L194.743,142.937z"/>
					</g>
				</g>
				<path fill="#161514" d="M189.403,143.589c0,0.127,0,0.253,0,0.38c0,0.999,1.55,0.999,1.55,0c0-0.127,0-0.253,0-0.38
					C190.953,142.59,189.403,142.59,189.403,143.589L189.403,143.589z"/>
				<g>
					<g>
						<path fill="#161514" d="M172.678,143.697c1.612,0,1.612-2.5,0-2.5S171.065,143.697,172.678,143.697L172.678,143.697z"/>
					</g>
				</g>
				<g>
					<g>
						<path fill="#161514" d="M169.254,148.263c1.612,0,1.612-2.5,0-2.5S167.642,148.263,169.254,148.263L169.254,148.263z"/>
					</g>
				</g>
				<g>
					<g>
						<path fill="#161514" d="M167.732,141.795c1.612,0,1.612-2.5,0-2.5S166.12,141.795,167.732,141.795L167.732,141.795z"/>
					</g>
				</g>
				<g>
					<g>
						<path fill="#161514" d="M167.352,135.708c1.612,0,1.612-2.5,0-2.5S165.739,135.708,167.352,135.708L167.352,135.708z"/>
					</g>
				</g>
				<path fill="#161514" d="M172.298,135.994c0.047,0,0.094,0,0.141,0c0.16,0.003-0.172-0.039-0.199-0.059
					c-0.093-0.093-0.186-0.186-0.277-0.278c-0.041-0.079-0.062-0.164-0.062-0.254c0.008,0.064,0.004,0.132,0.004,0.196
					c0.002,0.999,1.551,0.999,1.549,0c0-0.32-0.034-0.642-0.273-0.881c-0.24-0.24-0.561-0.273-0.881-0.274
					C171.298,134.442,171.298,135.992,172.298,135.994L172.298,135.994z"/>
				<g>
					<g>
						<path fill="#161514" d="M176.863,142.176c1.612,0,1.612-2.5,0-2.5S175.251,142.176,176.863,142.176L176.863,142.176z"/>
					</g>
				</g>
				<path fill="#161514" d="M180.653,143.589c0.001,0.32,0.035,0.641,0.274,0.881c0.239,0.239,0.561,0.272,0.88,0.273
					c1,0.002,1-1.547,0-1.549c-0.046,0-0.094,0-0.14-0.001c-0.16-0.002,0.171,0.039,0.198,0.059
					c0.093,0.093,0.186,0.186,0.278,0.278c0.04,0.08,0.062,0.165,0.062,0.254c-0.007-0.064-0.003-0.132-0.004-0.195
					C182.2,142.59,180.651,142.59,180.653,143.589L180.653,143.589z"/>
				<g>
					<g>
						<path fill="#161514" d="M183.711,139.893c1.612,0,1.612-2.5,0-2.5S182.099,139.893,183.711,139.893L183.711,139.893z"/>
					</g>
				</g>
				<path fill="#161514" d="M177.99,137.121c0,0.127,0,0.254,0,0.38c0,0.999,1.549,0.999,1.549,0c0-0.126,0-0.253,0-0.38
					C179.539,136.121,177.99,136.121,177.99,137.121L177.99,137.121z"/>
				<g>
					<g>
						<path fill="#161514" d="M187.515,179.839c1.612,0,1.612-2.5,0-2.5S185.902,179.839,187.515,179.839L187.515,179.839z"/>
					</g>
				</g>
				<g>
					<g>
						<path fill="#161514" d="M170.015,179.458c1.612,0,1.612-2.5,0-2.5S168.402,179.458,170.015,179.458L170.015,179.458z"/>
					</g>
				</g>
				<g>
					<g>
						<path fill="#161514" d="M182.189,162.338c1.612,0,1.612-2.5,0-2.5S180.577,162.338,182.189,162.338L182.189,162.338z"/>
					</g>
				</g>
				<path fill="#161514" d="M184.458,158.806c0,0.127,0,0.254,0,0.381c0,0.999,1.549,0.999,1.549,0c0-0.127,0-0.254,0-0.381
					C186.007,157.807,184.458,157.807,184.458,158.806L184.458,158.806z"/>
				<g>
					<g>
						<path fill="#161514" d="M211.863,162.338c1.612,0,1.612-2.5,0-2.5S210.251,162.338,211.863,162.338L211.863,162.338z"/>
					</g>
				</g>
				<g>
					<g>
						<path fill="#161514" d="M211.103,168.045c1.612,0,1.612-2.5,0-2.5S209.49,168.045,211.103,168.045L211.103,168.045z"/>
					</g>
				</g>
				<g>
					<g>
						<path fill="#161514" d="M203.874,180.22c1.612,0,1.612-2.5,0-2.5S202.262,180.22,203.874,180.22L203.874,180.22z"/>
					</g>
				</g>
				<path fill="#161514" d="M207.298,177.461c0.127,0,0.254,0,0.381,0c0.998,0,0.998-1.549,0-1.549c-0.127,0-0.254,0-0.381,0
					C206.299,175.912,206.299,177.461,207.298,177.461L207.298,177.461z"/>
				<g>
					<g>
						<path fill="#161514" d="M199.309,142.176c1.612,0,1.612-2.5,0-2.5S197.696,142.176,199.309,142.176L199.309,142.176z"/>
					</g>
				</g>
				<g>
					<g>
						<path fill="#161514" d="M196.265,136.088c1.612,0,1.612-2.5,0-2.5S194.652,136.088,196.265,136.088L196.265,136.088z"/>
					</g>
				</g>
				<g>
					<g>
						<path fill="#161514" d="M207.298,139.132c1.612,0,1.612-2.5,0-2.5S205.686,139.132,207.298,139.132L207.298,139.132z"/>
					</g>
				</g>
				<g>
					<g>
						<path fill="#161514" d="M210.722,131.904c1.612,0,1.612-2.5,0-2.5S209.109,131.904,210.722,131.904L210.722,131.904z"/>
					</g>
				</g>
				<g>
					<g>
						<path fill="#161514" d="M216.048,139.893c1.612,0,1.612-2.5,0-2.5S214.436,139.893,216.048,139.893L216.048,139.893z"/>
					</g>
				</g>
				<g>
					<g>
						<path fill="#161514" d="M216.809,131.523c1.612,0,1.612-2.5,0-2.5S215.196,131.523,216.809,131.523L216.809,131.523z"/>
					</g>
				</g>
				<g>
					<g>
						<path fill="#161514" d="M215.287,123.534c1.612,0,1.612-2.5,0-2.5S213.675,123.534,215.287,123.534L215.287,123.534z"/>
					</g>
				</g>
				<g>
					<g>
						<path fill="#161514" d="M213.004,135.708c1.612,0,1.612-2.5,0-2.5S211.392,135.708,213.004,135.708L213.004,135.708z"/>
					</g>
				</g>
				<g>
					<g>
						<path fill="#161514" d="M213.385,128.859c1.612,0,1.612-2.5,0-2.5S211.772,128.859,213.385,128.859L213.385,128.859z"/>
					</g>
				</g>
				<g>
					<g>
						<path fill="#161514" d="M218.711,136.088c1.612,0,1.612-2.5,0-2.5S217.099,136.088,218.711,136.088L218.711,136.088z"/>
					</g>
				</g>
				<g>
					<g>
						<path fill="#161514" d="M202.353,136.088c1.612,0,1.612-2.5,0-2.5S200.74,136.088,202.353,136.088L202.353,136.088z"/>
					</g>
				</g>
				<g>
					<g>
						<path fill="#161514" d="M173.438,132.284c1.612,0,1.612-2.5,0-2.5S171.826,132.284,173.438,132.284L173.438,132.284z"/>
					</g>
				</g>
				<g>
					<g>
						<path fill="#161514" d="M165.45,129.621c1.612,0,1.612-2.5,0-2.5S163.838,129.621,165.45,129.621L165.45,129.621z"/>
					</g>
				</g>
				<g>
					<g>
						<path fill="#161514" d="M171.537,123.152c1.612,0,1.612-2.5,0-2.5S169.925,123.152,171.537,123.152L171.537,123.152z"/>
					</g>
				</g>
				<g>
					<g>
						<path fill="#161514" d="M179.526,129.24c1.612,0,1.612-2.5,0-2.5S177.914,129.24,179.526,129.24L179.526,129.24z"/>
					</g>
				</g>
				<g>
					<g>
						<path fill="#161514" d="M175.341,115.925c1.612,0,1.612-2.5,0-2.5S173.729,115.925,175.341,115.925L175.341,115.925z"/>
					</g>
				</g>
				<g>
					<g>
						<path fill="#161514" d="M49.797,73.315c1.612,0,1.612-2.5,0-2.5S48.185,73.315,49.797,73.315L49.797,73.315z"/>
					</g>
				</g>
				<g>
					<g>
						<path fill="#161514" d="M44.852,80.164c1.612,0,1.612-2.5,0-2.5S43.239,80.164,44.852,80.164L44.852,80.164z"/>
					</g>
				</g>
				<g>
					<g>
						<path fill="#161514" d="M42.568,87.392c1.612,0,1.612-2.5,0-2.5S40.956,87.392,42.568,87.392L42.568,87.392z"/>
					</g>
				</g>
				<path fill="#161514" d="M39.357,89.352c0.284,0.284,0.641,0.633,1.087,0.485c0.491-0.163,0.615-0.567,0.616-1.032
					c0.002-1-1.547-0.999-1.549,0c0,0.046,0,0.093-0.002,0.14c-0.011,0.156,0.015,0.072,0.078-0.251
					c0.154-0.119,0.308-0.237,0.462-0.356c-0.005,0.002-0.011,0.004-0.018,0.006c0.138,0,0.275,0,0.412,0
					c0.257,0.173,0.325,0.208,0.205,0.105c-0.068-0.06-0.132-0.127-0.196-0.191C39.745,87.55,38.65,88.646,39.357,89.352
					L39.357,89.352z"/>
				<g>
					<g>
						<path fill="#161514" d="M190.938,134.566c1.612,0,1.612-2.5,0-2.5S189.326,134.566,190.938,134.566L190.938,134.566z"/>
					</g>
				</g>
				<g>
					<g>
						<path fill="#161514" d="M196.265,131.904c1.612,0,1.612-2.5,0-2.5S194.652,131.904,196.265,131.904L196.265,131.904z"/>
					</g>
				</g>
				<g>
					<g>
						<path fill="#161514" d="M182.95,135.327c1.612,0,1.612-2.5,0-2.5S181.338,135.327,182.95,135.327L182.95,135.327z"/>
					</g>
				</g>
				<g>
					<g>
						<path fill="#161514" d="M204.635,131.523c1.612,0,1.612-2.5,0-2.5S203.022,131.523,204.635,131.523L204.635,131.523z"/>
					</g>
				</g>
				<g>
					<g>
						<path fill="#161514" d="M201.972,141.795c1.612,0,1.612-2.5,0-2.5S200.359,141.795,201.972,141.795L201.972,141.795z"/>
					</g>
				</g>
				<path fill="#161514" d="M202.732,145.124c0.127,0,0.254,0,0.381,0c0.999,0,0.999-1.55,0-1.55c-0.127,0-0.254,0-0.381,0
					C201.733,143.574,201.733,145.124,202.732,145.124L202.732,145.124z"/>
				<g>
					<g>
						<path fill="#161514" d="M188.656,140.653c1.612,0,1.612-2.5,0-2.5S187.044,140.653,188.656,140.653L188.656,140.653z"/>
					</g>
				</g>
				<g>
					<g>
						<path fill="#161514" d="M217.569,126.958c1.612,0,1.612-2.5,0-2.5S215.957,126.958,217.569,126.958L217.569,126.958z"/>
					</g>
				</g>
				<g>
					<g>
						<path fill="#161514" d="M216.809,115.925c1.612,0,1.612-2.5,0-2.5S215.196,115.925,216.809,115.925L216.809,115.925z"/>
					</g>
				</g>
				<g>
					<g>
						<path fill="#161514" d="M208.819,128.479c1.612,0,1.612-2.5,0-2.5S207.207,128.479,208.819,128.479L208.819,128.479z"/>
					</g>
				</g>
				<g>
					<g>
						<path fill="#161514" d="M175.341,124.294c1.612,0,1.612-2.5,0-2.5S173.729,124.294,175.341,124.294L175.341,124.294z"/>
					</g>
				</g>
				<g>
					<g>
						<path fill="#161514" d="M168.112,129.621c1.612,0,1.612-2.5,0-2.5S166.5,129.621,168.112,129.621L168.112,129.621z"/>
					</g>
				</g>
			</g>
			<path fill="#2E2E2E" d="M224.003,119.875c-2.687-27.028-16.754-52.09-38.035-68.866c-21.705-17.112-49.783-24.213-77.056-20.315
				c-23.637,3.379-45.518,15.745-61.146,33.695c-15.827,18.178-24.415,41.784-24.52,65.832c0.119,27.49,11.385,53.82,31.217,72.862
				c19.861,19.07,47.21,28.948,74.636,27.648c27.238-1.294,53.061-14.171,70.918-34.679
				C218.162,175.21,226.729,147.306,224.003,119.875z M216.597,160.658c-8.539,26.464-28.792,48.104-54.16,59.209
				c-26.381,11.549-57.446,10.212-83.013-2.801c-32.413-16.496-52.923-50.618-53.079-86.847
				c0.122-28.388,12.505-55.301,33.906-73.935c21.628-18.831,51.245-26.871,79.469-22.342c27.587,4.426,52.169,21.145,66.996,44.721
				C221.998,102.962,225.381,133.431,216.597,160.658z"/>
		</g>
		<g>
			<g>
				<path fill="#2E2E2E" d="M99.6,5.72c-0.009-0.646,0.103-1.103,0.332-1.369c0.23-0.267,0.655-0.443,1.274-0.529l2.264-0.314
					c0.206-0.028,0.433,0.001,0.68,0.088c0.247,0.087,0.551,0.268,0.913,0.541c0.217,0.165,0.521,0.458,0.911,0.881
					c0.391,0.424,0.717,0.787,0.978,1.091s0.528,0.631,0.804,0.981c0.275,0.35,0.563,0.739,0.866,1.167
					c0.202,0.296,0.396,0.581,0.58,0.854c0.184,0.274,0.382,0.599,0.596,0.974c0.019-0.569-0.006-1.092-0.071-1.568
					c-0.056-0.397-0.17-0.932-0.344-1.604l-0.201-0.749l-0.151-0.562l-0.396-1.281c-0.205-0.538-0.323-0.926-0.356-1.165
					c-0.028-0.207,0.013-0.317,0.124-0.333l3.931-0.545c0.127-0.018,0.246,0.083,0.358,0.303c0.111,0.219,0.207,0.444,0.288,0.676
					c0.08,0.231,0.187,0.618,0.318,1.158c0.131,0.541,0.224,0.912,0.276,1.115c0.052,0.203,0.159,0.715,0.321,1.534
					c0.162,0.819,0.306,1.674,0.429,2.563l0.4,2.883l0.035,0.432l0.245,2.467c0.207,1.493,0.258,2.53,0.152,3.111
					c-0.105,0.582-0.301,0.892-0.587,0.932l-4.003,0.555c-0.111,0.016-0.215-0.031-0.311-0.139
					c-0.096-0.108-0.233-0.344-0.414-0.708l-0.165-0.317l-0.631-1.394c-0.335-0.779-0.78-1.656-1.336-2.632l-0.828-1.415
					c-0.6-0.937-1.055-1.593-1.366-1.972c-0.312-0.377-0.681-0.707-1.108-0.987l0.152,1.096c0.219,1.573,0.407,2.704,0.568,3.394
					c0.004,0.032,0.167,0.625,0.489,1.777l0.442,1.614l0.047,0.164c0.128,0.338,0.228,0.648,0.299,0.93
					c0.071,0.282,0.117,0.494,0.137,0.637c0.047,0.333-0.01,0.511-0.168,0.533l-4.051,0.562c-0.317,0.044-0.564-0.1-0.739-0.432
					c-0.097-0.229-0.196-0.563-0.298-1.003c-0.101-0.439-0.201-1.016-0.301-1.731l-0.499-2.723l-0.509-3.669
					c-0.128-0.921-0.22-1.872-0.274-2.852s-0.094-1.549-0.115-1.708l0.011-0.099L99.6,5.72z"/>
				<path fill="#2E2E2E" d="M129.532,19.294l-0.844,0.027l-5.53-0.137c-1.058-0.026-1.937-0.497-2.636-1.413
					c-0.761-0.997-1.208-2.396-1.34-4.195c-0.01-0.257-0.016-0.482-0.019-0.674c-0.004-0.193-0.004-0.345-0.001-0.457
					c0.03-1.218,0.244-2.44,0.644-3.666c0.277-0.843,0.594-1.622,0.948-2.334c0.305-0.634,0.631-1.188,0.979-1.66
					c0.53-0.708,1.066-1.292,1.607-1.752c0.541-0.459,1.07-0.795,1.589-1.007c0.794-0.333,1.536-0.491,2.226-0.475
					c0.624,0.016,1.255,0.168,1.889,0.456c0.635,0.289,1.289,0.738,1.964,1.348c0.769,0.709,1.466,1.681,2.094,2.915
					c0.168,0.309,0.327,0.69,0.477,1.143c0.148,0.453,0.289,0.97,0.419,1.55c0.36,1.613,0.526,3.053,0.495,4.319
					c-0.047,1.859-0.503,3.288-1.369,4.285C132.257,18.564,131.06,19.14,129.532,19.294z M124.096,12.423
					c-0.025,1.042,0.164,1.785,0.57,2.228c0.406,0.443,1.074,0.676,2.004,0.699c0.897,0.022,1.534-0.106,1.91-0.386
					s0.671-0.85,0.885-1.71c0.069-0.207,0.108-0.486,0.117-0.839c0.015-0.593-0.1-1.518-0.341-2.775
					c-0.059-0.242-0.105-0.456-0.141-0.641c-0.035-0.185-0.113-0.448-0.232-0.788c-0.21-0.615-0.353-1.011-0.428-1.189
					c-0.076-0.178-0.237-0.487-0.482-0.926c-0.264-0.392-0.563-0.591-0.899-0.6c-0.369-0.009-0.694,0.175-0.977,0.553
					s-0.499,0.718-0.65,1.019c-0.152,0.301-0.349,0.782-0.589,1.441c-0.241,0.66-0.422,1.317-0.542,1.972
					C124.18,11.134,124.111,11.782,124.096,12.423z"/>
				<path fill="#2E2E2E" d="M140.605,3.548c0.108-0.289,0.226-0.494,0.349-0.616c0.123-0.122,0.256-0.168,0.397-0.139l4.074,0.844
					c0.11,0.022,0.144,0.136,0.102,0.34c-0.142,0.527-0.325,1.255-0.55,2.183c-0.226,0.928-0.378,1.588-0.459,1.98
					c-0.084,0.326-0.147,0.592-0.189,0.796c-0.033,0.157-0.062,0.339-0.089,0.546c-0.027,0.208-0.053,0.374-0.079,0.5l-0.03,0.264
					l-0.161,1.612c-0.082,0.786-0.115,1.303-0.101,1.551c0.014,0.249,0.109,0.539,0.286,0.87c0.492-0.242,0.879-0.563,1.158-0.964
					c0.279-0.4,0.646-1.184,1.101-2.351c0.134-0.332,0.258-0.691,0.37-1.078c0.113-0.386,0.229-0.862,0.346-1.427
					c0.08-0.393,0.146-0.764,0.193-1.115c0.048-0.35,0.08-0.605,0.098-0.766c0.078-0.852,0.152-1.45,0.224-1.796
					c0.091-0.439,0.223-0.642,0.396-0.606l4.217,0.873c0.298,0.062,0.405,0.297,0.32,0.705c-0.052,0.251-0.223,0.757-0.51,1.516
					c-0.097,0.226-0.193,0.537-0.292,0.935c-0.099,0.397-0.241,1.043-0.427,1.938l-0.266,1.763l-0.096,0.815l-0.001,0.123
					l-0.054,1.684c-0.004,0.098-0.001,0.221,0.01,0.371c0.01,0.149,0.035,0.318,0.078,0.507c0.1,0.234,0.267,0.334,0.503,0.301
					c0.186-0.027,0.385-0.178,0.598-0.454s0.431-0.717,0.655-1.326l0.648-1.708l0.029-0.141l0.236-0.787
					c0.267-1.287,0.432-2.318,0.493-3.091l0.079-1.924c0.029-0.305,0.123-0.515,0.277-0.63c0.079-0.065,0.158-0.09,0.236-0.074
					l3.84,0.795c0.377,0.078,0.537,0.488,0.482,1.23l-0.116,1.032l0.009,0.076L158.814,9.8c-0.124,0.597-0.284,1.21-0.479,1.841
					c-0.196,0.631-0.482,1.382-0.859,2.254c-0.755,1.744-1.648,3.294-2.684,4.652c-0.793,1.064-1.719,2.092-2.775,3.085
					c-0.896,0.846-1.643,1.208-2.238,1.084c-0.503-0.104-0.913-0.574-1.231-1.409l-0.255-0.667l-0.204-0.558
					c-0.183-0.463-0.3-0.827-0.351-1.092c-0.053-0.265-0.095-0.495-0.128-0.69c-0.033-0.195-0.081-0.381-0.142-0.558
					c-0.021-0.135-0.135-0.224-0.338-0.266c-0.11-0.023-0.246-0.002-0.406,0.063c-0.161,0.065-0.421,0.331-0.779,0.797l-0.681,0.915
					l-0.295,0.356c-0.399,0.507-0.679,0.826-0.837,0.957c-0.64,0.555-1.179,0.788-1.618,0.696c-0.424-0.088-0.846-0.503-1.265-1.245
					l-0.233-0.417l-0.438-0.852l-0.065-0.161c-0.229-0.474-0.434-0.99-0.612-1.552c-0.345-1.103-0.579-2.167-0.702-3.191
					c-0.123-1.024-0.166-2.027-0.126-3.01c0.04-0.982,0.187-2.086,0.44-3.311c0.191-0.926,0.488-2.044,0.891-3.353l0.067-0.207
					L140.605,3.548z"/>
				<path fill="#2E2E2E" d="M159.431,26.473l-0.419,0.031l0.403-0.419c0.332-0.41,0.551-0.766,0.658-1.068
					c0.208-0.59,0.014-1.22-0.583-1.89l-0.27-0.248c-0.065-0.057-0.035-0.166,0.089-0.326c0.031-0.04,0.088-0.08,0.17-0.119
					c0.26-0.112,0.528-0.222,0.805-0.328l0.137-0.028l0.92-0.364l0.788-0.283c0.188-0.052,0.396-0.039,0.624,0.042
					c0.302,0.106,0.574,0.322,0.817,0.646c0.242,0.324,0.383,0.696,0.421,1.118c0.02,0.33-0.048,0.714-0.203,1.153
					c-0.09,0.257-0.175,0.448-0.253,0.574c-0.523,0.904-1.392,1.413-2.606,1.529l-0.464,0.015l-0.152-0.003l-0.761-0.013
					L159.431,26.473z"/>
				<path fill="#2E2E2E" d="M181.955,17.362c0.396-0.498,0.687-0.786,0.876-0.867s0.488-0.011,0.898,0.21l3.452,1.857
					c0.169,0.091,0.175,0.285,0.015,0.582c-0.114,0.212-0.376,0.513-0.785,0.902c-0.411,0.389-0.802,0.812-1.174,1.267
					c-0.552,0.687-1.078,1.496-1.58,2.428c-0.266,0.495-0.529,0.976-0.791,1.445s-0.51,0.923-0.746,1.361
					c-0.189,0.353-0.348,0.646-0.473,0.879s-0.301,0.626-0.525,1.179l-0.774,2.15l-0.14,0.362l-0.234,0.639L179.63,32.8l-0.19,0.607
					l-0.059,0.16c-0.087,0.263-0.193,0.36-0.321,0.292l-4.363-2.348c-0.084-0.045-0.12-0.174-0.106-0.385
					c0.014-0.211,0.1-0.565,0.258-1.063l0.222-0.563l0.887-1.954l0.185-0.393c0.425-0.791,0.922-1.739,1.489-2.845
					c0.568-1.105,0.855-1.666,0.863-1.68l0.51-0.845l0.805-1.343c0.288-0.537,0.557-0.984,0.804-1.343
					c0.291-0.371,0.485-0.631,0.583-0.779L181.955,17.362z"/>
				<path fill="#2E2E2E" d="M189.528,26.399l-0.401-0.087c0.229-0.119,0.393-0.224,0.489-0.314c0.418-0.322,0.709-0.611,0.874-0.867
					c0.339-0.525,0.296-1.183-0.13-1.973l-0.204-0.304c-0.051-0.07,0.004-0.169,0.162-0.296c0.039-0.032,0.104-0.057,0.192-0.076
					c0.279-0.049,0.565-0.093,0.858-0.133l0.153-0.016l0.966-0.121l0.833-0.093c0.217-0.012,0.428,0.047,0.629,0.178
					c0.647,0.417,0.906,1.081,0.777,1.99c-0.016,0.143-0.068,0.313-0.158,0.513c-0.091,0.199-0.197,0.394-0.318,0.582
					c-0.148,0.229-0.271,0.389-0.367,0.479c-0.709,0.745-1.676,1.046-2.901,0.904l-0.455-0.093l-0.147-0.038l-0.724-0.209
					L189.528,26.399z"/>
				<path fill="#2E2E2E" d="M196.329,31.608c1.621-1.905,2.836-3.146,3.643-3.722c0.592-0.423,1.016-0.525,1.272-0.307l2.948,2.51
					c0.269,0.229,0.445,0.454,0.532,0.674c0.085,0.22,0.138,0.581,0.155,1.08c0.002,0.17-0.021,0.388-0.067,0.654
					c-0.048,0.265-0.123,0.595-0.228,0.991l-0.34,1.29l-0.237,0.872l-0.217,0.7l0.461-0.208l0.445-0.189l0.909-0.363
					c0.431-0.16,0.768-0.284,1.012-0.372c0.242-0.087,0.47-0.157,0.683-0.208c0.877-0.264,1.5-0.365,1.869-0.304
					s0.847,0.342,1.433,0.841l2.198,1.871c0.305,0.26,0.283,0.736-0.064,1.43c-0.349,0.693-1.317,1.974-2.908,3.842l-0.559,0.693
					c-0.457,0.538-0.97,1.127-1.538,1.77c-0.568,0.643-0.941,1.068-1.117,1.276l-2.2,2.139c-1.148,1.002-1.903,1.598-2.263,1.786
					c-0.36,0.188-0.688,0.157-0.98-0.092l-3.26-2.775c-0.184-0.156-0.187-0.338-0.01-0.545l1.736-1.112
					c0.107-0.077,0.285-0.211,0.531-0.401c0.609-0.492,1.299-1.105,2.07-1.838c0.371-0.337,0.622-0.576,0.753-0.717
					s0.237-0.261,0.321-0.358c0.354-0.415,0.676-0.793,0.967-1.136c0.291-0.341,0.562-0.648,0.813-0.918
					c0.104-0.122,0.177-0.208,0.218-0.256c0.188-0.22,0.372-0.473,0.554-0.761c-0.612,0.174-1.171,0.373-1.676,0.595
					c-0.825,0.351-1.692,0.812-2.602,1.386c-0.596,0.377-1,0.655-1.213,0.831c-0.578,0.456-0.983,0.722-1.216,0.797
					c-0.322,0.105-0.623,0.039-0.903-0.2c-0.195-0.167-0.435-0.454-0.718-0.864c-0.128-0.172-0.169-0.365-0.123-0.579
					c0.045-0.214,0.21-0.6,0.495-1.158l0.596-1.293l0.243-0.583l0.298-0.757l0.085-0.212l0.257-0.635
					c0.291-0.763,0.457-1.527,0.498-2.292c-0.593,0.548-1.139,1.115-1.638,1.702c-0.562,0.659-1.219,1.542-1.972,2.649l-0.896,1.386
					c-0.4,0.817-0.732,1.466-0.995,1.948s-0.472,0.814-0.628,0.998c-0.26,0.305-0.53,0.338-0.811,0.099l-3.205-2.729
					c-0.172-0.146-0.164-0.402,0.023-0.77c0.264-0.533,0.885-1.373,1.861-2.521l2.058-2.64c0.489-0.574,0.97-1.138,1.442-1.694
					S196.001,31.918,196.329,31.608z"/>
				<path fill="#2E2E2E" d="M222.475,52.829c1.119-0.61,1.896-0.97,2.329-1.078c0.433-0.109,0.709-0.078,0.829,0.093l2.587,3.68
					c0.129,0.184,0.075,0.358-0.161,0.524c-0.092,0.064-0.246,0.124-0.463,0.178l-1.255,0.264c-0.022-0.004-0.137,0.028-0.345,0.095
					c-0.592,0.161-1.005,0.285-1.238,0.371c-0.636,0.211-1.144,0.451-1.524,0.718c-0.249,0.175-0.415,0.35-0.497,0.526
					c-0.083,0.175-0.087,0.315-0.013,0.421c0.129,0.184,0.252,0.352,0.369,0.504c0.117,0.153,0.326,0.402,0.629,0.749
					c0.302,0.346,0.522,0.618,0.66,0.814c0.083,0.118,0.147,0.209,0.193,0.275c0.396,0.564,0.824,0.685,1.284,0.362
					c0.118-0.083,0.235-0.195,0.352-0.335l0.494-0.553l0.085-0.089c0.699-0.845,1.227-1.559,1.582-2.141l0.43-0.684
					c0.091-0.123,0.176-0.211,0.254-0.267c0.17-0.12,0.307-0.108,0.408,0.037l2.559,3.641c0.129,0.184,0.061,0.477-0.205,0.879
					c-0.361,0.547-1.069,1.31-2.127,2.288l-2.388,2.208l-1.08,0.847c-0.46,0.323-0.852,0.608-1.177,0.856
					c-0.326,0.248-0.629,0.48-0.907,0.696c-2.218,1.558-3.688,2.498-4.412,2.821c-0.724,0.322-1.21,0.307-1.459-0.048l-2.572-3.66
					c-0.093-0.131-0.047-0.261,0.138-0.391c0.209-0.147,0.635-0.31,1.275-0.485l1.31-0.479c0.824-0.305,1.335-0.526,1.532-0.665
					c0.971-0.682,1.51-1.071,1.619-1.167c0.475-0.412,0.625-0.909,0.451-1.492c-0.035-0.133-0.107-0.278-0.218-0.435
					c-0.12-0.171-0.29-0.35-0.511-0.538c-0.221-0.188-0.507-0.394-0.859-0.616c-0.528-0.334-1.032-0.5-1.51-0.497
					c-0.479,0.002-1.013,0.211-1.604,0.626c-0.472,0.332-1.04,0.849-1.703,1.55l-0.266,0.333c-0.594,0.829-1.009,1.326-1.244,1.492
					c-0.158,0.111-0.287,0.094-0.389-0.05l-2.6-3.7c-0.083-0.118-0.039-0.306,0.133-0.564s0.476-0.584,0.913-0.98
					s0.78-0.695,1.029-0.899c0.248-0.204,0.72-0.55,1.416-1.039l1.776-1.278c0.827-0.581,1.518-1.056,2.07-1.425
					c0.554-0.37,1.074-0.696,1.562-0.979L222.475,52.829z"/>
				<path fill="#2E2E2E" d="M230.978,87.132c-1.418,0.678-2.5,1.072-3.247,1.182c-0.519,0.07-0.818,0.02-0.901-0.154l-2.058-4.295
					c-0.083-0.174-0.017-0.312,0.2-0.417c0.188-0.09,0.505-0.153,0.95-0.188c0.294-0.017,0.537-0.039,0.728-0.068
					c0.19-0.029,0.43-0.077,0.718-0.144l0.41-0.09l1.048-0.262c0.195-0.04,0.375-0.082,0.541-0.125
					c0.165-0.044,0.342-0.11,0.53-0.201c0.288-0.103,0.476-0.295,0.563-0.577c0.087-0.282,0.048-0.596-0.118-0.943
					c-0.077-0.159-0.193-0.339-0.352-0.539c-0.158-0.2-0.351-0.415-0.575-0.645c-0.227-0.229-0.406-0.41-0.54-0.542
					c-0.502-0.417-0.921-0.679-1.256-0.785s-0.691-0.069-1.067,0.111c-0.361,0.173-0.831,0.567-1.407,1.181l-0.33,0.425
					c-0.258,0.39-0.46,0.674-0.606,0.851s-0.267,0.278-0.359,0.306c-0.188,0.09-0.324,0.048-0.407-0.125l-2.089-4.36
					c-0.049-0.101-0.028-0.235,0.061-0.402s0.294-0.417,0.615-0.748l0.982-0.844c0.487-0.394,1.114-0.774,1.881-1.141
					c0.347-0.166,0.762-0.338,1.246-0.517c0.483-0.179,0.961-0.341,1.434-0.487c0.472-0.146,0.845-0.25,1.118-0.31
					s0.476-0.103,0.604-0.129c0.799-0.152,1.483-0.253,2.055-0.304s1.111-0.065,1.62-0.042c1.362,0.059,2.592,0.27,3.69,0.632
					c0.479,0.145,0.944,0.339,1.399,0.583c1.521,0.764,2.384,1.356,2.584,1.775c0.181,0.376,0.17,1.19-0.03,2.442l-0.335,1.36
					c-0.521,1.583-1.479,3.064-2.872,4.443c-1.394,1.378-3.211,2.604-5.452,3.679L230.978,87.132z M231.835,76.506
					c-0.022,0.064,0.068,0.336,0.271,0.817c0.203,0.48,0.426,0.974,0.669,1.48l0.072,0.152c0.396,0.824,0.831,1.122,1.309,0.894
					c0.188-0.09,0.417-0.28,0.688-0.569l0.668-0.72l0.088-0.096l0.507-0.723c0.25-0.333,0.309-0.637,0.178-0.912
					c-0.077-0.159-0.236-0.278-0.479-0.358c-0.243-0.08-0.607-0.145-1.094-0.196l-1.149-0.116l-0.851,0.061
					c-0.331,0.016-0.568,0.059-0.713,0.127C231.912,76.389,231.857,76.442,231.835,76.506z"/>
				<path fill="#2E2E2E" d="M243.75,88.675c0.639-0.1,1.106-0.055,1.403,0.135c0.296,0.19,0.531,0.586,0.703,1.187l0.631,2.196
					c0.059,0.2,0.062,0.429,0.01,0.686c-0.051,0.257-0.188,0.584-0.406,0.98c-0.132,0.238-0.38,0.58-0.744,1.027
					c-0.363,0.446-0.678,0.82-0.941,1.121s-0.549,0.612-0.857,0.935c-0.308,0.322-0.652,0.663-1.032,1.022
					c-0.265,0.243-0.519,0.475-0.764,0.695s-0.539,0.463-0.88,0.729c0.566-0.062,1.08-0.16,1.543-0.293
					c0.385-0.111,0.898-0.301,1.539-0.567l0.713-0.306l0.535-0.229l1.211-0.573c0.504-0.278,0.872-0.451,1.104-0.518
					c0.199-0.058,0.315-0.032,0.347,0.075l1.096,3.814c0.036,0.124-0.048,0.256-0.249,0.397c-0.201,0.141-0.41,0.268-0.629,0.381
					c-0.217,0.112-0.584,0.272-1.101,0.479c-0.517,0.207-0.871,0.351-1.065,0.432c-0.193,0.081-0.685,0.26-1.473,0.536
					s-1.613,0.538-2.477,0.786l-2.797,0.805l-0.423,0.096l-2.407,0.592c-1.449,0.417-2.469,0.613-3.059,0.592
					c-0.591-0.022-0.926-0.173-1.006-0.45l-1.115-3.884c-0.031-0.107,0-0.217,0.094-0.327c0.093-0.11,0.307-0.28,0.642-0.51
					l0.29-0.208l1.291-0.821c0.724-0.442,1.529-1.007,2.416-1.695l1.283-1.02c0.843-0.727,1.429-1.271,1.759-1.632
					c0.329-0.362,0.604-0.774,0.82-1.237l-1.063,0.306c-1.525,0.438-2.619,0.786-3.279,1.043c-0.031,0.009-0.594,0.254-1.69,0.735
					l-1.535,0.667l-0.155,0.069c-0.316,0.175-0.609,0.317-0.878,0.428s-0.472,0.186-0.61,0.226
					c-0.324,0.093-0.508,0.062-0.553-0.092l-1.129-3.93c-0.089-0.309,0.019-0.573,0.322-0.794c0.214-0.128,0.53-0.273,0.951-0.436
					c0.42-0.162,0.978-0.344,1.671-0.543l2.625-0.879l3.561-1.023c0.894-0.257,1.821-0.482,2.784-0.675
					c0.962-0.193,1.52-0.312,1.674-0.356l0.1-0.003L243.75,88.675z"/>
				<path fill="#2E2E2E" d="M241.845,116.729c0.131,0.016,0.226,0.069,0.285,0.159l2.441,4.214c0.039,0.06,0.064,0.138,0.076,0.233
					c0.02,0.159-0.099,0.29-0.353,0.394c-0.254,0.103-0.569,0.201-0.946,0.294l-1.255,0.441l-0.439,0.174
					c-0.747,0.234-1.439,0.39-2.076,0.466c-1.386,0.165-2.515-0.067-3.39-0.697s-1.572-1.705-2.094-3.226
					c-0.076-0.233-0.143-0.455-0.201-0.667c-0.057-0.211-0.102-0.444-0.131-0.698c-0.156-1.306-0.11-2.409,0.137-3.312
					c0.5-1.755,1.535-3.171,3.102-4.246c0.535-0.388,1.16-0.696,1.876-0.927c0.715-0.23,1.534-0.401,2.458-0.512
					c0.669-0.08,1.389-0.069,2.16,0.032c1.832,0.201,3.305,0.635,4.419,1.301c1.112,0.667,2.048,1.665,2.805,2.996
					c0.345,0.588,0.606,1.19,0.785,1.808c0.179,0.616,0.306,1.243,0.382,1.88c0.058,0.478,0.072,0.944,0.047,1.399
					c-0.039,0.893-0.25,1.596-0.633,2.11c-0.383,0.514-0.868,0.807-1.457,0.877c-0.398,0.048-0.822-0.02-1.271-0.199
					c-0.45-0.181-0.826-0.527-1.13-1.04l-0.124-0.228c-0.312-0.592-0.482-1-0.51-1.223c-0.034-0.287,0.223-0.54,0.77-0.759
					s0.783-0.646,0.707-1.283c-0.027-0.223-0.079-0.455-0.156-0.696s-0.304-0.517-0.68-0.826c-0.377-0.311-0.938-0.615-1.685-0.913
					c-1.034-0.41-2.108-0.548-3.223-0.415c-1.561,0.187-2.769,0.549-3.625,1.088c-0.767,0.479-1.183,1.046-1.25,1.699
					c-0.02,0.245-0.018,0.463,0.005,0.653c0.102,0.844,0.627,1.322,1.577,1.435c0.114,0.019,0.284,0.015,0.507-0.012
					c0.335-0.04,0.627-0.156,0.879-0.348s0.515-0.489,0.79-0.894l0.22-0.39C241.678,116.756,241.745,116.708,241.845,116.729z"/>
				<path fill="#2E2E2E" d="M246.771,127.878c2.308,0.077,3.851,0.234,4.629,0.468c0.619,0.181,0.922,0.496,0.907,0.945l-0.289,8.63
					c-0.009,0.272-0.059,0.552-0.148,0.837c-0.09,0.286-0.245,0.598-0.464,0.936c-0.221,0.337-0.471,0.63-0.752,0.877
					c-0.728,0.649-1.596,0.958-2.605,0.924c-0.24-0.008-0.504-0.041-0.791-0.099c-0.622-0.117-1.219-0.401-1.789-0.854
					c-0.57-0.453-1.208-1.181-1.912-2.183c-0.123-0.148-0.217-0.224-0.281-0.226c-0.096-0.003-0.201,0.025-0.315,0.086l-1.338,1.134
					c-0.198,0.17-0.478,0.361-0.837,0.574c-0.459,0.289-0.958,0.562-1.496,0.816c-0.358,0.181-0.692,0.313-1,0.399
					c-1.394,0.419-2.387,0.618-2.98,0.599c-0.496-0.017-0.74-0.153-0.731-0.41l0.147-4.423l0.081-0.262
					c0.067-0.095,0.214-0.166,0.44-0.214c0.227-0.049,0.953-0.197,2.181-0.445l0.267-0.062c1.232-0.377,2.052-0.653,2.459-0.833
					c0.406-0.179,0.689-0.37,0.85-0.573c0.159-0.203,0.242-0.4,0.248-0.593c0.008-0.209-0.043-0.407-0.148-0.595
					c-0.105-0.188-0.277-0.343-0.514-0.463s-0.556-0.187-0.956-0.2c-0.192-0.006-0.405,0.002-0.639,0.027
					c-0.233,0.023-0.438,0.041-0.615,0.051l-0.942,0.113l-0.17,0.019c-1.13,0.219-1.831,0.323-2.104,0.314
					c-0.209-0.007-0.311-0.066-0.307-0.179l0.168-5.025c0.005-0.16,0.117-0.269,0.336-0.325c0.218-0.058,0.672-0.074,1.361-0.051
					l0.096,0.003h2.888l3.056,0.03l1.418,0.071c0.545,0.019,1.018,0.042,1.417,0.071
					C245.994,127.82,246.386,127.849,246.771,127.878z M246.467,132.634l-1.08-0.084c-0.385-0.013-0.585,0.236-0.603,0.75
					c-0.006,0.176,0.021,0.338,0.08,0.483c0.103,0.276,0.224,0.514,0.361,0.711c0.38,0.622,0.766,1.08,1.157,1.374
					c0.391,0.294,0.787,0.447,1.188,0.461c0.192,0.006,0.395-0.027,0.605-0.101c0.341-0.133,0.612-0.32,0.813-0.562
					c0.2-0.242,0.305-0.499,0.314-0.771c0.021-0.641-0.08-1.113-0.302-1.418c-0.223-0.305-0.63-0.506-1.22-0.606L246.467,132.634z"
					/>
				<path fill="#2E2E2E" d="M246.7,146.212c1.516-0.079,2.619-0.054,3.313,0.075c0.488,0.09,0.825,0.233,1.009,0.431
					s0.249,0.438,0.196,0.722l-0.749,4.044c-0.034,0.189-0.15,0.286-0.347,0.291c-0.196,0.004-0.689-0.066-1.478-0.213l-0.544-0.101
					c-0.521-0.096-0.968-0.146-1.342-0.15s-0.755,0.023-1.141,0.082c-0.672,0.104-1.175,0.224-1.509,0.357
					c-0.511,0.198-0.794,0.456-0.853,0.771c-0.023,0.126,0.016,0.247,0.116,0.364c0.101,0.116,0.235,0.247,0.404,0.393
					c0.169,0.145,0.303,0.26,0.401,0.343l1.021,0.825l0.529,0.318c0.373,0.183,0.721,0.333,1.041,0.449
					c0.321,0.117,0.632,0.203,0.932,0.258c0.394,0.073,0.671,0.116,0.832,0.13c0.16,0.014,0.33,0.021,0.51,0.021
					c0.179,0,0.322,0.06,0.432,0.178c0.108,0.117,0.149,0.248,0.123,0.39l-0.688,3.713c-0.055,0.3-0.203,0.505-0.443,0.615
					s-0.613,0.119-1.118,0.025c-0.315-0.059-0.642-0.144-0.979-0.255c-0.339-0.111-0.744-0.276-1.218-0.494
					c-0.474-0.219-0.937-0.516-1.388-0.894c-0.452-0.377-1.09-0.984-1.913-1.821l-0.513-0.535l-0.814-0.885l-0.479-0.455
					c-1.008-0.986-1.818-1.675-2.432-2.064c-0.612-0.392-1.352-0.667-2.219-0.827l-0.474-0.088l-0.97-0.18
					c-0.772-0.143-1.134-0.349-1.084-0.616l0.771-4.162c0.026-0.143,0.103-0.25,0.231-0.324c0.127-0.074,0.31-0.09,0.546-0.046
					l0.733,0.136c0.567,0.105,1.062,0.254,1.483,0.445c0.421,0.192,0.871,0.447,1.351,0.764c0.479,0.317,0.824,0.545,1.036,0.682
					c0.21,0.137,0.355,0.213,0.435,0.228c0.095,0.017,0.217,0.016,0.368-0.006l2.048-1.284l0.838-0.432
					c0.787-0.377,1.569-0.681,2.346-0.911C245.708,146.329,246.258,146.228,246.7,146.212z"/>
				<path fill="#2E2E2E" d="M229.553,163.053c0.198-0.644,0.599-1.124,1.2-1.442c0.602-0.317,1.224-0.378,1.867-0.18
					c0.644,0.199,1.121,0.594,1.435,1.186c0.312,0.591,0.367,1.216,0.164,1.875c-0.198,0.644-0.593,1.122-1.185,1.435
					s-1.217,0.367-1.875,0.164c-0.659-0.203-1.142-0.6-1.446-1.188S229.354,163.696,229.553,163.053z M244.002,164.437
					c1.532,0.472,2.565,0.85,3.1,1.132c0.533,0.281,0.776,0.499,0.729,0.652l-1.488,4.827c-0.094,0.307-0.333,0.4-0.716,0.282
					c-0.046-0.014-0.142-0.06-0.284-0.138l-1.248-1.014c-0.229-0.188-0.504-0.382-0.828-0.582c-0.324-0.201-0.773-0.457-1.349-0.769
					c-0.098-0.064-0.286-0.16-0.565-0.288s-0.494-0.224-0.643-0.286c-0.731-0.292-1.351-0.517-1.855-0.673
					c-0.322-0.099-0.547-0.16-0.674-0.183c-0.948-0.191-1.621-0.349-2.02-0.471c-0.353-0.109-0.573-0.211-0.661-0.305
					c-0.089-0.095-0.102-0.241-0.04-0.44l0.715-2.321c0.023-0.077,0.076-0.137,0.156-0.179c0.18-0.096,0.536-0.162,1.068-0.199
					c0.121-0.013,0.296-0.01,0.525,0.011c0.533,0.063,1.101,0.129,1.7,0.197l2.015,0.243
					C242.586,164.075,243.373,164.242,244.002,164.437z"/>
			</g>
			<g>
				<path fill="#2E2E2E" d="M13.354,78.072l10.063,4.435l-1.57,3.562c-0.435,0.986-0.889,1.559-1.362,1.713
					c-0.474,0.156-1.258-0.008-2.354-0.492c-1.115-0.49-1.669-1.146-1.661-1.963l-0.021-0.01c-0.632,0.74-1.608,0.818-2.931,0.236
					c-1.066-0.471-1.742-0.969-2.026-1.496c-0.285-0.527-0.243-1.207,0.124-2.041L13.354,78.072z M13.912,79.403l-0.85,1.929
					l-0.354,0.823c-0.306,0.692-0.394,1.194-0.264,1.507c0.129,0.313,0.555,0.628,1.277,0.947c0.899,0.396,1.499,0.531,1.798,0.405
					c0.299-0.126,0.66-0.669,1.083-1.629l1.032-2.341L13.912,79.403z M18.594,81.466l-1.053,2.389
					c-0.334,0.759-0.437,1.297-0.307,1.615s0.586,0.648,1.367,0.992c0.679,0.299,1.159,0.398,1.442,0.295s0.567-0.479,0.854-1.127
					l1.161-2.637L18.594,81.466z"/>
				<path fill="#2E2E2E" d="M17.056,99.315l-0.297,0.947l-7.35-2.306c-1.332-0.419-2.14-0.907-2.423-1.467s-0.21-1.524,0.22-2.894
					c0.402-1.283,0.877-2.092,1.424-2.427c0.548-0.335,1.385-0.326,2.512,0.028l0.354,0.11l7.35,2.307l-0.298,0.946l-7.349-2.306
					c-0.994-0.312-1.658-0.379-1.993-0.2s-0.661,0.774-0.979,1.787c-0.345,1.099-0.436,1.822-0.271,2.171
					c0.163,0.349,0.747,0.681,1.752,0.996L17.056,99.315z"/>
				<path fill="#2E2E2E" d="M4.619,103.506l10.794,2.107l-0.803,4.112c-0.182,0.928-0.538,1.536-1.071,1.826
					c-0.532,0.29-1.365,0.324-2.499,0.104c-0.996-0.194-1.671-0.434-2.023-0.717c-0.352-0.283-0.529-0.728-0.531-1.332l-0.024-0.005
					c-0.263,0.898-1.048,1.221-2.355,0.965l-2.76-0.538l0.19-0.975l2.483,0.484c1.26,0.246,1.975-0.067,2.146-0.94l0.062-0.322
					l0.574-2.941l-4.372-0.854L4.619,103.506z M9.83,105.536l-0.55,2.814c-0.145,0.742-0.103,1.276,0.127,1.601
					c0.229,0.325,0.733,0.563,1.514,0.716c0.976,0.19,1.63,0.215,1.965,0.072c0.334-0.143,0.565-0.543,0.694-1.201l0.615-3.15
					L9.83,105.536z"/>
				<path fill="#2E2E2E" d="M7.627,120.155l-0.319,3.757c-0.285-0.007-0.685-0.032-1.198-0.075c-1.975-0.168-3.18-0.465-3.615-0.893
					c-0.436-0.427-0.584-1.458-0.445-3.094c0.132-1.546,0.492-2.516,1.084-2.909c0.592-0.395,1.853-0.51,3.785-0.346l1.614,0.131
					l0.971,0.089c1.621,0.138,2.679,0.474,3.173,1.01c0.493,0.535,0.677,1.546,0.551,3.032c-0.126,1.489-0.383,2.436-0.771,2.839
					c-0.387,0.402-1.188,0.552-2.402,0.449l-0.418-0.035l0.082-0.97l0.273,0.022c0.894,0.076,1.459-0.023,1.695-0.299
					s0.406-1.032,0.512-2.27c0.097-1.143-0.013-1.872-0.328-2.188c-0.315-0.315-1.153-0.53-2.512-0.646l-1.452-0.136l-1.566-0.126
					c-1.381-0.117-2.242-0.03-2.585,0.263c-0.343,0.292-0.573,1.129-0.69,2.512c-0.09,1.058,0.005,1.725,0.283,2.001
					c0.278,0.275,1.052,0.467,2.32,0.575c0.102,0.008,0.328,0.01,0.679,0.006l0.236-2.788L7.627,120.155z"/>
				<path fill="#2E2E2E" d="M11.657,130.075l-3.745,0.061l0.072,4.466l-1.048,0.018l-0.072-4.466l-4.108,0.066l0.076,4.659
					l-1.048,0.017l-0.092-5.651l10.996-0.179l0.092,5.652l-1.047,0.017L11.657,130.075z"/>
				<path fill="#2E2E2E" d="M2.141,140.906l10.928-1.241l0.472,4.163c0.107,0.939-0.05,1.627-0.471,2.064
					c-0.421,0.437-1.205,0.721-2.353,0.851c-1.008,0.114-1.724,0.09-2.145-0.074c-0.422-0.164-0.725-0.534-0.908-1.11l-0.024,0.003
					c0.02,0.937-0.632,1.479-1.955,1.63l-2.794,0.317l-0.112-0.986l2.514-0.285c1.275-0.146,1.863-0.659,1.763-1.543l-0.037-0.327
					L6.68,141.39l-4.427,0.502L2.141,140.906z M7.721,141.271l0.323,2.85c0.085,0.752,0.286,1.248,0.603,1.488
					c0.316,0.241,0.87,0.316,1.66,0.227c0.986-0.111,1.618-0.286,1.895-0.522c0.275-0.237,0.376-0.688,0.3-1.354l-0.361-3.189
					L7.721,141.271z"/>
				<path fill="#2E2E2E" d="M13.121,158.103l-0.213-0.963c0.865-0.191,1.389-0.429,1.571-0.711s0.179-0.852-0.011-1.707
					c-0.225-1.016-0.48-1.646-0.769-1.89s-0.817-0.281-1.588-0.111c-0.865,0.191-1.367,0.424-1.505,0.696s-0.114,0.986,0.07,2.143
					c0.222,1.355,0.198,2.253-0.073,2.693s-1.018,0.796-2.239,1.066c-1.321,0.292-2.223,0.272-2.703-0.059
					c-0.48-0.332-0.878-1.211-1.194-2.638c-0.273-1.237-0.26-2.104,0.04-2.6s1.043-0.874,2.229-1.137l0.479-0.112l0.213,0.963
					l-0.268,0.06c-0.96,0.212-1.53,0.461-1.712,0.748c-0.182,0.286-0.165,0.914,0.05,1.884c0.246,1.111,0.514,1.77,0.804,1.974
					s0.94,0.194,1.953-0.029c0.655-0.145,1.073-0.328,1.252-0.551c0.179-0.222,0.229-0.615,0.147-1.178l-0.159-1.021l-0.148-0.971
					c-0.196-1.484,0.587-2.421,2.349-2.811c1.222-0.271,2.084-0.238,2.587,0.095s0.895,1.133,1.175,2.4
					c0.284,1.284,0.278,2.163-0.015,2.637C15.147,157.449,14.374,157.825,13.121,158.103z"/>
				<path fill="#2E2E2E" d="M19.112,167.48l0.306,0.85l-12.932,4.655l-0.306-0.849L19.112,167.48z"/>
				<path fill="#2E2E2E" d="M23.091,179.632l-3.429,1.736l1.937,3.823l-0.935,0.474l-1.937-3.824l-4.514,2.286l-0.448-0.886
					l9.811-4.969l2.438,4.813l-0.935,0.473L23.091,179.632z"/>
				<path fill="#2E2E2E" d="M19.115,193.181l9.268-5.922l2.256,3.53c0.509,0.797,0.671,1.484,0.485,2.062s-0.766,1.177-1.738,1.799
					c-0.855,0.547-1.509,0.839-1.959,0.877s-0.886-0.161-1.304-0.597l-0.021,0.013c0.43,0.832,0.083,1.606-1.039,2.324l-2.37,1.514
					l-0.534-0.837l2.132-1.361c1.082-0.691,1.383-1.412,0.904-2.161l-0.177-0.277l-1.614-2.525l-3.754,2.398L19.115,193.181z
					 M24.287,191.054l1.544,2.417c0.407,0.638,0.806,0.995,1.196,1.071c0.391,0.077,0.92-0.098,1.59-0.526
					c0.838-0.535,1.328-0.97,1.472-1.304s0.035-0.783-0.326-1.348l-1.729-2.705L24.287,191.054z"/>
				<path fill="#2E2E2E" d="M35.577,197.774l-8.76,6.648l-0.6-0.791l8.76-6.648L35.577,197.774z"/>
				<path fill="#2E2E2E" d="M38.394,202.948l-2.813,2.474l2.95,3.354l-0.787,0.691l-2.949-3.354l-3.086,2.714l3.077,3.499
					l-0.786,0.691l-3.732-4.244l8.258-7.263l3.733,4.245l-0.787,0.691L38.394,202.948z"/>
				<path fill="#2E2E2E" d="M48.065,215.627l-0.719-0.676c0.607-0.646,0.906-1.137,0.897-1.473s-0.332-0.804-0.972-1.404
					c-0.758-0.712-1.324-1.088-1.7-1.127c-0.375-0.04-0.833,0.229-1.374,0.804c-0.606,0.646-0.89,1.12-0.85,1.423
					c0.039,0.303,0.461,0.88,1.266,1.73c0.947,0.994,1.434,1.749,1.458,2.266s-0.392,1.231-1.248,2.144
					c-0.927,0.986-1.683,1.478-2.266,1.475c-0.584-0.003-1.408-0.504-2.473-1.505c-0.925-0.867-1.402-1.591-1.434-2.169
					s0.368-1.311,1.199-2.195l0.332-0.362l0.719,0.675l-0.188,0.2c-0.673,0.716-1.004,1.244-0.991,1.583
					c0.012,0.339,0.379,0.848,1.103,1.527c0.83,0.78,1.422,1.172,1.776,1.178c0.355,0.005,0.888-0.37,1.597-1.126
					c0.46-0.489,0.701-0.876,0.724-1.16c0.022-0.285-0.158-0.637-0.542-1.057l-0.707-0.753l-0.67-0.718
					c-0.999-1.115-0.881-2.33,0.355-3.646c0.856-0.912,1.586-1.372,2.189-1.381c0.604-0.008,1.378,0.433,2.323,1.32
					c0.959,0.9,1.45,1.629,1.475,2.187C49.372,213.944,48.944,214.691,48.065,215.627z"/>
				<path fill="#2E2E2E" d="M58.297,220.002l0.73,0.53l-8.072,11.125l-0.73-0.53L58.297,220.002z"/>
				<path fill="#2E2E2E" d="M76.785,231.076l-5.089,9.749l-0.88-0.46l4.071-7.799l0.306-0.586l0.158-0.29l0.159-0.289l-0.023-0.013
					l-0.188,0.193c-0.094,0.096-0.155,0.158-0.185,0.186l-0.387,0.379l-6.866,6.677l-0.88-0.459l1.498-9.36l0.081-0.531l0.051-0.264
					c0.008-0.062,0.023-0.148,0.047-0.258l-0.023-0.012l-0.132,0.268l-0.136,0.274l-0.28,0.535l-4.071,7.799l-0.88-0.459l5.09-9.749
					l1.525,0.797l-1.213,7.392l-0.201,1.194l-0.1,0.594l-0.104,0.591l0.022,0.012l0.425-0.424c0.207-0.201,0.349-0.342,0.425-0.423
					l0.867-0.839l5.364-5.233L76.785,231.076z"/>
				<path fill="#2E2E2E" d="M82.662,233.508l-4.125,10.194l-0.92-0.372l4.125-10.195L82.662,233.508z"/>
				<path fill="#2E2E2E" d="M88.419,235.631l-3.022,9.37l4.307,1.389l-0.354,1.097l-5.251-1.694l3.376-10.466L88.419,235.631z"/>
				<path fill="#2E2E2E" d="M98.147,238.427l-1.016,4.693l0.851,0.184l4.544-3.929l1.253,0.271l-5.052,4.33l3.204,6.521
					l-1.329-0.288l-2.842-5.882l-0.851-0.185l-1.089,5.032l-0.971-0.21l2.327-10.749L98.147,238.427z"/>
				<path fill="#2E2E2E" d="M114.359,244.032l-0.979-0.108c0.097-0.881,0.041-1.453-0.167-1.717c-0.209-0.264-0.749-0.443-1.62-0.54
					c-1.033-0.114-1.713-0.074-2.036,0.12c-0.324,0.193-0.529,0.683-0.616,1.468c-0.098,0.881-0.039,1.431,0.174,1.648
					c0.214,0.218,0.897,0.426,2.052,0.624c1.354,0.226,2.196,0.537,2.526,0.936c0.329,0.398,0.426,1.22,0.288,2.464
					c-0.148,1.345-0.457,2.192-0.926,2.54s-1.429,0.441-2.881,0.281c-1.26-0.14-2.076-0.431-2.448-0.874
					c-0.373-0.444-0.492-1.27-0.359-2.476l0.048-0.489l0.98,0.108l-0.03,0.272c-0.108,0.977-0.056,1.597,0.157,1.861
					c0.213,0.264,0.812,0.45,1.799,0.56c1.132,0.125,1.842,0.083,2.128-0.126c0.287-0.209,0.487-0.828,0.602-1.858
					c0.073-0.667,0.034-1.122-0.119-1.363c-0.152-0.24-0.508-0.414-1.067-0.519l-1.018-0.178l-0.967-0.172
					c-1.468-0.292-2.103-1.334-1.904-3.128c0.138-1.244,0.444-2.051,0.922-2.419c0.478-0.369,1.361-0.482,2.651-0.34
					c1.307,0.145,2.138,0.433,2.492,0.863C114.394,241.903,114.501,242.756,114.359,244.032z"/>
				<path fill="#2E2E2E" d="M126.835,241.454l-0.179,10.996l-0.992-0.016l0.083-5.1l-5.144-0.083l-0.082,5.099l-0.992-0.016
					l0.178-10.996l0.992,0.017l-0.078,4.849l5.143,0.084l0.078-4.85L126.835,241.454z"/>
				<path fill="#2E2E2E" d="M138.751,249.171l-4.43,0.466l-0.43,2.387l-1.045,0.109l2.055-11.273l1.385-0.146l4.42,10.594
					l-1.033,0.108L138.751,249.171z M138.364,248.271l-2.645-6.478l-1.214,6.884L138.364,248.271z"/>
				<path fill="#2E2E2E" d="M145.184,239.377l1.007,4.695l0.851-0.183l2.522-5.452l1.254-0.269l-2.82,6.026l5.605,4.624l-1.33,0.285
					l-5.012-4.19l-0.851,0.182l1.079,5.034l-0.971,0.208l-2.306-10.753L145.184,239.377z"/>
				<path fill="#2E2E2E" d="M156.497,237.642l1.146,3.567l4.253-1.366l0.32,0.997l-4.253,1.366l1.257,3.912l4.437-1.426l0.32,0.997
					l-5.382,1.729l-3.363-10.471l5.382-1.729l0.32,0.997L156.497,237.642z"/>
			</g>
			<polygon fill="#CE8045" points="43.977,49.928 35.081,63.449 30.244,49.928 35.081,55.177 			"/>
			<g>
				<polygon fill="#CE8045" points="194.081,216.378 207.425,207.221 206.796,221.566 204.3,214.88 				"/>
			</g>
		</g>
	</g>
	<path fill="#1C1B1A" d="M108.451,87.977c0.396,2.183,1.039,3.195,3.019,3.173c1.979-0.022,3.018-4.149,3.018-4.149L108.451,87.977z
		"/>
</g>
</svg>
