<?xml version="1.0" encoding="utf-8"?>
<!-- Generator: Adobe Illustrator 16.0.0, SVG Export Plug-In . SVG Version: 6.00 Build 0)  -->
<!DOCTYPE svg PUBLIC "-//W3C//DTD SVG 1.1//EN" "http://www.w3.org/Graphics/SVG/1.1/DTD/svg11.dtd">
<svg version="1.1" id="Layer_1" xmlns="http://www.w3.org/2000/svg" xmlns:xlink="http://www.w3.org/1999/xlink" x="0px" y="0px"
	 width="171.748px" height="76.286px" viewBox="-56.416 -16.168 171.748 76.286"
	 enable-background="new -56.416 -16.168 171.748 76.286" xml:space="preserve">
<g>
	<g>
		<g>
			<g>
				<path fill-rule="evenodd" clip-rule="evenodd" fill="#686768" d="M82.208-8.466c-9.538,0-17.299,7.76-17.299,17.299
					c0,3.355,0.953,6.578,2.764,9.375l-2.628,5.789c-0.242,0.533-0.154,1.158,0.226,1.604c0.292,0.342,0.714,0.531,1.149,0.531
					c0.134,0,0.268-0.018,0.4-0.055l7.24-1.986c2.499,1.338,5.303,2.041,8.147,2.041c9.538,0,17.299-7.76,17.299-17.298
					C99.507-0.707,91.746-8.466,82.208-8.466z M82.208,23.109c-2.526,0-5.012-0.672-7.188-1.943
					c-0.233-0.137-0.497-0.207-0.763-0.207c-0.134,0-0.268,0.018-0.399,0.055l-4.729,1.297l1.647-3.629
					c0.224-0.494,0.166-1.068-0.151-1.508c-1.762-2.443-2.693-5.328-2.693-8.341c0-7.873,6.405-14.277,14.277-14.277
					c7.873,0,14.277,6.404,14.277,14.277C96.485,16.705,90.081,23.109,82.208,23.109z"/>
			</g>
			<g>
				<path fill-rule="evenodd" clip-rule="evenodd" fill="#686768" d="M88.858,11.422c-0.724-0.433-1.667-0.917-2.521-0.567
					c-0.654,0.268-1.072,1.293-1.497,1.817c-0.217,0.268-0.478,0.311-0.812,0.176c-2.458-0.98-4.341-2.621-5.697-4.881
					c-0.229-0.352-0.188-0.628,0.088-0.954c0.41-0.482,0.925-1.03,1.035-1.68c0.111-0.65-0.193-1.41-0.463-1.989
					c-0.343-0.74-0.728-1.795-1.468-2.213c-0.682-0.385-1.578-0.17-2.186,0.324c-1.047,0.854-1.553,2.189-1.537,3.515
					c0.004,0.376,0.05,0.752,0.139,1.115c0.211,0.873,0.615,1.689,1.069,2.465c0.343,0.585,0.715,1.152,1.116,1.698
					c1.315,1.786,2.951,3.338,4.845,4.499c0.945,0.578,1.965,1.088,3.021,1.436c1.184,0.391,2.238,0.799,3.516,0.555
					c1.339-0.254,2.657-1.082,3.188-2.371c0.157-0.381,0.236-0.807,0.148-1.211C90.661,12.322,89.533,11.826,88.858,11.422z"/>
			</g>
		</g>
	</g>
</g>
<g>
	<g>
		<g>
			<path fill-rule="evenodd" clip-rule="evenodd" fill="#686768" d="M-32.699,8.968v16.605c0,0.239,0.193,0.433,0.432,0.433h6.167
				c0.239,0,0.433-0.193,0.433-0.433V8.697h4.471c0.225,0,0.412-0.173,0.432-0.396l0.43-5.085c0.021-0.252-0.178-0.469-0.432-0.469
				h-4.9V-0.86c0-0.846,0.686-1.531,1.531-1.531h3.445c0.238,0,0.433-0.193,0.433-0.433v-5.085c0-0.238-0.194-0.433-0.433-0.433
				h-5.822c-3.416,0-6.186,2.77-6.186,6.187v4.902h-3.084c-0.238,0-0.433,0.193-0.433,0.433v5.085c0,0.238,0.194,0.433,0.433,0.433
				h3.084V8.968z"/>
		</g>
	</g>
</g>
<g>
	<g>
		<path fill="#686768" d="M33.911-2.485c-1.164,0-2.106,0.942-2.106,2.105c0,1.164,0.942,2.106,2.106,2.106
			c1.163,0,2.105-0.942,2.105-2.106C36.017-1.543,35.074-2.485,33.911-2.485z M24.547,0.216c-4.879,0-8.849,3.969-8.849,8.848
			s3.97,8.848,8.849,8.848s8.848-3.969,8.848-8.848S29.426,0.216,24.547,0.216z M24.547,14.731c-3.126,0-5.668-2.543-5.668-5.668
			s2.542-5.668,5.668-5.668c3.125,0,5.667,2.543,5.667,5.668S27.672,14.731,24.547,14.731z M42.399,1.71
			c0-5.96-4.832-10.792-10.792-10.792H17.364C11.403-9.082,6.571-4.25,6.571,1.71v14.244c0,5.961,4.832,10.792,10.793,10.792h14.243
			c5.96,0,10.792-4.831,10.792-10.792V1.71z M39.02,15.954c0,4.094-3.318,7.412-7.412,7.412H17.364
			c-4.094,0-7.412-3.318-7.412-7.412V1.71c0-4.094,3.318-7.412,7.412-7.412h14.243c4.094,0,7.412,3.318,7.412,7.412V15.954z"/>
	</g>
</g>
<text transform="matrix(1 0 0 1 -37.2021 50.832)" fill="#686768" font-family="'Montserrat-SemiBold'" font-size="12">@rabbitskinglue</text>
</svg>
