<?xml version="1.0" encoding="utf-8"?>
<!-- Generator: Adobe Illustrator 16.0.0, SVG Export Plug-In . SVG Version: 6.00 Build 0)  -->
<!DOCTYPE svg PUBLIC "-//W3C//DTD SVG 1.1//EN" "http://www.w3.org/Graphics/SVG/1.1/DTD/svg11.dtd">
<svg version="1.1" id="Layer_1" xmlns="http://www.w3.org/2000/svg" xmlns:xlink="http://www.w3.org/1999/xlink" x="0px" y="0px"
	 width="310.606px" height="280.303px" viewBox="0 0 310.606 280.303" enable-background="new 0 0 310.606 280.303"
	 xml:space="preserve">
<g>
	<g>
		<path fill="#3F4142" d="M35.659,116.29l0.638,2.839h0.213l0.604-2.732l11.248-37.752H59.29l-17.563,51.661H31.082L13.554,78.644
			h10.928L35.659,116.29z"/>
		<path fill="#3F4142" d="M93.813,107.597h-19.16v14.76h22.779v7.948h-33.14V78.644h33.069v7.983H74.653v12.986h19.16V107.597z"/>
		<path fill="#3F4142" d="M146.468,130.305h-10.361v-21.466h-21.041v21.466h-10.361V78.644h10.361v22.212h21.041V78.644h10.361
			V130.305z"/>
		<path fill="#3F4142" d="M167.047,130.305h-10.36V78.644h10.36V130.305z"/>
		<path fill="#3F4142" d="M216.047,113.203l0.071,0.213c0.093,5.512-1.587,9.828-5.04,12.95s-8.22,4.684-14.298,4.684
			c-6.198,0-11.201-1.992-15.009-5.979c-3.81-3.985-5.713-9.136-5.713-15.452V99.365c0-6.292,1.857-11.443,5.57-15.453
			c3.714-4.009,8.587-6.014,14.618-6.014c6.293,0,11.213,1.538,14.761,4.613c3.549,3.075,5.274,7.404,5.18,12.986l-0.069,0.213
			h-10.077c0-3.312-0.798-5.777-2.396-7.398c-1.597-1.62-4.063-2.431-7.398-2.431c-3.099,0-5.517,1.248-7.255,3.743
			c-1.739,2.496-2.608,5.719-2.608,9.669v10.325c0,3.974,0.917,7.215,2.749,9.722c1.833,2.508,4.383,3.761,7.647,3.761
			c3.098,0,5.411-0.81,6.937-2.431c1.526-1.62,2.288-4.11,2.288-7.468H216.047z"/>
		<path fill="#3F4142" d="M233.895,122.357h23.134v7.948h-33.494V78.644h10.36V122.357z"/>
		<path fill="#3F4142" d="M293.432,107.597h-19.16v14.76h22.78v7.948h-33.141V78.644h33.069v7.983h-22.709v12.986h19.16V107.597z"/>
	</g>
	<g>
		<path fill="#3F4142" d="M49.568,186.827l1.596,8.339h0.213l1.81-8.339l10.787-36.829h4.293l10.822,36.829l1.739,8.374h0.212
			l1.703-8.374l9.119-36.829h4.612L83.24,201.659h-4.045l-11.673-39.633l-1.277-5.571h-0.213l-1.206,5.571l-11.815,39.633h-4.045
			L35.73,149.998h4.612L49.568,186.827z"/>
		<path fill="#3F4142" d="M109.035,178.312v23.347h-4.258v-51.626h17.208c5.535,0,9.781,1.213,12.738,3.637
			c2.956,2.426,4.435,5.968,4.435,10.627c0,2.745-0.786,5.198-2.359,7.363c-1.573,2.164-3.802,3.742-6.688,4.736
			c3.193,0.805,5.494,2.241,6.901,4.312c1.408,2.069,2.112,4.665,2.112,7.787v4.861c0,1.608,0.189,3.051,0.567,4.329
			c0.379,1.277,1.005,2.318,1.88,3.122v0.852h-4.328c-0.875-0.852-1.49-2.046-1.845-3.584c-0.354-1.537-0.532-3.134-0.532-4.79
			v-4.719c0-3.17-1.024-5.671-3.069-7.504c-2.046-1.834-4.903-2.75-8.569-2.75H109.035z M109.035,174.693h12.454
			c4.66,0,8.066-0.94,10.219-2.82c2.152-1.881,3.229-4.419,3.229-7.611c0-3.406-1.07-6.026-3.211-7.859
			c-2.141-1.833-5.388-2.75-9.74-2.75h-12.951V174.693z"/>
		<path fill="#3F4142" d="M179.325,187.254h-22.674l-5.216,14.405h-4.399l18.983-51.661h4.009l18.841,51.661h-4.399L179.325,187.254
			z M157.999,183.457h19.941l-9.793-27.392h-0.214L157.999,183.457z"/>
		<path fill="#3F4142" d="M201.109,180.192v21.467h-4.257v-51.661h17.812c5.416,0,9.609,1.384,12.578,4.151
			c2.968,2.768,4.452,6.41,4.452,10.928c0,4.59-1.484,8.257-4.452,11c-2.969,2.744-7.162,4.115-12.578,4.115H201.109z
			 M201.109,176.573h13.555c4.257,0,7.45-1.082,9.58-3.246c2.129-2.165,3.193-4.891,3.193-8.179c0-3.312-1.064-6.061-3.193-8.249
			c-2.13-2.188-5.323-3.282-9.58-3.282h-13.555V176.573z"/>
		<path fill="#3F4142" d="M270.794,189.099c0-2.649-1.052-4.837-3.157-6.563s-5.678-3.348-10.716-4.861
			c-5.512-1.514-9.703-3.4-12.577-5.659c-2.875-2.259-4.312-5.328-4.312-9.208c0-3.95,1.608-7.196,4.826-9.74
			c3.216-2.542,7.319-3.813,12.311-3.813c5.252,0,9.475,1.437,12.668,4.312c3.192,2.873,4.741,6.522,4.647,10.945l-0.07,0.213
			h-3.975c0-3.406-1.236-6.232-3.707-8.48c-2.473-2.247-5.659-3.37-9.563-3.37c-4.021,0-7.173,0.952-9.456,2.856
			c-2.281,1.904-3.424,4.239-3.424,7.007c0,2.626,1.035,4.785,3.104,6.476c2.07,1.692,5.719,3.271,10.946,4.737
			c5.441,1.585,9.593,3.536,12.454,5.854c2.863,2.318,4.294,5.393,4.294,9.225c0,4.021-1.674,7.256-5.021,9.705
			c-3.348,2.448-7.564,3.672-12.648,3.672c-5.086,0-9.521-1.295-13.306-3.886c-3.785-2.59-5.619-6.368-5.5-11.336l0.069-0.213h3.939
			c0,3.998,1.502,6.973,4.507,8.924c3.002,1.951,6.434,2.927,10.29,2.927c3.948,0,7.166-0.904,9.649-2.714
			C269.553,194.297,270.794,191.961,270.794,189.099z"/>
	</g>
</g>
</svg>
