<?xml version="1.0" encoding="utf-8"?>
<!-- Generator: Adobe Illustrator 16.0.0, SVG Export Plug-In . SVG Version: 6.00 Build 0)  -->
<!DOCTYPE svg PUBLIC "-//W3C//DTD SVG 1.1//EN" "http://www.w3.org/Graphics/SVG/1.1/DTD/svg11.dtd">
<svg version="1.1" id="Layer_1" xmlns="http://www.w3.org/2000/svg" xmlns:xlink="http://www.w3.org/1999/xlink" x="0px" y="0px"
	 width="169px" height="240px" viewBox="0 0 169 240" enable-background="new 0 0 169 240" xml:space="preserve">
<g>
	<g>
		<g>
			<path fill="#3F4142" d="M111.216,159.83c-8.496-11.175-16.993-22.35-25.49-33.525c-0.926-1.219-3.556-0.045-4.244,0.966
				c-8.673,12.736-17.345,25.473-26.018,38.209c1.075-0.482,2.15-0.966,3.225-1.448c-17.076,0-34.152,0-51.229,0
				c0.32,0.394,0.639,0.787,0.959,1.182c3.896-7.054,7.792-14.107,11.689-21.16c0.4-0.726-0.303-1.182-0.959-1.182
				c-1.58,0-3.16,0-4.74,0c0.357,0.271,0.713,0.543,1.07,0.813c0-26.696,0-53.392,0-80.088c-0.611,0.6-1.223,1.2-1.834,1.8
				c16.72-6.72,33.44-13.439,50.16-20.158c-0.943-0.138-1.886-0.276-2.828-0.414c0,12.013,0,24.026,0,36.04
				c0,1.976,3.742,0.039,4.295-0.635c6.432-7.835,12.864-15.67,19.296-23.505c-1.344,0.408-2.687,0.815-4.031,1.223
				c7.551,8.29,15.103,16.58,22.653,24.869c0.959,1.052,4.398-0.656,4.398-1.975c0-8.89,0-17.78,0-26.671c0-4.174,0-8.348,0-12.522
				c0-1.167-1.513,1.215-0.154,0.166c1.106-0.854,2.212-1.708,3.318-2.562c14.636-11.3,29.271-22.601,43.906-33.901
				c-1.304,0.084-2.607,0.169-3.911,0.254c0,47.333,0,94.666,0,141.998c0,0.933,0,1.866,0,2.799c0.611-0.601,1.223-1.2,1.834-1.8
				c-12.395,5.949-24.789,11.898-37.184,17.849c0.854-0.059,1.71-0.117,2.564-0.175c-2.32-2.235-4.641-4.47-6.961-6.704
				c-1.157-1.114-5.499,1.249-4.135,2.562c2.32,2.235,4.641,4.47,6.961,6.704c0.585,0.563,1.976,0.108,2.564-0.175
				c12.395-5.949,24.789-11.898,37.184-17.849c0.623-0.299,1.834-0.951,1.834-1.8c0-47.333,0-94.666,0-141.998
				c0-0.933,0-1.866,0-2.799c0-1.833-3.312-0.208-3.911,0.254c-14.925,11.524-29.85,23.047-44.774,34.571
				c-0.868,0.67-3.798,2.253-3.798,3.614c0,3.685,0,7.371,0,11.056c0,9.505,0,19.009,0,28.514c1.466-0.658,2.932-1.317,4.398-1.975
				c-7.552-8.29-15.103-16.58-22.654-24.869c-0.918-1.008-3.427,0.487-4.031,1.223c-6.432,7.835-12.864,15.67-19.296,23.505
				c1.432-0.211,2.863-0.423,4.295-0.635c0-12.013,0-24.026,0-36.04c0-1.356-2.174-0.676-2.828-0.414
				c-16.72,6.72-33.44,13.439-50.16,20.158c-0.629,0.253-1.834,0.984-1.834,1.8c0,26.696,0,53.392,0,80.088
				c0,0.592,0.547,0.813,1.07,0.813c1.58,0,3.16,0,4.74,0c-0.32-0.394-0.639-0.787-0.959-1.182
				c-3.896,7.054-7.792,14.107-11.689,21.16c-0.401,0.726,0.303,1.182,0.959,1.182c17.067,0,34.135,0,51.203,0
				c2.805,0,3.931-2.446,5.283-4.432c2.919-4.287,5.838-8.573,8.757-12.86c5.077-7.455,10.153-14.91,15.229-22.365
				c-1.415,0.321-2.83,0.644-4.245,0.966c8.497,11.175,16.994,22.35,25.491,33.525C107.763,163.336,112.116,161.015,111.216,159.83z
				"/>
		</g>
	</g>
	<g>
		<g>
			<path fill="#3F4142" d="M36.599,140.915c-0.122,0.356,10.443,4.577,20.103,8.47l1.809-2.656
				C48.271,143.85,36.723,140.551,36.599,140.915z"/>
			<path fill="#3F4142" d="M35.624,143.462c-0.143,0.336,9.501,5.052,18.62,9.531l1.715-2.519
				C46.248,146.952,35.77,143.12,35.624,143.462z"/>
			<path fill="#3F4142" d="M31.6,106.959c0.248,0.347,12.562-7.62,22.081-13.66V88.8C44.768,96.008,31.331,106.584,31.6,106.959z"/>
			<path fill="#3F4142" d="M34.457,145.948c-0.153,0.297,7.633,4.871,15.686,9.589h2.369l0.978-1.437
				C44.276,149.972,34.623,145.627,34.457,145.948z"/>
			<path fill="#3F4142" d="M37.381,138.31c-0.099,0.379,11.64,4.075,21.86,7.346l1.943-2.854
				C50.419,140.622,37.483,137.919,37.381,138.31z"/>
			<path fill="#3F4142" d="M35.623,114.115c0.135,0.315,9.055-2.917,18.058-6.183v-3.072
				C44.732,109.256,35.483,113.786,35.623,114.115z"/>
			<path fill="#3F4142" d="M71.011,128.369l3.149-4.625c-8.953,1.06-35.611,3.077-35.591,3.655
				C38.588,127.913,60.067,128.047,71.011,128.369z"/>
			<path fill="#3F4142" d="M29.92,104.787c0.302,0.362,14.545-10.466,23.761-17.259v-5.347
				C45.833,89.654,29.586,104.387,29.92,104.787z"/>
			<path fill="#3F4142" d="M64.728,137.597l2.368-3.477c-11.449-0.567-28.674-1.657-28.724-1.198
				C38.324,133.357,53.517,135.73,64.728,137.597z"/>
			<path fill="#3F4142" d="M67.75,133.158l2.679-3.935c-11.103,0.309-31.842,0.443-31.86,0.948
				C38.552,130.645,56.351,132.074,67.75,133.158z"/>
			<path fill="#3F4142" d="M61.904,141.744l2.129-3.128c-11.218-1.409-25.981-3.403-26.059-2.981
				C37.901,136.039,51.141,139.143,61.904,141.744z"/>
			<path fill="#3F4142" d="M33.255,67.137c-2.638,5.492-6.689,13.607-9.733,19.852v3.195c5.38-8.294,14.389-22.777,16.704-25.848
				L33.255,67.137z"/>
			<path fill="#3F4142" d="M42.976,155.537h4.209c-7.351-3.962-13.914-7.462-14.072-7.202
				C32.979,148.556,37.404,151.681,42.976,155.537z"/>
			<path fill="#3F4142" d="M28.091,102.747c0.37,0.384,17.51-14.835,25.589-21.623v-6.725
				C50.909,78.086,27.643,102.283,28.091,102.747z"/>
			<path fill="#3F4142" d="M34.458,111.636c0.167,0.324,9.953-4.085,19.223-8.241v-3.411
				C44.544,105.336,34.282,111.295,34.458,111.636z"/>
			<path fill="#3F4142" d="M23.522,93.966v1.549c5.404-6.817,21.421-29.039,21.895-28.699c0.564,0.403-21.976,31.827-21.429,32.251
				c0.548,0.424,25.306-29.284,25.837-28.841s-24.24,30.14-23.725,30.602c0.491,0.44,24.782-24.714,27.581-26.757V58.929
				l-13.02,5.232C39.33,67.212,27.955,86.043,23.522,93.966z"/>
			<path fill="#3F4142" d="M115.633,46.75v60.615L83.371,71.949L67.313,91.51c0.113-0.034,0.195-0.051,0.208-0.027
				c0.029,0.051-0.205,0.244-0.627,0.538l-7.093,8.64c5.714-2.539,10.163-4.455,10.268-4.233c0.117,0.248-5.322,2.982-11.906,6.229
				l-4.268,5.199c9.11-3.305,18.235-6.615,18.36-6.29c0.247,0.646-35.882,14.44-35.658,15.097
				c0.223,0.654,37.255-10.489,37.455-9.824c0.199,0.661-36.843,11.771-36.668,12.442c0.175,0.669,37.924-7.731,38.074-7.054
				c0.15,0.674-37.607,9.037-37.481,9.72c0.125,0.68,38.39-4.915,38.49-4.228c0.1,0.684-38.169,6.251-38.094,6.941
				c0.063,0.581,27.654-1.332,36.199-1.518l8.8-12.924l33.431,43.969l1.402,1.351l25.249-12.12V25.27L115.633,46.75z"/>
			<path fill="#3F4142" d="M33.118,109.251c0.204,0.334,11.09-5.597,20.563-10.697v-3.878
				C44.497,101.018,32.9,108.895,33.118,109.251z"/>
			<path fill="#3F4142" d="M23.522,74.282c0.599-1.341,1.189-2.663,1.763-3.942l-1.763,0.709V74.282z"/>
			<path fill="#3F4142" d="M23.522,77.725v5.623c2.826-5.233,6.033-11.238,8.483-15.708l-5.261,2.114
				C25.729,72.28,24.62,75.015,23.522,77.725z"/>
			<path fill="#3F4142" d="M28.083,154.84c-0.041,0.042,0.129,0.295,0.448,0.697h0.629C28.527,155.051,28.135,154.786,28.083,154.84
				z"/>
			<path fill="#3F4142" d="M37.218,155.537h2.695c-4.677-2.95-8.187-5.096-8.317-4.912
				C31.482,150.783,33.814,152.762,37.218,155.537z"/>
			<path fill="#3F4142" d="M32.472,155.537h1.595c-2.441-1.76-4.055-2.856-4.154-2.737
				C29.828,152.901,30.822,153.936,32.472,155.537z"/>
		</g>
	</g>
	<g>
		<g>
			<path fill="#3F4142" d="M38.602,129.224c0-12.191-7.63-20.906-15.46-29.24v34.394H34.83l-11.689,21.16h2.278
				C31.883,149.521,38.602,140.18,38.602,129.224z"/>
		</g>
	</g>
	<g>
		<g>
			<path fill="#3F4142" d="M11.151,199.292l3.296-10.685h4.332l3.27,10.685l3.694-10.685h4.492l-6.485,18.579h-3.083L16.6,194.269
				l-4.041,12.918H9.477l-6.485-18.579h4.492L11.151,199.292z"/>
			<path fill="#3F4142" d="M48.495,188.607v3.694h-9.25v3.828h8.32v3.534h-8.32v3.854h9.542v3.668H35.1v-18.579H48.495z"/>
			<path fill="#3F4142" d="M59.486,192.315c-0.399,0.328-0.598,0.762-0.598,1.303c0,0.54,0.243,0.97,0.731,1.289
				c0.487,0.318,1.612,0.695,3.375,1.129c1.763,0.435,3.132,1.086,4.106,1.954s1.462,2.136,1.462,3.801
				c0,1.666-0.624,3.017-1.874,4.054c-1.25,1.036-2.893,1.555-4.931,1.555c-2.941,0-5.591-1.09-7.947-3.27l2.472-3.03
				c2.002,1.755,3.854,2.632,5.555,2.632c0.762,0,1.36-0.164,1.794-0.492c0.434-0.327,0.651-0.771,0.651-1.329
				c0-0.558-0.23-1.001-0.691-1.329c-0.461-0.327-1.374-0.659-2.738-0.996c-2.162-0.514-3.743-1.183-4.744-2.007
				c-1.001-0.824-1.502-2.117-1.502-3.881c0-1.763,0.634-3.123,1.9-4.08s2.849-1.435,4.745-1.435c1.24,0,2.48,0.212,3.721,0.638
				c1.24,0.425,2.321,1.027,3.243,1.808l-2.1,3.029c-1.612-1.223-3.278-1.834-4.997-1.834
				C60.43,191.823,59.885,191.987,59.486,192.315z"/>
			<path fill="#3F4142" d="M82.463,192.195v14.991h-4.146v-14.991h-5.263v-3.588h14.672v3.588H82.463z"/>
			<path fill="#3F4142" d="M97.6,192.315c-0.398,0.328-0.598,0.762-0.598,1.303c0,0.54,0.243,0.97,0.73,1.289
				c0.488,0.318,1.613,0.695,3.376,1.129c1.763,0.435,3.132,1.086,4.106,1.954s1.462,2.136,1.462,3.801
				c0,1.666-0.624,3.017-1.874,4.054c-1.249,1.036-2.893,1.555-4.93,1.555c-2.941,0-5.592-1.09-7.947-3.27l2.472-3.03
				c2.002,1.755,3.854,2.632,5.555,2.632c0.762,0,1.36-0.164,1.794-0.492c0.435-0.327,0.651-0.771,0.651-1.329
				c0-0.558-0.23-1.001-0.69-1.329c-0.461-0.327-1.374-0.659-2.738-0.996c-2.162-0.514-3.743-1.183-4.744-2.007
				c-1.002-0.824-1.502-2.117-1.502-3.881c0-1.763,0.634-3.123,1.9-4.08s2.849-1.435,4.744-1.435c1.24,0,2.48,0.212,3.722,0.638
				c1.24,0.425,2.321,1.027,3.243,1.808l-2.101,3.029c-1.612-1.223-3.278-1.834-4.997-1.834
				C98.544,191.823,97.999,191.987,97.6,192.315z"/>
			<path fill="#3F4142" d="M112.869,188.607h4.146v18.579h-4.146V188.607z"/>
			<path fill="#3F4142" d="M138.438,191.039c1.772,1.622,2.658,3.877,2.658,6.765c0,2.889-0.864,5.175-2.592,6.857
				c-1.728,1.684-4.363,2.525-7.907,2.525h-6.353v-18.579h6.565C134.124,188.607,136.667,189.418,138.438,191.039z M135.396,202.083
				c1.019-0.957,1.528-2.348,1.528-4.173s-0.51-3.229-1.528-4.213c-1.02-0.983-2.583-1.475-4.691-1.475h-2.312v11.296h2.632
				C132.919,203.519,134.376,203.04,135.396,202.083z"/>
			<path fill="#3F4142" d="M160.738,188.607v3.694h-9.249v3.828h8.319v3.534h-8.319v3.854h9.542v3.668h-13.688v-18.579H160.738z"/>
		</g>
		<g>
			<path fill="#3F4142" d="M23.695,228.738c0,1.958-0.855,3.192-2.564,3.702l3.108,4.313h-2.547l-2.836-3.991h-2.632v3.991h-2.004
				v-11.871h4.416c1.811,0,3.108,0.306,3.889,0.917S23.695,227.391,23.695,228.738z M21.029,230.419
				c0.408-0.351,0.612-0.914,0.612-1.689s-0.21-1.308-0.629-1.597s-1.166-0.433-2.241-0.433h-2.548v4.245h2.497
				C19.852,230.945,20.621,230.771,21.029,230.419z"/>
			<path fill="#3F4142" d="M45.009,235.115c-1.2,1.172-2.683,1.758-4.45,1.758c-1.766,0-3.25-0.586-4.449-1.758
				c-1.2-1.172-1.801-2.633-1.801-4.382s0.601-3.21,1.801-4.382c1.2-1.172,2.683-1.758,4.449-1.758c1.767,0,3.25,0.586,4.45,1.758
				c1.2,1.172,1.8,2.633,1.8,4.382S46.209,233.943,45.009,235.115z M43.54,227.685c-0.81-0.838-1.803-1.257-2.98-1.257
				s-2.171,0.419-2.98,1.257s-1.214,1.854-1.214,3.049s0.405,2.211,1.214,3.049s1.803,1.257,2.98,1.257s2.171-0.419,2.98-1.257
				s1.215-1.854,1.215-3.049S44.35,228.522,43.54,227.685z"/>
			<path fill="#3F4142" d="M67.767,235.115c-1.2,1.172-2.684,1.758-4.45,1.758s-3.25-0.586-4.45-1.758s-1.8-2.633-1.8-4.382
				s0.6-3.21,1.8-4.382s2.684-1.758,4.45-1.758s3.25,0.586,4.45,1.758s1.8,2.633,1.8,4.382S68.967,233.943,67.767,235.115z
				 M66.298,227.685c-0.81-0.838-1.804-1.257-2.981-1.257s-2.171,0.419-2.98,1.257c-0.81,0.838-1.214,1.854-1.214,3.049
				s0.405,2.211,1.214,3.049c0.809,0.838,1.803,1.257,2.98,1.257s2.171-0.419,2.981-1.257c0.809-0.838,1.214-1.854,1.214-3.049
				S67.107,228.522,66.298,227.685z"/>
			<path fill="#3F4142" d="M82.593,226.751v3.261h5.265v1.851h-5.265v4.892h-2.004v-11.871h7.914l-0.017,1.868H82.593z"/>
			<path fill="#3F4142" d="M99.338,224.883h2.004v11.871h-2.004V224.883z"/>
			<path fill="#3F4142" d="M122.027,224.883h2.004v11.871h-2.174l-6.725-8.661v8.661h-2.004v-11.871h2.004l6.895,8.865V224.883z"/>
			<path fill="#3F4142" d="M144.037,230.979h2.005v4.06c-1.121,1.233-2.724,1.851-4.807,1.851c-1.755,0-3.224-0.577-4.407-1.732
				c-1.184-1.154-1.774-2.615-1.774-4.382c0-1.766,0.603-3.237,1.809-4.415s2.663-1.767,4.373-1.767s3.131,0.499,4.263,1.495
				l-1.07,1.528c-0.464-0.396-0.931-0.671-1.4-0.824c-0.471-0.152-1.017-0.229-1.639-0.229c-1.201,0-2.208,0.388-3.023,1.163
				s-1.223,1.795-1.223,3.057c0,1.263,0.396,2.276,1.188,3.04c0.792,0.765,1.752,1.146,2.879,1.146c1.126,0,2.069-0.243,2.827-0.73
				V230.979z"/>
		</g>
		<g>
			<polygon fill="#3F4142" points="2.525,216.677 81.712,216.677 81.856,216.336 2.525,216.336 			"/>
			<polygon fill="#3F4142" points="86.232,216.336 86.377,216.677 165.563,216.677 165.563,216.336 			"/>
			<polygon fill="#3F4142" points="84.45,215.422 84.01,214.662 83.571,215.422 83.057,216.314 82.616,217.077 85.405,217.077 
				84.963,216.314 			"/>
		</g>
	</g>
</g>
</svg>
