<?xml version="1.0" encoding="utf-8"?>
<!-- Generator: Adobe Illustrator 16.0.0, SVG Export Plug-In . SVG Version: 6.00 Build 0)  -->
<!DOCTYPE svg PUBLIC "-//W3C//DTD SVG 1.1//EN" "http://www.w3.org/Graphics/SVG/1.1/DTD/svg11.dtd">
<svg version="1.1" id="Layer_1" xmlns="http://www.w3.org/2000/svg" xmlns:xlink="http://www.w3.org/1999/xlink" x="0px" y="0px"
	 width="175.898px" height="22.664px" viewBox="41.917 0 175.898 22.664" enable-background="new 41.917 0 175.898 22.664"
	 xml:space="preserve">
<g>
	<path fill="#93AF80" d="M44.168,12.545c-0.617-2.005-1.404-4.01-2.19-5.995c-0.477-1.125,1.994-1.923,2.668-0.818
		c0.954,1.637,1.937,3.253,2.751,4.931l0.506,1.105c0.337-0.43,0.646-0.859,0.954-1.289c1.067-1.514,1.629-3.806,3.679-4.788
		c0.785-0.368,1.824-0.082,2.302,0.45c1.488,1.657-0.225,3.887-1.264,5.442c-1.235,1.861-2.583,3.725-3.959,5.545
		c-0.786,1.023-3.284,1.165-3.986,0C44.701,15.654,44.646,14.1,44.168,12.545z"/>
	<path fill="#93AF80" d="M59.774,17.046c0-2.21,0.983-4.337,1.18-6.526c0.168-1.964-0.112-3.908,1.038-5.749
		c0.253-0.409,0.871-0.512,1.376-0.409c1.629-0.573,3.565-0.635,5.307-0.41c0.814,0.103,1.264,0.757,1.151,1.289
		c-0.112,0.593-0.786,0.921-1.545,0.982c-1.348,0.103-2.667-0.143-4.015-0.143c-0.028,1.657,0.169,3.293,0.028,4.951
		c0,0.061,0,0.102-0.028,0.184c0.337-0.082,0.702-0.143,1.039-0.123c1.207,0,1.938,1.146,1.011,1.78
		c-0.646,0.45-1.544,0.593-2.471,0.635c-0.112,0.675-0.281,1.371-0.337,2.046c0.843-0.104,1.628-0.245,2.526-0.369
		c1.966-0.266,3.51,1.821,1.433,2.517c-1.938,0.654-4.184,1.002-6.317,0.676C60.364,18.253,59.774,17.598,59.774,17.046z"/>
	<path fill="#93AF80" d="M78.864,17.722c0.056-1.146,0.561-2.272,0.701-3.438c0.084-0.737,0.112-1.474,0.112-2.189
		c-0.673,0.041-1.348,0.021-2.021,0c0.112,1.719,0.421,4.398-1.403,5.523c-1.124,0.717-2.752,0.225-2.864-0.859
		c-0.084-0.858,0.393-1.739,0.478-2.619c0.084-1.022,0.056-2.045,0.027-3.048C73.866,8.78,73.585,6.08,74.568,3.87
		c0.364-0.839,1.965-0.839,2.357,0c0.871,1.984,0.73,4.296,0.702,6.444c0.674-0.061,1.349-0.123,1.966-0.286
		c-0.141-2.148-0.477-4.378,0.169-6.506c0.308-0.941,2.301-0.921,2.61,0c0.814,2.455,1.067,5.074,1.291,7.569
		c0.225,2.292,0.562,5.32-1.122,7.365C81.587,19.644,78.808,19.194,78.864,17.722z"/>
	<path fill="#93AF80" d="M87.761,15.511c0.842-1.861,0.701-3.907,1.011-5.83c0.28-1.698,0.617-3.417,0.983-5.095
		c0.056-0.368,0.785-0.572,1.178-0.368c1.938,1.003,1.797,3.765,1.769,5.278c-0.028,2.169,0.647,4.849-0.532,6.895
		C91.073,18.293,86.834,17.577,87.761,15.511z"/>
	<path fill="#93AF80" d="M97.107,14.223c-0.589-2.415,0.226-4.869,2.583-6.67c1.881-1.432,5.475-3.028,7.412-0.818
		c0.843,0.961-0.954,1.739-2.021,1.125c-0.842-0.511-3.51,2.189-3.732,2.599c-0.591,1.002-0.619,2.107-0.281,3.171
		c0.225,0.777,0.617,2.005,1.516,2.578c0.056,0.041,0.084,0.062,0.141,0.081c0.561-0.184,1.207-1.043,1.656-1.35
		c0.926-0.654,3.004-0.245,2.808,0.839c-0.366,2.065-2.864,4.439-6.036,3.375C98.708,18.335,97.558,16.003,97.107,14.223z"/>
	<path fill="#93AF80" d="M111.479,15.818c-1.123-3.171,0.533-6.711,0.898-9.861c0.112-1.084,2.247-1.105,2.33,0
		c0.196,2.332,0.141,4.685,0.365,7.038c0.057,0.49,0.394,1.145,0.281,1.637c0.084,0.102,0.112,0.163,0.141,0.225
		c1.037,0.123,2.161-0.021,3.256,0.082c1.91,0.225,1.825,2.496,0,2.762C115.915,18.109,112.378,18.376,111.479,15.818z"/>
	<path fill="#93AF80" d="M124.505,17.046c0-2.21,0.982-4.337,1.178-6.526c0.169-1.964-0.111-3.908,1.039-5.749
		c0.253-0.409,0.87-0.512,1.377-0.409c1.628-0.573,3.565-0.635,5.306-0.41c0.814,0.103,1.263,0.757,1.151,1.289
		c-0.112,0.593-0.787,0.921-1.545,0.982c-1.347,0.103-2.667-0.143-4.014-0.143c-0.028,1.657,0.168,3.293,0.027,4.951
		c0,0.061,0,0.102-0.027,0.184c0.336-0.082,0.701-0.143,1.039-0.123c1.206,0,1.936,1.146,1.011,1.78
		c-0.647,0.45-1.546,0.593-2.472,0.635c-0.113,0.675-0.28,1.371-0.336,2.046c0.842-0.104,1.628-0.245,2.526-0.369
		c1.966-0.266,3.509,1.821,1.431,2.517c-1.938,0.654-4.183,1.002-6.316,0.676C125.094,18.253,124.505,17.598,124.505,17.046z"/>
	<path fill="#93AF80" d="M149.487,17.107c-0.842-1.534-1.067-3.171-1.403-4.788c-0.281-1.493-0.898-2.966-1.123-4.48
		c-0.141-0.859,1.487-1.187,2.217-0.675c1.687,1.166,2.5,2.926,3.062,4.746c0.309-0.45,0.673-0.859,1.264-1.186
		c0.982-0.573,2.357-0.389,2.779,0.532l0.168,0.368c0.253-0.511,0.478-1.023,0.73-1.493c0.898-1.719,2.077-3.273,2.499-5.095
		c0.392-1.637,4.042-1.228,3.901,0.368c-0.167,2.21-1.769,4.051-2.779,6.076c-0.814,1.637-1.572,3.355-3.285,4.645
		c-0.87,0.655-2.61,0.532-3.199-0.307c-0.028-0.062-0.057-0.103-0.113-0.164c-0.141,0.654-0.365,1.248-0.813,1.821
		C152.407,18.744,150.104,18.293,149.487,17.107z"/>
	<path fill="#93AF80" d="M167.761,17.128c0.028-1.433,0.169-2.885,0.281-4.317c-0.619-0.45-0.955-1.187-0.394-1.719
		c0.169-0.164,0.365-0.307,0.534-0.45c0.083-1.105,0.252-2.271,0.758-3.314c-0.758-0.348-0.842-1.35,0.279-1.555
		c2.724-0.532,7.75-0.716,7.609,2.312c-0.084,1.167-1.151,2.046-2.386,2.721c-0.506,0.286-1.292,0.552-2.021,0.839
		c1.797,0.94,3.509,1.964,5.193,3.008c1.713,1.063-0.589,3.232-2.442,2.291c-1.039-0.553-2.05-1.166-3.032-1.78
		c-0.028,0.819-0.141,1.617-0.448,2.354C171.017,19.071,167.677,18.826,167.761,17.128z M173.404,7.532
		c-0.169-0.205-0.506-0.307-0.898-0.348l-0.169,1.555C172.898,8.494,173.825,8.044,173.404,7.532z"/>
	<path fill="#93AF80" d="M189.264,16.351c-0.729,0.02-1.459,0.04-2.133,0.163c-0.534,0.103-1.011,0-1.349-0.226
		c-0.279,0.594-0.561,1.146-0.926,1.658c-0.562,0.838-2.33,0.572-2.668-0.267c-0.758-2.025,1.096-4.235,1.518-6.219
		c0.364-1.739,0.393-3.642,1.823-5.135c0.76-0.777,2.275-0.839,3.005,0c1.685,1.862,2.583,4.01,3.229,6.158
		c0.589,1.902,1.852,4.379,1.403,6.322c-0.169,0.716-1.685,1.002-2.302,0.45C189.967,18.478,189.545,17.435,189.264,16.351z
		 M188.646,13.752c-0.028-0.042-0.028-0.082-0.028-0.103c-0.337-1.104-0.701-2.189-1.207-3.232c-0.085,0.655-0.14,1.309-0.28,1.923
		c-0.141,0.553-0.31,1.125-0.478,1.719C187.243,13.854,187.945,13.752,188.646,13.752z"/>
	<path fill="#93AF80" d="M197.065,16.493c0.281-1.76,1.096-3.376,1.208-5.176c0.141-1.801,0.196-3.581,0.505-5.36
		c0.112-0.655,0.787-1.023,1.461-1.084c0.027-0.021,0.027-0.021,0.056-0.021c1.656-0.491,3.874-0.368,4.8,0.921
		c0.703,0.961,0.562,2.209-0.308,3.11c-0.591,0.613-1.544,1.166-2.639,1.166h-0.169c0,0.675,0,1.35-0.028,2.025
		c-0.141,1.78-0.31,3.866-1.909,5.319C199.115,18.212,196.87,17.558,197.065,16.493z M202.794,7.9
		c0.225-0.348,0.337-1.166,0.168-1.33c-0.394-0.389-1.235-0.266-1.32-0.266l0.085,1.862C202.092,8.084,202.568,8.248,202.794,7.9z"
		/>
	<path fill="#93AF80" d="M209.614,15.02c0.084-0.88,1.431-1.636,2.582-1.063c0.364,0.184,0.73,0.512,1.122,0.655
		c0.675,0.245,0.562,0.43,0.815-0.103c0.309-0.716-0.87-2.005-1.348-2.619c-1.039-1.391-2.358-2.782-2.358-4.439
		c0-1.78,2.611-4.992,5.194-2.844c0.561,0.491,0.196,1.289-0.73,1.289c-2.387,0.021,0.73,4.03,1.122,4.624
		c0.955,1.391,2.135,3.15,1.714,4.767C216.886,18.457,209.333,18.457,209.614,15.02z"/>
</g>
</svg>
